<?xml version="1.0" encoding="UTF-8"?>
<!--Generator: Apple Native CoreSVG 232.5-->
<!DOCTYPE svg
PUBLIC "-//W3C//DTD SVG 1.1//EN"
       "http://www.w3.org/Graphics/SVG/1.1/DTD/svg11.dtd">
<svg version="1.1" xmlns="http://www.w3.org/2000/svg" xmlns:xlink="http://www.w3.org/1999/xlink" width="3300" height="2200">
 <!--glyph: "", point size: 100.0, font version: "19.0d6e1", template writer version: "123"-->
 <style>.monochrome-0 {}
.monochrome-1 {}

.multicolor-0:tintColor {}
.multicolor-1:tintColor {}

.hierarchical-0:secondary {}
.hierarchical-1:primary {}

.SFSymbolsPreview007AFF {fill:#007AFF;opacity:1.0}
.SFSymbolsPreviewNone {fill:none;opacity:1.0}
</style>
 <g id="Notes">
  <rect height="2200" id="artboard" style="fill:white;opacity:1" width="3300" x="0" y="0"/>
  <line style="fill:none;stroke:black;opacity:1;stroke-width:0.5;" x1="263" x2="3036" y1="292" y2="292"/>
  <text style="stroke:none;fill:black;font-family:sans-serif;font-size:13;font-weight:bold;" transform="matrix(1 0 0 1 263 322)">Weight/Scale Variations</text>
  <text style="stroke:none;fill:black;font-family:sans-serif;font-size:13;text-anchor:middle;" transform="matrix(1 0 0 1 559.711 322)">Ultralight</text>
  <text style="stroke:none;fill:black;font-family:sans-serif;font-size:13;text-anchor:middle;" transform="matrix(1 0 0 1 856.422 322)">Thin</text>
  <text style="stroke:none;fill:black;font-family:sans-serif;font-size:13;text-anchor:middle;" transform="matrix(1 0 0 1 1153.13 322)">Light</text>
  <text style="stroke:none;fill:black;font-family:sans-serif;font-size:13;text-anchor:middle;" transform="matrix(1 0 0 1 1449.84 322)">Regular</text>
  <text style="stroke:none;fill:black;font-family:sans-serif;font-size:13;text-anchor:middle;" transform="matrix(1 0 0 1 1746.56 322)">Medium</text>
  <text style="stroke:none;fill:black;font-family:sans-serif;font-size:13;text-anchor:middle;" transform="matrix(1 0 0 1 2043.27 322)">Semibold</text>
  <text style="stroke:none;fill:black;font-family:sans-serif;font-size:13;text-anchor:middle;" transform="matrix(1 0 0 1 2339.98 322)">Bold</text>
  <text style="stroke:none;fill:black;font-family:sans-serif;font-size:13;text-anchor:middle;" transform="matrix(1 0 0 1 2636.69 322)">Heavy</text>
  <text style="stroke:none;fill:black;font-family:sans-serif;font-size:13;text-anchor:middle;" transform="matrix(1 0 0 1 2933.4 322)">Black</text>
  <line style="fill:none;stroke:black;opacity:1;stroke-width:0.5;" x1="263" x2="3036" y1="1903" y2="1903"/>
  <g transform="matrix(0.2 0 0 0.2 263 1933)">
   <path d="m46.2402 4.15039c21.5332 0 39.4531-17.8711 39.4531-39.4043s-17.9688-39.4043-39.502-39.4043c-21.4844 0-39.3555 17.8711-39.3555 39.4043s17.9199 39.4043 39.4043 39.4043Zm0-7.42188c-17.7246 0-31.8848-14.209-31.8848-31.9824s14.1113-31.9824 31.8359-31.9824c17.7734 0 32.0312 14.209 32.0312 31.9824s-14.209 31.9824-31.9824 31.9824Zm-17.9688-31.9824c0 2.14844 1.51367 3.61328 3.75977 3.61328h10.498v10.5957c0 2.19727 1.46484 3.71094 3.61328 3.71094 2.24609 0 3.71094-1.51367 3.71094-3.71094v-10.5957h10.5957c2.19727 0 3.71094-1.46484 3.71094-3.61328 0-2.19727-1.51367-3.71094-3.71094-3.71094h-10.5957v-10.5469c0-2.24609-1.46484-3.75977-3.71094-3.75977-2.14844 0-3.61328 1.51367-3.61328 3.75977v10.5469h-10.498c-2.24609 0-3.75977 1.51367-3.75977 3.71094Z"/>
  </g>
  <g transform="matrix(0.2 0 0 0.2 281.506 1933)">
   <path d="m58.5449 14.5508c27.2461 0 49.8047-22.6074 49.8047-49.8047 0-27.2461-22.6074-49.8047-49.8535-49.8047-27.1973 0-49.7559 22.5586-49.7559 49.8047 0 27.1973 22.6074 49.8047 49.8047 49.8047Zm0-8.30078c-23.0469 0-41.4551-18.457-41.4551-41.5039s18.3594-41.5039 41.4062-41.5039 41.5527 18.457 41.5527 41.5039-18.457 41.5039-41.5039 41.5039Zm-22.6562-41.5039c0 2.39258 1.66016 4.00391 4.15039 4.00391h14.3555v14.4043c0 2.44141 1.66016 4.15039 4.05273 4.15039 2.44141 0 4.15039-1.66016 4.15039-4.15039v-14.4043h14.4043c2.44141 0 4.15039-1.61133 4.15039-4.00391 0-2.44141-1.70898-4.15039-4.15039-4.15039h-14.4043v-14.3555c0-2.49023-1.70898-4.19922-4.15039-4.19922-2.39258 0-4.05273 1.70898-4.05273 4.19922v14.3555h-14.3555c-2.49023 0-4.15039 1.70898-4.15039 4.15039Z"/>
  </g>
  <g transform="matrix(0.2 0 0 0.2 304.924 1933)">
   <path d="m74.8535 28.3203c34.8145 0 63.623-28.8086 63.623-63.5742 0-34.8145-28.8574-63.623-63.6719-63.623-34.7656 0-63.5254 28.8086-63.5254 63.623 0 34.7656 28.8086 63.5742 63.5742 63.5742Zm0-9.08203c-30.1758 0-54.4434-24.3164-54.4434-54.4922 0-30.2246 24.2188-54.4922 54.3945-54.4922 30.2246 0 54.541 24.2676 54.541 54.4922 0 30.1758-24.2676 54.4922-54.4922 54.4922Zm-28.8574-54.4922c0 2.58789 1.85547 4.39453 4.58984 4.39453h19.7266v19.7754c0 2.68555 1.85547 4.58984 4.44336 4.58984 2.68555 0 4.54102-1.85547 4.54102-4.58984v-19.7754h19.7754c2.68555 0 4.58984-1.80664 4.58984-4.39453 0-2.73438-1.85547-4.58984-4.58984-4.58984h-19.7754v-19.7266c0-2.73438-1.85547-4.63867-4.54102-4.63867-2.58789 0-4.44336 1.9043-4.44336 4.63867v19.7266h-19.7266c-2.73438 0-4.58984 1.85547-4.58984 4.58984Z"/>
  </g>
  <text style="stroke:none;fill:black;font-family:sans-serif;font-size:13;font-weight:bold;" transform="matrix(1 0 0 1 263 1953)">Design Variations</text>
  <text style="stroke:none;fill:black;font-family:sans-serif;font-size:13;" transform="matrix(1 0 0 1 263 1971)">Symbols are supported in up to nine weights and three scales.</text>
  <text style="stroke:none;fill:black;font-family:sans-serif;font-size:13;" transform="matrix(1 0 0 1 263 1989)">For optimal layout with text and other symbols, vertically align</text>
  <text style="stroke:none;fill:black;font-family:sans-serif;font-size:13;" transform="matrix(1 0 0 1 263 2007)">symbols with the adjacent text.</text>
  <line style="fill:none;stroke:#00AEEF;stroke-width:0.5;opacity:1.0;" x1="776" x2="776" y1="1919" y2="1933"/>
  <g transform="matrix(0.2 0 0 0.2 776 1933)">
   <path d="m16.5527 0.78125c2.58789 0 3.85742-0.976562 4.78516-3.71094l6.29883-17.2363h28.8086l6.29883 17.2363c0.927734 2.73438 2.19727 3.71094 4.73633 3.71094 2.58789 0 4.24805-1.5625 4.24805-4.00391 0-0.830078-0.146484-1.61133-0.537109-2.63672l-22.9004-60.9863c-1.12305-2.97852-3.125-4.49219-6.25-4.49219-3.02734 0-5.07812 1.46484-6.15234 4.44336l-22.9004 61.084c-0.390625 1.02539-0.537109 1.80664-0.537109 2.63672 0 2.44141 1.5625 3.95508 4.10156 3.95508Zm13.4766-28.3691 11.8652-32.8613h0.244141l11.8652 32.8613Z"/>
  </g>
  <line style="fill:none;stroke:#00AEEF;stroke-width:0.5;opacity:1.0;" x1="792.836" x2="792.836" y1="1919" y2="1933"/>
  <text style="stroke:none;fill:black;font-family:sans-serif;font-size:13;font-weight:bold;" transform="matrix(1 0 0 1 776 1953)">Margins</text>
  <text style="stroke:none;fill:black;font-family:sans-serif;font-size:13;" transform="matrix(1 0 0 1 776 1971)">Leading and trailing margins on the left and right side of each symbol</text>
  <text style="stroke:none;fill:black;font-family:sans-serif;font-size:13;" transform="matrix(1 0 0 1 776 1989)">can be adjusted by modifying the x-location of the margin guidelines.</text>
  <text style="stroke:none;fill:black;font-family:sans-serif;font-size:13;" transform="matrix(1 0 0 1 776 2007)">Modifications are automatically applied proportionally to all</text>
  <text style="stroke:none;fill:black;font-family:sans-serif;font-size:13;" transform="matrix(1 0 0 1 776 2025)">scales and weights.</text>
  <g transform="matrix(0.2 0 0 0.2 1289 1933)">
   <path d="m14.209 9.32617 8.49609 8.54492c4.29688 4.3457 9.22852 4.05273 13.8672-1.07422l53.4668-58.9355-4.83398-4.88281-53.0762 58.3984c-1.75781 2.00195-3.41797 2.49023-5.76172 0.146484l-5.85938-5.81055c-2.34375-2.29492-1.80664-4.00391 0.195312-5.81055l57.373-54.0039-4.88281-4.83398-57.959 54.4434c-4.93164 4.58984-5.32227 9.47266-1.02539 13.8184Zm32.0801-90.9668c-2.09961 2.05078-2.24609 4.93164-1.07422 6.88477 1.17188 1.80664 3.4668 2.97852 6.68945 2.14844 7.32422-1.70898 14.9414-2.00195 22.0703 2.68555l-2.92969 7.27539c-1.70898 4.15039-0.830078 7.08008 1.85547 9.81445l11.4746 11.5723c2.44141 2.44141 4.49219 2.53906 7.32422 2.05078l5.32227-0.976562 3.32031 3.36914-0.195312 2.7832c-0.195312 2.49023 0.439453 4.39453 2.88086 6.78711l3.80859 3.71094c2.39258 2.39258 5.46875 2.53906 7.8125 0.195312l14.5508-14.5996c2.34375-2.34375 2.24609-5.32227-0.146484-7.71484l-3.85742-3.80859c-2.39258-2.39258-4.24805-3.17383-6.64062-2.97852l-2.88086 0.244141-3.22266-3.17383 1.2207-5.61523c0.634766-2.83203-0.146484-5.0293-3.07617-7.95898l-10.9863-10.9375c-16.6992-16.6016-38.8672-16.2109-53.3203-1.75781Zm7.4707 1.85547c12.1582-8.88672 28.6133-7.37305 39.7461 3.75977l12.1582 12.0605c1.17188 1.17188 1.36719 2.09961 1.02539 3.80859l-1.61133 7.42188 7.51953 7.42188 4.93164-0.292969c1.26953-0.0488281 1.66016 0.0488281 2.63672 1.02539l2.88086 2.88086-12.207 12.207-2.88086-2.88086c-0.976562-0.976562-1.12305-1.36719-1.07422-2.68555l0.341797-4.88281-7.4707-7.42188-7.61719 1.26953c-1.61133 0.341797-2.34375 0.195312-3.56445-0.976562l-10.0098-10.0098c-1.26953-1.17188-1.41602-2.00195-0.634766-3.85742l4.39453-10.4492c-7.8125-7.27539-17.9688-10.4004-28.125-7.42188-0.78125 0.195312-1.07422-0.439453-0.439453-0.976562Z"/>
  </g>
  <text style="stroke:none;fill:black;font-family:sans-serif;font-size:13;font-weight:bold;" transform="matrix(1 0 0 1 1289 1953)">Exporting</text>
  <text style="stroke:none;fill:black;font-family:sans-serif;font-size:13;" transform="matrix(1 0 0 1 1289 1971)">Symbols should be outlined when exporting to ensure the</text>
  <text style="stroke:none;fill:black;font-family:sans-serif;font-size:13;" transform="matrix(1 0 0 1 1289 1989)">design is preserved when submitting to Xcode.</text>
  <text id="template-version" style="stroke:none;fill:black;font-family:sans-serif;font-size:13;text-anchor:end;" transform="matrix(1 0 0 1 3036 1933)">Template v.4.0</text>
  <text style="stroke:none;fill:black;font-family:sans-serif;font-size:13;text-anchor:end;" transform="matrix(1 0 0 1 3036 1951)">Requires Xcode 14 or greater</text>
  <text id="descriptive-name" style="stroke:none;fill:black;font-family:sans-serif;font-size:13;text-anchor:end;" transform="matrix(1 0 0 1 3036 1969)">Generated from prothese.below</text>
  <text style="stroke:none;fill:black;font-family:sans-serif;font-size:13;text-anchor:end;" transform="matrix(1 0 0 1 3036 1987)">Typeset at 100.0 points</text>
  <text style="stroke:none;fill:black;font-family:sans-serif;font-size:13;" transform="matrix(1 0 0 1 263 726)">Small</text>
  <text style="stroke:none;fill:black;font-family:sans-serif;font-size:13;" transform="matrix(1 0 0 1 263 1156)">Medium</text>
  <text style="stroke:none;fill:black;font-family:sans-serif;font-size:13;" transform="matrix(1 0 0 1 263 1586)">Large</text>
 </g>
 <g id="Guides">
  <g id="H-reference" style="fill:#27AAE1;stroke:none;" transform="matrix(1 0 0 1 339 696)">
   <path d="M0.993654 0L3.63775 0L29.3281-67.1323L30.0303-67.1323L30.0303-70.459L28.1226-70.459ZM11.6885-24.4799L46.9815-24.4799L46.2315-26.7285L12.4385-26.7285ZM55.1196 0L57.7637 0L30.6382-70.459L29.4326-70.459L29.4326-67.1323Z"/>
  </g>
  <line id="Baseline-S" style="fill:none;stroke:#27AAE1;opacity:1;stroke-width:0.5;" x1="263" x2="3036" y1="696" y2="696"/>
  <line id="Capline-S" style="fill:none;stroke:#27AAE1;opacity:1;stroke-width:0.5;" x1="263" x2="3036" y1="625.541" y2="625.541"/>
  <g id="H-reference" style="fill:#27AAE1;stroke:none;" transform="matrix(1 0 0 1 339 1126)">
   <path d="M0.993654 0L3.63775 0L29.3281-67.1323L30.0303-67.1323L30.0303-70.459L28.1226-70.459ZM11.6885-24.4799L46.9815-24.4799L46.2315-26.7285L12.4385-26.7285ZM55.1196 0L57.7637 0L30.6382-70.459L29.4326-70.459L29.4326-67.1323Z"/>
  </g>
  <line id="Baseline-M" style="fill:none;stroke:#27AAE1;opacity:1;stroke-width:0.5;" x1="263" x2="3036" y1="1126" y2="1126"/>
  <line id="Capline-M" style="fill:none;stroke:#27AAE1;opacity:1;stroke-width:0.5;" x1="263" x2="3036" y1="1055.54" y2="1055.54"/>
  <g id="H-reference" style="fill:#27AAE1;stroke:none;" transform="matrix(1 0 0 1 339 1556)">
   <path d="M0.993654 0L3.63775 0L29.3281-67.1323L30.0303-67.1323L30.0303-70.459L28.1226-70.459ZM11.6885-24.4799L46.9815-24.4799L46.2315-26.7285L12.4385-26.7285ZM55.1196 0L57.7637 0L30.6382-70.459L29.4326-70.459L29.4326-67.1323Z"/>
  </g>
  <line id="Baseline-L" style="fill:none;stroke:#27AAE1;opacity:1;stroke-width:0.5;" x1="263" x2="3036" y1="1556" y2="1556"/>
  <line id="Capline-L" style="fill:none;stroke:#27AAE1;opacity:1;stroke-width:0.5;" x1="263" x2="3036" y1="1485.54" y2="1485.54"/>
  <line id="left-margin-Ultralight-S" style="fill:none;stroke:#00AEEF;stroke-width:0.5;opacity:1.0;" x1="519.288" x2="519.288" y1="600.785" y2="720.121"/>
  <line id="right-margin-Ultralight-S" style="fill:none;stroke:#00AEEF;stroke-width:0.5;opacity:1.0;" x1="600.134" x2="600.134" y1="600.785" y2="720.121"/>
  <line id="left-margin-Regular-S" style="fill:none;stroke:#00AEEF;stroke-width:0.5;opacity:1.0;" x1="1407.56" x2="1407.56" y1="600.785" y2="720.121"/>
  <line id="right-margin-Regular-S" style="fill:none;stroke:#00AEEF;stroke-width:0.5;opacity:1.0;" x1="1492.13" x2="1492.13" y1="600.785" y2="720.121"/>
  <line id="left-margin-Black-S" style="fill:none;stroke:#00AEEF;stroke-width:0.5;opacity:1.0;" x1="2887.7" x2="2887.7" y1="600.785" y2="720.121"/>
  <line id="right-margin-Black-S" style="fill:none;stroke:#00AEEF;stroke-width:0.5;opacity:1.0;" x1="2979.1" x2="2979.1" y1="600.785" y2="720.121"/>
 </g>
 <g id="Symbols">
  <g id="Black-S" transform="matrix(1 0 0 1 2887.7 696)">
   <path class="SFSymbolsPreviewNone" d="M49.9044-34.4523C49.8993-34.6645 49.9953-34.8671 50.1631-34.9985C50.3304-35.1293 50.5504-35.1736 50.7553-35.1175C51.5366-34.9771 52.5784-34.9676 53.3614-35.0872C53.5584-35.145 53.7711-35.1062 53.9356-34.9833C54.1006-34.861 54.1977-34.6679 54.1983-34.4624C54.2303-30.5564 54.2786-14.6229 54.2887-11.1255C54.2898-10.7489 53.9861-10.443 53.6101-10.4413C52.9129-10.4385 51.8364-10.434 51.1437-10.4312C50.7727-10.4295 50.4685-10.7259 50.4595-11.0969C50.377-14.5657 49.9981-30.5115 49.9044-34.4523ZM50.7329-1.19959L50.7115-0.180284C52.4386 0.277732 53.4815 0.436578 55.4421 0.514598C54.823-0.0410834 54.6035-0.0893546 54.7781-1.15469L50.7329-1.19959Z"/>
   <path class="monochrome-0 multicolor-0:tintColor hierarchical-0:secondary SFSymbolsPreview007AFF" d="M48.3356-36.2872C48.3283-36.4977 48.4198-36.6998 48.5831-36.8328C48.7464-36.9664 48.9625-37.0152 49.1674-36.9652C50.7093-36.7233 53.2542-36.7042 54.7876-36.9467C54.9869-36.9995 55.1996-36.9563 55.363-36.8305C55.5269-36.7054 55.6229-36.5112 55.624-36.3046C55.6492-32.1044 55.7329-13.4184 55.7497-9.59992C55.7503-9.41918 55.6795-9.24518 55.5516-9.11665C55.4242-8.98811 55.2507-8.9157 55.07-8.91514C53.8233-8.91177 51.1942-8.90448 49.965-8.90111C49.5974-8.89999 49.2948-9.1913 49.2819-9.55895C49.1489-13.3185 48.486-32.0292 48.3356-36.2872ZM49.4604-2.06792L49.3925 0.455101C51.9531 1.15896 54.6698 1.48957 57.4633 1.23305C56.3486 0.281099 55.6857-0.808934 55.8103-2.14088L49.4604-2.06792Z"/>
   <path class="monochrome-1 multicolor-1:tintColor hierarchical-1:primary SFSymbolsPreview007AFF" d="M43.0639-73.6767C42.6311-73.3478 42.4184-72.805 42.511-72.2695C42.8164-70.2707 43.6033-65.7226 43.898-64.0174C43.9788-63.5515 44.026-63.0811 44.0389-62.6085C44.1399-58.4246 43.8132-53.9753 42.8489-49.1335C42.2927-46.3742 42.9584-43.5088 44.6748-41.2771C45.4494-40.2499 46.2981-39.4035 47.2197-38.7378C47.2197-38.7378 47.3191-38.6744 47.4695-38.5778C48.3895-37.989 49.4593-37.6758 50.5516-37.6758C51.4609-37.6758 52.5885-37.6758 53.5303-37.6758C54.7658-37.6758 55.9692-38.0665 56.9688-38.7923C57.895-39.4641 58.6909-40.2988 59.3184-41.2552C60.0969-42.485 60.7671-43.895 61.3228-45.4745C62.1316-47.7864 62.6003-50.2039 62.7137-52.6506C62.8882-57.9908 62.4499-65.1428 63.9059-70.3465C63.9996-70.6384 63.9412-70.9583 63.7504-71.1986C63.5601-71.4388 63.2621-71.5679 62.9562-71.5426C62.9556-71.5471 62.955-71.5471 62.955-71.5471C62.208-71.486 61.5355-71.9979 61.3969-72.7343C61.1712-73.9265 60.8266-75.7501 60.5218-77.3638C60.0554-79.833 58.1863-81.8003 55.7441-82.3919C54.3049-82.741 52.8388-82.8909 51.3419-82.8196C48.7352-82.695 46.4659-80.9976 45.6099-78.5324C44.9055-76.5 44.1539-74.6045 43.0639-73.6767ZM25.1586 8.19703C24.8415 8.26438 24.5721 8.4715 24.4244 8.76001C24.2768 9.04851 24.2673 9.38809 24.3981 9.68502C25.0604 11.2246 26.8032 11.7438 28.8609 11.2381C29.484 11.0877 30.1334 11.0866 30.757 11.2342C33.4197 11.8157 36.3396 11.9291 38.5477 11.416C38.5494 11.416 38.5511 11.4155 38.5528 11.4149C42.4745 10.5359 46.7129 10.0779 50.5763 9.94434C51.4951 9.91739 52.4145 9.95669 53.3277 10.0628C57.0368 10.4882 59.0069 10.5741 61.1735 10.3103C61.2234 10.3047 61.2734 10.3008 61.3239 10.2985C62.5498 10.234 63.875 9.21297 63.9014 8.15662C63.9019 8.11564 63.9047 8.07523 63.9098 8.03481C64.2045 5.52583 63.2823 3.23968 62.5487 1.28357C62.4471 0.990575 62.2192 0.759322 61.9284 0.653237C61.6377 0.547153 61.3144 0.578024 61.0483 0.736309C57.5857 2.54536 52.3662 2.05816 45.904-0.0511866C45.1598-0.294788 44.3414-0.0910385 43.7986 0.473623C40.4398 3.76449 34.9077 6.17805 27.9623 7.59869L25.1586 8.19703ZM49.2022-7.98564C47.8921-6.79513 48.0499-4.28671 49.4576-2.78188L55.7918-2.91996C56.9144-4.87663 56.8807-6.21476 55.867-7.99294L49.2022-7.98564Z"/>
  </g>
  <g id="Regular-S" transform="matrix(1 0 0 1 1407.56 696)">
   <path class="SFSymbolsPreviewNone" d="M48.9944-34.4523C48.9893-34.6645 49.0853-34.8671 49.2531-34.9985C49.4204-35.1293 49.6404-35.1736 49.8453-35.1175C50.6266-34.9771 51.6684-34.9676 52.4514-35.0872C52.6484-35.145 52.8611-35.1062 53.0256-34.9833C53.1906-34.861 53.2877-34.6679 53.2883-34.4624C53.3203-30.5564 53.3686-14.6229 53.3787-11.1255C53.3798-10.7489 53.0761-10.443 52.7001-10.4413C52.0029-10.4385 50.9264-10.434 50.2337-10.4312C49.8627-10.4295 49.5585-10.7259 49.5495-11.0969C49.467-14.5657 49.0881-30.5115 48.9944-34.4523ZM49.8229-1.19959L49.8015-0.180284C51.5286 0.277732 52.5715 0.436578 54.5321 0.514598C53.913-0.0410834 53.6935-0.0893546 53.8681-1.15469L49.8229-1.19959Z"/>
   <path class="monochrome-0 multicolor-0:tintColor hierarchical-0:secondary SFSymbolsPreview007AFF" d="M47.4256-36.2872C47.4183-36.4977 47.5098-36.6998 47.6731-36.8328C47.8364-36.9664 48.0525-37.0152 48.2574-36.9652C49.7993-36.7233 52.3442-36.7042 53.8776-36.9467C54.0769-36.9995 54.2896-36.9563 54.453-36.8305C54.6169-36.7054 54.7129-36.5112 54.714-36.3046C54.7392-32.1044 54.8229-13.4184 54.8397-9.59992C54.8403-9.41918 54.7695-9.24518 54.6416-9.11665C54.5142-8.98811 54.3407-8.9157 54.16-8.91514C52.9133-8.91177 50.2842-8.90448 49.055-8.90111C48.6874-8.89999 48.3848-9.1913 48.3719-9.55895C48.2389-13.3185 47.576-32.0292 47.4256-36.2872ZM48.5504-2.06792L48.4825 0.455101C51.0431 1.15896 53.7598 1.48957 56.5533 1.23305C55.4386 0.281099 54.7757-0.808934 54.9003-2.14088L48.5504-2.06792Z"/>
   <path class="monochrome-1 multicolor-1:tintColor hierarchical-1:primary SFSymbolsPreview007AFF" d="M42.1539-73.6767C41.7211-73.3478 41.5084-72.805 41.601-72.2695C41.9064-70.2707 42.6933-65.7226 42.988-64.0174C43.0688-63.5515 43.116-63.0811 43.1289-62.6085C43.2299-58.4246 42.9032-53.9753 41.9389-49.1335C41.3827-46.3742 42.0484-43.5088 43.7648-41.2771C44.5394-40.2499 45.3881-39.4035 46.3097-38.7378C46.3097-38.7378 46.4091-38.6744 46.5595-38.5778C47.4795-37.989 48.5493-37.6758 49.6416-37.6758C50.5509-37.6758 51.6785-37.6758 52.6203-37.6758C53.8558-37.6758 55.0592-38.0665 56.0588-38.7923C56.985-39.4641 57.7809-40.2988 58.4084-41.2552C59.1869-42.485 59.8571-43.895 60.4128-45.4745C61.2216-47.7864 61.6903-50.2039 61.8037-52.6506C61.9782-57.9908 61.5399-65.1428 62.9959-70.3465C63.0896-70.6384 63.0312-70.9583 62.8404-71.1986C62.6501-71.4388 62.3521-71.5679 62.0462-71.5426C62.0456-71.5471 62.045-71.5471 62.045-71.5471C61.298-71.486 60.6255-71.9979 60.4869-72.7343C60.2612-73.9265 59.9166-75.7501 59.6118-77.3638C59.1454-79.833 57.2763-81.8003 54.8341-82.3919C53.3949-82.741 51.9288-82.8909 50.4319-82.8196C47.8252-82.695 45.5559-80.9976 44.6999-78.5324C43.9955-76.5 43.2439-74.6045 42.1539-73.6767ZM24.2486 8.19703C23.9315 8.26438 23.6621 8.4715 23.5144 8.76001C23.3668 9.04851 23.3573 9.38809 23.4881 9.68502C24.1504 11.2246 25.8932 11.7438 27.9509 11.2381C28.574 11.0877 29.2234 11.0866 29.847 11.2342C32.5097 11.8157 35.4296 11.9291 37.6377 11.416C37.6394 11.416 37.6411 11.4155 37.6428 11.4149C41.5645 10.5359 45.8029 10.0779 49.6663 9.94434C50.5851 9.91739 51.5045 9.95669 52.4177 10.0628C56.1268 10.4882 58.0969 10.5741 60.2635 10.3103C60.3134 10.3047 60.3634 10.3008 60.4139 10.2985C61.6398 10.234 62.965 9.21297 62.9914 8.15662C62.9919 8.11564 62.9947 8.07523 62.9998 8.03481C63.2945 5.52583 62.3723 3.23968 61.6387 1.28357C61.5371 0.990575 61.3092 0.759322 61.0184 0.653237C60.7277 0.547153 60.4044 0.578024 60.1383 0.736309C56.6757 2.54536 51.4562 2.05816 44.994-0.0511866C44.2498-0.294788 43.4314-0.0910385 42.8886 0.473623C39.5298 3.76449 33.9977 6.17805 27.0523 7.59869L24.2486 8.19703ZM48.2922-7.98564C46.9821-6.79513 47.1399-4.28671 48.5476-2.78188L54.8818-2.91996C56.0044-4.87663 55.9707-6.21476 54.957-7.99294L48.2922-7.98564Z"/>
  </g>
  <g id="Ultralight-S" transform="matrix(1 0 0 1 519.288 696)">
   <path class="SFSymbolsPreviewNone" d="M45.3654-34.4523C45.3603-34.6645 45.4563-34.8671 45.6241-34.9985C45.7914-35.1293 46.0114-35.1736 46.2163-35.1175C46.9976-34.9771 48.0394-34.9676 48.8224-35.0872C49.0194-35.145 49.2321-35.1062 49.3966-34.9833C49.5616-34.861 49.6587-34.6679 49.6593-34.4624C49.6913-30.5564 49.7396-14.6229 49.7497-11.1255C49.7508-10.7489 49.4471-10.443 49.0711-10.4413C48.3739-10.4385 47.2974-10.434 46.6047-10.4312C46.2337-10.4295 45.9295-10.7259 45.9205-11.0969C45.838-14.5657 45.4591-30.5115 45.3654-34.4523ZM46.1939-1.19959L46.1725-0.180284C47.8996 0.277732 48.9425 0.436578 50.9031 0.514598C50.284-0.0410834 50.0645-0.0893546 50.2391-1.15469L46.1939-1.19959Z"/>
   <path class="monochrome-0 multicolor-0:tintColor hierarchical-0:secondary SFSymbolsPreview007AFF" d="M43.7966-36.2872C43.7893-36.4977 43.8808-36.6998 44.0441-36.8328C44.2074-36.9664 44.4235-37.0152 44.6284-36.9652C46.1703-36.7233 48.7152-36.7042 50.2486-36.9467C50.4479-36.9995 50.6606-36.9563 50.824-36.8305C50.9879-36.7054 51.0839-36.5112 51.085-36.3046C51.1102-32.1044 51.1939-13.4184 51.2107-9.59992C51.2113-9.41918 51.1405-9.24518 51.0126-9.11665C50.8852-8.98811 50.7117-8.9157 50.531-8.91514C49.2843-8.91177 46.6552-8.90448 45.426-8.90111C45.0584-8.89999 44.7558-9.1913 44.7429-9.55895C44.6099-13.3185 43.947-32.0292 43.7966-36.2872ZM44.9214-2.06792L44.8535 0.455101C47.4141 1.15896 50.1308 1.48957 52.9243 1.23305C51.8096 0.281099 51.1467-0.808934 51.2713-2.14088L44.9214-2.06792Z"/>
   <path class="monochrome-1 multicolor-1:tintColor hierarchical-1:primary SFSymbolsPreview007AFF" d="M38.5249-73.6767C38.0921-73.3478 37.8794-72.805 37.972-72.2695C38.2774-70.2707 39.0643-65.7226 39.359-64.0174C39.4398-63.5515 39.487-63.0811 39.4999-62.6085C39.6009-58.4246 39.2742-53.9753 38.3099-49.1335C37.7537-46.3742 38.4194-43.5088 40.1358-41.2771C40.9104-40.2499 41.7591-39.4035 42.6807-38.7378C42.6807-38.7378 42.7801-38.6744 42.9305-38.5778C43.8505-37.989 44.9203-37.6758 46.0126-37.6758C46.9219-37.6758 48.0495-37.6758 48.9913-37.6758C50.2268-37.6758 51.4302-38.0665 52.4298-38.7923C53.356-39.4641 54.1519-40.2988 54.7794-41.2552C55.5579-42.485 56.2281-43.895 56.7838-45.4745C57.5926-47.7864 58.0613-50.2039 58.1747-52.6506C58.3492-57.9908 57.9109-65.1428 59.3669-70.3465C59.4606-70.6384 59.4022-70.9583 59.2114-71.1986C59.0211-71.4388 58.7231-71.5679 58.4172-71.5426C58.4166-71.5471 58.416-71.5471 58.416-71.5471C57.669-71.486 56.9965-71.9979 56.8579-72.7343C56.6322-73.9265 56.2876-75.7501 55.9828-77.3638C55.5164-79.833 53.6473-81.8003 51.2051-82.3919C49.7659-82.741 48.2998-82.8909 46.8029-82.8196C44.1962-82.695 41.9269-80.9976 41.0709-78.5324C40.3665-76.5 39.6149-74.6045 38.5249-73.6767ZM20.6196 8.19703C20.3025 8.26438 20.0331 8.4715 19.8854 8.76001C19.7378 9.04851 19.7283 9.38809 19.8591 9.68502C20.5214 11.2246 22.2642 11.7438 24.3219 11.2381C24.945 11.0877 25.5944 11.0866 26.218 11.2342C28.8807 11.8157 31.8006 11.9291 34.0087 11.416C34.0104 11.416 34.0121 11.4155 34.0138 11.4149C37.9355 10.5359 42.1739 10.0779 46.0373 9.94434C46.9561 9.91739 47.8755 9.95669 48.7887 10.0628C52.4978 10.4882 54.4679 10.5741 56.6345 10.3103C56.6844 10.3047 56.7344 10.3008 56.7849 10.2985C58.0108 10.234 59.336 9.21297 59.3624 8.15662C59.3629 8.11564 59.3657 8.07523 59.3708 8.03481C59.6655 5.52583 58.7433 3.23968 58.0097 1.28357C57.9081 0.990575 57.6802 0.759322 57.3894 0.653237C57.0987 0.547153 56.7754 0.578024 56.5093 0.736309C53.0467 2.54536 47.8272 2.05816 41.365-0.0511866C40.6208-0.294788 39.8024-0.0910385 39.2596 0.473623C35.9008 3.76449 30.3687 6.17805 23.4233 7.59869L20.6196 8.19703ZM44.6632-7.98564C43.3531-6.79513 43.5109-4.28671 44.9186-2.78188L51.2528-2.91996C52.3754-4.87663 52.3417-6.21476 51.328-7.99294L44.6632-7.98564Z"/>
  </g>
 </g>
</svg>
