<?xml version="1.0" encoding="UTF-8"?>
<!--Generator: Apple Native CoreSVG 232.5-->
<!DOCTYPE svg
PUBLIC "-//W3C//DTD SVG 1.1//EN"
       "http://www.w3.org/Graphics/SVG/1.1/DTD/svg11.dtd">
<svg version="1.1" xmlns="http://www.w3.org/2000/svg" xmlns:xlink="http://www.w3.org/1999/xlink" width="3300" height="2200">
 <!--glyph: "", point size: 100.0, font version: "19.0d6e1", template writer version: "123"-->
 <style>.monochrome-0 {}
.monochrome-1 {}
.monochrome-2 {}

.multicolor-0:white {}
.multicolor-1:white {}
.multicolor-2:systemOrangeColor {}

.hierarchical-0:primary {}
.hierarchical-1:primary {}
.hierarchical-2:primary {}

.SFSymbolsPreviewFF9500 {fill:#FF9500;opacity:1.0}
.SFSymbolsPreviewFFFFFF {fill:#FFFFFF;opacity:1.0}
.SFSymbolsPreviewNone {fill:none;opacity:1.0}
</style>
 <g id="Notes">
  <rect height="2200" id="artboard" style="fill:white;opacity:1" width="3300" x="0" y="0"/>
  <line style="fill:none;stroke:black;opacity:1;stroke-width:0.5;" x1="263" x2="3036" y1="292" y2="292"/>
  <text style="stroke:none;fill:black;font-family:sans-serif;font-size:13;font-weight:bold;" transform="matrix(1 0 0 1 263 322)">Weight/Scale Variations</text>
  <text style="stroke:none;fill:black;font-family:sans-serif;font-size:13;text-anchor:middle;" transform="matrix(1 0 0 1 559.711 322)">Ultralight</text>
  <text style="stroke:none;fill:black;font-family:sans-serif;font-size:13;text-anchor:middle;" transform="matrix(1 0 0 1 856.422 322)">Thin</text>
  <text style="stroke:none;fill:black;font-family:sans-serif;font-size:13;text-anchor:middle;" transform="matrix(1 0 0 1 1153.13 322)">Light</text>
  <text style="stroke:none;fill:black;font-family:sans-serif;font-size:13;text-anchor:middle;" transform="matrix(1 0 0 1 1449.84 322)">Regular</text>
  <text style="stroke:none;fill:black;font-family:sans-serif;font-size:13;text-anchor:middle;" transform="matrix(1 0 0 1 1746.56 322)">Medium</text>
  <text style="stroke:none;fill:black;font-family:sans-serif;font-size:13;text-anchor:middle;" transform="matrix(1 0 0 1 2043.27 322)">Semibold</text>
  <text style="stroke:none;fill:black;font-family:sans-serif;font-size:13;text-anchor:middle;" transform="matrix(1 0 0 1 2339.98 322)">Bold</text>
  <text style="stroke:none;fill:black;font-family:sans-serif;font-size:13;text-anchor:middle;" transform="matrix(1 0 0 1 2636.69 322)">Heavy</text>
  <text style="stroke:none;fill:black;font-family:sans-serif;font-size:13;text-anchor:middle;" transform="matrix(1 0 0 1 2933.4 322)">Black</text>
  <line style="fill:none;stroke:black;opacity:1;stroke-width:0.5;" x1="263" x2="3036" y1="1903" y2="1903"/>
  <g transform="matrix(0.2 0 0 0.2 263 1933)">
   <path d="m46.2402 4.15039c21.5332 0 39.4531-17.8711 39.4531-39.4043s-17.9688-39.4043-39.502-39.4043c-21.4844 0-39.3555 17.8711-39.3555 39.4043s17.9199 39.4043 39.4043 39.4043Zm0-7.42188c-17.7246 0-31.8848-14.209-31.8848-31.9824s14.1113-31.9824 31.8359-31.9824c17.7734 0 32.0312 14.209 32.0312 31.9824s-14.209 31.9824-31.9824 31.9824Zm-17.9688-31.9824c0 2.14844 1.51367 3.61328 3.75977 3.61328h10.498v10.5957c0 2.19727 1.46484 3.71094 3.61328 3.71094 2.24609 0 3.71094-1.51367 3.71094-3.71094v-10.5957h10.5957c2.19727 0 3.71094-1.46484 3.71094-3.61328 0-2.19727-1.51367-3.71094-3.71094-3.71094h-10.5957v-10.5469c0-2.24609-1.46484-3.75977-3.71094-3.75977-2.14844 0-3.61328 1.51367-3.61328 3.75977v10.5469h-10.498c-2.24609 0-3.75977 1.51367-3.75977 3.71094Z"/>
  </g>
  <g transform="matrix(0.2 0 0 0.2 281.506 1933)">
   <path d="m58.5449 14.5508c27.2461 0 49.8047-22.6074 49.8047-49.8047 0-27.2461-22.6074-49.8047-49.8535-49.8047-27.1973 0-49.7559 22.5586-49.7559 49.8047 0 27.1973 22.6074 49.8047 49.8047 49.8047Zm0-8.30078c-23.0469 0-41.4551-18.457-41.4551-41.5039s18.3594-41.5039 41.4062-41.5039 41.5527 18.457 41.5527 41.5039-18.457 41.5039-41.5039 41.5039Zm-22.6562-41.5039c0 2.39258 1.66016 4.00391 4.15039 4.00391h14.3555v14.4043c0 2.44141 1.66016 4.15039 4.05273 4.15039 2.44141 0 4.15039-1.66016 4.15039-4.15039v-14.4043h14.4043c2.44141 0 4.15039-1.61133 4.15039-4.00391 0-2.44141-1.70898-4.15039-4.15039-4.15039h-14.4043v-14.3555c0-2.49023-1.70898-4.19922-4.15039-4.19922-2.39258 0-4.05273 1.70898-4.05273 4.19922v14.3555h-14.3555c-2.49023 0-4.15039 1.70898-4.15039 4.15039Z"/>
  </g>
  <g transform="matrix(0.2 0 0 0.2 304.924 1933)">
   <path d="m74.8535 28.3203c34.8145 0 63.623-28.8086 63.623-63.5742 0-34.8145-28.8574-63.623-63.6719-63.623-34.7656 0-63.5254 28.8086-63.5254 63.623 0 34.7656 28.8086 63.5742 63.5742 63.5742Zm0-9.08203c-30.1758 0-54.4434-24.3164-54.4434-54.4922 0-30.2246 24.2188-54.4922 54.3945-54.4922 30.2246 0 54.541 24.2676 54.541 54.4922 0 30.1758-24.2676 54.4922-54.4922 54.4922Zm-28.8574-54.4922c0 2.58789 1.85547 4.39453 4.58984 4.39453h19.7266v19.7754c0 2.68555 1.85547 4.58984 4.44336 4.58984 2.68555 0 4.54102-1.85547 4.54102-4.58984v-19.7754h19.7754c2.68555 0 4.58984-1.80664 4.58984-4.39453 0-2.73438-1.85547-4.58984-4.58984-4.58984h-19.7754v-19.7266c0-2.73438-1.85547-4.63867-4.54102-4.63867-2.58789 0-4.44336 1.9043-4.44336 4.63867v19.7266h-19.7266c-2.73438 0-4.58984 1.85547-4.58984 4.58984Z"/>
  </g>
  <text style="stroke:none;fill:black;font-family:sans-serif;font-size:13;font-weight:bold;" transform="matrix(1 0 0 1 263 1953)">Design Variations</text>
  <text style="stroke:none;fill:black;font-family:sans-serif;font-size:13;" transform="matrix(1 0 0 1 263 1971)">Symbols are supported in up to nine weights and three scales.</text>
  <text style="stroke:none;fill:black;font-family:sans-serif;font-size:13;" transform="matrix(1 0 0 1 263 1989)">For optimal layout with text and other symbols, vertically align</text>
  <text style="stroke:none;fill:black;font-family:sans-serif;font-size:13;" transform="matrix(1 0 0 1 263 2007)">symbols with the adjacent text.</text>
  <line style="fill:none;stroke:#00AEEF;stroke-width:0.5;opacity:1.0;" x1="776" x2="776" y1="1919" y2="1933"/>
  <g transform="matrix(0.2 0 0 0.2 776 1933)">
   <path d="m16.5527 0.78125c2.58789 0 3.85742-0.976562 4.78516-3.71094l6.29883-17.2363h28.8086l6.29883 17.2363c0.927734 2.73438 2.19727 3.71094 4.73633 3.71094 2.58789 0 4.24805-1.5625 4.24805-4.00391 0-0.830078-0.146484-1.61133-0.537109-2.63672l-22.9004-60.9863c-1.12305-2.97852-3.125-4.49219-6.25-4.49219-3.02734 0-5.07812 1.46484-6.15234 4.44336l-22.9004 61.084c-0.390625 1.02539-0.537109 1.80664-0.537109 2.63672 0 2.44141 1.5625 3.95508 4.10156 3.95508Zm13.4766-28.3691 11.8652-32.8613h0.244141l11.8652 32.8613Z"/>
  </g>
  <line style="fill:none;stroke:#00AEEF;stroke-width:0.5;opacity:1.0;" x1="792.836" x2="792.836" y1="1919" y2="1933"/>
  <text style="stroke:none;fill:black;font-family:sans-serif;font-size:13;font-weight:bold;" transform="matrix(1 0 0 1 776 1953)">Margins</text>
  <text style="stroke:none;fill:black;font-family:sans-serif;font-size:13;" transform="matrix(1 0 0 1 776 1971)">Leading and trailing margins on the left and right side of each symbol</text>
  <text style="stroke:none;fill:black;font-family:sans-serif;font-size:13;" transform="matrix(1 0 0 1 776 1989)">can be adjusted by modifying the x-location of the margin guidelines.</text>
  <text style="stroke:none;fill:black;font-family:sans-serif;font-size:13;" transform="matrix(1 0 0 1 776 2007)">Modifications are automatically applied proportionally to all</text>
  <text style="stroke:none;fill:black;font-family:sans-serif;font-size:13;" transform="matrix(1 0 0 1 776 2025)">scales and weights.</text>
  <g transform="matrix(0.2 0 0 0.2 1289 1933)">
   <path d="m14.209 9.32617 8.49609 8.54492c4.29688 4.3457 9.22852 4.05273 13.8672-1.07422l53.4668-58.9355-4.83398-4.88281-53.0762 58.3984c-1.75781 2.00195-3.41797 2.49023-5.76172 0.146484l-5.85938-5.81055c-2.34375-2.29492-1.80664-4.00391 0.195312-5.81055l57.373-54.0039-4.88281-4.83398-57.959 54.4434c-4.93164 4.58984-5.32227 9.47266-1.02539 13.8184Zm32.0801-90.9668c-2.09961 2.05078-2.24609 4.93164-1.07422 6.88477 1.17188 1.80664 3.4668 2.97852 6.68945 2.14844 7.32422-1.70898 14.9414-2.00195 22.0703 2.68555l-2.92969 7.27539c-1.70898 4.15039-0.830078 7.08008 1.85547 9.81445l11.4746 11.5723c2.44141 2.44141 4.49219 2.53906 7.32422 2.05078l5.32227-0.976562 3.32031 3.36914-0.195312 2.7832c-0.195312 2.49023 0.439453 4.39453 2.88086 6.78711l3.80859 3.71094c2.39258 2.39258 5.46875 2.53906 7.8125 0.195312l14.5508-14.5996c2.34375-2.34375 2.24609-5.32227-0.146484-7.71484l-3.85742-3.80859c-2.39258-2.39258-4.24805-3.17383-6.64062-2.97852l-2.88086 0.244141-3.22266-3.17383 1.2207-5.61523c0.634766-2.83203-0.146484-5.0293-3.07617-7.95898l-10.9863-10.9375c-16.6992-16.6016-38.8672-16.2109-53.3203-1.75781Zm7.4707 1.85547c12.1582-8.88672 28.6133-7.37305 39.7461 3.75977l12.1582 12.0605c1.17188 1.17188 1.36719 2.09961 1.02539 3.80859l-1.61133 7.42188 7.51953 7.42188 4.93164-0.292969c1.26953-0.0488281 1.66016 0.0488281 2.63672 1.02539l2.88086 2.88086-12.207 12.207-2.88086-2.88086c-0.976562-0.976562-1.12305-1.36719-1.07422-2.68555l0.341797-4.88281-7.4707-7.42188-7.61719 1.26953c-1.61133 0.341797-2.34375 0.195312-3.56445-0.976562l-10.0098-10.0098c-1.26953-1.17188-1.41602-2.00195-0.634766-3.85742l4.39453-10.4492c-7.8125-7.27539-17.9688-10.4004-28.125-7.42188-0.78125 0.195312-1.07422-0.439453-0.439453-0.976562Z"/>
  </g>
  <text style="stroke:none;fill:black;font-family:sans-serif;font-size:13;font-weight:bold;" transform="matrix(1 0 0 1 1289 1953)">Exporting</text>
  <text style="stroke:none;fill:black;font-family:sans-serif;font-size:13;" transform="matrix(1 0 0 1 1289 1971)">Symbols should be outlined when exporting to ensure the</text>
  <text style="stroke:none;fill:black;font-family:sans-serif;font-size:13;" transform="matrix(1 0 0 1 1289 1989)">design is preserved when submitting to Xcode.</text>
  <text id="template-version" style="stroke:none;fill:black;font-family:sans-serif;font-size:13;text-anchor:end;" transform="matrix(1 0 0 1 3036 1933)">Template v.4.0</text>
  <text style="stroke:none;fill:black;font-family:sans-serif;font-size:13;text-anchor:end;" transform="matrix(1 0 0 1 3036 1951)">Requires Xcode 14 or greater</text>
  <text id="descriptive-name" style="stroke:none;fill:black;font-family:sans-serif;font-size:13;text-anchor:end;" transform="matrix(1 0 0 1 3036 1969)">Generated from figure.prothese.motion</text>
  <text style="stroke:none;fill:black;font-family:sans-serif;font-size:13;text-anchor:end;" transform="matrix(1 0 0 1 3036 1987)">Typeset at 100.0 points</text>
  <text style="stroke:none;fill:black;font-family:sans-serif;font-size:13;" transform="matrix(1 0 0 1 263 726)">Small</text>
  <text style="stroke:none;fill:black;font-family:sans-serif;font-size:13;" transform="matrix(1 0 0 1 263 1156)">Medium</text>
  <text style="stroke:none;fill:black;font-family:sans-serif;font-size:13;" transform="matrix(1 0 0 1 263 1586)">Large</text>
 </g>
 <g id="Guides">
  <g id="H-reference" style="fill:#27AAE1;stroke:none;" transform="matrix(1 0 0 1 339 696)">
   <path d="M0.993654 0L3.63775 0L29.3281-67.1323L30.0303-67.1323L30.0303-70.459L28.1226-70.459ZM11.6885-24.4799L46.9815-24.4799L46.2315-26.7285L12.4385-26.7285ZM55.1196 0L57.7637 0L30.6382-70.459L29.4326-70.459L29.4326-67.1323Z"/>
  </g>
  <line id="Baseline-S" style="fill:none;stroke:#27AAE1;opacity:1;stroke-width:0.5;" x1="263" x2="3036" y1="696" y2="696"/>
  <line id="Capline-S" style="fill:none;stroke:#27AAE1;opacity:1;stroke-width:0.5;" x1="263" x2="3036" y1="625.541" y2="625.541"/>
  <g id="H-reference" style="fill:#27AAE1;stroke:none;" transform="matrix(1 0 0 1 339 1126)">
   <path d="M0.993654 0L3.63775 0L29.3281-67.1323L30.0303-67.1323L30.0303-70.459L28.1226-70.459ZM11.6885-24.4799L46.9815-24.4799L46.2315-26.7285L12.4385-26.7285ZM55.1196 0L57.7637 0L30.6382-70.459L29.4326-70.459L29.4326-67.1323Z"/>
  </g>
  <line id="Baseline-M" style="fill:none;stroke:#27AAE1;opacity:1;stroke-width:0.5;" x1="263" x2="3036" y1="1126" y2="1126"/>
  <line id="Capline-M" style="fill:none;stroke:#27AAE1;opacity:1;stroke-width:0.5;" x1="263" x2="3036" y1="1055.54" y2="1055.54"/>
  <g id="H-reference" style="fill:#27AAE1;stroke:none;" transform="matrix(1 0 0 1 339 1556)">
   <path d="M0.993654 0L3.63775 0L29.3281-67.1323L30.0303-67.1323L30.0303-70.459L28.1226-70.459ZM11.6885-24.4799L46.9815-24.4799L46.2315-26.7285L12.4385-26.7285ZM55.1196 0L57.7637 0L30.6382-70.459L29.4326-70.459L29.4326-67.1323Z"/>
  </g>
  <line id="Baseline-L" style="fill:none;stroke:#27AAE1;opacity:1;stroke-width:0.5;" x1="263" x2="3036" y1="1556" y2="1556"/>
  <line id="Capline-L" style="fill:none;stroke:#27AAE1;opacity:1;stroke-width:0.5;" x1="263" x2="3036" y1="1485.54" y2="1485.54"/>
  <line id="left-margin-Ultralight-S" style="fill:none;stroke:#00AEEF;stroke-width:0.5;opacity:1.0;" x1="506.814" x2="506.814" y1="600.785" y2="720.121"/>
  <line id="right-margin-Ultralight-S" style="fill:none;stroke:#00AEEF;stroke-width:0.5;opacity:1.0;" x1="612.609" x2="612.609" y1="600.785" y2="720.121"/>
  <line id="left-margin-Regular-S" style="fill:none;stroke:#00AEEF;stroke-width:0.5;opacity:1.0;" x1="1394.13" x2="1394.13" y1="600.785" y2="720.121"/>
  <line id="right-margin-Regular-S" style="fill:none;stroke:#00AEEF;stroke-width:0.5;opacity:1.0;" x1="1505.56" x2="1505.56" y1="600.785" y2="720.121"/>
  <line id="left-margin-Black-S" style="fill:none;stroke:#00AEEF;stroke-width:0.5;opacity:1.0;" x1="2871.17" x2="2871.17" y1="600.785" y2="720.121"/>
  <line id="right-margin-Black-S" style="fill:none;stroke:#00AEEF;stroke-width:0.5;opacity:1.0;" x1="2995.63" x2="2995.63" y1="600.785" y2="720.121"/>
 </g>
 <g id="Symbols">
  <g id="Black-S" transform="matrix(1 0 0 1 2871.17 696)">
   <path class="SFSymbolsPreviewNone" d="M83.3025-27.9106L81.014-20.3586L89.2071-11.5041C90.1287-10.2661 92.8387-9.3982 94.5458-10.9776C96.253-12.557 95.6131-14.596 94.5255-15.7803L83.3025-27.9106Z"/>
   <path class="monochrome-0 multicolor-0:white hierarchical-0:primary SFSymbolsPreviewFFFFFF" d="M46.0318-50.1191C46.0318-50.9428 45.3632-51.6113 44.5395-51.6113L12.4606-51.6113C11.6369-51.6113 10.9684-50.9428 10.9684-50.1191C10.9684-49.2953 11.6369-48.6268 12.4606-48.6268L44.5395-48.6268C45.3632-48.6268 46.0318-49.2953 46.0318-50.1191ZM40.5987-5.81796C40.5987-6.64169 39.9302-7.31022 39.1065-7.31022L13.6604-7.31022C12.8367-7.31022 12.1681-6.64169 12.1681-5.81796C12.1681-4.99423 12.8367-4.3257 13.6604-4.3257L39.1065-4.3257C39.9302-4.3257 40.5987-4.99423 40.5987-5.81796ZM56.7928-72.2308C56.7928-73.0545 56.123-73.7231 55.3005-73.7231L32.4164-73.7231C31.5926-73.7231 30.9241-73.0545 30.9241-72.2308C30.9241-71.4071 31.5926-70.7385 32.4164-70.7385L55.3005-70.7385C56.123-70.7385 56.7928-71.4071 56.7928-72.2308ZM47.3581-27.6396C47.3581-28.4633 46.6896-29.1319 45.8658-29.1319L24.4202-29.1319C23.5965-29.1319 22.928-28.4633 22.928-27.6396C22.928-26.8159 23.5965-26.1474 24.4202-26.1474L45.8658-26.1474C46.6896-26.1474 47.3581-26.8159 47.3581-27.6396Z"/>
   <path class="monochrome-1 multicolor-1:white hierarchical-1:primary SFSymbolsPreviewFFFFFF" d="M92.3289 1.04645C92.3301 1.83556 91.9911 2.58646 91.3977 3.10816C91.3965 3.10816 91.3953 3.10935 91.3942 3.11055C91.2569 3.22515 91.1578 3.37915 91.1124 3.55345C90.722 5.00632 90.5692 6.00076 90.5477 6.73495L90.5346 7.66135C90.531 8.00875 90.6015 8.35256 90.7435 8.66892C91.4777 10.3391 92.6954 9.68605 93.8868 9.15481C94.116 9.05453 94.3536 8.97812 94.5983 8.92559C95.5713 8.72265 96.5586 8.76801 97.5626 9.08556C97.5626 9.08556 97.5626 9.08556 97.5626 9.08556C98.6549 9.42461 99.5789 9.56667 100.473 9.67292C100.794 9.71112 101.119 9.70038 101.438 9.64188C102.657 9.41506 102.904 8.75369 102.831 7.95025C102.811 7.67806 102.611 7.45124 102.344 7.39752C99.789 6.86866 97.7428 5.42057 94.8681 2.14117C94.8681 2.14117 94.8681 2.14117 94.8681 2.14117C94.7464 2.00269 94.6795 1.82481 94.6795 1.64216C94.6747 0.450736 94.664-3.31573 94.664-3.31573L95.4077-3.31812L95.3922-6.96282C94.2474-6.16297 92.9879-5.77379 91.5923-5.87168L91.5959-3.30738L92.3289-3.30977C92.3289-3.30977 92.3289-0.513862 92.3289 1.04645Z"/>
   <path class="monochrome-2 multicolor-2:systemOrangeColor hierarchical-2:primary SFSymbolsPreviewFF9500" d="M80.0589-17.7525L70.8105-27.5942C69.175-29.3348 68.4897-31.7642 68.9768-34.1041L71.947-48.3797L70.3019-47.538C69.4424-47.0987 68.7977-46.3299 68.5148-45.4059C67.2458-41.2574 63.6799-29.6046 63.6799-29.6046C62.9301-27.1573 60.3348-25.7773 57.8863-26.527C55.439-27.2755 54.0589-29.872 54.8087-32.3193L60.7932-51.8775C61.0762-52.8004 61.7208-53.5704 62.5804-54.0097C62.5804-54.0097 73.6541-59.6743 77.2559-61.5164C78.2718-62.0369 79.3964-62.3079 80.5376-62.3079L80.5376-62.3079C82.6662-62.3079 84.5775-61.3743 85.8799-59.8904L85.9062-59.8605C87.0093-58.6106 87.6742-56.9679 87.6742-55.1713L87.1728-52.5568C85.9802-46.7179 85.1899-41.1571 84.9213-35.8817L84.9142-35.7587C84.8401-34.4813 84.8055-33.2219 84.8019-31.9791C84.8031-31.6198 84.833-31.264 84.8962-30.9154L85.1887-29.6965C85.1887-29.6965 85.2807-29.5414 85.4084-29.3289C85.8919-28.5147 86.4601-27.7542 87.1036-27.0594C89.5939-24.3674 96.0357-17.4051 96.0357-17.4051C98.1893-15.0772 98.0473-11.4396 95.7205-9.28598C93.3926-7.13234 89.7539-7.27321 87.6002-9.60114L80.0589-17.7525ZM60.5903 3.83041L70.1897-23.5425L79.0096-14.189L71.3656 7.60882C70.3222 10.5814 67.0619 12.1489 64.0893 11.1067C61.1156 10.0645 59.5481 6.803 60.5903 3.83041ZM98.7265-73.088C98.7265-67.8901 94.5124-63.6772 89.3157-63.6772C84.1179-63.6772 79.9049-67.8901 79.9049-73.088C79.9049-78.2858 84.1179-82.4988 89.3157-82.4988C94.5124-82.4988 98.7265-78.2858 98.7265-73.088ZM90.2803-49.6439L106.09-37.8849C108.143-36.3568 108.571-33.4487 107.043-31.3941C105.515-29.3408 102.606-28.9134 100.553-30.4415L88.5971-39.3342C88.7916-43.1066 89.3587-46.5376 90.2803-49.6439Z"/>
  </g>
  <g id="Regular-S" transform="matrix(1 0 0 1 1394.13 696)">
   <path class="SFSymbolsPreviewNone" d="M76.1042-28.9111L73.9943-21.9487L81.5478-13.7854C82.3975-12.6441 84.8958-11.844 86.4697-13.3001C88.0436-14.7562 87.4537-16.636 86.451-17.7278L76.1042-28.9111Z"/>
   <path class="monochrome-0 multicolor-0:white hierarchical-0:primary SFSymbolsPreviewFFFFFF" d="M41.7431-49.3858C41.7431-50.1452 41.1268-50.7615 40.3674-50.7615L10.7929-50.7615C10.0335-50.7615 9.41711-50.1452 9.41711-49.3858C9.41711-48.6263 10.0335-48.01 10.7929-48.01L40.3674-48.01C41.1268-48.01 41.7431-48.6263 41.7431-49.3858ZM36.7343-8.54323C36.7343-9.30265 36.1179-9.91899 35.3585-9.91899L11.899-9.91899C11.1396-9.91899 10.5232-9.30265 10.5232-8.54323C10.5232-7.78381 11.1396-7.16747 11.899-7.16747L35.3585-7.16747C36.1179-7.16747 36.7343-7.78381 36.7343-8.54323ZM51.664-69.7713C51.664-70.5307 51.0466-71.147 50.2883-71.147L29.1907-71.147C28.4313-71.147 27.8149-70.5307 27.8149-69.7713C27.8149-69.0118 28.4313-68.3955 29.1907-68.3955L50.2883-68.3955C51.0466-68.3955 51.664-69.0118 51.664-69.7713ZM42.9659-28.6613C42.9659-29.4207 42.3496-30.037 41.5901-30.037L21.8188-30.037C21.0594-30.037 20.443-29.4207 20.443-28.6613C20.443-27.9019 21.0594-27.2855 21.8188-27.2855L41.5901-27.2855C42.3496-27.2855 42.9659-27.9019 42.9659-28.6613Z"/>
   <path class="monochrome-1 multicolor-1:white hierarchical-1:primary SFSymbolsPreviewFFFFFF" d="M84.4259-2.21472C84.427-1.48722 84.1144-0.794938 83.5674-0.313971C83.5663-0.313971 83.5652-0.312871 83.5641-0.31177C83.4375-0.206111 83.3462-0.0641328 83.3044 0.0965563C82.9445 1.436 82.8036 2.35281 82.7838 3.02968L82.7717 3.88376C82.7684 4.20403 82.8333 4.52101 82.9643 4.81267C83.6412 6.35242 84.7638 5.75039 85.8622 5.26062C86.0735 5.16817 86.2925 5.09773 86.5181 5.0493C87.4151 4.8622 88.3253 4.90402 89.251 5.19678C89.251 5.19678 89.251 5.19678 89.251 5.19678C90.258 5.50936 91.1099 5.64033 91.9342 5.73828C92.2303 5.7735 92.5297 5.7636 92.8235 5.70967C93.9473 5.50055 94.1751 4.89081 94.108 4.1501C94.0892 3.89916 93.9054 3.69005 93.6589 3.64052C91.3036 3.15295 89.4172 1.81791 86.7669-1.20547C86.7669-1.20547 86.7669-1.20547 86.7669-1.20547C86.6546-1.33314 86.593-1.49713 86.593-1.66552C86.5886-2.76393 86.5787-6.23635 86.5787-6.23635L87.2644-6.23855L87.2501-9.59872C86.1946-8.86131 85.0334-8.50251 83.7468-8.59276L83.7501-6.22865L84.4259-6.23085C84.4259-6.23085 84.4259-3.65322 84.4259-2.21472Z"/>
   <path class="monochrome-2 multicolor-2:systemOrangeColor hierarchical-2:primary SFSymbolsPreviewFF9500" d="M73.1138-19.546L64.5874-28.6195C63.0796-30.2241 62.4478-32.4639 62.8969-34.6211L65.6352-47.7822L64.1185-47.0062C63.3261-46.6012 62.7318-45.8924 62.4709-45.0406C61.301-41.2159 58.0134-30.4729 58.0134-30.4729C57.3223-28.2166 54.9295-26.9443 52.6722-27.6355C50.4159-28.3256 49.1436-30.7194 49.8348-32.9757L55.3522-51.007C55.613-51.8577 56.2073-52.5676 56.9998-52.9727C56.9998-52.9727 67.209-58.1951 70.5296-59.8933C71.4662-60.3732 72.503-60.623 73.5552-60.623L73.5552-60.623C75.5175-60.623 77.2796-59.7623 78.4804-58.3943L78.5046-58.3667C79.5216-57.2144 80.1346-55.7 80.1346-54.0436L79.6724-51.6332C78.5728-46.2501 77.8442-41.1235 77.5966-36.2599L77.59-36.1465C77.5218-34.9689 77.4898-33.8077 77.4865-32.662C77.4876-32.3307 77.5152-32.0027 77.5735-31.6814L77.8431-30.5576C77.8431-30.5576 77.9279-30.4146 78.0457-30.2186C78.4914-29.468 79.0153-28.7669 79.6085-28.1264C81.9044-25.6445 87.8433-19.2258 87.8433-19.2258C89.8288-17.0796 89.6978-13.726 87.5527-11.7405C85.4065-9.755 82.0519-9.88488 80.0664-12.0311L73.1138-19.546ZM55.1651 0.351898L64.0151-24.884L72.1464-16.2607L65.0992 3.83533C64.1372 6.57585 61.1315 8.02095 58.391 7.06012C55.6493 6.09928 54.2042 3.09242 55.1651 0.351898ZM90.3241-70.5615C90.3241-65.7694 86.4389-61.8854 81.6479-61.8854C76.8559-61.8854 72.9718-65.7694 72.9718-70.5615C72.9718-75.3536 76.8559-79.2376 81.6479-79.2376C86.4389-79.2376 90.3241-75.3536 90.3241-70.5615ZM82.5372-48.9477L97.1126-38.1067C99.0057-36.6979 99.3997-34.0169 97.9909-32.1227C96.5821-30.2297 93.901-29.8356 92.008-31.2444L80.9854-39.4429C81.1648-42.9208 81.6876-46.0839 82.5372-48.9477Z"/>
  </g>
  <g id="Ultralight-S" transform="matrix(1 0 0 1 506.814 696)">
   <path class="SFSymbolsPreviewNone" d="M70.357-29.149L68.44-22.823L75.303-15.406C76.075-14.369 78.345-13.642 79.775-14.965C81.205-16.288 80.669-17.996 79.758-18.988L70.357-29.149Z"/>
   <path class="monochrome-0 multicolor-0:white hierarchical-0:primary SFSymbolsPreviewFFFFFF" d="M39.137-47.752C39.137-48.442 38.577-49.002 37.887-49.002L11.016-49.002C10.326-49.002 9.766-48.442 9.766-47.752C9.766-47.062 10.326-46.502 11.016-46.502L37.887-46.502C38.577-46.502 39.137-47.062 39.137-47.752ZM34.586-10.643C34.586-11.333 34.026-11.893 33.336-11.893L12.021-11.893C11.331-11.893 10.771-11.333 10.771-10.643C10.771-9.953 11.331-9.393 12.021-9.393L33.336-9.393C34.026-9.393 34.586-9.953 34.586-10.643ZM48.151-66.274C48.151-66.964 47.59-67.524 46.901-67.524L27.732-67.524C27.042-67.524 26.482-66.964 26.482-66.274C26.482-65.584 27.042-65.024 27.732-65.024L46.901-65.024C47.59-65.024 48.151-65.584 48.151-66.274ZM40.248-28.922C40.248-29.612 39.688-30.172 38.998-30.172L21.034-30.172C20.344-30.172 19.784-29.612 19.784-28.922C19.784-28.232 20.344-27.672 21.034-27.672L38.998-27.672C39.688-27.672 40.248-28.232 40.248-28.922Z"/>
   <path class="monochrome-1 multicolor-1:white hierarchical-1:primary SFSymbolsPreviewFFFFFF" d="M77.918-4.893C77.919-4.232 77.635-3.603 77.138-3.166C77.137-3.166 77.136-3.165 77.135-3.164C77.02-3.068 76.937-2.939 76.899-2.793C76.572-1.576 76.444-0.743 76.426-0.128L76.415 0.648C76.412 0.939 76.471 1.227 76.59 1.492C77.205 2.891 78.225 2.344 79.223 1.899C79.415 1.815 79.614 1.751 79.819 1.707C80.634 1.537 81.461 1.575 82.302 1.841C82.302 1.841 82.302 1.841 82.302 1.841C83.217 2.125 83.991 2.244 84.74 2.333C85.009 2.365 85.281 2.356 85.548 2.307C86.569 2.117 86.776 1.563 86.715 0.89C86.698 0.662 86.531 0.472 86.307 0.427C84.167-0.016 82.453-1.229 80.045-3.976C80.045-3.976 80.045-3.976 80.045-3.976C79.943-4.092 79.887-4.241 79.887-4.394C79.883-5.392 79.874-8.547 79.874-8.547L80.497-8.549L80.484-11.602C79.525-10.932 78.47-10.606 77.301-10.688L77.304-8.54L77.918-8.542C77.918-8.542 77.918-6.2 77.918-4.893Z"/>
   <path class="monochrome-2 multicolor-2:systemOrangeColor hierarchical-2:primary SFSymbolsPreviewFF9500" d="M67.64-20.64L59.893-28.884C58.523-30.342 57.949-32.377 58.357-34.337L60.845-46.295L59.467-45.59C58.747-45.222 58.207-44.578 57.97-43.804C56.907-40.329 53.92-30.568 53.92-30.568C53.292-28.518 51.118-27.362 49.067-27.99C47.017-28.617 45.861-30.792 46.489-32.842L51.502-49.225C51.739-49.998 52.279-50.643 52.999-51.011C52.999-51.011 62.275-55.756 65.292-57.299C66.143-57.735 67.085-57.962 68.041-57.962L68.041-57.962C69.824-57.962 71.425-57.18 72.516-55.937L72.538-55.912C73.462-54.865 74.019-53.489 74.019-51.984L73.599-49.794C72.6-44.903 71.938-40.245 71.713-35.826L71.707-35.723C71.645-34.653 71.616-33.598 71.613-32.557C71.614-32.256 71.639-31.958 71.692-31.666L71.937-30.645C71.937-30.645 72.014-30.515 72.121-30.337C72.526-29.655 73.002-29.018 73.541-28.436C75.627-26.181 81.023-20.349 81.023-20.349C82.827-18.399 82.708-15.352 80.759-13.548C78.809-11.744 75.761-11.862 73.957-13.812L67.64-20.64ZM51.332-2.561L59.373-25.49L66.761-17.655L60.358 0.604C59.484 3.094 56.753 4.407 54.263 3.534C51.772 2.661 50.459-0.071 51.332-2.561ZM83.277-66.992C83.277-62.638 79.747-59.109 75.394-59.109C71.04-59.109 67.511-62.638 67.511-66.992C67.511-71.346 71.04-74.875 75.394-74.875C79.747-74.875 83.277-71.346 83.277-66.992ZM76.202-47.354L89.445-37.504C91.165-36.224 91.523-33.788 90.243-32.067C88.963-30.347 86.527-29.989 84.807-31.269L74.792-38.718C74.955-41.878 75.43-44.752 76.202-47.354Z"/>
  </g>
 </g>
</svg>
