<?xml version="1.0" encoding="UTF-8"?>
<!-- Generator: CustomSymbols v2.6.4.43 by @serious_bret https://bretlester.com/app_content/CustomSymbols/ -->
<!-- Guides: Left/Right 0.0/0.0 Cap/Base 0.0/0.0 -->
<!-- Settings: RefScale 1.0 Min/Max Stroke Scales 0.37/2.36 -->
<!DOCTYPE svg
PUBLIC "-//W3C//DTD SVG 1.1//EN"
       "http://www.w3.org/Graphics/SVG/1.1/DTD/svg11.dtd">
<svg version="1.1" xmlns="http://www.w3.org/2000/svg" xmlns:xlink="http://www.w3.org/1999/xlink" width="3300" height="2200">
<![CDATA[<?xml version="1.0" encoding="UTF-8" standalone="no"?>
<!DOCTYPE svg PUBLIC "-//W3C//DTD SVG 1.1//EN" "http://www.w3.org/Graphics/SVG/1.1/DTD/svg11.dtd">
<svg width="100%" height="100%" viewBox="0 0 371 659" version="1.1" xmlns="http://www.w3.org/2000/svg" xmlns:xlink="http://www.w3.org/1999/xlink" xml:space="preserve" xmlns:serif="http://www.serif.com/" style="fill-rule:evenodd;clip-rule:evenodd;stroke-linejoin:round;stroke-miterlimit:2;">
    <g transform="matrix(0.988883,0,0,0.988883,-320.98,-177.021)">
        <path d="M587.674,704.562C577.491,704.872 567.235,701.319 559.296,693.973L559.227,694.038C559.227,694.038 477.597,607.172 440.223,567.401C428.759,555.202 423.963,538.179 427.373,521.789L448.18,421.766L436.659,427.658C430.635,430.739 426.117,436.13 424.137,442.6C415.242,471.665 390.256,553.31 390.256,553.31C385.007,570.462 366.82,580.126 349.668,574.877C332.516,569.628 322.852,551.441 328.101,534.289L370.037,397.261C372.017,390.791 376.535,385.4 382.559,382.319C382.559,382.319 460.144,342.628 485.376,329.721C492.496,326.078 500.38,324.178 508.378,324.178C508.378,324.179 508.378,324.179 508.378,324.179C523.286,324.179 536.678,330.717 545.805,341.116L545.988,341.323C553.715,350.08 558.378,361.589 558.378,374.179L554.862,392.498C544.421,443.646 538.368,491.744 538.255,536.678C538.279,548.531 542.817,559.93 550.946,568.557C573.122,592.133 617.449,639.172 617.449,639.172L617.38,639.237C630.318,655.001 629.31,678.186 614.837,692.759L614.837,745.939L609.1,745.939L609.1,784.168C611.891,786.148 613.903,789.154 614.584,792.634C617.001,793.43 618.977,794.484 620.194,795.804C631.878,812.395 648.379,820.08 666.311,824.823C667.598,825.161 668.503,826.314 668.525,827.644C668.611,832.598 666.868,836.903 660.02,839.413C655.84,840.942 651.327,841.323 646.95,840.516C611.496,834.054 621.732,832.006 595.504,840.313C592.181,841.376 588.56,840.953 585.571,839.152C580.777,836.241 578.786,830.628 579.172,821.539C579.409,815.948 584.515,801.464 583.887,796.67C583.88,796.619 583.877,796.567 583.878,796.515C583.953,794.897 585.498,793.606 587.922,792.66C588.564,789.347 590.411,786.463 592.988,784.481L592.935,784.481L592.935,745.939L587.674,745.939L587.674,704.562ZM497.666,661.322L444.109,814.048C438.372,830.406 423.056,840.691 406.658,840.818L406.413,840.819C402.002,840.826 397.519,840.099 393.126,838.558C372.293,831.252 361.31,808.408 368.616,787.575L435.871,595.787L497.666,661.322ZM545.243,570.056C542.839,567.544 539.302,566.461 535.904,567.196C532.505,567.932 529.732,570.38 528.582,573.661C522.772,590.228 513.828,615.732 509.858,627.054C508.619,630.587 509.458,634.517 512.032,637.237C524.594,650.51 561.071,689.049 561.071,689.049C567.578,695.924 576.561,699.917 586.025,700.14C595.49,700.363 604.651,696.798 611.475,690.237C611.476,690.236 611.476,690.235 611.477,690.235C625.515,676.737 625.98,654.424 612.515,640.354C612.515,640.354 566.966,592.757 545.243,570.056ZM569.462,383.486L684.228,468.876C698.621,479.582 701.614,499.958 690.909,514.35C680.203,528.743 659.827,531.736 645.435,521.031L557.667,455.722C559.346,431.358 563.219,407.273 569.462,383.486ZM569.877,182.711C606.269,182.711 635.814,212.256 635.814,248.648C635.814,285.04 606.269,314.585 569.877,314.585C533.485,314.585 503.94,285.04 503.94,248.648C503.94,212.256 533.485,182.711 569.877,182.711Z"/>
    </g>
</svg>
]]>
 <g id="Notes">
  <rect height="2200" id="artboard" style="fill:white;opacity:1" width="3300" x="0" y="0"/>
  <line id="" style="fill:none;stroke:black;opacity:1;stroke-width:0.5;" x1="263" x2="3036" y1="292" y2="292"/>
  <text id="reftext1" style="stroke:none;fill:black;font-family:-apple-system,&quot;SF Pro Display&quot;,&quot;SF Pro Text&quot;,Helvetica,sans-serif;font-weight:bold;" transform="matrix(1 0 0 1 263 322)">Weight/Scale Variations</text>
  <text id="reftext2" style="stroke:none;fill:black;font-family:-apple-system,&quot;SF Pro Display&quot;,&quot;SF Pro Text&quot;,Helvetica,sans-serif;text-anchor:middle;" transform="matrix(1 0 0 1 559.711 322)">Ultralight</text>
  <text style="stroke:none;fill:black;font-family:-apple-system,&quot;SF Pro Display&quot;,&quot;SF Pro Text&quot;,Helvetica,sans-serif;text-anchor:middle;" transform="matrix(1 0 0 1 856.422 322)">Thin</text>
  <text style="stroke:none;fill:black;font-family:-apple-system,&quot;SF Pro Display&quot;,&quot;SF Pro Text&quot;,Helvetica,sans-serif;text-anchor:middle;" transform="matrix(1 0 0 1 1153.13 322)">Light</text>
  <text style="stroke:none;fill:black;font-family:-apple-system,&quot;SF Pro Display&quot;,&quot;SF Pro Text&quot;,Helvetica,sans-serif;text-anchor:middle;" transform="matrix(1 0 0 1 1449.84 322)">Regular</text>
  <text style="stroke:none;fill:black;font-family:-apple-system,&quot;SF Pro Display&quot;,&quot;SF Pro Text&quot;,Helvetica,sans-serif;text-anchor:middle;" transform="matrix(1 0 0 1 1746.56 322)">Medium</text>
  <text style="stroke:none;fill:black;font-family:-apple-system,&quot;SF Pro Display&quot;,&quot;SF Pro Text&quot;,Helvetica,sans-serif;text-anchor:middle;" transform="matrix(1 0 0 1 2043.27 322)">Semibold</text>
  <text style="stroke:none;fill:black;font-family:-apple-system,&quot;SF Pro Display&quot;,&quot;SF Pro Text&quot;,Helvetica,sans-serif;text-anchor:middle;" transform="matrix(1 0 0 1 2339.98 322)">Bold</text>
  <text style="stroke:none;fill:black;font-family:-apple-system,&quot;SF Pro Display&quot;,&quot;SF Pro Text&quot;,Helvetica,sans-serif;text-anchor:middle;" transform="matrix(1 0 0 1 2636.69 322)">Heavy</text>
  <text style="stroke:none;fill:black;font-family:-apple-system,&quot;SF Pro Display&quot;,&quot;SF Pro Text&quot;,Helvetica,sans-serif;text-anchor:middle;" transform="matrix(1 0 0 1 2933.4 322)">Black</text>
  <line id="" style="fill:none;stroke:black;opacity:1;stroke-width:0.5;" x1="263" x2="3036" y1="1903" y2="1903"/>
  <g id="" transform="matrix(1 0 0 1 263 1933)">
   <path d="M9.24805 0.830078C13.5547 0.830078 17.1387-2.74414 17.1387-7.05078C17.1387-11.3574 13.5449-14.9316 9.23828-14.9316C4.94141-14.9316 1.36719-11.3574 1.36719-7.05078C1.36719-2.74414 4.95117 0.830078 9.24805 0.830078ZM9.24805-0.654297C5.70312-0.654297 2.87109-3.49609 2.87109-7.05078C2.87109-10.6055 5.69336-13.4473 9.23828-13.4473C12.793-13.4473 15.6348-10.6055 15.6445-7.05078C15.6543-3.49609 12.8027-0.654297 9.24805-0.654297ZM6.39648-6.31836L8.50586-6.31836L8.50586-4.19922C8.50586-3.75977 8.79883-3.45703 9.22852-3.45703C9.67773-3.45703 9.9707-3.75977 9.9707-4.19922L9.9707-6.31836L12.0996-6.31836C12.5391-6.31836 12.8418-6.61133 12.8418-7.04102C12.8418-7.48047 12.5391-7.7832 12.0996-7.7832L9.9707-7.7832L9.9707-9.89258C9.9707-10.3418 9.67773-10.6445 9.22852-10.6445C8.79883-10.6445 8.50586-10.3418 8.50586-9.89258L8.50586-7.7832L6.39648-7.7832C5.94727-7.7832 5.64453-7.48047 5.64453-7.04102C5.64453-6.61133 5.94727-6.31836 6.39648-6.31836Z"/>
  </g>
  <g id="" transform="matrix(1 0 0 1 281.506 1933)">
   <path d="M11.709 2.91016C17.1582 2.91016 21.6699-1.61133 21.6699-7.05078C21.6699-12.5 17.1484-17.0117 11.6992-17.0117C6.25977-17.0117 1.74805-12.5 1.74805-7.05078C1.74805-1.61133 6.26953 2.91016 11.709 2.91016ZM11.709 1.25C7.09961 1.25 3.41797-2.44141 3.41797-7.05078C3.41797-11.6602 7.08984-15.3516 11.6992-15.3516C16.3086-15.3516 20-11.6602 20.0098-7.05078C20.0195-2.44141 16.3184 1.25 11.709 1.25ZM7.98828-6.23047L10.8789-6.23047L10.8789-3.32031C10.8789-2.83203 11.2109-2.5 11.6895-2.5C12.1777-2.5 12.5195-2.83203 12.5195-3.32031L12.5195-6.23047L15.4297-6.23047C15.918-6.23047 16.25-6.5625 16.25-7.04102C16.25-7.5293 15.918-7.87109 15.4297-7.87109L12.5195-7.87109L12.5195-10.7617C12.5195-11.2695 12.1777-11.6016 11.6895-11.6016C11.2109-11.6016 10.8789-11.2598 10.8789-10.7617L10.8789-7.87109L7.98828-7.87109C7.48047-7.87109 7.14844-7.5293 7.14844-7.04102C7.14844-6.5625 7.49023-6.23047 7.98828-6.23047Z"/>
  </g>
  <g id="" transform="matrix(1 0 0 1 304.924 1933)">
   <path d="M14.9707 5.66406C21.9336 5.66406 27.6953-0.0976562 27.6953-7.05078C27.6953-14.0137 21.9238-19.7754 14.9609-19.7754C8.00781-19.7754 2.25586-14.0137 2.25586-7.05078C2.25586-0.0976562 8.01758 5.66406 14.9707 5.66406ZM14.9707 3.84766C8.93555 3.84766 4.08203-1.01562 4.08203-7.05078C4.08203-13.0957 8.92578-17.9492 14.9609-17.9492C21.0059-17.9492 25.8594-13.0957 25.8691-7.05078C25.8789-1.01562 21.0156 3.84766 14.9707 3.84766ZM10.0586-6.14258L14.0625-6.14258L14.0625-2.12891C14.0625-1.5918 14.4336-1.2207 14.9512-1.2207C15.4883-1.2207 15.8594-1.5918 15.8594-2.12891L15.8594-6.14258L19.8828-6.14258C20.4102-6.14258 20.791-6.51367 20.791-7.03125C20.791-7.56836 20.4199-7.94922 19.8828-7.94922L15.8594-7.94922L15.8594-11.9531C15.8594-12.5098 15.4883-12.8809 14.9512-12.8809C14.4336-12.8809 14.0625-12.5 14.0625-11.9531L14.0625-7.94922L10.0586-7.94922C9.50195-7.94922 9.13086-7.56836 9.13086-7.03125C9.13086-6.51367 9.51172-6.14258 10.0586-6.14258Z"/>
  </g>
  <text style="stroke:none;fill:black;font-family:-apple-system,&quot;SF Pro Display&quot;,&quot;SF Pro Text&quot;,Helvetica,sans-serif;font-weight:bold;" transform="matrix(1 0 0 1 263 1953)">Design Variations</text>
  <text style="stroke:none;fill:black;font-family:-apple-system,&quot;SF Pro Display&quot;,&quot;SF Pro Text&quot;,Helvetica,sans-serif;" transform="matrix(1 0 0 1 263 1971)">Symbols are supported in up to nine weights and three scales.</text>
  <text style="stroke:none;fill:black;font-family:-apple-system,&quot;SF Pro Display&quot;,&quot;SF Pro Text&quot;,Helvetica,sans-serif;" transform="matrix(1 0 0 1 263 1989)">For optimal layout with text and other symbols, vertically align</text>
  <text style="stroke:none;fill:black;font-family:-apple-system,&quot;SF Pro Display&quot;,&quot;SF Pro Text&quot;,Helvetica,sans-serif;" transform="matrix(1 0 0 1 263 2007)">symbols with the adjacent text.</text>
  <line id="" style="fill:none;stroke:#00AEEF;stroke-width:0.5;opacity:1.0;" x1="776" x2="776" y1="1919" y2="1933"/>
  <g id="" transform="matrix(1 0 0 1 776 1933)">
   <path d="M3.31055 0.126953C3.82812 0.126953 4.08203-0.0683594 4.26758-0.605469L5.52734-4.0625L11.2891-4.0625L12.5488-0.605469C12.7344-0.0683594 12.9883 0.126953 13.4961 0.126953C14.0137 0.126953 14.3457-0.185547 14.3457-0.673828C14.3457-0.839844 14.3164-0.986328 14.2383-1.20117L9.6582-13.3887C9.43359-13.9941 9.0332-14.2871 8.4082-14.2871C7.80273-14.2871 7.39258-13.9941 7.17773-13.3984L2.59766-1.19141C2.51953-0.976562 2.49023-0.830078 2.49023-0.664062C2.49023-0.175781 2.80273 0.126953 3.31055 0.126953ZM6.00586-5.53711L8.37891-12.1094L8.42773-12.1094L10.8008-5.53711Z"/>
  </g>
  <line id="" style="fill:none;stroke:#00AEEF;stroke-width:0.5;opacity:1.0;" x1="792.836" x2="792.836" y1="1919" y2="1933"/>
  <text style="stroke:none;fill:black;font-family:-apple-system,&quot;SF Pro Display&quot;,&quot;SF Pro Text&quot;,Helvetica,sans-serif;font-weight:bold;" transform="matrix(1 0 0 1 776 1953)">Margins</text>
  <text style="stroke:none;fill:black;font-family:-apple-system,&quot;SF Pro Display&quot;,&quot;SF Pro Text&quot;,Helvetica,sans-serif;" transform="matrix(1 0 0 1 776 1971)">Leading and trailing margins on the left and right side of each symbol</text>
  <text style="stroke:none;fill:black;font-family:-apple-system,&quot;SF Pro Display&quot;,&quot;SF Pro Text&quot;,Helvetica,sans-serif;" transform="matrix(1 0 0 1 776 1989)">can be adjusted by modifying the x-location of the margin guidelines.</text>
  <text style="stroke:none;fill:black;font-family:-apple-system,&quot;SF Pro Display&quot;,&quot;SF Pro Text&quot;,Helvetica,sans-serif;" transform="matrix(1 0 0 1 776 2007)">Modifications are automatically applied proportionally to all</text>
  <text style="stroke:none;fill:black;font-family:-apple-system,&quot;SF Pro Display&quot;,&quot;SF Pro Text&quot;,Helvetica,sans-serif;" transform="matrix(1 0 0 1 776 2025)">scales and weights.</text>
  <g id="" transform="matrix(1 0 0 1 1289 1933)">
   <path d="M2.8418 1.86523L4.54102 3.57422C5.40039 4.44336 6.38672 4.38477 7.31445 3.35938L17.4902-7.85156C17.7539-7.76367 18.0273-7.7832 18.3398-7.8418L19.4043-8.03711L20.0684-7.36328L20.0293-6.80664C19.9902-6.30859 20.1172-5.92773 20.6055-5.44922L21.3672-4.70703C21.8457-4.22852 22.4609-4.19922 22.9297-4.66797L25.8398-7.58789C26.3086-8.05664 26.2891-8.65234 25.8105-9.13086L25.0391-9.89258C24.5605-10.3711 24.1895-10.5273 23.7109-10.4883L23.1348-10.4395L22.4902-11.0742L22.7344-12.1973C22.8613-12.7637 22.7051-13.2031 22.1191-13.7891L19.9219-15.9766C16.582-19.2969 12.1484-19.2188 9.25781-16.3281C8.83789-15.918 8.80859-15.3418 9.04297-14.9512C9.27734-14.5898 9.73633-14.3555 10.3809-14.5215C11.8457-14.8633 13.3691-14.9219 14.7949-13.9844L14.209-12.5293C14.0137-12.0508 13.9844-11.6504 14.1113-11.2891L3.04688-0.898438C2.06055 0.0195312 1.98242 0.996094 2.8418 1.86523ZM10.752-15.957C13.1836-17.7344 16.4746-17.4316 18.7012-15.2051L21.1328-12.793C21.3672-12.5586 21.4062-12.373 21.3379-12.0312L21.0156-10.5469L22.5195-9.0625L23.5059-9.12109C23.7598-9.13086 23.8379-9.11133 24.0332-8.91602L24.6094-8.33984L22.168-5.89844L21.5918-6.47461C21.3965-6.66992 21.3672-6.74805 21.377-7.01172L21.4453-7.98828L19.9512-9.47266L18.4277-9.21875C18.1055-9.15039 17.959-9.17969 17.7148-9.41406L15.7129-11.416C15.459-11.6504 15.4297-11.8164 15.5859-12.1875L16.4648-14.2773C14.9023-15.7324 12.8711-16.3574 10.8398-15.7617C10.6836-15.7227 10.625-15.8496 10.752-15.957ZM5.27344 2.30469L4.10156 1.14258C3.63281 0.683594 3.74023 0.341797 4.14062-0.0195312L14.9512-10.1953L16.416-8.71094L6.42578 2.27539C6.07422 2.67578 5.74219 2.77344 5.27344 2.30469Z"/>
  </g>
  <text style="stroke:none;fill:black;font-family:-apple-system,&quot;SF Pro Display&quot;,&quot;SF Pro Text&quot;,Helvetica,sans-serif;font-weight:bold;" transform="matrix(1 0 0 1 1289 1953)">Exporting</text>
  <text style="stroke:none;fill:black;font-family:-apple-system,&quot;SF Pro Display&quot;,&quot;SF Pro Text&quot;,Helvetica,sans-serif;" transform="matrix(1 0 0 1 1289 1971)">Symbols should be outlined when exporting to ensure the</text>
  <text style="stroke:none;fill:black;font-family:-apple-system,&quot;SF Pro Display&quot;,&quot;SF Pro Text&quot;,Helvetica,sans-serif;" transform="matrix(1 0 0 1 1289 1989)">design is preserved when submitting to Xcode.</text>
  <text id="template-version" style="stroke:none;fill:black;font-family:-apple-system,&quot;SF Pro Display&quot;,&quot;SF Pro Text&quot;,Helvetica,sans-serif;text-anchor:end;" transform="matrix(1 0 0 1 3036 1933)">Template v.2.0</text>
  <text style="stroke:none;fill:black;font-family:-apple-system,&quot;SF Pro Display&quot;,&quot;SF Pro Text&quot;,Helvetica,sans-serif;text-anchor:end;" transform="matrix(1 0 0 1 3036 1951)">Requires Xcode 12 or greater</text>
  <text style="stroke:none;fill:black;font-family:-apple-system,&quot;SF Pro Display&quot;,&quot;SF Pro Text&quot;,Helvetica,sans-serif;" transform="matrix(1 0 0 1 263 726)">Small</text>
  <text style="stroke:none;fill:black;font-family:-apple-system,&quot;SF Pro Display&quot;,&quot;SF Pro Text&quot;,Helvetica,sans-serif;" transform="matrix(1 0 0 1 263 1156)">Medium</text>
  <text style="stroke:none;fill:black;font-family:-apple-system,&quot;SF Pro Display&quot;,&quot;SF Pro Text&quot;,Helvetica,sans-serif;" transform="matrix(1 0 0 1 263 1586)">Large</text>
 </g>
 <g id="Guides">
  <g id="H-reference" style="fill:#27AAE1;stroke:none;" transform="matrix(1 0 0 1 339 696)">
   <path d="M0.976562 0L3.66211 0L12.9883-24.4629L45.752-24.4629L55.127 0L57.7637 0L30.6152-70.459L28.125-70.459ZM29.3457-67.1387L29.4434-67.1387L44.873-26.709L13.8672-26.709Z"/>
  </g>
  <line id="Baseline-S" style="fill:none;stroke:#27AAE1;opacity:1;stroke-width:0.5;" x1="263" x2="3036" y1="696" y2="696"/>
  <line id="Capline-S" style="fill:none;stroke:#27AAE1;opacity:1;stroke-width:0.5;" x1="263" x2="3036" y1="625.541" y2="625.541"/>
  <g id="H-reference" style="fill:#27AAE1;stroke:none;" transform="matrix(1 0 0 1 339 1126)">
   <path d="M0.976562 0L3.66211 0L12.9883-24.4629L45.752-24.4629L55.127 0L57.7637 0L30.6152-70.459L28.125-70.459ZM29.3457-67.1387L29.4434-67.1387L44.873-26.709L13.8672-26.709Z"/>
  </g>
  <line id="Baseline-M" style="fill:none;stroke:#27AAE1;opacity:1;stroke-width:0.5;" x1="263" x2="3036" y1="1126" y2="1126"/>
  <line id="Capline-M" style="fill:none;stroke:#27AAE1;opacity:1;stroke-width:0.5;" x1="263" x2="3036" y1="1055.54" y2="1055.54"/>
  <g id="H-reference" style="fill:#27AAE1;stroke:none;" transform="matrix(1 0 0 1 339 1556)">
   <path d="M0.976562 0L3.66211 0L12.9883-24.4629L45.752-24.4629L55.127 0L57.7637 0L30.6152-70.459L28.125-70.459ZM29.3457-67.1387L29.4434-67.1387L44.873-26.709L13.8672-26.709Z"/>
  </g>
  <line id="Baseline-L" style="fill:none;stroke:#27AAE1;opacity:1;stroke-width:0.5;" x1="263" x2="3036" y1="1556" y2="1556"/>
  <line id="Capline-L" style="fill:none;stroke:#27AAE1;opacity:1;stroke-width:0.5;" x1="263" x2="3036" y1="1485.54" y2="1485.54"/>
  <line id="left-margin" x1="1431.2964298119782" x2="1431.2964298119782" y1="1030.79" y2="1150.12" style="fill:none;stroke:#00AEEF;stroke-width:0.5;opacity:1.0;"/>
  <line id="right-margin" x1="1470.9635701880215" x2="1470.9635701880215" y1="1030.79" y2="1150.12" style="fill:none;stroke:#00AEEF;stroke-width:0.5;opacity:1.0;"/>
 </g>
 <g id="Symbols">
  <g id="Black-L" transform="matrix(1.0,0.0,0.0,1.0,2909.094694457452,1475.3233447265625)">  <path stroke-dasharray="none" version="1.1" fill="#000000" stroke-miterlimit="2" stroke-opacity="1" stroke="none" fill-opacity="1" fill-rule="evenodd" stroke-width="1px" stroke-linecap="butt" xmlns:xlink="http://www.w3.org/1999/xlink" stroke-linejoin="round" clip-rule="evenodd" xml:space="preserve" xmlns:serif="http://www.serif.com/" d="M35.883,71.681C34.494,71.724,33.095,71.239,32.012,70.237L32.003,70.246C32.003,70.246,20.869,58.398,15.772,52.974C14.208,51.31,13.554,48.988,14.019,46.752L16.857,33.11L15.286,33.914C14.464,34.334,13.848,35.069,13.578,35.952C12.364,39.916,8.957,51.052,8.957,51.052C8.241,53.391,5.76,54.709,3.421,53.993C1.081,53.277,-0.237,50.797,0.479,48.457L6.199,29.768C6.469,28.885,7.085,28.15,7.907,27.73C7.907,27.73,18.489,22.316,21.93,20.556C22.901,20.059,23.977,19.8,25.068,19.8C25.068,19.8,25.068,19.8,25.068,19.8C27.101,19.8,28.927,20.692,30.172,22.11L30.197,22.138C31.251,23.333,31.887,24.902,31.887,26.62L31.408,29.118C29.984,36.094,29.158,42.655,29.143,48.783C29.146,50.4,29.765,51.955,30.874,53.131C33.898,56.347,39.944,62.763,39.944,62.763L39.935,62.772C41.699,64.922,41.562,68.084,39.588,70.072L39.588,77.325L38.805,77.325L38.805,82.539C39.186,82.809,39.46,83.219,39.553,83.694C39.883,83.802,40.152,83.946,40.318,84.126C41.912,86.389,44.163,87.437,46.609,88.084C46.784,88.13,46.907,88.287,46.91,88.469C46.922,89.145,46.684,89.732,45.75,90.074C45.18,90.283,44.565,90.335,43.968,90.225C39.132,89.343,40.528,89.064,36.951,90.197C36.498,90.342,36.004,90.284,35.596,90.039C34.942,89.641,34.671,88.876,34.723,87.636C34.756,86.874,35.452,84.898,35.366,84.244C35.366,84.237,35.365,84.23,35.365,84.223C35.375,84.002,35.586,83.826,35.917,83.697C36.004,83.245,36.256,82.852,36.608,82.582L36.601,82.582L36.601,77.325L35.883,77.325L35.883,71.681ZM23.607,65.784L16.302,86.614C15.519,88.846,13.43,90.248,11.194,90.266L11.16,90.266C10.559,90.267,9.947,90.168,9.348,89.957C6.507,88.961,5.009,85.845,6.005,83.004L15.178,56.845L23.607,65.784ZM30.096,53.336C29.768,52.993,29.285,52.845,28.822,52.946C28.358,53.046,27.98,53.38,27.823,53.827C27.031,56.087,25.811,59.566,25.269,61.11C25.1,61.592,25.215,62.128,25.566,62.499C27.279,64.309,32.255,69.566,32.255,69.566C33.142,70.503,34.367,71.048,35.658,71.078C36.949,71.109,38.199,70.622,39.129,69.728C39.129,69.727,39.129,69.727,39.13,69.727C41.044,67.886,41.108,64.843,39.271,62.924C39.271,62.924,33.059,56.432,30.096,53.336ZM33.399,27.889L49.052,39.536C51.015,40.996,51.424,43.775,49.964,45.738C48.503,47.701,45.724,48.109,43.761,46.649L31.79,37.741C32.019,34.418,32.547,31.133,33.399,27.889ZM33.456,0.505C38.419,0.505,42.449,4.534,42.449,9.498C42.449,14.462,38.419,18.491,33.456,18.491C28.492,18.491,24.462,14.462,24.462,9.498C24.462,4.534,28.492,0.505,33.456,0.505ZM33.456,0.505"/>
</g>
  <g id="Heavy-L" transform="matrix(1.0,0.0,0.0,1.0,2612.384694457452,1475.3233447265625)">  <path stroke-dasharray="none" fill-rule="evenodd" version="1.1" stroke-linecap="butt" xmlns:serif="http://www.serif.com/" xml:space="preserve" stroke="none" stroke-linejoin="round" fill-opacity="1" fill="#000000" stroke-miterlimit="2" stroke-width="1px" clip-rule="evenodd" stroke-opacity="1" xmlns:xlink="http://www.w3.org/1999/xlink" d="M35.883,71.681C34.494,71.724,33.095,71.239,32.012,70.237L32.003,70.246C32.003,70.246,20.869,58.398,15.772,52.974C14.208,51.31,13.554,48.988,14.019,46.752L16.857,33.11L15.286,33.914C14.464,34.334,13.848,35.069,13.578,35.952C12.364,39.916,8.957,51.052,8.957,51.052C8.241,53.391,5.76,54.709,3.421,53.993C1.081,53.277,-0.237,50.797,0.479,48.457L6.199,29.768C6.469,28.885,7.085,28.15,7.907,27.73C7.907,27.73,18.489,22.316,21.93,20.556C22.901,20.059,23.977,19.8,25.068,19.8C25.068,19.8,25.068,19.8,25.068,19.8C27.101,19.8,28.927,20.692,30.172,22.11L30.197,22.138C31.251,23.333,31.887,24.902,31.887,26.62L31.408,29.118C29.984,36.094,29.158,42.655,29.143,48.783C29.146,50.4,29.765,51.955,30.874,53.131C33.898,56.347,39.944,62.763,39.944,62.763L39.935,62.772C41.699,64.922,41.562,68.084,39.588,70.072L39.588,77.325L38.805,77.325L38.805,82.539C39.186,82.809,39.46,83.219,39.553,83.694C39.883,83.802,40.152,83.946,40.318,84.126C41.912,86.389,44.163,87.437,46.609,88.084C46.784,88.13,46.907,88.287,46.91,88.469C46.922,89.145,46.684,89.732,45.75,90.074C45.18,90.283,44.565,90.335,43.968,90.225C39.132,89.343,40.528,89.064,36.951,90.197C36.498,90.342,36.004,90.284,35.596,90.039C34.942,89.641,34.671,88.876,34.723,87.636C34.756,86.874,35.452,84.898,35.366,84.244C35.366,84.237,35.365,84.23,35.365,84.223C35.375,84.002,35.586,83.826,35.917,83.697C36.004,83.245,36.256,82.852,36.608,82.582L36.601,82.582L36.601,77.325L35.883,77.325L35.883,71.681ZM23.607,65.784L16.302,86.614C15.519,88.846,13.43,90.248,11.194,90.266L11.16,90.266C10.559,90.267,9.947,90.168,9.348,89.957C6.507,88.961,5.009,85.845,6.005,83.004L15.178,56.845L23.607,65.784ZM30.096,53.336C29.768,52.993,29.285,52.845,28.822,52.946C28.358,53.046,27.98,53.38,27.823,53.827C27.031,56.087,25.811,59.566,25.269,61.11C25.1,61.592,25.215,62.128,25.566,62.499C27.279,64.309,32.255,69.566,32.255,69.566C33.142,70.503,34.367,71.048,35.658,71.078C36.949,71.109,38.199,70.622,39.129,69.728C39.129,69.727,39.129,69.727,39.13,69.727C41.044,67.886,41.108,64.843,39.271,62.924C39.271,62.924,33.059,56.432,30.096,53.336ZM33.399,27.889L49.052,39.536C51.015,40.996,51.424,43.775,49.964,45.738C48.503,47.701,45.724,48.109,43.761,46.649L31.79,37.741C32.019,34.418,32.547,31.133,33.399,27.889ZM33.456,0.505C38.419,0.505,42.449,4.534,42.449,9.498C42.449,14.462,38.419,18.491,33.456,18.491C28.492,18.491,24.462,14.462,24.462,9.498C24.462,4.534,28.492,0.505,33.456,0.505ZM33.456,0.505"/>
</g>
  <g id="Bold-L" transform="matrix(1.0,0.0,0.0,1.0,2315.674694457452,1475.3233447265625)">  <path stroke-miterlimit="2" xml:space="preserve" version="1.1" stroke-opacity="1" stroke-width="1px" stroke-dasharray="none" fill-opacity="1" xmlns:xlink="http://www.w3.org/1999/xlink" stroke-linejoin="round" stroke="none" xmlns:serif="http://www.serif.com/" stroke-linecap="butt" fill-rule="evenodd" fill="#000000" clip-rule="evenodd" d="M35.883,71.681C34.494,71.724,33.095,71.239,32.012,70.237L32.003,70.246C32.003,70.246,20.869,58.398,15.772,52.974C14.208,51.31,13.554,48.988,14.019,46.752L16.857,33.11L15.286,33.914C14.464,34.334,13.848,35.069,13.578,35.952C12.364,39.916,8.957,51.052,8.957,51.052C8.241,53.391,5.76,54.709,3.421,53.993C1.081,53.277,-0.237,50.797,0.479,48.457L6.199,29.768C6.469,28.885,7.085,28.15,7.907,27.73C7.907,27.73,18.489,22.316,21.93,20.556C22.901,20.059,23.977,19.8,25.068,19.8C25.068,19.8,25.068,19.8,25.068,19.8C27.101,19.8,28.927,20.692,30.172,22.11L30.197,22.138C31.251,23.333,31.887,24.902,31.887,26.62L31.408,29.118C29.984,36.094,29.158,42.655,29.143,48.783C29.146,50.4,29.765,51.955,30.874,53.131C33.898,56.347,39.944,62.763,39.944,62.763L39.935,62.772C41.699,64.922,41.562,68.084,39.588,70.072L39.588,77.325L38.805,77.325L38.805,82.539C39.186,82.809,39.46,83.219,39.553,83.694C39.883,83.802,40.152,83.946,40.318,84.126C41.912,86.389,44.163,87.437,46.609,88.084C46.784,88.13,46.907,88.287,46.91,88.469C46.922,89.145,46.684,89.732,45.75,90.074C45.18,90.283,44.565,90.335,43.968,90.225C39.132,89.343,40.528,89.064,36.951,90.197C36.498,90.342,36.004,90.284,35.596,90.039C34.942,89.641,34.671,88.876,34.723,87.636C34.756,86.874,35.452,84.898,35.366,84.244C35.366,84.237,35.365,84.23,35.365,84.223C35.375,84.002,35.586,83.826,35.917,83.697C36.004,83.245,36.256,82.852,36.608,82.582L36.601,82.582L36.601,77.325L35.883,77.325L35.883,71.681ZM23.607,65.784L16.302,86.614C15.519,88.846,13.43,90.248,11.194,90.266L11.16,90.266C10.559,90.267,9.947,90.168,9.348,89.957C6.507,88.961,5.009,85.845,6.005,83.004L15.178,56.845L23.607,65.784ZM30.096,53.336C29.768,52.993,29.285,52.845,28.822,52.946C28.358,53.046,27.98,53.38,27.823,53.827C27.031,56.087,25.811,59.566,25.269,61.11C25.1,61.592,25.215,62.128,25.566,62.499C27.279,64.309,32.255,69.566,32.255,69.566C33.142,70.503,34.367,71.048,35.658,71.078C36.949,71.109,38.199,70.622,39.129,69.728C39.129,69.727,39.129,69.727,39.13,69.727C41.044,67.886,41.108,64.843,39.271,62.924C39.271,62.924,33.059,56.432,30.096,53.336ZM33.399,27.889L49.052,39.536C51.015,40.996,51.424,43.775,49.964,45.738C48.503,47.701,45.724,48.109,43.761,46.649L31.79,37.741C32.019,34.418,32.547,31.133,33.399,27.889ZM33.456,0.505C38.419,0.505,42.449,4.534,42.449,9.498C42.449,14.462,38.419,18.491,33.456,18.491C28.492,18.491,24.462,14.462,24.462,9.498C24.462,4.534,28.492,0.505,33.456,0.505ZM33.456,0.505"/>
</g>
  <g id="Semibold-L" transform="matrix(1.0,0.0,0.0,1.0,2018.964694457452,1475.3233447265625)">  <path version="1.1" xml:space="preserve" xmlns:serif="http://www.serif.com/" fill-rule="evenodd" stroke="none" xmlns:xlink="http://www.w3.org/1999/xlink" stroke-width="1px" fill-opacity="1" stroke-opacity="1" stroke-linejoin="round" fill="#000000" stroke-dasharray="none" stroke-miterlimit="2" stroke-linecap="butt" clip-rule="evenodd" d="M35.883,71.681C34.494,71.724,33.095,71.239,32.012,70.237L32.003,70.246C32.003,70.246,20.869,58.398,15.772,52.974C14.208,51.31,13.554,48.988,14.019,46.752L16.857,33.11L15.286,33.914C14.464,34.334,13.848,35.069,13.578,35.952C12.364,39.916,8.957,51.052,8.957,51.052C8.241,53.391,5.76,54.709,3.421,53.993C1.081,53.277,-0.237,50.797,0.479,48.457L6.199,29.768C6.469,28.885,7.085,28.15,7.907,27.73C7.907,27.73,18.489,22.316,21.93,20.556C22.901,20.059,23.977,19.8,25.068,19.8C25.068,19.8,25.068,19.8,25.068,19.8C27.101,19.8,28.927,20.692,30.172,22.11L30.197,22.138C31.251,23.333,31.887,24.902,31.887,26.62L31.408,29.118C29.984,36.094,29.158,42.655,29.143,48.783C29.146,50.4,29.765,51.955,30.874,53.131C33.898,56.347,39.944,62.763,39.944,62.763L39.935,62.772C41.699,64.922,41.562,68.084,39.588,70.072L39.588,77.325L38.805,77.325L38.805,82.539C39.186,82.809,39.46,83.219,39.553,83.694C39.883,83.802,40.152,83.946,40.318,84.126C41.912,86.389,44.163,87.437,46.609,88.084C46.784,88.13,46.907,88.287,46.91,88.469C46.922,89.145,46.684,89.732,45.75,90.074C45.18,90.283,44.565,90.335,43.968,90.225C39.132,89.343,40.528,89.064,36.951,90.197C36.498,90.342,36.004,90.284,35.596,90.039C34.942,89.641,34.671,88.876,34.723,87.636C34.756,86.874,35.452,84.898,35.366,84.244C35.366,84.237,35.365,84.23,35.365,84.223C35.375,84.002,35.586,83.826,35.917,83.697C36.004,83.245,36.256,82.852,36.608,82.582L36.601,82.582L36.601,77.325L35.883,77.325L35.883,71.681ZM23.607,65.784L16.302,86.614C15.519,88.846,13.43,90.248,11.194,90.266L11.16,90.266C10.559,90.267,9.947,90.168,9.348,89.957C6.507,88.961,5.009,85.845,6.005,83.004L15.178,56.845L23.607,65.784ZM30.096,53.336C29.768,52.993,29.285,52.845,28.822,52.946C28.358,53.046,27.98,53.38,27.823,53.827C27.031,56.087,25.811,59.566,25.269,61.11C25.1,61.592,25.215,62.128,25.566,62.499C27.279,64.309,32.255,69.566,32.255,69.566C33.142,70.503,34.367,71.048,35.658,71.078C36.949,71.109,38.199,70.622,39.129,69.728C39.129,69.727,39.129,69.727,39.13,69.727C41.044,67.886,41.108,64.843,39.271,62.924C39.271,62.924,33.059,56.432,30.096,53.336ZM33.399,27.889L49.052,39.536C51.015,40.996,51.424,43.775,49.964,45.738C48.503,47.701,45.724,48.109,43.761,46.649L31.79,37.741C32.019,34.418,32.547,31.133,33.399,27.889ZM33.456,0.505C38.419,0.505,42.449,4.534,42.449,9.498C42.449,14.462,38.419,18.491,33.456,18.491C28.492,18.491,24.462,14.462,24.462,9.498C24.462,4.534,28.492,0.505,33.456,0.505ZM33.456,0.505"/>
</g>
  <g id="Medium-L" transform="matrix(1.0,0.0,0.0,1.0,1722.254694457452,1475.3233447265625)">  <path stroke-width="1px" fill="#000000" stroke-dasharray="none" xmlns:serif="http://www.serif.com/" clip-rule="evenodd" fill-rule="evenodd" stroke-opacity="1" stroke="none" stroke-miterlimit="2" stroke-linejoin="round" fill-opacity="1" stroke-linecap="butt" version="1.1" xmlns:xlink="http://www.w3.org/1999/xlink" xml:space="preserve" d="M35.883,71.681C34.494,71.724,33.095,71.239,32.012,70.237L32.003,70.246C32.003,70.246,20.869,58.398,15.772,52.974C14.208,51.31,13.554,48.988,14.019,46.752L16.857,33.11L15.286,33.914C14.464,34.334,13.848,35.069,13.578,35.952C12.364,39.916,8.957,51.052,8.957,51.052C8.241,53.391,5.76,54.709,3.421,53.993C1.081,53.277,-0.237,50.797,0.479,48.457L6.199,29.768C6.469,28.885,7.085,28.15,7.907,27.73C7.907,27.73,18.489,22.316,21.93,20.556C22.901,20.059,23.977,19.8,25.068,19.8C25.068,19.8,25.068,19.8,25.068,19.8C27.101,19.8,28.927,20.692,30.172,22.11L30.197,22.138C31.251,23.333,31.887,24.902,31.887,26.62L31.408,29.118C29.984,36.094,29.158,42.655,29.143,48.783C29.146,50.4,29.765,51.955,30.874,53.131C33.898,56.347,39.944,62.763,39.944,62.763L39.935,62.772C41.699,64.922,41.562,68.084,39.588,70.072L39.588,77.325L38.805,77.325L38.805,82.539C39.186,82.809,39.46,83.219,39.553,83.694C39.883,83.802,40.152,83.946,40.318,84.126C41.912,86.389,44.163,87.437,46.609,88.084C46.784,88.13,46.907,88.287,46.91,88.469C46.922,89.145,46.684,89.732,45.75,90.074C45.18,90.283,44.565,90.335,43.968,90.225C39.132,89.343,40.528,89.064,36.951,90.197C36.498,90.342,36.004,90.284,35.596,90.039C34.942,89.641,34.671,88.876,34.723,87.636C34.756,86.874,35.452,84.898,35.366,84.244C35.366,84.237,35.365,84.23,35.365,84.223C35.375,84.002,35.586,83.826,35.917,83.697C36.004,83.245,36.256,82.852,36.608,82.582L36.601,82.582L36.601,77.325L35.883,77.325L35.883,71.681ZM23.607,65.784L16.302,86.614C15.519,88.846,13.43,90.248,11.194,90.266L11.16,90.266C10.559,90.267,9.947,90.168,9.348,89.957C6.507,88.961,5.009,85.845,6.005,83.004L15.178,56.845L23.607,65.784ZM30.096,53.336C29.768,52.993,29.285,52.845,28.822,52.946C28.358,53.046,27.98,53.38,27.823,53.827C27.031,56.087,25.811,59.566,25.269,61.11C25.1,61.592,25.215,62.128,25.566,62.499C27.279,64.309,32.255,69.566,32.255,69.566C33.142,70.503,34.367,71.048,35.658,71.078C36.949,71.109,38.199,70.622,39.129,69.728C39.129,69.727,39.129,69.727,39.13,69.727C41.044,67.886,41.108,64.843,39.271,62.924C39.271,62.924,33.059,56.432,30.096,53.336ZM33.399,27.889L49.052,39.536C51.015,40.996,51.424,43.775,49.964,45.738C48.503,47.701,45.724,48.109,43.761,46.649L31.79,37.741C32.019,34.418,32.547,31.133,33.399,27.889ZM33.456,0.505C38.419,0.505,42.449,4.534,42.449,9.498C42.449,14.462,38.419,18.491,33.456,18.491C28.492,18.491,24.462,14.462,24.462,9.498C24.462,4.534,28.492,0.505,33.456,0.505ZM33.456,0.505"/>
</g>
  <g id="Regular-L" transform="matrix(1.0,0.0,0.0,1.0,1425.544694457452,1475.3233447265625)">  <path stroke-linecap="butt" stroke-opacity="1" fill="#000000" stroke-linejoin="round" stroke-miterlimit="2" xml:space="preserve" fill-opacity="1" stroke="none" xmlns:serif="http://www.serif.com/" stroke-width="1px" version="1.1" stroke-dasharray="none" fill-rule="evenodd" xmlns:xlink="http://www.w3.org/1999/xlink" clip-rule="evenodd" d="M35.883,71.681C34.494,71.724,33.095,71.239,32.012,70.237L32.003,70.246C32.003,70.246,20.869,58.398,15.772,52.974C14.208,51.31,13.554,48.988,14.019,46.752L16.857,33.11L15.286,33.914C14.464,34.334,13.848,35.069,13.578,35.952C12.364,39.916,8.957,51.052,8.957,51.052C8.241,53.391,5.76,54.709,3.421,53.993C1.081,53.277,-0.237,50.797,0.479,48.457L6.199,29.768C6.469,28.885,7.085,28.15,7.907,27.73C7.907,27.73,18.489,22.316,21.93,20.556C22.901,20.059,23.977,19.8,25.068,19.8C25.068,19.8,25.068,19.8,25.068,19.8C27.101,19.8,28.927,20.692,30.172,22.11L30.197,22.138C31.251,23.333,31.887,24.902,31.887,26.62L31.408,29.118C29.984,36.094,29.158,42.655,29.143,48.783C29.146,50.4,29.765,51.955,30.874,53.131C33.898,56.347,39.944,62.763,39.944,62.763L39.935,62.772C41.699,64.922,41.562,68.084,39.588,70.072L39.588,77.325L38.805,77.325L38.805,82.539C39.186,82.809,39.46,83.219,39.553,83.694C39.883,83.802,40.152,83.946,40.318,84.126C41.912,86.389,44.163,87.437,46.609,88.084C46.784,88.13,46.907,88.287,46.91,88.469C46.922,89.145,46.684,89.732,45.75,90.074C45.18,90.283,44.565,90.335,43.968,90.225C39.132,89.343,40.528,89.064,36.951,90.197C36.498,90.342,36.004,90.284,35.596,90.039C34.942,89.641,34.671,88.876,34.723,87.636C34.756,86.874,35.452,84.898,35.366,84.244C35.366,84.237,35.365,84.23,35.365,84.223C35.375,84.002,35.586,83.826,35.917,83.697C36.004,83.245,36.256,82.852,36.608,82.582L36.601,82.582L36.601,77.325L35.883,77.325L35.883,71.681ZM23.607,65.784L16.302,86.614C15.519,88.846,13.43,90.248,11.194,90.266L11.16,90.266C10.559,90.267,9.947,90.168,9.348,89.957C6.507,88.961,5.009,85.845,6.005,83.004L15.178,56.845L23.607,65.784ZM30.096,53.336C29.768,52.993,29.285,52.845,28.822,52.946C28.358,53.046,27.98,53.38,27.823,53.827C27.031,56.087,25.811,59.566,25.269,61.11C25.1,61.592,25.215,62.128,25.566,62.499C27.279,64.309,32.255,69.566,32.255,69.566C33.142,70.503,34.367,71.048,35.658,71.078C36.949,71.109,38.199,70.622,39.129,69.728C39.129,69.727,39.129,69.727,39.13,69.727C41.044,67.886,41.108,64.843,39.271,62.924C39.271,62.924,33.059,56.432,30.096,53.336ZM33.399,27.889L49.052,39.536C51.015,40.996,51.424,43.775,49.964,45.738C48.503,47.701,45.724,48.109,43.761,46.649L31.79,37.741C32.019,34.418,32.547,31.133,33.399,27.889ZM33.456,0.505C38.419,0.505,42.449,4.534,42.449,9.498C42.449,14.462,38.419,18.491,33.456,18.491C28.492,18.491,24.462,14.462,24.462,9.498C24.462,4.534,28.492,0.505,33.456,0.505ZM33.456,0.505"/>
</g>
  <g id="Light-L" transform="matrix(1.0,0.0,0.0,1.0,1128.834694457452,1475.3233447265625)">  <path stroke-opacity="1" fill-opacity="1" stroke-miterlimit="2" fill-rule="evenodd" stroke="none" stroke-dasharray="none" xmlns:xlink="http://www.w3.org/1999/xlink" xmlns:serif="http://www.serif.com/" stroke-linejoin="round" stroke-width="1px" fill="#000000" stroke-linecap="butt" xml:space="preserve" clip-rule="evenodd" version="1.1" d="M35.883,71.681C34.494,71.724,33.095,71.239,32.012,70.237L32.003,70.246C32.003,70.246,20.869,58.398,15.772,52.974C14.208,51.31,13.554,48.988,14.019,46.752L16.857,33.11L15.286,33.914C14.464,34.334,13.848,35.069,13.578,35.952C12.364,39.916,8.957,51.052,8.957,51.052C8.241,53.391,5.76,54.709,3.421,53.993C1.081,53.277,-0.237,50.797,0.479,48.457L6.199,29.768C6.469,28.885,7.085,28.15,7.907,27.73C7.907,27.73,18.489,22.316,21.93,20.556C22.901,20.059,23.977,19.8,25.068,19.8C25.068,19.8,25.068,19.8,25.068,19.8C27.101,19.8,28.927,20.692,30.172,22.11L30.197,22.138C31.251,23.333,31.887,24.902,31.887,26.62L31.408,29.118C29.984,36.094,29.158,42.655,29.143,48.783C29.146,50.4,29.765,51.955,30.874,53.131C33.898,56.347,39.944,62.763,39.944,62.763L39.935,62.772C41.699,64.922,41.562,68.084,39.588,70.072L39.588,77.325L38.805,77.325L38.805,82.539C39.186,82.809,39.46,83.219,39.553,83.694C39.883,83.802,40.152,83.946,40.318,84.126C41.912,86.389,44.163,87.437,46.609,88.084C46.784,88.13,46.907,88.287,46.91,88.469C46.922,89.145,46.684,89.732,45.75,90.074C45.18,90.283,44.565,90.335,43.968,90.225C39.132,89.343,40.528,89.064,36.951,90.197C36.498,90.342,36.004,90.284,35.596,90.039C34.942,89.641,34.671,88.876,34.723,87.636C34.756,86.874,35.452,84.898,35.366,84.244C35.366,84.237,35.365,84.23,35.365,84.223C35.375,84.002,35.586,83.826,35.917,83.697C36.004,83.245,36.256,82.852,36.608,82.582L36.601,82.582L36.601,77.325L35.883,77.325L35.883,71.681ZM23.607,65.784L16.302,86.614C15.519,88.846,13.43,90.248,11.194,90.266L11.16,90.266C10.559,90.267,9.947,90.168,9.348,89.957C6.507,88.961,5.009,85.845,6.005,83.004L15.178,56.845L23.607,65.784ZM30.096,53.336C29.768,52.993,29.285,52.845,28.822,52.946C28.358,53.046,27.98,53.38,27.823,53.827C27.031,56.087,25.811,59.566,25.269,61.11C25.1,61.592,25.215,62.128,25.566,62.499C27.279,64.309,32.255,69.566,32.255,69.566C33.142,70.503,34.367,71.048,35.658,71.078C36.949,71.109,38.199,70.622,39.129,69.728C39.129,69.727,39.129,69.727,39.13,69.727C41.044,67.886,41.108,64.843,39.271,62.924C39.271,62.924,33.059,56.432,30.096,53.336ZM33.399,27.889L49.052,39.536C51.015,40.996,51.424,43.775,49.964,45.738C48.503,47.701,45.724,48.109,43.761,46.649L31.79,37.741C32.019,34.418,32.547,31.133,33.399,27.889ZM33.456,0.505C38.419,0.505,42.449,4.534,42.449,9.498C42.449,14.462,38.419,18.491,33.456,18.491C28.492,18.491,24.462,14.462,24.462,9.498C24.462,4.534,28.492,0.505,33.456,0.505ZM33.456,0.505"/>
</g>
  <g id="Thin-L" transform="matrix(1.0,0.0,0.0,1.0,832.1246944574522,1475.3233447265625)">  <path xml:space="preserve" clip-rule="evenodd" fill-rule="evenodd" stroke-width="1px" xmlns:xlink="http://www.w3.org/1999/xlink" fill-opacity="1" xmlns:serif="http://www.serif.com/" version="1.1" stroke-linejoin="round" stroke-linecap="butt" stroke="none" stroke-opacity="1" stroke-miterlimit="2" stroke-dasharray="none" fill="#000000" d="M35.883,71.681C34.494,71.724,33.095,71.239,32.012,70.237L32.003,70.246C32.003,70.246,20.869,58.398,15.772,52.974C14.208,51.31,13.554,48.988,14.019,46.752L16.857,33.11L15.286,33.914C14.464,34.334,13.848,35.069,13.578,35.952C12.364,39.916,8.957,51.052,8.957,51.052C8.241,53.391,5.76,54.709,3.421,53.993C1.081,53.277,-0.237,50.797,0.479,48.457L6.199,29.768C6.469,28.885,7.085,28.15,7.907,27.73C7.907,27.73,18.489,22.316,21.93,20.556C22.901,20.059,23.977,19.8,25.068,19.8C25.068,19.8,25.068,19.8,25.068,19.8C27.101,19.8,28.927,20.692,30.172,22.11L30.197,22.138C31.251,23.333,31.887,24.902,31.887,26.62L31.408,29.118C29.984,36.094,29.158,42.655,29.143,48.783C29.146,50.4,29.765,51.955,30.874,53.131C33.898,56.347,39.944,62.763,39.944,62.763L39.935,62.772C41.699,64.922,41.562,68.084,39.588,70.072L39.588,77.325L38.805,77.325L38.805,82.539C39.186,82.809,39.46,83.219,39.553,83.694C39.883,83.802,40.152,83.946,40.318,84.126C41.912,86.389,44.163,87.437,46.609,88.084C46.784,88.13,46.907,88.287,46.91,88.469C46.922,89.145,46.684,89.732,45.75,90.074C45.18,90.283,44.565,90.335,43.968,90.225C39.132,89.343,40.528,89.064,36.951,90.197C36.498,90.342,36.004,90.284,35.596,90.039C34.942,89.641,34.671,88.876,34.723,87.636C34.756,86.874,35.452,84.898,35.366,84.244C35.366,84.237,35.365,84.23,35.365,84.223C35.375,84.002,35.586,83.826,35.917,83.697C36.004,83.245,36.256,82.852,36.608,82.582L36.601,82.582L36.601,77.325L35.883,77.325L35.883,71.681ZM23.607,65.784L16.302,86.614C15.519,88.846,13.43,90.248,11.194,90.266L11.16,90.266C10.559,90.267,9.947,90.168,9.348,89.957C6.507,88.961,5.009,85.845,6.005,83.004L15.178,56.845L23.607,65.784ZM30.096,53.336C29.768,52.993,29.285,52.845,28.822,52.946C28.358,53.046,27.98,53.38,27.823,53.827C27.031,56.087,25.811,59.566,25.269,61.11C25.1,61.592,25.215,62.128,25.566,62.499C27.279,64.309,32.255,69.566,32.255,69.566C33.142,70.503,34.367,71.048,35.658,71.078C36.949,71.109,38.199,70.622,39.129,69.728C39.129,69.727,39.129,69.727,39.13,69.727C41.044,67.886,41.108,64.843,39.271,62.924C39.271,62.924,33.059,56.432,30.096,53.336ZM33.399,27.889L49.052,39.536C51.015,40.996,51.424,43.775,49.964,45.738C48.503,47.701,45.724,48.109,43.761,46.649L31.79,37.741C32.019,34.418,32.547,31.133,33.399,27.889ZM33.456,0.505C38.419,0.505,42.449,4.534,42.449,9.498C42.449,14.462,38.419,18.491,33.456,18.491C28.492,18.491,24.462,14.462,24.462,9.498C24.462,4.534,28.492,0.505,33.456,0.505ZM33.456,0.505"/>
</g>
  <g id="Ultralight-L" transform="matrix(1.0,0.0,0.0,1.0,535.4146944574521,1475.3233447265625)">  <path stroke-miterlimit="2" stroke-width="1px" xmlns:xlink="http://www.w3.org/1999/xlink" fill-opacity="1" clip-rule="evenodd" stroke="none" stroke-dasharray="none" version="1.1" stroke-linejoin="round" xmlns:serif="http://www.serif.com/" stroke-linecap="butt" xml:space="preserve" fill-rule="evenodd" fill="#000000" stroke-opacity="1" d="M35.883,71.681C34.494,71.724,33.095,71.239,32.012,70.237L32.003,70.246C32.003,70.246,20.869,58.398,15.772,52.974C14.208,51.31,13.554,48.988,14.019,46.752L16.857,33.11L15.286,33.914C14.464,34.334,13.848,35.069,13.578,35.952C12.364,39.916,8.957,51.052,8.957,51.052C8.241,53.391,5.76,54.709,3.421,53.993C1.081,53.277,-0.237,50.797,0.479,48.457L6.199,29.768C6.469,28.885,7.085,28.15,7.907,27.73C7.907,27.73,18.489,22.316,21.93,20.556C22.901,20.059,23.977,19.8,25.068,19.8C25.068,19.8,25.068,19.8,25.068,19.8C27.101,19.8,28.927,20.692,30.172,22.11L30.197,22.138C31.251,23.333,31.887,24.902,31.887,26.62L31.408,29.118C29.984,36.094,29.158,42.655,29.143,48.783C29.146,50.4,29.765,51.955,30.874,53.131C33.898,56.347,39.944,62.763,39.944,62.763L39.935,62.772C41.699,64.922,41.562,68.084,39.588,70.072L39.588,77.325L38.805,77.325L38.805,82.539C39.186,82.809,39.46,83.219,39.553,83.694C39.883,83.802,40.152,83.946,40.318,84.126C41.912,86.389,44.163,87.437,46.609,88.084C46.784,88.13,46.907,88.287,46.91,88.469C46.922,89.145,46.684,89.732,45.75,90.074C45.18,90.283,44.565,90.335,43.968,90.225C39.132,89.343,40.528,89.064,36.951,90.197C36.498,90.342,36.004,90.284,35.596,90.039C34.942,89.641,34.671,88.876,34.723,87.636C34.756,86.874,35.452,84.898,35.366,84.244C35.366,84.237,35.365,84.23,35.365,84.223C35.375,84.002,35.586,83.826,35.917,83.697C36.004,83.245,36.256,82.852,36.608,82.582L36.601,82.582L36.601,77.325L35.883,77.325L35.883,71.681ZM23.607,65.784L16.302,86.614C15.519,88.846,13.43,90.248,11.194,90.266L11.16,90.266C10.559,90.267,9.947,90.168,9.348,89.957C6.507,88.961,5.009,85.845,6.005,83.004L15.178,56.845L23.607,65.784ZM30.096,53.336C29.768,52.993,29.285,52.845,28.822,52.946C28.358,53.046,27.98,53.38,27.823,53.827C27.031,56.087,25.811,59.566,25.269,61.11C25.1,61.592,25.215,62.128,25.566,62.499C27.279,64.309,32.255,69.566,32.255,69.566C33.142,70.503,34.367,71.048,35.658,71.078C36.949,71.109,38.199,70.622,39.129,69.728C39.129,69.727,39.129,69.727,39.13,69.727C41.044,67.886,41.108,64.843,39.271,62.924C39.271,62.924,33.059,56.432,30.096,53.336ZM33.399,27.889L49.052,39.536C51.015,40.996,51.424,43.775,49.964,45.738C48.503,47.701,45.724,48.109,43.761,46.649L31.79,37.741C32.019,34.418,32.547,31.133,33.399,27.889ZM33.456,0.505C38.419,0.505,42.449,4.534,42.449,9.498C42.449,14.462,38.419,18.491,33.456,18.491C28.492,18.491,24.462,14.462,24.462,9.498C24.462,4.534,28.492,0.505,33.456,0.505ZM33.456,0.505"/>
</g>
  <g id="Black-M" transform="matrix(1.0,0.0,0.0,1.0,2914.8464298119784,1055.5400390625)">  <path stroke-dasharray="none" version="1.1" fill="#000000" stroke-miterlimit="2" stroke-opacity="1" stroke="none" fill-opacity="1" fill-rule="evenodd" stroke-width="1px" stroke-linecap="butt" xmlns:xlink="http://www.w3.org/1999/xlink" stroke-linejoin="round" clip-rule="evenodd" xml:space="preserve" xmlns:serif="http://www.serif.com/" d="M27.816,55.567C26.74,55.6,25.655,55.224,24.816,54.447L24.809,54.454C24.809,54.454,16.178,45.27,12.226,41.065C11.014,39.775,10.507,37.975,10.868,36.242L13.067,25.667L11.849,26.29C11.212,26.615,10.735,27.185,10.525,27.869C9.585,30.943,6.943,39.575,6.943,39.575C6.388,41.388,4.465,42.41,2.652,41.855C0.838,41.3,-0.184,39.377,0.371,37.564L4.805,23.076C5.015,22.392,5.492,21.822,6.129,21.496C6.129,21.496,14.332,17.299,17,15.935C17.753,15.55,18.587,15.349,19.432,15.349C19.432,15.349,19.432,15.349,19.432,15.349C21.008,15.349,22.424,16.04,23.389,17.14L23.409,17.161C24.226,18.087,24.719,19.304,24.719,20.635L24.347,22.572C23.243,27.98,22.603,33.066,22.591,37.816C22.594,39.07,23.074,40.275,23.933,41.187C26.278,43.68,30.964,48.653,30.964,48.653L30.957,48.66C32.325,50.327,32.218,52.778,30.688,54.319L30.688,59.942L30.082,59.942L30.082,63.984C30.377,64.193,30.589,64.511,30.661,64.879C30.917,64.963,31.126,65.075,31.255,65.214C32.49,66.968,34.235,67.781,36.131,68.282C36.267,68.318,36.362,68.44,36.365,68.581C36.374,69.104,36.19,69.56,35.465,69.825C35.024,69.987,34.546,70.027,34.084,69.942C30.335,69.258,31.417,69.042,28.644,69.92C28.293,70.032,27.91,69.988,27.594,69.797C27.087,69.49,26.877,68.896,26.917,67.935C26.942,67.344,27.482,65.813,27.416,65.306C27.415,65.3,27.415,65.295,27.415,65.289C27.423,65.118,27.586,64.982,27.842,64.882C27.91,64.531,28.106,64.226,28.378,64.017L28.373,64.017L28.373,59.942L27.816,59.942L27.816,55.567ZM18.3,50.995L12.637,67.143C12.03,68.873,10.411,69.96,8.677,69.973L8.651,69.974C8.185,69.974,7.711,69.897,7.247,69.734C5.044,68.962,3.883,66.547,4.655,64.344L11.766,44.066L18.3,50.995ZM23.33,41.346C23.076,41.08,22.702,40.965,22.343,41.043C21.983,41.121,21.69,41.38,21.568,41.727C20.954,43.478,20.008,46.175,19.589,47.372C19.458,47.746,19.546,48.161,19.819,48.449C21.147,49.852,25.004,53.927,25.004,53.927C25.692,54.654,26.641,55.076,27.642,55.099C28.643,55.123,29.611,54.746,30.333,54.052C30.333,54.052,30.333,54.052,30.333,54.052C31.817,52.625,31.866,50.266,30.443,48.778C30.443,48.778,25.627,43.746,23.33,41.346ZM25.891,21.619L38.025,30.648C39.547,31.78,39.863,33.934,38.731,35.456C37.599,36.977,35.445,37.294,33.923,36.162L24.644,29.257C24.821,26.681,25.231,24.134,25.891,21.619ZM25.935,0.391C29.782,0.391,32.906,3.515,32.906,7.363C32.906,11.211,29.782,14.334,25.935,14.334C22.087,14.334,18.963,11.211,18.963,7.363C18.963,3.515,22.087,0.391,25.935,0.391ZM25.935,0.391"/>
</g>
  <g id="Heavy-M" transform="matrix(1.0,0.0,0.0,1.0,2618.1364298119784,1055.5400390625)">  <path stroke-dasharray="none" fill-rule="evenodd" version="1.1" stroke-linecap="butt" xmlns:serif="http://www.serif.com/" xml:space="preserve" stroke="none" stroke-linejoin="round" fill-opacity="1" fill="#000000" stroke-miterlimit="2" stroke-width="1px" clip-rule="evenodd" stroke-opacity="1" xmlns:xlink="http://www.w3.org/1999/xlink" d="M27.816,55.567C26.74,55.6,25.655,55.224,24.816,54.447L24.809,54.454C24.809,54.454,16.178,45.27,12.226,41.065C11.014,39.775,10.507,37.975,10.868,36.242L13.067,25.667L11.849,26.29C11.212,26.615,10.735,27.185,10.525,27.869C9.585,30.943,6.943,39.575,6.943,39.575C6.388,41.388,4.465,42.41,2.652,41.855C0.838,41.3,-0.184,39.377,0.371,37.564L4.805,23.076C5.015,22.392,5.492,21.822,6.129,21.496C6.129,21.496,14.332,17.299,17,15.935C17.753,15.55,18.587,15.349,19.432,15.349C19.432,15.349,19.432,15.349,19.432,15.349C21.008,15.349,22.424,16.04,23.389,17.14L23.409,17.161C24.226,18.087,24.719,19.304,24.719,20.635L24.347,22.572C23.243,27.98,22.603,33.066,22.591,37.816C22.594,39.07,23.074,40.275,23.933,41.187C26.278,43.68,30.964,48.653,30.964,48.653L30.957,48.66C32.325,50.327,32.218,52.778,30.688,54.319L30.688,59.942L30.082,59.942L30.082,63.984C30.377,64.193,30.589,64.511,30.661,64.879C30.917,64.963,31.126,65.075,31.255,65.214C32.49,66.968,34.235,67.781,36.131,68.282C36.267,68.318,36.362,68.44,36.365,68.581C36.374,69.104,36.19,69.56,35.465,69.825C35.024,69.987,34.546,70.027,34.084,69.942C30.335,69.258,31.417,69.042,28.644,69.92C28.293,70.032,27.91,69.988,27.594,69.797C27.087,69.49,26.877,68.896,26.917,67.935C26.942,67.344,27.482,65.813,27.416,65.306C27.415,65.3,27.415,65.295,27.415,65.289C27.423,65.118,27.586,64.982,27.842,64.882C27.91,64.531,28.106,64.226,28.378,64.017L28.373,64.017L28.373,59.942L27.816,59.942L27.816,55.567ZM18.3,50.995L12.637,67.143C12.03,68.873,10.411,69.96,8.677,69.973L8.651,69.974C8.185,69.974,7.711,69.897,7.247,69.734C5.044,68.962,3.883,66.547,4.655,64.344L11.766,44.066L18.3,50.995ZM23.33,41.346C23.076,41.08,22.702,40.965,22.343,41.043C21.983,41.121,21.69,41.38,21.568,41.727C20.954,43.478,20.008,46.175,19.589,47.372C19.458,47.746,19.546,48.161,19.819,48.449C21.147,49.852,25.004,53.927,25.004,53.927C25.692,54.654,26.641,55.076,27.642,55.099C28.643,55.123,29.611,54.746,30.333,54.052C30.333,54.052,30.333,54.052,30.333,54.052C31.817,52.625,31.866,50.266,30.443,48.778C30.443,48.778,25.627,43.746,23.33,41.346ZM25.891,21.619L38.025,30.648C39.547,31.78,39.863,33.934,38.731,35.456C37.599,36.977,35.445,37.294,33.923,36.162L24.644,29.257C24.821,26.681,25.231,24.134,25.891,21.619ZM25.935,0.391C29.782,0.391,32.906,3.515,32.906,7.363C32.906,11.211,29.782,14.334,25.935,14.334C22.087,14.334,18.963,11.211,18.963,7.363C18.963,3.515,22.087,0.391,25.935,0.391ZM25.935,0.391"/>
</g>
  <g id="Bold-M" transform="matrix(1.0,0.0,0.0,1.0,2321.4264298119783,1055.5400390625)">  <path stroke-miterlimit="2" xml:space="preserve" version="1.1" stroke-opacity="1" stroke-width="1px" stroke-dasharray="none" fill-opacity="1" xmlns:xlink="http://www.w3.org/1999/xlink" stroke-linejoin="round" stroke="none" xmlns:serif="http://www.serif.com/" stroke-linecap="butt" fill-rule="evenodd" fill="#000000" clip-rule="evenodd" d="M27.816,55.567C26.74,55.6,25.655,55.224,24.816,54.447L24.809,54.454C24.809,54.454,16.178,45.27,12.226,41.065C11.014,39.775,10.507,37.975,10.868,36.242L13.067,25.667L11.849,26.29C11.212,26.615,10.735,27.185,10.525,27.869C9.585,30.943,6.943,39.575,6.943,39.575C6.388,41.388,4.465,42.41,2.652,41.855C0.838,41.3,-0.184,39.377,0.371,37.564L4.805,23.076C5.015,22.392,5.492,21.822,6.129,21.496C6.129,21.496,14.332,17.299,17,15.935C17.753,15.55,18.587,15.349,19.432,15.349C19.432,15.349,19.432,15.349,19.432,15.349C21.008,15.349,22.424,16.04,23.389,17.14L23.409,17.161C24.226,18.087,24.719,19.304,24.719,20.635L24.347,22.572C23.243,27.98,22.603,33.066,22.591,37.816C22.594,39.07,23.074,40.275,23.933,41.187C26.278,43.68,30.964,48.653,30.964,48.653L30.957,48.66C32.325,50.327,32.218,52.778,30.688,54.319L30.688,59.942L30.082,59.942L30.082,63.984C30.377,64.193,30.589,64.511,30.661,64.879C30.917,64.963,31.126,65.075,31.255,65.214C32.49,66.968,34.235,67.781,36.131,68.282C36.267,68.318,36.362,68.44,36.365,68.581C36.374,69.104,36.19,69.56,35.465,69.825C35.024,69.987,34.546,70.027,34.084,69.942C30.335,69.258,31.417,69.042,28.644,69.92C28.293,70.032,27.91,69.988,27.594,69.797C27.087,69.49,26.877,68.896,26.917,67.935C26.942,67.344,27.482,65.813,27.416,65.306C27.415,65.3,27.415,65.295,27.415,65.289C27.423,65.118,27.586,64.982,27.842,64.882C27.91,64.531,28.106,64.226,28.378,64.017L28.373,64.017L28.373,59.942L27.816,59.942L27.816,55.567ZM18.3,50.995L12.637,67.143C12.03,68.873,10.411,69.96,8.677,69.973L8.651,69.974C8.185,69.974,7.711,69.897,7.247,69.734C5.044,68.962,3.883,66.547,4.655,64.344L11.766,44.066L18.3,50.995ZM23.33,41.346C23.076,41.08,22.702,40.965,22.343,41.043C21.983,41.121,21.69,41.38,21.568,41.727C20.954,43.478,20.008,46.175,19.589,47.372C19.458,47.746,19.546,48.161,19.819,48.449C21.147,49.852,25.004,53.927,25.004,53.927C25.692,54.654,26.641,55.076,27.642,55.099C28.643,55.123,29.611,54.746,30.333,54.052C30.333,54.052,30.333,54.052,30.333,54.052C31.817,52.625,31.866,50.266,30.443,48.778C30.443,48.778,25.627,43.746,23.33,41.346ZM25.891,21.619L38.025,30.648C39.547,31.78,39.863,33.934,38.731,35.456C37.599,36.977,35.445,37.294,33.923,36.162L24.644,29.257C24.821,26.681,25.231,24.134,25.891,21.619ZM25.935,0.391C29.782,0.391,32.906,3.515,32.906,7.363C32.906,11.211,29.782,14.334,25.935,14.334C22.087,14.334,18.963,11.211,18.963,7.363C18.963,3.515,22.087,0.391,25.935,0.391ZM25.935,0.391"/>
</g>
  <g id="Semibold-M" transform="matrix(1.0,0.0,0.0,1.0,2024.7164298119783,1055.5400390625)">  <path version="1.1" xml:space="preserve" xmlns:serif="http://www.serif.com/" fill-rule="evenodd" stroke="none" xmlns:xlink="http://www.w3.org/1999/xlink" stroke-width="1px" fill-opacity="1" stroke-opacity="1" stroke-linejoin="round" fill="#000000" stroke-dasharray="none" stroke-miterlimit="2" stroke-linecap="butt" clip-rule="evenodd" d="M27.816,55.567C26.74,55.6,25.655,55.224,24.816,54.447L24.809,54.454C24.809,54.454,16.178,45.27,12.226,41.065C11.014,39.775,10.507,37.975,10.868,36.242L13.067,25.667L11.849,26.29C11.212,26.615,10.735,27.185,10.525,27.869C9.585,30.943,6.943,39.575,6.943,39.575C6.388,41.388,4.465,42.41,2.652,41.855C0.838,41.3,-0.184,39.377,0.371,37.564L4.805,23.076C5.015,22.392,5.492,21.822,6.129,21.496C6.129,21.496,14.332,17.299,17,15.935C17.753,15.55,18.587,15.349,19.432,15.349C19.432,15.349,19.432,15.349,19.432,15.349C21.008,15.349,22.424,16.04,23.389,17.14L23.409,17.161C24.226,18.087,24.719,19.304,24.719,20.635L24.347,22.572C23.243,27.98,22.603,33.066,22.591,37.816C22.594,39.07,23.074,40.275,23.933,41.187C26.278,43.68,30.964,48.653,30.964,48.653L30.957,48.66C32.325,50.327,32.218,52.778,30.688,54.319L30.688,59.942L30.082,59.942L30.082,63.984C30.377,64.193,30.589,64.511,30.661,64.879C30.917,64.963,31.126,65.075,31.255,65.214C32.49,66.968,34.235,67.781,36.131,68.282C36.267,68.318,36.362,68.44,36.365,68.581C36.374,69.104,36.19,69.56,35.465,69.825C35.024,69.987,34.546,70.027,34.084,69.942C30.335,69.258,31.417,69.042,28.644,69.92C28.293,70.032,27.91,69.988,27.594,69.797C27.087,69.49,26.877,68.896,26.917,67.935C26.942,67.344,27.482,65.813,27.416,65.306C27.415,65.3,27.415,65.295,27.415,65.289C27.423,65.118,27.586,64.982,27.842,64.882C27.91,64.531,28.106,64.226,28.378,64.017L28.373,64.017L28.373,59.942L27.816,59.942L27.816,55.567ZM18.3,50.995L12.637,67.143C12.03,68.873,10.411,69.96,8.677,69.973L8.651,69.974C8.185,69.974,7.711,69.897,7.247,69.734C5.044,68.962,3.883,66.547,4.655,64.344L11.766,44.066L18.3,50.995ZM23.33,41.346C23.076,41.08,22.702,40.965,22.343,41.043C21.983,41.121,21.69,41.38,21.568,41.727C20.954,43.478,20.008,46.175,19.589,47.372C19.458,47.746,19.546,48.161,19.819,48.449C21.147,49.852,25.004,53.927,25.004,53.927C25.692,54.654,26.641,55.076,27.642,55.099C28.643,55.123,29.611,54.746,30.333,54.052C30.333,54.052,30.333,54.052,30.333,54.052C31.817,52.625,31.866,50.266,30.443,48.778C30.443,48.778,25.627,43.746,23.33,41.346ZM25.891,21.619L38.025,30.648C39.547,31.78,39.863,33.934,38.731,35.456C37.599,36.977,35.445,37.294,33.923,36.162L24.644,29.257C24.821,26.681,25.231,24.134,25.891,21.619ZM25.935,0.391C29.782,0.391,32.906,3.515,32.906,7.363C32.906,11.211,29.782,14.334,25.935,14.334C22.087,14.334,18.963,11.211,18.963,7.363C18.963,3.515,22.087,0.391,25.935,0.391ZM25.935,0.391"/>
</g>
  <g id="Medium-M" transform="matrix(1.0,0.0,0.0,1.0,1728.0064298119783,1055.5400390625)">  <path stroke-width="1px" fill="#000000" stroke-dasharray="none" xmlns:serif="http://www.serif.com/" clip-rule="evenodd" fill-rule="evenodd" stroke-opacity="1" stroke="none" stroke-miterlimit="2" stroke-linejoin="round" fill-opacity="1" stroke-linecap="butt" version="1.1" xmlns:xlink="http://www.w3.org/1999/xlink" xml:space="preserve" d="M27.816,55.567C26.74,55.6,25.655,55.224,24.816,54.447L24.809,54.454C24.809,54.454,16.178,45.27,12.226,41.065C11.014,39.775,10.507,37.975,10.868,36.242L13.067,25.667L11.849,26.29C11.212,26.615,10.735,27.185,10.525,27.869C9.585,30.943,6.943,39.575,6.943,39.575C6.388,41.388,4.465,42.41,2.652,41.855C0.838,41.3,-0.184,39.377,0.371,37.564L4.805,23.076C5.015,22.392,5.492,21.822,6.129,21.496C6.129,21.496,14.332,17.299,17,15.935C17.753,15.55,18.587,15.349,19.432,15.349C19.432,15.349,19.432,15.349,19.432,15.349C21.008,15.349,22.424,16.04,23.389,17.14L23.409,17.161C24.226,18.087,24.719,19.304,24.719,20.635L24.347,22.572C23.243,27.98,22.603,33.066,22.591,37.816C22.594,39.07,23.074,40.275,23.933,41.187C26.278,43.68,30.964,48.653,30.964,48.653L30.957,48.66C32.325,50.327,32.218,52.778,30.688,54.319L30.688,59.942L30.082,59.942L30.082,63.984C30.377,64.193,30.589,64.511,30.661,64.879C30.917,64.963,31.126,65.075,31.255,65.214C32.49,66.968,34.235,67.781,36.131,68.282C36.267,68.318,36.362,68.44,36.365,68.581C36.374,69.104,36.19,69.56,35.465,69.825C35.024,69.987,34.546,70.027,34.084,69.942C30.335,69.258,31.417,69.042,28.644,69.92C28.293,70.032,27.91,69.988,27.594,69.797C27.087,69.49,26.877,68.896,26.917,67.935C26.942,67.344,27.482,65.813,27.416,65.306C27.415,65.3,27.415,65.295,27.415,65.289C27.423,65.118,27.586,64.982,27.842,64.882C27.91,64.531,28.106,64.226,28.378,64.017L28.373,64.017L28.373,59.942L27.816,59.942L27.816,55.567ZM18.3,50.995L12.637,67.143C12.03,68.873,10.411,69.96,8.677,69.973L8.651,69.974C8.185,69.974,7.711,69.897,7.247,69.734C5.044,68.962,3.883,66.547,4.655,64.344L11.766,44.066L18.3,50.995ZM23.33,41.346C23.076,41.08,22.702,40.965,22.343,41.043C21.983,41.121,21.69,41.38,21.568,41.727C20.954,43.478,20.008,46.175,19.589,47.372C19.458,47.746,19.546,48.161,19.819,48.449C21.147,49.852,25.004,53.927,25.004,53.927C25.692,54.654,26.641,55.076,27.642,55.099C28.643,55.123,29.611,54.746,30.333,54.052C30.333,54.052,30.333,54.052,30.333,54.052C31.817,52.625,31.866,50.266,30.443,48.778C30.443,48.778,25.627,43.746,23.33,41.346ZM25.891,21.619L38.025,30.648C39.547,31.78,39.863,33.934,38.731,35.456C37.599,36.977,35.445,37.294,33.923,36.162L24.644,29.257C24.821,26.681,25.231,24.134,25.891,21.619ZM25.935,0.391C29.782,0.391,32.906,3.515,32.906,7.363C32.906,11.211,29.782,14.334,25.935,14.334C22.087,14.334,18.963,11.211,18.963,7.363C18.963,3.515,22.087,0.391,25.935,0.391ZM25.935,0.391"/>
</g>
  <g id="Regular-M" transform="matrix(1.0,0.0,0.0,1.0,1431.2964298119782,1055.5400390625)">  <path stroke-linecap="butt" stroke-opacity="1" fill="#000000" stroke-linejoin="round" stroke-miterlimit="2" xml:space="preserve" fill-opacity="1" stroke="none" xmlns:serif="http://www.serif.com/" stroke-width="1px" version="1.1" stroke-dasharray="none" fill-rule="evenodd" xmlns:xlink="http://www.w3.org/1999/xlink" clip-rule="evenodd" d="M27.816,55.567C26.74,55.6,25.655,55.224,24.816,54.447L24.809,54.454C24.809,54.454,16.178,45.27,12.226,41.065C11.014,39.775,10.507,37.975,10.868,36.242L13.067,25.667L11.849,26.29C11.212,26.615,10.735,27.185,10.525,27.869C9.585,30.943,6.943,39.575,6.943,39.575C6.388,41.388,4.465,42.41,2.652,41.855C0.838,41.3,-0.184,39.377,0.371,37.564L4.805,23.076C5.015,22.392,5.492,21.822,6.129,21.496C6.129,21.496,14.332,17.299,17,15.935C17.753,15.55,18.587,15.349,19.432,15.349C19.432,15.349,19.432,15.349,19.432,15.349C21.008,15.349,22.424,16.04,23.389,17.14L23.409,17.161C24.226,18.087,24.719,19.304,24.719,20.635L24.347,22.572C23.243,27.98,22.603,33.066,22.591,37.816C22.594,39.07,23.074,40.275,23.933,41.187C26.278,43.68,30.964,48.653,30.964,48.653L30.957,48.66C32.325,50.327,32.218,52.778,30.688,54.319L30.688,59.942L30.082,59.942L30.082,63.984C30.377,64.193,30.589,64.511,30.661,64.879C30.917,64.963,31.126,65.075,31.255,65.214C32.49,66.968,34.235,67.781,36.131,68.282C36.267,68.318,36.362,68.44,36.365,68.581C36.374,69.104,36.19,69.56,35.465,69.825C35.024,69.987,34.546,70.027,34.084,69.942C30.335,69.258,31.417,69.042,28.644,69.92C28.293,70.032,27.91,69.988,27.594,69.797C27.087,69.49,26.877,68.896,26.917,67.935C26.942,67.344,27.482,65.813,27.416,65.306C27.415,65.3,27.415,65.295,27.415,65.289C27.423,65.118,27.586,64.982,27.842,64.882C27.91,64.531,28.106,64.226,28.378,64.017L28.373,64.017L28.373,59.942L27.816,59.942L27.816,55.567ZM18.3,50.995L12.637,67.143C12.03,68.873,10.411,69.96,8.677,69.973L8.651,69.974C8.185,69.974,7.711,69.897,7.247,69.734C5.044,68.962,3.883,66.547,4.655,64.344L11.766,44.066L18.3,50.995ZM23.33,41.346C23.076,41.08,22.702,40.965,22.343,41.043C21.983,41.121,21.69,41.38,21.568,41.727C20.954,43.478,20.008,46.175,19.589,47.372C19.458,47.746,19.546,48.161,19.819,48.449C21.147,49.852,25.004,53.927,25.004,53.927C25.692,54.654,26.641,55.076,27.642,55.099C28.643,55.123,29.611,54.746,30.333,54.052C30.333,54.052,30.333,54.052,30.333,54.052C31.817,52.625,31.866,50.266,30.443,48.778C30.443,48.778,25.627,43.746,23.33,41.346ZM25.891,21.619L38.025,30.648C39.547,31.78,39.863,33.934,38.731,35.456C37.599,36.977,35.445,37.294,33.923,36.162L24.644,29.257C24.821,26.681,25.231,24.134,25.891,21.619ZM25.935,0.391C29.782,0.391,32.906,3.515,32.906,7.363C32.906,11.211,29.782,14.334,25.935,14.334C22.087,14.334,18.963,11.211,18.963,7.363C18.963,3.515,22.087,0.391,25.935,0.391ZM25.935,0.391"/>
</g>
  <g id="Light-M" transform="matrix(1.0,0.0,0.0,1.0,1134.5864298119784,1055.5400390625)">  <path stroke-opacity="1" fill-opacity="1" stroke-miterlimit="2" fill-rule="evenodd" stroke="none" stroke-dasharray="none" xmlns:xlink="http://www.w3.org/1999/xlink" xmlns:serif="http://www.serif.com/" stroke-linejoin="round" stroke-width="1px" fill="#000000" stroke-linecap="butt" xml:space="preserve" clip-rule="evenodd" version="1.1" d="M27.816,55.567C26.74,55.6,25.655,55.224,24.816,54.447L24.809,54.454C24.809,54.454,16.178,45.27,12.226,41.065C11.014,39.775,10.507,37.975,10.868,36.242L13.067,25.667L11.849,26.29C11.212,26.615,10.735,27.185,10.525,27.869C9.585,30.943,6.943,39.575,6.943,39.575C6.388,41.388,4.465,42.41,2.652,41.855C0.838,41.3,-0.184,39.377,0.371,37.564L4.805,23.076C5.015,22.392,5.492,21.822,6.129,21.496C6.129,21.496,14.332,17.299,17,15.935C17.753,15.55,18.587,15.349,19.432,15.349C19.432,15.349,19.432,15.349,19.432,15.349C21.008,15.349,22.424,16.04,23.389,17.14L23.409,17.161C24.226,18.087,24.719,19.304,24.719,20.635L24.347,22.572C23.243,27.98,22.603,33.066,22.591,37.816C22.594,39.07,23.074,40.275,23.933,41.187C26.278,43.68,30.964,48.653,30.964,48.653L30.957,48.66C32.325,50.327,32.218,52.778,30.688,54.319L30.688,59.942L30.082,59.942L30.082,63.984C30.377,64.193,30.589,64.511,30.661,64.879C30.917,64.963,31.126,65.075,31.255,65.214C32.49,66.968,34.235,67.781,36.131,68.282C36.267,68.318,36.362,68.44,36.365,68.581C36.374,69.104,36.19,69.56,35.465,69.825C35.024,69.987,34.546,70.027,34.084,69.942C30.335,69.258,31.417,69.042,28.644,69.92C28.293,70.032,27.91,69.988,27.594,69.797C27.087,69.49,26.877,68.896,26.917,67.935C26.942,67.344,27.482,65.813,27.416,65.306C27.415,65.3,27.415,65.295,27.415,65.289C27.423,65.118,27.586,64.982,27.842,64.882C27.91,64.531,28.106,64.226,28.378,64.017L28.373,64.017L28.373,59.942L27.816,59.942L27.816,55.567ZM18.3,50.995L12.637,67.143C12.03,68.873,10.411,69.96,8.677,69.973L8.651,69.974C8.185,69.974,7.711,69.897,7.247,69.734C5.044,68.962,3.883,66.547,4.655,64.344L11.766,44.066L18.3,50.995ZM23.33,41.346C23.076,41.08,22.702,40.965,22.343,41.043C21.983,41.121,21.69,41.38,21.568,41.727C20.954,43.478,20.008,46.175,19.589,47.372C19.458,47.746,19.546,48.161,19.819,48.449C21.147,49.852,25.004,53.927,25.004,53.927C25.692,54.654,26.641,55.076,27.642,55.099C28.643,55.123,29.611,54.746,30.333,54.052C30.333,54.052,30.333,54.052,30.333,54.052C31.817,52.625,31.866,50.266,30.443,48.778C30.443,48.778,25.627,43.746,23.33,41.346ZM25.891,21.619L38.025,30.648C39.547,31.78,39.863,33.934,38.731,35.456C37.599,36.977,35.445,37.294,33.923,36.162L24.644,29.257C24.821,26.681,25.231,24.134,25.891,21.619ZM25.935,0.391C29.782,0.391,32.906,3.515,32.906,7.363C32.906,11.211,29.782,14.334,25.935,14.334C22.087,14.334,18.963,11.211,18.963,7.363C18.963,3.515,22.087,0.391,25.935,0.391ZM25.935,0.391"/>
</g>
  <g id="Thin-M" transform="matrix(1.0,0.0,0.0,1.0,837.8764298119784,1055.5400390625)">  <path xml:space="preserve" clip-rule="evenodd" fill-rule="evenodd" stroke-width="1px" xmlns:xlink="http://www.w3.org/1999/xlink" fill-opacity="1" xmlns:serif="http://www.serif.com/" version="1.1" stroke-linejoin="round" stroke-linecap="butt" stroke="none" stroke-opacity="1" stroke-miterlimit="2" stroke-dasharray="none" fill="#000000" d="M27.816,55.567C26.74,55.6,25.655,55.224,24.816,54.447L24.809,54.454C24.809,54.454,16.178,45.27,12.226,41.065C11.014,39.775,10.507,37.975,10.868,36.242L13.067,25.667L11.849,26.29C11.212,26.615,10.735,27.185,10.525,27.869C9.585,30.943,6.943,39.575,6.943,39.575C6.388,41.388,4.465,42.41,2.652,41.855C0.838,41.3,-0.184,39.377,0.371,37.564L4.805,23.076C5.015,22.392,5.492,21.822,6.129,21.496C6.129,21.496,14.332,17.299,17,15.935C17.753,15.55,18.587,15.349,19.432,15.349C19.432,15.349,19.432,15.349,19.432,15.349C21.008,15.349,22.424,16.04,23.389,17.14L23.409,17.161C24.226,18.087,24.719,19.304,24.719,20.635L24.347,22.572C23.243,27.98,22.603,33.066,22.591,37.816C22.594,39.07,23.074,40.275,23.933,41.187C26.278,43.68,30.964,48.653,30.964,48.653L30.957,48.66C32.325,50.327,32.218,52.778,30.688,54.319L30.688,59.942L30.082,59.942L30.082,63.984C30.377,64.193,30.589,64.511,30.661,64.879C30.917,64.963,31.126,65.075,31.255,65.214C32.49,66.968,34.235,67.781,36.131,68.282C36.267,68.318,36.362,68.44,36.365,68.581C36.374,69.104,36.19,69.56,35.465,69.825C35.024,69.987,34.546,70.027,34.084,69.942C30.335,69.258,31.417,69.042,28.644,69.92C28.293,70.032,27.91,69.988,27.594,69.797C27.087,69.49,26.877,68.896,26.917,67.935C26.942,67.344,27.482,65.813,27.416,65.306C27.415,65.3,27.415,65.295,27.415,65.289C27.423,65.118,27.586,64.982,27.842,64.882C27.91,64.531,28.106,64.226,28.378,64.017L28.373,64.017L28.373,59.942L27.816,59.942L27.816,55.567ZM18.3,50.995L12.637,67.143C12.03,68.873,10.411,69.96,8.677,69.973L8.651,69.974C8.185,69.974,7.711,69.897,7.247,69.734C5.044,68.962,3.883,66.547,4.655,64.344L11.766,44.066L18.3,50.995ZM23.33,41.346C23.076,41.08,22.702,40.965,22.343,41.043C21.983,41.121,21.69,41.38,21.568,41.727C20.954,43.478,20.008,46.175,19.589,47.372C19.458,47.746,19.546,48.161,19.819,48.449C21.147,49.852,25.004,53.927,25.004,53.927C25.692,54.654,26.641,55.076,27.642,55.099C28.643,55.123,29.611,54.746,30.333,54.052C30.333,54.052,30.333,54.052,30.333,54.052C31.817,52.625,31.866,50.266,30.443,48.778C30.443,48.778,25.627,43.746,23.33,41.346ZM25.891,21.619L38.025,30.648C39.547,31.78,39.863,33.934,38.731,35.456C37.599,36.977,35.445,37.294,33.923,36.162L24.644,29.257C24.821,26.681,25.231,24.134,25.891,21.619ZM25.935,0.391C29.782,0.391,32.906,3.515,32.906,7.363C32.906,11.211,29.782,14.334,25.935,14.334C22.087,14.334,18.963,11.211,18.963,7.363C18.963,3.515,22.087,0.391,25.935,0.391ZM25.935,0.391"/>
</g>
  <g id="Ultralight-M" transform="matrix(1.0,0.0,0.0,1.0,541.1664298119783,1055.5400390625)">  <path stroke-miterlimit="2" stroke-width="1px" xmlns:xlink="http://www.w3.org/1999/xlink" fill-opacity="1" clip-rule="evenodd" stroke="none" stroke-dasharray="none" version="1.1" stroke-linejoin="round" xmlns:serif="http://www.serif.com/" stroke-linecap="butt" xml:space="preserve" fill-rule="evenodd" fill="#000000" stroke-opacity="1" d="M27.816,55.567C26.74,55.6,25.655,55.224,24.816,54.447L24.809,54.454C24.809,54.454,16.178,45.27,12.226,41.065C11.014,39.775,10.507,37.975,10.868,36.242L13.067,25.667L11.849,26.29C11.212,26.615,10.735,27.185,10.525,27.869C9.585,30.943,6.943,39.575,6.943,39.575C6.388,41.388,4.465,42.41,2.652,41.855C0.838,41.3,-0.184,39.377,0.371,37.564L4.805,23.076C5.015,22.392,5.492,21.822,6.129,21.496C6.129,21.496,14.332,17.299,17,15.935C17.753,15.55,18.587,15.349,19.432,15.349C19.432,15.349,19.432,15.349,19.432,15.349C21.008,15.349,22.424,16.04,23.389,17.14L23.409,17.161C24.226,18.087,24.719,19.304,24.719,20.635L24.347,22.572C23.243,27.98,22.603,33.066,22.591,37.816C22.594,39.07,23.074,40.275,23.933,41.187C26.278,43.68,30.964,48.653,30.964,48.653L30.957,48.66C32.325,50.327,32.218,52.778,30.688,54.319L30.688,59.942L30.082,59.942L30.082,63.984C30.377,64.193,30.589,64.511,30.661,64.879C30.917,64.963,31.126,65.075,31.255,65.214C32.49,66.968,34.235,67.781,36.131,68.282C36.267,68.318,36.362,68.44,36.365,68.581C36.374,69.104,36.19,69.56,35.465,69.825C35.024,69.987,34.546,70.027,34.084,69.942C30.335,69.258,31.417,69.042,28.644,69.92C28.293,70.032,27.91,69.988,27.594,69.797C27.087,69.49,26.877,68.896,26.917,67.935C26.942,67.344,27.482,65.813,27.416,65.306C27.415,65.3,27.415,65.295,27.415,65.289C27.423,65.118,27.586,64.982,27.842,64.882C27.91,64.531,28.106,64.226,28.378,64.017L28.373,64.017L28.373,59.942L27.816,59.942L27.816,55.567ZM18.3,50.995L12.637,67.143C12.03,68.873,10.411,69.96,8.677,69.973L8.651,69.974C8.185,69.974,7.711,69.897,7.247,69.734C5.044,68.962,3.883,66.547,4.655,64.344L11.766,44.066L18.3,50.995ZM23.33,41.346C23.076,41.08,22.702,40.965,22.343,41.043C21.983,41.121,21.69,41.38,21.568,41.727C20.954,43.478,20.008,46.175,19.589,47.372C19.458,47.746,19.546,48.161,19.819,48.449C21.147,49.852,25.004,53.927,25.004,53.927C25.692,54.654,26.641,55.076,27.642,55.099C28.643,55.123,29.611,54.746,30.333,54.052C30.333,54.052,30.333,54.052,30.333,54.052C31.817,52.625,31.866,50.266,30.443,48.778C30.443,48.778,25.627,43.746,23.33,41.346ZM25.891,21.619L38.025,30.648C39.547,31.78,39.863,33.934,38.731,35.456C37.599,36.977,35.445,37.294,33.923,36.162L24.644,29.257C24.821,26.681,25.231,24.134,25.891,21.619ZM25.935,0.391C29.782,0.391,32.906,3.515,32.906,7.363C32.906,11.211,29.782,14.334,25.935,14.334C22.087,14.334,18.963,11.211,18.963,7.363C18.963,3.515,22.087,0.391,25.935,0.391ZM25.935,0.391"/>
</g>
  <g id="Black-S" transform="matrix(1.0,0.0,0.0,1.0,2919.1503145427787,633.1849448242187)">  <path stroke-dasharray="none" version="1.1" fill="#000000" stroke-miterlimit="2" stroke-opacity="1" stroke="none" fill-opacity="1" fill-rule="evenodd" stroke-width="1px" stroke-linecap="butt" xmlns:xlink="http://www.w3.org/1999/xlink" stroke-linejoin="round" clip-rule="evenodd" xml:space="preserve" xmlns:serif="http://www.serif.com/" d="M21.78,43.509C20.937,43.535,20.088,43.24,19.431,42.632L19.425,42.638C19.425,42.638,12.667,35.446,9.573,32.154C8.624,31.144,8.227,29.735,8.509,28.378L10.232,20.097L9.278,20.585C8.779,20.84,8.405,21.286,8.241,21.822C7.505,24.228,5.436,30.987,5.436,30.987C5.002,32.407,3.496,33.207,2.076,32.773C0.656,32.338,-0.144,30.832,0.291,29.412L3.763,18.068C3.926,17.533,4.301,17.086,4.799,16.831C4.799,16.831,11.222,13.545,13.311,12.477C13.901,12.175,14.553,12.018,15.215,12.018C15.215,12.018,15.215,12.018,15.215,12.018C16.45,12.018,17.558,12.559,18.314,13.42L18.329,13.437C18.969,14.162,19.355,15.115,19.355,16.157L19.064,17.674C18.199,21.908,17.698,25.89,17.689,29.61C17.691,30.592,18.067,31.535,18.74,32.249C20.575,34.201,24.245,38.095,24.245,38.095L24.239,38.101C25.311,39.406,25.227,41.325,24.029,42.532L24.029,46.934L23.554,46.934L23.554,50.099C23.785,50.263,23.952,50.512,24.008,50.8C24.208,50.866,24.372,50.953,24.472,51.063C25.44,52.436,26.806,53.072,28.29,53.465C28.397,53.493,28.472,53.588,28.474,53.699C28.481,54.109,28.336,54.465,27.769,54.673C27.423,54.799,27.05,54.831,26.687,54.764C23.752,54.229,24.6,54.06,22.428,54.747C22.153,54.835,21.853,54.8,21.606,54.651C21.209,54.41,21.044,53.946,21.076,53.193C21.096,52.73,21.519,51.531,21.467,51.134C21.466,51.13,21.466,51.126,21.466,51.121C21.472,50.988,21.6,50.881,21.801,50.802C21.854,50.528,22.007,50.289,22.22,50.125L22.216,50.125L22.216,46.934L21.78,46.934L21.78,43.509ZM14.329,39.929L9.895,52.573C9.42,53.927,8.152,54.779,6.794,54.789L6.774,54.789C6.409,54.79,6.038,54.73,5.674,54.602C3.949,53.997,3.04,52.106,3.645,50.381L9.213,34.504L14.329,39.929ZM18.267,32.374C18.068,32.166,17.776,32.076,17.494,32.137C17.213,32.198,16.983,32.4,16.888,32.672C16.407,34.044,15.667,36.155,15.338,37.092C15.235,37.385,15.305,37.71,15.518,37.935C16.558,39.034,19.578,42.225,19.578,42.225C20.116,42.794,20.86,43.124,21.644,43.143C22.427,43.161,23.186,42.866,23.751,42.323C23.751,42.323,23.751,42.323,23.751,42.323C24.913,41.205,24.951,39.358,23.837,38.193C23.837,38.193,20.066,34.253,18.267,32.374ZM20.272,16.928L29.774,23.997C30.965,24.883,31.213,26.57,30.327,27.762C29.44,28.953,27.753,29.201,26.562,28.315L19.296,22.908C19.435,20.891,19.756,18.897,20.272,16.928ZM20.307,0.306C23.32,0.306,25.766,2.752,25.766,5.765C25.766,8.778,23.32,11.224,20.307,11.224C17.294,11.224,14.848,8.778,14.848,5.765C14.848,2.752,17.294,0.306,20.307,0.306ZM20.307,0.306"/>
</g>
  <g id="Heavy-S" transform="matrix(1.0,0.0,0.0,1.0,2622.4403145427787,633.1849448242187)">  <path stroke-dasharray="none" fill-rule="evenodd" version="1.1" stroke-linecap="butt" xmlns:serif="http://www.serif.com/" xml:space="preserve" stroke="none" stroke-linejoin="round" fill-opacity="1" fill="#000000" stroke-miterlimit="2" stroke-width="1px" clip-rule="evenodd" stroke-opacity="1" xmlns:xlink="http://www.w3.org/1999/xlink" d="M21.78,43.509C20.937,43.535,20.088,43.24,19.431,42.632L19.425,42.638C19.425,42.638,12.667,35.446,9.573,32.154C8.624,31.144,8.227,29.735,8.509,28.378L10.232,20.097L9.278,20.585C8.779,20.84,8.405,21.286,8.241,21.822C7.505,24.228,5.436,30.987,5.436,30.987C5.002,32.407,3.496,33.207,2.076,32.773C0.656,32.338,-0.144,30.832,0.291,29.412L3.763,18.068C3.926,17.533,4.301,17.086,4.799,16.831C4.799,16.831,11.222,13.545,13.311,12.477C13.901,12.175,14.553,12.018,15.215,12.018C15.215,12.018,15.215,12.018,15.215,12.018C16.45,12.018,17.558,12.559,18.314,13.42L18.329,13.437C18.969,14.162,19.355,15.115,19.355,16.157L19.064,17.674C18.199,21.908,17.698,25.89,17.689,29.61C17.691,30.592,18.067,31.535,18.74,32.249C20.575,34.201,24.245,38.095,24.245,38.095L24.239,38.101C25.311,39.406,25.227,41.325,24.029,42.532L24.029,46.934L23.554,46.934L23.554,50.099C23.785,50.263,23.952,50.512,24.008,50.8C24.208,50.866,24.372,50.953,24.472,51.063C25.44,52.436,26.806,53.072,28.29,53.465C28.397,53.493,28.472,53.588,28.474,53.699C28.481,54.109,28.336,54.465,27.769,54.673C27.423,54.799,27.05,54.831,26.687,54.764C23.752,54.229,24.6,54.06,22.428,54.747C22.153,54.835,21.853,54.8,21.606,54.651C21.209,54.41,21.044,53.946,21.076,53.193C21.096,52.73,21.519,51.531,21.467,51.134C21.466,51.13,21.466,51.126,21.466,51.121C21.472,50.988,21.6,50.881,21.801,50.802C21.854,50.528,22.007,50.289,22.22,50.125L22.216,50.125L22.216,46.934L21.78,46.934L21.78,43.509ZM14.329,39.929L9.895,52.573C9.42,53.927,8.152,54.779,6.794,54.789L6.774,54.789C6.409,54.79,6.038,54.73,5.674,54.602C3.949,53.997,3.04,52.106,3.645,50.381L9.213,34.504L14.329,39.929ZM18.267,32.374C18.068,32.166,17.776,32.076,17.494,32.137C17.213,32.198,16.983,32.4,16.888,32.672C16.407,34.044,15.667,36.155,15.338,37.092C15.235,37.385,15.305,37.71,15.518,37.935C16.558,39.034,19.578,42.225,19.578,42.225C20.116,42.794,20.86,43.124,21.644,43.143C22.427,43.161,23.186,42.866,23.751,42.323C23.751,42.323,23.751,42.323,23.751,42.323C24.913,41.205,24.951,39.358,23.837,38.193C23.837,38.193,20.066,34.253,18.267,32.374ZM20.272,16.928L29.774,23.997C30.965,24.883,31.213,26.57,30.327,27.762C29.44,28.953,27.753,29.201,26.562,28.315L19.296,22.908C19.435,20.891,19.756,18.897,20.272,16.928ZM20.307,0.306C23.32,0.306,25.766,2.752,25.766,5.765C25.766,8.778,23.32,11.224,20.307,11.224C17.294,11.224,14.848,8.778,14.848,5.765C14.848,2.752,17.294,0.306,20.307,0.306ZM20.307,0.306"/>
</g>
  <g id="Bold-S" transform="matrix(1.0,0.0,0.0,1.0,2325.7303145427786,633.1849448242187)">  <path stroke-miterlimit="2" xml:space="preserve" version="1.1" stroke-opacity="1" stroke-width="1px" stroke-dasharray="none" fill-opacity="1" xmlns:xlink="http://www.w3.org/1999/xlink" stroke-linejoin="round" stroke="none" xmlns:serif="http://www.serif.com/" stroke-linecap="butt" fill-rule="evenodd" fill="#000000" clip-rule="evenodd" d="M21.78,43.509C20.937,43.535,20.088,43.24,19.431,42.632L19.425,42.638C19.425,42.638,12.667,35.446,9.573,32.154C8.624,31.144,8.227,29.735,8.509,28.378L10.232,20.097L9.278,20.585C8.779,20.84,8.405,21.286,8.241,21.822C7.505,24.228,5.436,30.987,5.436,30.987C5.002,32.407,3.496,33.207,2.076,32.773C0.656,32.338,-0.144,30.832,0.291,29.412L3.763,18.068C3.926,17.533,4.301,17.086,4.799,16.831C4.799,16.831,11.222,13.545,13.311,12.477C13.901,12.175,14.553,12.018,15.215,12.018C15.215,12.018,15.215,12.018,15.215,12.018C16.45,12.018,17.558,12.559,18.314,13.42L18.329,13.437C18.969,14.162,19.355,15.115,19.355,16.157L19.064,17.674C18.199,21.908,17.698,25.89,17.689,29.61C17.691,30.592,18.067,31.535,18.74,32.249C20.575,34.201,24.245,38.095,24.245,38.095L24.239,38.101C25.311,39.406,25.227,41.325,24.029,42.532L24.029,46.934L23.554,46.934L23.554,50.099C23.785,50.263,23.952,50.512,24.008,50.8C24.208,50.866,24.372,50.953,24.472,51.063C25.44,52.436,26.806,53.072,28.29,53.465C28.397,53.493,28.472,53.588,28.474,53.699C28.481,54.109,28.336,54.465,27.769,54.673C27.423,54.799,27.05,54.831,26.687,54.764C23.752,54.229,24.6,54.06,22.428,54.747C22.153,54.835,21.853,54.8,21.606,54.651C21.209,54.41,21.044,53.946,21.076,53.193C21.096,52.73,21.519,51.531,21.467,51.134C21.466,51.13,21.466,51.126,21.466,51.121C21.472,50.988,21.6,50.881,21.801,50.802C21.854,50.528,22.007,50.289,22.22,50.125L22.216,50.125L22.216,46.934L21.78,46.934L21.78,43.509ZM14.329,39.929L9.895,52.573C9.42,53.927,8.152,54.779,6.794,54.789L6.774,54.789C6.409,54.79,6.038,54.73,5.674,54.602C3.949,53.997,3.04,52.106,3.645,50.381L9.213,34.504L14.329,39.929ZM18.267,32.374C18.068,32.166,17.776,32.076,17.494,32.137C17.213,32.198,16.983,32.4,16.888,32.672C16.407,34.044,15.667,36.155,15.338,37.092C15.235,37.385,15.305,37.71,15.518,37.935C16.558,39.034,19.578,42.225,19.578,42.225C20.116,42.794,20.86,43.124,21.644,43.143C22.427,43.161,23.186,42.866,23.751,42.323C23.751,42.323,23.751,42.323,23.751,42.323C24.913,41.205,24.951,39.358,23.837,38.193C23.837,38.193,20.066,34.253,18.267,32.374ZM20.272,16.928L29.774,23.997C30.965,24.883,31.213,26.57,30.327,27.762C29.44,28.953,27.753,29.201,26.562,28.315L19.296,22.908C19.435,20.891,19.756,18.897,20.272,16.928ZM20.307,0.306C23.32,0.306,25.766,2.752,25.766,5.765C25.766,8.778,23.32,11.224,20.307,11.224C17.294,11.224,14.848,8.778,14.848,5.765C14.848,2.752,17.294,0.306,20.307,0.306ZM20.307,0.306"/>
</g>
  <g id="Semibold-S" transform="matrix(1.0,0.0,0.0,1.0,2029.020314542779,633.1849448242187)">  <path version="1.1" xml:space="preserve" xmlns:serif="http://www.serif.com/" fill-rule="evenodd" stroke="none" xmlns:xlink="http://www.w3.org/1999/xlink" stroke-width="1px" fill-opacity="1" stroke-opacity="1" stroke-linejoin="round" fill="#000000" stroke-dasharray="none" stroke-miterlimit="2" stroke-linecap="butt" clip-rule="evenodd" d="M21.78,43.509C20.937,43.535,20.088,43.24,19.431,42.632L19.425,42.638C19.425,42.638,12.667,35.446,9.573,32.154C8.624,31.144,8.227,29.735,8.509,28.378L10.232,20.097L9.278,20.585C8.779,20.84,8.405,21.286,8.241,21.822C7.505,24.228,5.436,30.987,5.436,30.987C5.002,32.407,3.496,33.207,2.076,32.773C0.656,32.338,-0.144,30.832,0.291,29.412L3.763,18.068C3.926,17.533,4.301,17.086,4.799,16.831C4.799,16.831,11.222,13.545,13.311,12.477C13.901,12.175,14.553,12.018,15.215,12.018C15.215,12.018,15.215,12.018,15.215,12.018C16.45,12.018,17.558,12.559,18.314,13.42L18.329,13.437C18.969,14.162,19.355,15.115,19.355,16.157L19.064,17.674C18.199,21.908,17.698,25.89,17.689,29.61C17.691,30.592,18.067,31.535,18.74,32.249C20.575,34.201,24.245,38.095,24.245,38.095L24.239,38.101C25.311,39.406,25.227,41.325,24.029,42.532L24.029,46.934L23.554,46.934L23.554,50.099C23.785,50.263,23.952,50.512,24.008,50.8C24.208,50.866,24.372,50.953,24.472,51.063C25.44,52.436,26.806,53.072,28.29,53.465C28.397,53.493,28.472,53.588,28.474,53.699C28.481,54.109,28.336,54.465,27.769,54.673C27.423,54.799,27.05,54.831,26.687,54.764C23.752,54.229,24.6,54.06,22.428,54.747C22.153,54.835,21.853,54.8,21.606,54.651C21.209,54.41,21.044,53.946,21.076,53.193C21.096,52.73,21.519,51.531,21.467,51.134C21.466,51.13,21.466,51.126,21.466,51.121C21.472,50.988,21.6,50.881,21.801,50.802C21.854,50.528,22.007,50.289,22.22,50.125L22.216,50.125L22.216,46.934L21.78,46.934L21.78,43.509ZM14.329,39.929L9.895,52.573C9.42,53.927,8.152,54.779,6.794,54.789L6.774,54.789C6.409,54.79,6.038,54.73,5.674,54.602C3.949,53.997,3.04,52.106,3.645,50.381L9.213,34.504L14.329,39.929ZM18.267,32.374C18.068,32.166,17.776,32.076,17.494,32.137C17.213,32.198,16.983,32.4,16.888,32.672C16.407,34.044,15.667,36.155,15.338,37.092C15.235,37.385,15.305,37.71,15.518,37.935C16.558,39.034,19.578,42.225,19.578,42.225C20.116,42.794,20.86,43.124,21.644,43.143C22.427,43.161,23.186,42.866,23.751,42.323C23.751,42.323,23.751,42.323,23.751,42.323C24.913,41.205,24.951,39.358,23.837,38.193C23.837,38.193,20.066,34.253,18.267,32.374ZM20.272,16.928L29.774,23.997C30.965,24.883,31.213,26.57,30.327,27.762C29.44,28.953,27.753,29.201,26.562,28.315L19.296,22.908C19.435,20.891,19.756,18.897,20.272,16.928ZM20.307,0.306C23.32,0.306,25.766,2.752,25.766,5.765C25.766,8.778,23.32,11.224,20.307,11.224C17.294,11.224,14.848,8.778,14.848,5.765C14.848,2.752,17.294,0.306,20.307,0.306ZM20.307,0.306"/>
</g>
  <g id="Medium-S" transform="matrix(1.0,0.0,0.0,1.0,1732.310314542779,633.1849448242187)">  <path stroke-width="1px" fill="#000000" stroke-dasharray="none" xmlns:serif="http://www.serif.com/" clip-rule="evenodd" fill-rule="evenodd" stroke-opacity="1" stroke="none" stroke-miterlimit="2" stroke-linejoin="round" fill-opacity="1" stroke-linecap="butt" version="1.1" xmlns:xlink="http://www.w3.org/1999/xlink" xml:space="preserve" d="M21.78,43.509C20.937,43.535,20.088,43.24,19.431,42.632L19.425,42.638C19.425,42.638,12.667,35.446,9.573,32.154C8.624,31.144,8.227,29.735,8.509,28.378L10.232,20.097L9.278,20.585C8.779,20.84,8.405,21.286,8.241,21.822C7.505,24.228,5.436,30.987,5.436,30.987C5.002,32.407,3.496,33.207,2.076,32.773C0.656,32.338,-0.144,30.832,0.291,29.412L3.763,18.068C3.926,17.533,4.301,17.086,4.799,16.831C4.799,16.831,11.222,13.545,13.311,12.477C13.901,12.175,14.553,12.018,15.215,12.018C15.215,12.018,15.215,12.018,15.215,12.018C16.45,12.018,17.558,12.559,18.314,13.42L18.329,13.437C18.969,14.162,19.355,15.115,19.355,16.157L19.064,17.674C18.199,21.908,17.698,25.89,17.689,29.61C17.691,30.592,18.067,31.535,18.74,32.249C20.575,34.201,24.245,38.095,24.245,38.095L24.239,38.101C25.311,39.406,25.227,41.325,24.029,42.532L24.029,46.934L23.554,46.934L23.554,50.099C23.785,50.263,23.952,50.512,24.008,50.8C24.208,50.866,24.372,50.953,24.472,51.063C25.44,52.436,26.806,53.072,28.29,53.465C28.397,53.493,28.472,53.588,28.474,53.699C28.481,54.109,28.336,54.465,27.769,54.673C27.423,54.799,27.05,54.831,26.687,54.764C23.752,54.229,24.6,54.06,22.428,54.747C22.153,54.835,21.853,54.8,21.606,54.651C21.209,54.41,21.044,53.946,21.076,53.193C21.096,52.73,21.519,51.531,21.467,51.134C21.466,51.13,21.466,51.126,21.466,51.121C21.472,50.988,21.6,50.881,21.801,50.802C21.854,50.528,22.007,50.289,22.22,50.125L22.216,50.125L22.216,46.934L21.78,46.934L21.78,43.509ZM14.329,39.929L9.895,52.573C9.42,53.927,8.152,54.779,6.794,54.789L6.774,54.789C6.409,54.79,6.038,54.73,5.674,54.602C3.949,53.997,3.04,52.106,3.645,50.381L9.213,34.504L14.329,39.929ZM18.267,32.374C18.068,32.166,17.776,32.076,17.494,32.137C17.213,32.198,16.983,32.4,16.888,32.672C16.407,34.044,15.667,36.155,15.338,37.092C15.235,37.385,15.305,37.71,15.518,37.935C16.558,39.034,19.578,42.225,19.578,42.225C20.116,42.794,20.86,43.124,21.644,43.143C22.427,43.161,23.186,42.866,23.751,42.323C23.751,42.323,23.751,42.323,23.751,42.323C24.913,41.205,24.951,39.358,23.837,38.193C23.837,38.193,20.066,34.253,18.267,32.374ZM20.272,16.928L29.774,23.997C30.965,24.883,31.213,26.57,30.327,27.762C29.44,28.953,27.753,29.201,26.562,28.315L19.296,22.908C19.435,20.891,19.756,18.897,20.272,16.928ZM20.307,0.306C23.32,0.306,25.766,2.752,25.766,5.765C25.766,8.778,23.32,11.224,20.307,11.224C17.294,11.224,14.848,8.778,14.848,5.765C14.848,2.752,17.294,0.306,20.307,0.306ZM20.307,0.306"/>
</g>
  <g id="Regular-S" transform="matrix(1.0,0.0,0.0,1.0,1435.600314542779,633.1849448242187)">  <path stroke-linecap="butt" stroke-opacity="1" fill="#000000" stroke-linejoin="round" stroke-miterlimit="2" xml:space="preserve" fill-opacity="1" stroke="none" xmlns:serif="http://www.serif.com/" stroke-width="1px" version="1.1" stroke-dasharray="none" fill-rule="evenodd" xmlns:xlink="http://www.w3.org/1999/xlink" clip-rule="evenodd" d="M21.78,43.509C20.937,43.535,20.088,43.24,19.431,42.632L19.425,42.638C19.425,42.638,12.667,35.446,9.573,32.154C8.624,31.144,8.227,29.735,8.509,28.378L10.232,20.097L9.278,20.585C8.779,20.84,8.405,21.286,8.241,21.822C7.505,24.228,5.436,30.987,5.436,30.987C5.002,32.407,3.496,33.207,2.076,32.773C0.656,32.338,-0.144,30.832,0.291,29.412L3.763,18.068C3.926,17.533,4.301,17.086,4.799,16.831C4.799,16.831,11.222,13.545,13.311,12.477C13.901,12.175,14.553,12.018,15.215,12.018C15.215,12.018,15.215,12.018,15.215,12.018C16.45,12.018,17.558,12.559,18.314,13.42L18.329,13.437C18.969,14.162,19.355,15.115,19.355,16.157L19.064,17.674C18.199,21.908,17.698,25.89,17.689,29.61C17.691,30.592,18.067,31.535,18.74,32.249C20.575,34.201,24.245,38.095,24.245,38.095L24.239,38.101C25.311,39.406,25.227,41.325,24.029,42.532L24.029,46.934L23.554,46.934L23.554,50.099C23.785,50.263,23.952,50.512,24.008,50.8C24.208,50.866,24.372,50.953,24.472,51.063C25.44,52.436,26.806,53.072,28.29,53.465C28.397,53.493,28.472,53.588,28.474,53.699C28.481,54.109,28.336,54.465,27.769,54.673C27.423,54.799,27.05,54.831,26.687,54.764C23.752,54.229,24.6,54.06,22.428,54.747C22.153,54.835,21.853,54.8,21.606,54.651C21.209,54.41,21.044,53.946,21.076,53.193C21.096,52.73,21.519,51.531,21.467,51.134C21.466,51.13,21.466,51.126,21.466,51.121C21.472,50.988,21.6,50.881,21.801,50.802C21.854,50.528,22.007,50.289,22.22,50.125L22.216,50.125L22.216,46.934L21.78,46.934L21.78,43.509ZM14.329,39.929L9.895,52.573C9.42,53.927,8.152,54.779,6.794,54.789L6.774,54.789C6.409,54.79,6.038,54.73,5.674,54.602C3.949,53.997,3.04,52.106,3.645,50.381L9.213,34.504L14.329,39.929ZM18.267,32.374C18.068,32.166,17.776,32.076,17.494,32.137C17.213,32.198,16.983,32.4,16.888,32.672C16.407,34.044,15.667,36.155,15.338,37.092C15.235,37.385,15.305,37.71,15.518,37.935C16.558,39.034,19.578,42.225,19.578,42.225C20.116,42.794,20.86,43.124,21.644,43.143C22.427,43.161,23.186,42.866,23.751,42.323C23.751,42.323,23.751,42.323,23.751,42.323C24.913,41.205,24.951,39.358,23.837,38.193C23.837,38.193,20.066,34.253,18.267,32.374ZM20.272,16.928L29.774,23.997C30.965,24.883,31.213,26.57,30.327,27.762C29.44,28.953,27.753,29.201,26.562,28.315L19.296,22.908C19.435,20.891,19.756,18.897,20.272,16.928ZM20.307,0.306C23.32,0.306,25.766,2.752,25.766,5.765C25.766,8.778,23.32,11.224,20.307,11.224C17.294,11.224,14.848,8.778,14.848,5.765C14.848,2.752,17.294,0.306,20.307,0.306ZM20.307,0.306"/>
</g>
  <g id="Light-S" transform="matrix(1.0,0.0,0.0,1.0,1138.8903145427792,633.1849448242187)">  <path stroke-opacity="1" fill-opacity="1" stroke-miterlimit="2" fill-rule="evenodd" stroke="none" stroke-dasharray="none" xmlns:xlink="http://www.w3.org/1999/xlink" xmlns:serif="http://www.serif.com/" stroke-linejoin="round" stroke-width="1px" fill="#000000" stroke-linecap="butt" xml:space="preserve" clip-rule="evenodd" version="1.1" d="M21.78,43.509C20.937,43.535,20.088,43.24,19.431,42.632L19.425,42.638C19.425,42.638,12.667,35.446,9.573,32.154C8.624,31.144,8.227,29.735,8.509,28.378L10.232,20.097L9.278,20.585C8.779,20.84,8.405,21.286,8.241,21.822C7.505,24.228,5.436,30.987,5.436,30.987C5.002,32.407,3.496,33.207,2.076,32.773C0.656,32.338,-0.144,30.832,0.291,29.412L3.763,18.068C3.926,17.533,4.301,17.086,4.799,16.831C4.799,16.831,11.222,13.545,13.311,12.477C13.901,12.175,14.553,12.018,15.215,12.018C15.215,12.018,15.215,12.018,15.215,12.018C16.45,12.018,17.558,12.559,18.314,13.42L18.329,13.437C18.969,14.162,19.355,15.115,19.355,16.157L19.064,17.674C18.199,21.908,17.698,25.89,17.689,29.61C17.691,30.592,18.067,31.535,18.74,32.249C20.575,34.201,24.245,38.095,24.245,38.095L24.239,38.101C25.311,39.406,25.227,41.325,24.029,42.532L24.029,46.934L23.554,46.934L23.554,50.099C23.785,50.263,23.952,50.512,24.008,50.8C24.208,50.866,24.372,50.953,24.472,51.063C25.44,52.436,26.806,53.072,28.29,53.465C28.397,53.493,28.472,53.588,28.474,53.699C28.481,54.109,28.336,54.465,27.769,54.673C27.423,54.799,27.05,54.831,26.687,54.764C23.752,54.229,24.6,54.06,22.428,54.747C22.153,54.835,21.853,54.8,21.606,54.651C21.209,54.41,21.044,53.946,21.076,53.193C21.096,52.73,21.519,51.531,21.467,51.134C21.466,51.13,21.466,51.126,21.466,51.121C21.472,50.988,21.6,50.881,21.801,50.802C21.854,50.528,22.007,50.289,22.22,50.125L22.216,50.125L22.216,46.934L21.78,46.934L21.78,43.509ZM14.329,39.929L9.895,52.573C9.42,53.927,8.152,54.779,6.794,54.789L6.774,54.789C6.409,54.79,6.038,54.73,5.674,54.602C3.949,53.997,3.04,52.106,3.645,50.381L9.213,34.504L14.329,39.929ZM18.267,32.374C18.068,32.166,17.776,32.076,17.494,32.137C17.213,32.198,16.983,32.4,16.888,32.672C16.407,34.044,15.667,36.155,15.338,37.092C15.235,37.385,15.305,37.71,15.518,37.935C16.558,39.034,19.578,42.225,19.578,42.225C20.116,42.794,20.86,43.124,21.644,43.143C22.427,43.161,23.186,42.866,23.751,42.323C23.751,42.323,23.751,42.323,23.751,42.323C24.913,41.205,24.951,39.358,23.837,38.193C23.837,38.193,20.066,34.253,18.267,32.374ZM20.272,16.928L29.774,23.997C30.965,24.883,31.213,26.57,30.327,27.762C29.44,28.953,27.753,29.201,26.562,28.315L19.296,22.908C19.435,20.891,19.756,18.897,20.272,16.928ZM20.307,0.306C23.32,0.306,25.766,2.752,25.766,5.765C25.766,8.778,23.32,11.224,20.307,11.224C17.294,11.224,14.848,8.778,14.848,5.765C14.848,2.752,17.294,0.306,20.307,0.306ZM20.307,0.306"/>
</g>
  <g id="Thin-S" transform="matrix(1.0,0.0,0.0,1.0,842.1803145427791,633.1849448242187)">  <path xml:space="preserve" clip-rule="evenodd" fill-rule="evenodd" stroke-width="1px" xmlns:xlink="http://www.w3.org/1999/xlink" fill-opacity="1" xmlns:serif="http://www.serif.com/" version="1.1" stroke-linejoin="round" stroke-linecap="butt" stroke="none" stroke-opacity="1" stroke-miterlimit="2" stroke-dasharray="none" fill="#000000" d="M21.78,43.509C20.937,43.535,20.088,43.24,19.431,42.632L19.425,42.638C19.425,42.638,12.667,35.446,9.573,32.154C8.624,31.144,8.227,29.735,8.509,28.378L10.232,20.097L9.278,20.585C8.779,20.84,8.405,21.286,8.241,21.822C7.505,24.228,5.436,30.987,5.436,30.987C5.002,32.407,3.496,33.207,2.076,32.773C0.656,32.338,-0.144,30.832,0.291,29.412L3.763,18.068C3.926,17.533,4.301,17.086,4.799,16.831C4.799,16.831,11.222,13.545,13.311,12.477C13.901,12.175,14.553,12.018,15.215,12.018C15.215,12.018,15.215,12.018,15.215,12.018C16.45,12.018,17.558,12.559,18.314,13.42L18.329,13.437C18.969,14.162,19.355,15.115,19.355,16.157L19.064,17.674C18.199,21.908,17.698,25.89,17.689,29.61C17.691,30.592,18.067,31.535,18.74,32.249C20.575,34.201,24.245,38.095,24.245,38.095L24.239,38.101C25.311,39.406,25.227,41.325,24.029,42.532L24.029,46.934L23.554,46.934L23.554,50.099C23.785,50.263,23.952,50.512,24.008,50.8C24.208,50.866,24.372,50.953,24.472,51.063C25.44,52.436,26.806,53.072,28.29,53.465C28.397,53.493,28.472,53.588,28.474,53.699C28.481,54.109,28.336,54.465,27.769,54.673C27.423,54.799,27.05,54.831,26.687,54.764C23.752,54.229,24.6,54.06,22.428,54.747C22.153,54.835,21.853,54.8,21.606,54.651C21.209,54.41,21.044,53.946,21.076,53.193C21.096,52.73,21.519,51.531,21.467,51.134C21.466,51.13,21.466,51.126,21.466,51.121C21.472,50.988,21.6,50.881,21.801,50.802C21.854,50.528,22.007,50.289,22.22,50.125L22.216,50.125L22.216,46.934L21.78,46.934L21.78,43.509ZM14.329,39.929L9.895,52.573C9.42,53.927,8.152,54.779,6.794,54.789L6.774,54.789C6.409,54.79,6.038,54.73,5.674,54.602C3.949,53.997,3.04,52.106,3.645,50.381L9.213,34.504L14.329,39.929ZM18.267,32.374C18.068,32.166,17.776,32.076,17.494,32.137C17.213,32.198,16.983,32.4,16.888,32.672C16.407,34.044,15.667,36.155,15.338,37.092C15.235,37.385,15.305,37.71,15.518,37.935C16.558,39.034,19.578,42.225,19.578,42.225C20.116,42.794,20.86,43.124,21.644,43.143C22.427,43.161,23.186,42.866,23.751,42.323C23.751,42.323,23.751,42.323,23.751,42.323C24.913,41.205,24.951,39.358,23.837,38.193C23.837,38.193,20.066,34.253,18.267,32.374ZM20.272,16.928L29.774,23.997C30.965,24.883,31.213,26.57,30.327,27.762C29.44,28.953,27.753,29.201,26.562,28.315L19.296,22.908C19.435,20.891,19.756,18.897,20.272,16.928ZM20.307,0.306C23.32,0.306,25.766,2.752,25.766,5.765C25.766,8.778,23.32,11.224,20.307,11.224C17.294,11.224,14.848,8.778,14.848,5.765C14.848,2.752,17.294,0.306,20.307,0.306ZM20.307,0.306"/>
</g>
  <g id="Ultralight-S" transform="matrix(1.0,0.0,0.0,1.0,545.4703145427791,633.1849448242187)">  <path stroke-miterlimit="2" stroke-width="1px" xmlns:xlink="http://www.w3.org/1999/xlink" fill-opacity="1" clip-rule="evenodd" stroke="none" stroke-dasharray="none" version="1.1" stroke-linejoin="round" xmlns:serif="http://www.serif.com/" stroke-linecap="butt" xml:space="preserve" fill-rule="evenodd" fill="#000000" stroke-opacity="1" d="M21.78,43.509C20.937,43.535,20.088,43.24,19.431,42.632L19.425,42.638C19.425,42.638,12.667,35.446,9.573,32.154C8.624,31.144,8.227,29.735,8.509,28.378L10.232,20.097L9.278,20.585C8.779,20.84,8.405,21.286,8.241,21.822C7.505,24.228,5.436,30.987,5.436,30.987C5.002,32.407,3.496,33.207,2.076,32.773C0.656,32.338,-0.144,30.832,0.291,29.412L3.763,18.068C3.926,17.533,4.301,17.086,4.799,16.831C4.799,16.831,11.222,13.545,13.311,12.477C13.901,12.175,14.553,12.018,15.215,12.018C15.215,12.018,15.215,12.018,15.215,12.018C16.45,12.018,17.558,12.559,18.314,13.42L18.329,13.437C18.969,14.162,19.355,15.115,19.355,16.157L19.064,17.674C18.199,21.908,17.698,25.89,17.689,29.61C17.691,30.592,18.067,31.535,18.74,32.249C20.575,34.201,24.245,38.095,24.245,38.095L24.239,38.101C25.311,39.406,25.227,41.325,24.029,42.532L24.029,46.934L23.554,46.934L23.554,50.099C23.785,50.263,23.952,50.512,24.008,50.8C24.208,50.866,24.372,50.953,24.472,51.063C25.44,52.436,26.806,53.072,28.29,53.465C28.397,53.493,28.472,53.588,28.474,53.699C28.481,54.109,28.336,54.465,27.769,54.673C27.423,54.799,27.05,54.831,26.687,54.764C23.752,54.229,24.6,54.06,22.428,54.747C22.153,54.835,21.853,54.8,21.606,54.651C21.209,54.41,21.044,53.946,21.076,53.193C21.096,52.73,21.519,51.531,21.467,51.134C21.466,51.13,21.466,51.126,21.466,51.121C21.472,50.988,21.6,50.881,21.801,50.802C21.854,50.528,22.007,50.289,22.22,50.125L22.216,50.125L22.216,46.934L21.78,46.934L21.78,43.509ZM14.329,39.929L9.895,52.573C9.42,53.927,8.152,54.779,6.794,54.789L6.774,54.789C6.409,54.79,6.038,54.73,5.674,54.602C3.949,53.997,3.04,52.106,3.645,50.381L9.213,34.504L14.329,39.929ZM18.267,32.374C18.068,32.166,17.776,32.076,17.494,32.137C17.213,32.198,16.983,32.4,16.888,32.672C16.407,34.044,15.667,36.155,15.338,37.092C15.235,37.385,15.305,37.71,15.518,37.935C16.558,39.034,19.578,42.225,19.578,42.225C20.116,42.794,20.86,43.124,21.644,43.143C22.427,43.161,23.186,42.866,23.751,42.323C23.751,42.323,23.751,42.323,23.751,42.323C24.913,41.205,24.951,39.358,23.837,38.193C23.837,38.193,20.066,34.253,18.267,32.374ZM20.272,16.928L29.774,23.997C30.965,24.883,31.213,26.57,30.327,27.762C29.44,28.953,27.753,29.201,26.562,28.315L19.296,22.908C19.435,20.891,19.756,18.897,20.272,16.928ZM20.307,0.306C23.32,0.306,25.766,2.752,25.766,5.765C25.766,8.778,23.32,11.224,20.307,11.224C17.294,11.224,14.848,8.778,14.848,5.765C14.848,2.752,17.294,0.306,20.307,0.306ZM20.307,0.306"/>
</g>
 </g>
</svg>
