<?xml version="1.0" encoding="UTF-8"?>
<!--Generator: Apple Native CoreSVG 232.5-->
<!DOCTYPE svg
PUBLIC "-//W3C//DTD SVG 1.1//EN"
       "http://www.w3.org/Graphics/SVG/1.1/DTD/svg11.dtd">
<svg version="1.1" xmlns="http://www.w3.org/2000/svg" xmlns:xlink="http://www.w3.org/1999/xlink" width="3300" height="2200">
 <!--glyph: "", point size: 100.0, font version: "19.0d6e1", template writer version: "123"-->
 <style>.monochrome-0 {}
.monochrome-1 {}

.multicolor-0:tintColor {}
.multicolor-1:tintColor {-sfsymbols-clear-behind:true}

.hierarchical-0:secondary {}
.hierarchical-1:primary {-sfsymbols-clear-behind:true}

.SFSymbolsPreview007AFF {fill:#007AFF;opacity:1.0}
.SFSymbolsPreviewNone {fill:none;opacity:1.0}
</style>
 <g id="Notes">
  <rect height="2200" id="artboard" style="fill:white;opacity:1" width="3300" x="0" y="0"/>
  <line style="fill:none;stroke:black;opacity:1;stroke-width:0.5;" x1="263" x2="3036" y1="292" y2="292"/>
  <text style="stroke:none;fill:black;font-family:sans-serif;font-size:13;font-weight:bold;" transform="matrix(1 0 0 1 263 322)">Weight/Scale Variations</text>
  <text style="stroke:none;fill:black;font-family:sans-serif;font-size:13;text-anchor:middle;" transform="matrix(1 0 0 1 559.711 322)">Ultralight</text>
  <text style="stroke:none;fill:black;font-family:sans-serif;font-size:13;text-anchor:middle;" transform="matrix(1 0 0 1 856.422 322)">Thin</text>
  <text style="stroke:none;fill:black;font-family:sans-serif;font-size:13;text-anchor:middle;" transform="matrix(1 0 0 1 1153.13 322)">Light</text>
  <text style="stroke:none;fill:black;font-family:sans-serif;font-size:13;text-anchor:middle;" transform="matrix(1 0 0 1 1449.84 322)">Regular</text>
  <text style="stroke:none;fill:black;font-family:sans-serif;font-size:13;text-anchor:middle;" transform="matrix(1 0 0 1 1746.56 322)">Medium</text>
  <text style="stroke:none;fill:black;font-family:sans-serif;font-size:13;text-anchor:middle;" transform="matrix(1 0 0 1 2043.27 322)">Semibold</text>
  <text style="stroke:none;fill:black;font-family:sans-serif;font-size:13;text-anchor:middle;" transform="matrix(1 0 0 1 2339.98 322)">Bold</text>
  <text style="stroke:none;fill:black;font-family:sans-serif;font-size:13;text-anchor:middle;" transform="matrix(1 0 0 1 2636.69 322)">Heavy</text>
  <text style="stroke:none;fill:black;font-family:sans-serif;font-size:13;text-anchor:middle;" transform="matrix(1 0 0 1 2933.4 322)">Black</text>
  <line style="fill:none;stroke:black;opacity:1;stroke-width:0.5;" x1="263" x2="3036" y1="1903" y2="1903"/>
  <g transform="matrix(0.2 0 0 0.2 263 1933)">
   <path d="m46.2402 4.15039c21.5332 0 39.4531-17.8711 39.4531-39.4043s-17.9688-39.4043-39.502-39.4043c-21.4844 0-39.3555 17.8711-39.3555 39.4043s17.9199 39.4043 39.4043 39.4043Zm0-7.42188c-17.7246 0-31.8848-14.209-31.8848-31.9824s14.1113-31.9824 31.8359-31.9824c17.7734 0 32.0312 14.209 32.0312 31.9824s-14.209 31.9824-31.9824 31.9824Zm-17.9688-31.9824c0 2.14844 1.51367 3.61328 3.75977 3.61328h10.498v10.5957c0 2.19727 1.46484 3.71094 3.61328 3.71094 2.24609 0 3.71094-1.51367 3.71094-3.71094v-10.5957h10.5957c2.19727 0 3.71094-1.46484 3.71094-3.61328 0-2.19727-1.51367-3.71094-3.71094-3.71094h-10.5957v-10.5469c0-2.24609-1.46484-3.75977-3.71094-3.75977-2.14844 0-3.61328 1.51367-3.61328 3.75977v10.5469h-10.498c-2.24609 0-3.75977 1.51367-3.75977 3.71094Z"/>
  </g>
  <g transform="matrix(0.2 0 0 0.2 281.506 1933)">
   <path d="m58.5449 14.5508c27.2461 0 49.8047-22.6074 49.8047-49.8047 0-27.2461-22.6074-49.8047-49.8535-49.8047-27.1973 0-49.7559 22.5586-49.7559 49.8047 0 27.1973 22.6074 49.8047 49.8047 49.8047Zm0-8.30078c-23.0469 0-41.4551-18.457-41.4551-41.5039s18.3594-41.5039 41.4062-41.5039 41.5527 18.457 41.5527 41.5039-18.457 41.5039-41.5039 41.5039Zm-22.6562-41.5039c0 2.39258 1.66016 4.00391 4.15039 4.00391h14.3555v14.4043c0 2.44141 1.66016 4.15039 4.05273 4.15039 2.44141 0 4.15039-1.66016 4.15039-4.15039v-14.4043h14.4043c2.44141 0 4.15039-1.61133 4.15039-4.00391 0-2.44141-1.70898-4.15039-4.15039-4.15039h-14.4043v-14.3555c0-2.49023-1.70898-4.19922-4.15039-4.19922-2.39258 0-4.05273 1.70898-4.05273 4.19922v14.3555h-14.3555c-2.49023 0-4.15039 1.70898-4.15039 4.15039Z"/>
  </g>
  <g transform="matrix(0.2 0 0 0.2 304.924 1933)">
   <path d="m74.8535 28.3203c34.8145 0 63.623-28.8086 63.623-63.5742 0-34.8145-28.8574-63.623-63.6719-63.623-34.7656 0-63.5254 28.8086-63.5254 63.623 0 34.7656 28.8086 63.5742 63.5742 63.5742Zm0-9.08203c-30.1758 0-54.4434-24.3164-54.4434-54.4922 0-30.2246 24.2188-54.4922 54.3945-54.4922 30.2246 0 54.541 24.2676 54.541 54.4922 0 30.1758-24.2676 54.4922-54.4922 54.4922Zm-28.8574-54.4922c0 2.58789 1.85547 4.39453 4.58984 4.39453h19.7266v19.7754c0 2.68555 1.85547 4.58984 4.44336 4.58984 2.68555 0 4.54102-1.85547 4.54102-4.58984v-19.7754h19.7754c2.68555 0 4.58984-1.80664 4.58984-4.39453 0-2.73438-1.85547-4.58984-4.58984-4.58984h-19.7754v-19.7266c0-2.73438-1.85547-4.63867-4.54102-4.63867-2.58789 0-4.44336 1.9043-4.44336 4.63867v19.7266h-19.7266c-2.73438 0-4.58984 1.85547-4.58984 4.58984Z"/>
  </g>
  <text style="stroke:none;fill:black;font-family:sans-serif;font-size:13;font-weight:bold;" transform="matrix(1 0 0 1 263 1953)">Design Variations</text>
  <text style="stroke:none;fill:black;font-family:sans-serif;font-size:13;" transform="matrix(1 0 0 1 263 1971)">Symbols are supported in up to nine weights and three scales.</text>
  <text style="stroke:none;fill:black;font-family:sans-serif;font-size:13;" transform="matrix(1 0 0 1 263 1989)">For optimal layout with text and other symbols, vertically align</text>
  <text style="stroke:none;fill:black;font-family:sans-serif;font-size:13;" transform="matrix(1 0 0 1 263 2007)">symbols with the adjacent text.</text>
  <line style="fill:none;stroke:#00AEEF;stroke-width:0.5;opacity:1.0;" x1="776" x2="776" y1="1919" y2="1933"/>
  <g transform="matrix(0.2 0 0 0.2 776 1933)">
   <path d="m16.5527 0.78125c2.58789 0 3.85742-0.976562 4.78516-3.71094l6.29883-17.2363h28.8086l6.29883 17.2363c0.927734 2.73438 2.19727 3.71094 4.73633 3.71094 2.58789 0 4.24805-1.5625 4.24805-4.00391 0-0.830078-0.146484-1.61133-0.537109-2.63672l-22.9004-60.9863c-1.12305-2.97852-3.125-4.49219-6.25-4.49219-3.02734 0-5.07812 1.46484-6.15234 4.44336l-22.9004 61.084c-0.390625 1.02539-0.537109 1.80664-0.537109 2.63672 0 2.44141 1.5625 3.95508 4.10156 3.95508Zm13.4766-28.3691 11.8652-32.8613h0.244141l11.8652 32.8613Z"/>
  </g>
  <line style="fill:none;stroke:#00AEEF;stroke-width:0.5;opacity:1.0;" x1="792.836" x2="792.836" y1="1919" y2="1933"/>
  <text style="stroke:none;fill:black;font-family:sans-serif;font-size:13;font-weight:bold;" transform="matrix(1 0 0 1 776 1953)">Margins</text>
  <text style="stroke:none;fill:black;font-family:sans-serif;font-size:13;" transform="matrix(1 0 0 1 776 1971)">Leading and trailing margins on the left and right side of each symbol</text>
  <text style="stroke:none;fill:black;font-family:sans-serif;font-size:13;" transform="matrix(1 0 0 1 776 1989)">can be adjusted by modifying the x-location of the margin guidelines.</text>
  <text style="stroke:none;fill:black;font-family:sans-serif;font-size:13;" transform="matrix(1 0 0 1 776 2007)">Modifications are automatically applied proportionally to all</text>
  <text style="stroke:none;fill:black;font-family:sans-serif;font-size:13;" transform="matrix(1 0 0 1 776 2025)">scales and weights.</text>
  <g transform="matrix(0.2 0 0 0.2 1289 1933)">
   <path d="m14.209 9.32617 8.49609 8.54492c4.29688 4.3457 9.22852 4.05273 13.8672-1.07422l53.4668-58.9355-4.83398-4.88281-53.0762 58.3984c-1.75781 2.00195-3.41797 2.49023-5.76172 0.146484l-5.85938-5.81055c-2.34375-2.29492-1.80664-4.00391 0.195312-5.81055l57.373-54.0039-4.88281-4.83398-57.959 54.4434c-4.93164 4.58984-5.32227 9.47266-1.02539 13.8184Zm32.0801-90.9668c-2.09961 2.05078-2.24609 4.93164-1.07422 6.88477 1.17188 1.80664 3.4668 2.97852 6.68945 2.14844 7.32422-1.70898 14.9414-2.00195 22.0703 2.68555l-2.92969 7.27539c-1.70898 4.15039-0.830078 7.08008 1.85547 9.81445l11.4746 11.5723c2.44141 2.44141 4.49219 2.53906 7.32422 2.05078l5.32227-0.976562 3.32031 3.36914-0.195312 2.7832c-0.195312 2.49023 0.439453 4.39453 2.88086 6.78711l3.80859 3.71094c2.39258 2.39258 5.46875 2.53906 7.8125 0.195312l14.5508-14.5996c2.34375-2.34375 2.24609-5.32227-0.146484-7.71484l-3.85742-3.80859c-2.39258-2.39258-4.24805-3.17383-6.64062-2.97852l-2.88086 0.244141-3.22266-3.17383 1.2207-5.61523c0.634766-2.83203-0.146484-5.0293-3.07617-7.95898l-10.9863-10.9375c-16.6992-16.6016-38.8672-16.2109-53.3203-1.75781Zm7.4707 1.85547c12.1582-8.88672 28.6133-7.37305 39.7461 3.75977l12.1582 12.0605c1.17188 1.17188 1.36719 2.09961 1.02539 3.80859l-1.61133 7.42188 7.51953 7.42188 4.93164-0.292969c1.26953-0.0488281 1.66016 0.0488281 2.63672 1.02539l2.88086 2.88086-12.207 12.207-2.88086-2.88086c-0.976562-0.976562-1.12305-1.36719-1.07422-2.68555l0.341797-4.88281-7.4707-7.42188-7.61719 1.26953c-1.61133 0.341797-2.34375 0.195312-3.56445-0.976562l-10.0098-10.0098c-1.26953-1.17188-1.41602-2.00195-0.634766-3.85742l4.39453-10.4492c-7.8125-7.27539-17.9688-10.4004-28.125-7.42188-0.78125 0.195312-1.07422-0.439453-0.439453-0.976562Z"/>
  </g>
  <text style="stroke:none;fill:black;font-family:sans-serif;font-size:13;font-weight:bold;" transform="matrix(1 0 0 1 1289 1953)">Exporting</text>
  <text style="stroke:none;fill:black;font-family:sans-serif;font-size:13;" transform="matrix(1 0 0 1 1289 1971)">Symbols should be outlined when exporting to ensure the</text>
  <text style="stroke:none;fill:black;font-family:sans-serif;font-size:13;" transform="matrix(1 0 0 1 1289 1989)">design is preserved when submitting to Xcode.</text>
  <text id="template-version" style="stroke:none;fill:black;font-family:sans-serif;font-size:13;text-anchor:end;" transform="matrix(1 0 0 1 3036 1933)">Template v.4.0</text>
  <text style="stroke:none;fill:black;font-family:sans-serif;font-size:13;text-anchor:end;" transform="matrix(1 0 0 1 3036 1951)">Requires Xcode 14 or greater</text>
  <text id="descriptive-name" style="stroke:none;fill:black;font-family:sans-serif;font-size:13;text-anchor:end;" transform="matrix(1 0 0 1 3036 1969)">Generated from custom.prothese_above</text>
  <text style="stroke:none;fill:black;font-family:sans-serif;font-size:13;text-anchor:end;" transform="matrix(1 0 0 1 3036 1987)">Typeset at 100.0 points</text>
  <text style="stroke:none;fill:black;font-family:sans-serif;font-size:13;" transform="matrix(1 0 0 1 263 726)">Small</text>
  <text style="stroke:none;fill:black;font-family:sans-serif;font-size:13;" transform="matrix(1 0 0 1 263 1156)">Medium</text>
  <text style="stroke:none;fill:black;font-family:sans-serif;font-size:13;" transform="matrix(1 0 0 1 263 1586)">Large</text>
 </g>
 <g id="Guides">
  <g id="H-reference" style="fill:#27AAE1;stroke:none;" transform="matrix(1 0 0 1 339 696)">
   <path d="M0.993654 0L3.63775 0L29.3281-67.1323L30.0303-67.1323L30.0303-70.459L28.1226-70.459ZM11.6885-24.4799L46.9815-24.4799L46.2315-26.7285L12.4385-26.7285ZM55.1196 0L57.7637 0L30.6382-70.459L29.4326-70.459L29.4326-67.1323Z"/>
  </g>
  <line id="Baseline-S" style="fill:none;stroke:#27AAE1;opacity:1;stroke-width:0.5;" x1="263" x2="3036" y1="696" y2="696"/>
  <line id="Capline-S" style="fill:none;stroke:#27AAE1;opacity:1;stroke-width:0.5;" x1="263" x2="3036" y1="625.541" y2="625.541"/>
  <g id="H-reference" style="fill:#27AAE1;stroke:none;" transform="matrix(1 0 0 1 339 1126)">
   <path d="M0.993654 0L3.63775 0L29.3281-67.1323L30.0303-67.1323L30.0303-70.459L28.1226-70.459ZM11.6885-24.4799L46.9815-24.4799L46.2315-26.7285L12.4385-26.7285ZM55.1196 0L57.7637 0L30.6382-70.459L29.4326-70.459L29.4326-67.1323Z"/>
  </g>
  <line id="Baseline-M" style="fill:none;stroke:#27AAE1;opacity:1;stroke-width:0.5;" x1="263" x2="3036" y1="1126" y2="1126"/>
  <line id="Capline-M" style="fill:none;stroke:#27AAE1;opacity:1;stroke-width:0.5;" x1="263" x2="3036" y1="1055.54" y2="1055.54"/>
  <g id="H-reference" style="fill:#27AAE1;stroke:none;" transform="matrix(1 0 0 1 339 1556)">
   <path d="M0.993654 0L3.63775 0L29.3281-67.1323L30.0303-67.1323L30.0303-70.459L28.1226-70.459ZM11.6885-24.4799L46.9815-24.4799L46.2315-26.7285L12.4385-26.7285ZM55.1196 0L57.7637 0L30.6382-70.459L29.4326-70.459L29.4326-67.1323Z"/>
  </g>
  <line id="Baseline-L" style="fill:none;stroke:#27AAE1;opacity:1;stroke-width:0.5;" x1="263" x2="3036" y1="1556" y2="1556"/>
  <line id="Capline-L" style="fill:none;stroke:#27AAE1;opacity:1;stroke-width:0.5;" x1="263" x2="3036" y1="1485.54" y2="1485.54"/>
  <line id="left-margin-Ultralight-S" style="fill:none;stroke:#00AEEF;stroke-width:0.5;opacity:1.0;" x1="519.288" x2="519.288" y1="600.785" y2="720.121"/>
  <line id="right-margin-Ultralight-S" style="fill:none;stroke:#00AEEF;stroke-width:0.5;opacity:1.0;" x1="600.134" x2="600.134" y1="600.785" y2="720.121"/>
  <line id="left-margin-Regular-S" style="fill:none;stroke:#00AEEF;stroke-width:0.5;opacity:1.0;" x1="1407.56" x2="1407.56" y1="600.785" y2="720.121"/>
  <line id="right-margin-Regular-S" style="fill:none;stroke:#00AEEF;stroke-width:0.5;opacity:1.0;" x1="1492.13" x2="1492.13" y1="600.785" y2="720.121"/>
  <line id="left-margin-Black-S" style="fill:none;stroke:#00AEEF;stroke-width:0.5;opacity:1.0;" x1="2887.7" x2="2887.7" y1="600.785" y2="720.121"/>
  <line id="right-margin-Black-S" style="fill:none;stroke:#00AEEF;stroke-width:0.5;opacity:1.0;" x1="2979.1" x2="2979.1" y1="600.785" y2="720.121"/>
 </g>
 <g id="Symbols">
  <g id="Black-S" transform="matrix(1 0 0 1 2887.7 696)">
   <path class="SFSymbolsPreviewNone" d="M48.2082-43.3886C48.0276-43.264 47.9081-43.0675 47.8819-42.8487C47.8568-42.6434 47.8242-42.3703 47.791-42.096C47.7566-41.8135 47.8464-41.5299 48.0369-41.3187C48.2268-41.1082 48.4995-40.99 48.7827-40.9965C48.9768-41.0006 49.1172-41.0041 49.1172-41.0041L49.077-43.9863C49.077-43.9863 48.5497-43.6237 48.2082-43.3886Z"/>
   <path class="monochrome-0 multicolor-0:tintColor hierarchical-0:secondary SFSymbolsPreview007AFF" d="M52.428 7.99599C52.4484 8.14221 52.5573 8.26093 52.7007 8.2931C54.5093 8.68788 54.9988 8.8417 56.2475 8.64051C56.3419 8.62939 56.4281 8.58027 56.4858 8.50423C56.5435 8.4282 56.5679 8.3317 56.554 8.23754C56.1717 5.70159 53.7524-10.2311 53.337-12.9683C53.3212-13.0695 53.2635-13.1589 53.1779-13.2139C53.0922-13.2689 52.9874-13.2847 52.8895-13.2566C51.7521-12.9303 50.9637-12.7349 49.9184-12.7466C49.8152-12.7472 49.7173-12.7033 49.6498-12.6256C49.5822-12.5484 49.5519-12.4448 49.5664-12.3431C49.9522-9.59072 52.1267 5.85892 52.428 7.99599ZM43.7827-54.6927C43.4698-54.8377 43.108-54.8313 42.7997-54.6752C42.4921-54.519 42.2724-54.2307 42.2025-53.892C41.9298-52.5632 41.5237-50.5858 41.2644-49.3225C41.2084-49.0512 41.2912-48.7693 41.484-48.571C41.6775-48.3721 41.956-48.2832 42.2281-48.3329C42.8545-48.4476 43.6248-48.5879 44.285-48.709C45.2161-48.8792 46.022-49.4611 46.4782-50.2934C46.6822-50.6648 46.9042-51.0695 47.1093-51.4432C47.3027-51.7959 47.3418-52.2135 47.2165-52.5954C47.0912-52.9779 46.8133-53.2908 46.4491-53.4592C45.6228-53.8412 44.5874-54.3207 43.7827-54.6927Z"/>
   <path class="monochrome-1 multicolor-1:tintColor hierarchical-1:primary SFSymbolsPreview007AFF" d="M47.7403-15.1054C48.0171-14.1409 48.8777-13.4613 49.877-13.4186C50.952-13.3742 52.164-13.59 53.1476-14.0134C53.9022-14.3415 54.3648-15.1153 54.2984-15.9382C54.2349-16.8939 54.1277-18.2191 54.0665-18.9765C54.0344-19.3713 54.0612-19.7678 54.1457-20.1544C54.2634-20.6937 54.4487-21.5417 54.6404-22.4196C55.1357-24.6859 55.3734-27.0008 55.3501-29.3204C55.3402-30.2959 55.3303-31.2475 55.3245-31.8282C55.3204-32.199 55.194-32.5575 54.9644-32.8476C54.6317-33.2681 54.1842-33.8337 54.1842-33.8337L50.3991-41.4726L50.5343-45.1572C50.5343-45.1572 50.7586-45.4256 51.0033-45.7192C51.3762-46.1655 51.4345-46.7971 51.1496-47.3048C51.0243-47.5282 50.8885-47.7703 50.7621-47.9961C50.462-48.5312 49.8764-48.8389 49.2675-48.7815C49.0071-48.757 48.7612-48.7336 48.6242-48.7207C48.5502-48.7143 48.4757-48.7032 48.4022-48.6891C47.7391-48.5616 44.2174-47.8832 41.5901-47.3767C40.8303-47.2305 40.1666-46.7696 39.7622-46.1076C39.3573-45.4455 39.2495-44.6431 39.4639-43.8968C41.4462-37.0007 46.3669-19.8825 47.7403-15.1054ZM63.3696-72.1695L67.0719-78.5649L47.3348-78.3298L43.1482-67.2777C42.9676-66.8005 42.6011-66.418 42.1332-66.2174C41.6653-66.0173 41.1362-66.0173 40.6683-66.2168L38.143-67.2935L37.7327-65.7261C36.7562-61.9982 38.5409-58.0972 41.9945-56.4116C43.7449-55.5571 45.5127-54.6945 46.7218-54.1043C47.6348-53.6587 48.7309-53.8645 49.4213-54.6114C49.9283-55.16 50.5063-55.7858 50.9486-56.2642C51.424-56.7783 51.9146-57.2778 52.421-57.7615C52.8574-58.1785 53.4442-58.7382 54.077-59.3435C54.3124-59.5681 54.5449-59.795 54.7744-60.0254L53.8614-60.453C52.4857-61.0969 51.8849-62.7333 52.5148-64.1195C53.943-67.2631 56.3489-72.5584 57.5294-75.1575C57.71-75.5546 58.0462-75.8593 58.4582-75.9997C58.8707-76.1395 59.3217-76.1021 59.7057-75.8962C59.7057-75.8962 59.7063-75.8956 59.7068-75.8956C61.2877-75.0476 62.5591-73.7427 63.3696-72.1695ZM24.5624 16.6659C24.2332 16.7361 23.9535 16.9519 23.8002 17.2526C23.647 17.5532 23.6371 17.907 23.7728 18.2164C24.4604 19.8207 26.2696 20.3617 28.4058 19.8347C29.0525 19.678 29.7267 19.6768 30.3741 19.8306C33.1383 20.4365 36.1694 20.5547 38.4617 20.0201C38.4634 20.0201 38.4652 20.0195 38.4669 20.0189C42.5381 19.103 46.938 18.6258 50.9486 18.4866C51.9024 18.4585 52.8568 18.4995 53.8049 18.61C57.6552 19.0533 59.7004 19.1428 61.9496 18.8679C62.0014 18.8621 62.0533 18.858 62.1057 18.8557C63.3783 18.7884 64.754 17.7245 64.7814 16.6238C64.782 16.5811 64.7849 16.539 64.7902 16.4969C65.0961 13.8826 64.1387 11.5005 63.3772 9.46223C63.2717 9.15694 63.0351 8.91598 62.7333 8.80544C62.4315 8.6949 62.0958 8.72707 61.8197 8.892C58.2251 10.777 52.8067 10.2693 46.0983 8.07144C45.3257 7.81761 44.4761 8.02991 43.9127 8.61828C40.4259 12.0473 34.683 14.5622 27.4729 16.0425L24.5624 16.6659Z"/>
  </g>
  <g id="Regular-S" transform="matrix(1 0 0 1 1407.56 696)">
   <path class="SFSymbolsPreviewNone" d="M45.7463-43.0813C45.5691-42.9591 45.4519-42.7663 45.4262-42.5517C45.4016-42.3503 45.3696-42.0824 45.337-41.8132C45.3033-41.5361 45.3913-41.2578 45.5783-41.0507C45.7646-40.8441 46.0321-40.7282 46.31-40.7345C46.5003-40.7385 46.6381-40.742 46.6381-40.742L46.5987-43.6677C46.5987-43.6677 46.0813-43.312 45.7463-43.0813Z"/>
   <path class="monochrome-0 multicolor-0:tintColor hierarchical-0:secondary SFSymbolsPreview007AFF" d="M49.8862 7.33055C49.9062 7.47399 50.0131 7.59047 50.1537 7.62203C51.9282 8.00934 52.4083 8.16024 53.6334 7.96286C53.726 7.95196 53.8106 7.90376 53.8672 7.82917C53.9238 7.75458 53.9478 7.6599 53.9341 7.56752C53.5591 5.07958 51.1856-10.5516 50.778-13.2369C50.7626-13.3361 50.706-13.4239 50.6219-13.4779C50.5379-13.5318 50.435-13.5473 50.339-13.5198C49.2231-13.1996 48.4497-13.0079 47.4241-13.0194C47.3229-13.02 47.2269-12.977 47.1606-12.9006C47.0943-12.8249 47.0645-12.7233 47.0788-12.6235C47.4573-9.92326 49.5907 5.23393 49.8862 7.33055ZM41.4046-54.1715C41.0977-54.3138 40.7427-54.3075 40.4403-54.1543C40.1384-54.0011 39.9229-53.7182 39.8543-53.386C39.5868-52.0823 39.1883-50.1424 38.934-48.903C38.8791-48.6367 38.9603-48.3602 39.1495-48.1657C39.3393-47.9706 39.6125-47.8834 39.8795-47.9321C40.494-48.0446 41.2497-48.1823 41.8974-48.3011C42.8109-48.468 43.6015-49.039 44.0491-49.8555C44.2492-50.2198 44.467-50.6169 44.6682-50.9835C44.858-51.3295 44.8963-51.7392 44.7734-52.1139C44.6505-52.4891 44.3778-52.7961 44.0205-52.9614C43.2099-53.3361 42.1941-53.8066 41.4046-54.1715Z"/>
   <path class="monochrome-1 multicolor-1:tintColor hierarchical-1:primary SFSymbolsPreview007AFF" d="M45.2873-15.3335C45.5588-14.3873 46.4031-13.7206 47.3835-13.6787C48.4382-13.6351 49.6273-13.8468 50.5922-14.2622C51.3325-14.5841 51.7864-15.3433 51.7212-16.1506C51.6589-17.0881 51.5537-18.3884 51.4937-19.1314C51.4623-19.5187 51.4886-19.9077 51.5714-20.287C51.6869-20.816 51.8687-21.648 52.0568-22.5093C52.5427-24.7327 52.7759-27.0038 52.753-29.2794C52.7433-30.2365 52.7336-31.1701 52.7279-31.7398C52.7239-32.1036 52.5998-32.4553 52.3746-32.7399C52.0482-33.1525 51.6092-33.7073 51.6092-33.7073L47.8957-41.2016L48.0284-44.8165C48.0284-44.8165 48.2484-45.0798 48.4885-45.3679C48.8544-45.8057 48.9116-46.4254 48.632-46.9234C48.5091-47.1426 48.3759-47.3801 48.2519-47.6016C47.9575-48.1266 47.383-48.4284 46.7856-48.3722C46.5301-48.3481 46.2888-48.3252 46.1545-48.3125C46.0819-48.3062 46.0087-48.2953 45.9367-48.2816C45.2861-48.1565 41.8311-47.4909 39.2535-46.994C38.5081-46.8505 37.857-46.3984 37.4602-45.7489C37.0629-45.0993 36.9572-44.3121 37.1676-43.5799C39.1123-36.8144 43.9399-20.0202 45.2873-15.3335ZM60.6207-71.3174L64.2529-77.5918L44.8894-77.3611L40.7821-66.5183C40.6049-66.0501 40.2453-65.6748 39.7863-65.478C39.3273-65.2818 38.8082-65.2818 38.3492-65.4774L35.8716-66.5338L35.4692-64.996C34.5111-61.3387 36.2621-57.5115 39.6502-55.8579C41.3675-55.0196 43.1019-54.1732 44.288-53.5943C45.1838-53.157 46.2591-53.359 46.9365-54.0917C47.4338-54.6299 48.0009-55.2439 48.4348-55.7133C48.9013-56.2176 49.3826-56.7076 49.8794-57.1822C50.3075-57.5913 50.8832-58.1404 51.504-58.7343C51.7349-58.9546 51.963-59.1772 52.1883-59.4033L51.2925-59.8227C49.9428-60.4545 49.3534-62.0599 49.9714-63.4198C51.3725-66.5039 53.7329-71.699 54.891-74.2489C55.0682-74.6385 55.3981-74.9375 55.8022-75.0752C56.207-75.2123 56.6494-75.1756 57.0261-74.9736C57.0261-74.9736 57.0267-74.973 57.0273-74.973C58.5782-74.141 59.8255-72.8609 60.6207-71.3174ZM22.5482 15.8364C22.2252 15.9052 21.9508 16.117 21.8004 16.4119C21.6501 16.7068 21.6404 17.054 21.7736 17.3575C22.4481 18.9314 24.2231 19.4621 26.3188 18.9452C26.9533 18.7914 27.6147 18.7902 28.2498 18.9411C30.9617 19.5356 33.9354 19.6515 36.1843 19.1271C36.186 19.1271 36.1877 19.1265 36.1895 19.1259C40.1836 18.2274 44.5001 17.7591 48.4348 17.6226C49.3706 17.595 50.307 17.6352 51.237 17.7437C55.0145 18.1786 57.021 18.2664 59.2276 17.9967C59.2784 17.991 59.3293 17.9869 59.3808 17.9846C60.6293 17.9187 61.9789 16.8749 62.0058 15.7951C62.0064 15.7532 62.0092 15.7119 62.0144 15.6706C62.3145 13.1057 61.3753 10.7687 60.6281 8.76903C60.5246 8.46952 60.2926 8.23312 59.9964 8.12467C59.7003 8.01622 59.3711 8.04778 59.1001 8.20959C55.5736 10.0589 50.2578 9.56086 43.6764 7.40457C42.9184 7.15554 42.0849 7.36383 41.5321 7.94106C38.1113 11.3052 32.4772 13.7725 25.4035 15.2247L22.5482 15.8364Z"/>
  </g>
  <g id="Ultralight-S" transform="matrix(1 0 0 1 519.288 696)">
   <path class="SFSymbolsPreviewNone" d="M41.7508-43.1299C41.5818-43.0137 41.47-42.8305 41.4454-42.6266C41.422-42.4352 41.3914-42.1805 41.3604-41.9248C41.3282-41.6614 41.4122-41.3969 41.5905-41.2001C41.7682-41.0038 42.0234-40.8936 42.2885-40.8996C42.47-40.9035 42.6015-40.9067 42.6015-40.9067L42.5638-43.6872C42.5638-43.6872 42.0703-43.3491 41.7508-43.1299Z"/>
   <path class="monochrome-0 multicolor-0:tintColor hierarchical-0:secondary SFSymbolsPreview007AFF" d="M45.6998 4.77847C45.7189 4.91479 45.8209 5.02548 45.955 5.05548C47.6476 5.42355 48.1056 5.56696 49.2742 5.37938C49.3625 5.36902 49.4432 5.32321 49.4972 5.25233C49.5512 5.18144 49.5741 5.09147 49.561 5.00367C49.2033 2.63928 46.9393-12.2156 46.5505-14.7676C46.5357-14.8619 46.4818-14.9453 46.4016-14.9966C46.3214-15.0478 46.2233-15.0626 46.1317-15.0364C45.0673-14.7321 44.3295-14.55 43.3512-14.5609C43.2547-14.5614 43.1631-14.5205 43.0999-14.448C43.0366-14.376 43.0082-14.2795 43.0219-14.1846C43.3829-11.6185 45.4179 2.78597 45.6998 4.77847ZM37.6093-53.6693C37.3165-53.8045 36.9778-53.7985 36.6894-53.6529C36.4015-53.5074 36.1959-53.2385 36.1305-52.9228C35.8753-51.6839 35.4952-49.8403 35.2525-48.6624C35.2002-48.4094 35.2776-48.1466 35.4581-47.9617C35.6392-47.7763 35.8998-47.6934 36.1545-47.7398C36.7406-47.8467 37.4615-47.9775 38.0793-48.0904C38.9507-48.2491 39.7049-48.7917 40.1318-49.5676C40.3227-49.9139 40.5304-50.2912 40.7224-50.6397C40.9034-50.9685 40.9399-51.3578 40.8227-51.7139C40.7055-52.0705 40.4454-52.3622 40.1046-52.5193C39.3313-52.8754 38.3623-53.3225 37.6093-53.6693Z"/>
   <path class="monochrome-1 multicolor-1:tintColor hierarchical-1:primary SFSymbolsPreview007AFF" d="M41.3129-16.7601C41.5719-15.8609 42.3773-15.2272 43.3125-15.1874C44.3186-15.146 45.4528-15.3472 46.3732-15.742C47.0794-16.0479 47.5124-16.7693 47.4502-17.5366C47.3908-18.4276 47.2904-19.6632 47.2332-20.3694C47.2032-20.7374 47.2283-21.1071 47.3073-21.4676C47.4175-21.9703 47.5909-22.761 47.7703-23.5795C48.2338-25.6925 48.4563-27.8508 48.4345-30.0134C48.4252-30.923 48.4159-31.8101 48.4105-32.3516C48.4066-32.6973 48.2883-33.0316 48.0735-33.3021C47.7621-33.6941 47.3433-34.2214 47.3433-34.2214L43.8011-41.3435L43.9276-44.7789C43.9276-44.7789 44.1375-45.0291 44.3666-45.3029C44.7156-45.7189 44.7701-46.3079 44.5034-46.7812C44.3862-46.9895 44.2591-47.2152 44.1408-47.4257C43.86-47.9246 43.312-48.2115 42.7421-48.158C42.4984-48.1351 42.2683-48.1133 42.1401-48.1013C42.0709-48.0953 42.0011-48.085 41.9324-48.0719C41.3118-47.953 38.0161-47.3205 35.5574-46.8482C34.8463-46.7119 34.2252-46.2822 33.8468-45.665C33.4678-45.0477 33.3669-44.2995 33.5676-43.6037C35.4227-37.1742 40.0277-21.214 41.3129-16.7601ZM55.9393-69.9638L59.4041-75.9265L40.9334-75.7073L37.0155-65.4029C36.8464-64.958 36.5034-64.6013 36.0656-64.4143C35.6277-64.2278 35.1326-64.2278 34.6947-64.4138L32.3314-65.4176L31.9475-63.9563C31.0336-60.4806 32.7038-56.8435 35.9358-55.2719C37.5739-54.4753 39.2283-53.6709 40.3598-53.1207C41.2142-52.7052 42.2399-52.8972 42.8861-53.5935C43.3605-54.105 43.9014-54.6885 44.3153-55.1345C44.7603-55.6138 45.2194-56.0795 45.6933-56.5305C46.1017-56.9193 46.6508-57.4411 47.243-58.0055C47.4633-58.2149 47.6809-58.4264 47.8957-58.6413L47.0412-59.0399C45.7538-59.6403 45.1916-61.166 45.7811-62.4583C47.1176-65.3893 49.3691-70.3264 50.4738-72.7497C50.6429-73.1199 50.9575-73.404 51.343-73.5349C51.7291-73.6652 52.1512-73.6303 52.5105-73.4384C52.5105-73.4384 52.5111-73.4378 52.5116-73.4378C53.991-72.6471 55.1808-71.4306 55.9393-69.9638ZM19.6223 12.8619C19.3142 12.9273 19.0524 13.1285 18.909 13.4088C18.7656 13.6891 18.7563 14.019 18.8834 14.3075C19.5268 15.8032 21.22 16.3076 23.219 15.8163C23.8243 15.6701 24.4552 15.6691 25.061 15.8125C27.6479 16.3774 30.4845 16.4875 32.6297 15.9891C32.6313 15.9891 32.633 15.9886 32.6346 15.9881C36.4446 15.1341 40.5621 14.6892 44.3153 14.5594C45.208 14.5332 46.1011 14.5714 46.9883 14.6744C50.5916 15.0878 52.5056 15.1712 54.6104 14.9149C54.659 14.9095 54.7075 14.9056 54.7566 14.9035C55.9475 14.8408 57.2349 13.8489 57.2606 12.8226C57.2611 12.7828 57.2638 12.7436 57.2687 12.7043C57.555 10.2668 56.6591 8.04586 55.9464 6.14552C55.8477 5.86087 55.6263 5.63621 55.3439 5.53315C55.0614 5.43009 54.7473 5.46008 54.4888 5.61386C51.1249 7.37134 46.0542 6.89802 39.7763 4.84881C39.0532 4.61215 38.2582 4.81009 37.7309 5.35866C34.4679 8.55571 29.0935 10.9005 22.346 12.2806L19.6223 12.8619Z"/>
  </g>
 </g>
</svg>
