<?xml version="1.0" encoding="UTF-8"?>
<!-- Generator: CustomSymbols v2.6.4.43 by @serious_bret https://bretlester.com/app_content/CustomSymbols/ -->
<!-- Guides: Left/Right 0.0/0.0 Cap/Base 0.0/0.0 -->
<!-- Settings: RefScale 1.5099995136260986 Min/Max Stroke Scales 0.9/2.9 -->
<!DOCTYPE svg
PUBLIC "-//W3C//DTD SVG 1.1//EN"
       "http://www.w3.org/Graphics/SVG/1.1/DTD/svg11.dtd">
<svg version="1.1" xmlns="http://www.w3.org/2000/svg" xmlns:xlink="http://www.w3.org/1999/xlink" width="3300" height="2200">
<![CDATA[<?xml version="1.0" encoding="UTF-8" standalone="no"?>
<!DOCTYPE svg PUBLIC "-//W3C//DTD SVG 1.1//EN" "http://www.w3.org/Graphics/SVG/1.1/DTD/svg11.dtd">
<svg width="100%" height="100%" viewBox="0 0 191 191" version="1.1" xmlns="http://www.w3.org/2000/svg" xmlns:xlink="http://www.w3.org/1999/xlink" xml:space="preserve" xmlns:serif="http://www.serif.com/" style="fill-rule:evenodd;clip-rule:evenodd;stroke-linejoin:round;stroke-miterlimit:2;">
    <g transform="matrix(1,0,0,1,-4.82668,-4.82668)">
        <g id="_3" serif:id="3">
            <g id="Augen">
                <ellipse cx="77.715" cy="71.391" rx="8.817" ry="19.767"/>
                <g transform="matrix(1,0,0,1,45.1449,0)">
                    <ellipse cx="77.715" cy="71.391" rx="8.817" ry="19.767"/>
                </g>
            </g>
            <path id="Kreis" d="M100,4.827C152.528,4.827 195.173,47.472 195.173,100C195.173,152.528 152.528,195.173 100,195.173C47.472,195.173 4.827,152.528 4.827,100C4.827,47.472 47.472,4.827 100,4.827ZM100,14.861C146.989,14.861 185.139,53.011 185.139,100C185.139,146.989 146.989,185.139 100,185.139C53.011,185.139 14.861,146.989 14.861,100C14.861,53.011 53.011,14.861 100,14.861Z"/>
            <path id="Mund" d="M53.974,125.302C53.974,124.341 54.733,123.551 55.693,123.513C62.438,123.244 87.167,122.259 96.228,121.898C98.464,121.809 100.703,121.809 102.94,121.898C112,122.259 136.73,123.244 143.475,123.513C144.435,123.551 145.193,124.341 145.193,125.302C145.193,125.303 145.193,125.303 145.193,125.304C145.193,126.277 144.426,127.077 143.453,127.117C137.356,127.365 116.755,128.205 106.095,128.64C101.756,128.817 97.412,128.817 93.072,128.64C82.413,128.205 61.811,127.365 55.714,127.117C54.742,127.077 53.974,126.277 53.974,125.304C53.974,125.303 53.974,125.303 53.974,125.302Z"/>
        </g>
    </g>
</svg>
]]>
 <g id="Notes">
  <rect height="2200" id="artboard" style="fill:white;opacity:1" width="3300" x="0" y="0"/>
  <line id="" style="fill:none;stroke:black;opacity:1;stroke-width:0.5;" x1="263" x2="3036" y1="292" y2="292"/>
  <text id="reftext1" style="stroke:none;fill:black;font-family:-apple-system,&quot;SF Pro Display&quot;,&quot;SF Pro Text&quot;,Helvetica,sans-serif;font-weight:bold;" transform="matrix(1 0 0 1 263 322)">Weight/Scale Variations</text>
  <text id="reftext2" style="stroke:none;fill:black;font-family:-apple-system,&quot;SF Pro Display&quot;,&quot;SF Pro Text&quot;,Helvetica,sans-serif;text-anchor:middle;" transform="matrix(1 0 0 1 559.711 322)">Ultralight</text>
  <text style="stroke:none;fill:black;font-family:-apple-system,&quot;SF Pro Display&quot;,&quot;SF Pro Text&quot;,Helvetica,sans-serif;text-anchor:middle;" transform="matrix(1 0 0 1 856.422 322)">Thin</text>
  <text style="stroke:none;fill:black;font-family:-apple-system,&quot;SF Pro Display&quot;,&quot;SF Pro Text&quot;,Helvetica,sans-serif;text-anchor:middle;" transform="matrix(1 0 0 1 1153.13 322)">Light</text>
  <text style="stroke:none;fill:black;font-family:-apple-system,&quot;SF Pro Display&quot;,&quot;SF Pro Text&quot;,Helvetica,sans-serif;text-anchor:middle;" transform="matrix(1 0 0 1 1449.84 322)">Regular</text>
  <text style="stroke:none;fill:black;font-family:-apple-system,&quot;SF Pro Display&quot;,&quot;SF Pro Text&quot;,Helvetica,sans-serif;text-anchor:middle;" transform="matrix(1 0 0 1 1746.56 322)">Medium</text>
  <text style="stroke:none;fill:black;font-family:-apple-system,&quot;SF Pro Display&quot;,&quot;SF Pro Text&quot;,Helvetica,sans-serif;text-anchor:middle;" transform="matrix(1 0 0 1 2043.27 322)">Semibold</text>
  <text style="stroke:none;fill:black;font-family:-apple-system,&quot;SF Pro Display&quot;,&quot;SF Pro Text&quot;,Helvetica,sans-serif;text-anchor:middle;" transform="matrix(1 0 0 1 2339.98 322)">Bold</text>
  <text style="stroke:none;fill:black;font-family:-apple-system,&quot;SF Pro Display&quot;,&quot;SF Pro Text&quot;,Helvetica,sans-serif;text-anchor:middle;" transform="matrix(1 0 0 1 2636.69 322)">Heavy</text>
  <text style="stroke:none;fill:black;font-family:-apple-system,&quot;SF Pro Display&quot;,&quot;SF Pro Text&quot;,Helvetica,sans-serif;text-anchor:middle;" transform="matrix(1 0 0 1 2933.4 322)">Black</text>
  <line id="" style="fill:none;stroke:black;opacity:1;stroke-width:0.5;" x1="263" x2="3036" y1="1903" y2="1903"/>
  <g id="" transform="matrix(1 0 0 1 263 1933)">
   <path d="M9.24805 0.830078C13.5547 0.830078 17.1387-2.74414 17.1387-7.05078C17.1387-11.3574 13.5449-14.9316 9.23828-14.9316C4.94141-14.9316 1.36719-11.3574 1.36719-7.05078C1.36719-2.74414 4.95117 0.830078 9.24805 0.830078ZM9.24805-0.654297C5.70312-0.654297 2.87109-3.49609 2.87109-7.05078C2.87109-10.6055 5.69336-13.4473 9.23828-13.4473C12.793-13.4473 15.6348-10.6055 15.6445-7.05078C15.6543-3.49609 12.8027-0.654297 9.24805-0.654297ZM6.39648-6.31836L8.50586-6.31836L8.50586-4.19922C8.50586-3.75977 8.79883-3.45703 9.22852-3.45703C9.67773-3.45703 9.9707-3.75977 9.9707-4.19922L9.9707-6.31836L12.0996-6.31836C12.5391-6.31836 12.8418-6.61133 12.8418-7.04102C12.8418-7.48047 12.5391-7.7832 12.0996-7.7832L9.9707-7.7832L9.9707-9.89258C9.9707-10.3418 9.67773-10.6445 9.22852-10.6445C8.79883-10.6445 8.50586-10.3418 8.50586-9.89258L8.50586-7.7832L6.39648-7.7832C5.94727-7.7832 5.64453-7.48047 5.64453-7.04102C5.64453-6.61133 5.94727-6.31836 6.39648-6.31836Z"/>
  </g>
  <g id="" transform="matrix(1 0 0 1 281.506 1933)">
   <path d="M11.709 2.91016C17.1582 2.91016 21.6699-1.61133 21.6699-7.05078C21.6699-12.5 17.1484-17.0117 11.6992-17.0117C6.25977-17.0117 1.74805-12.5 1.74805-7.05078C1.74805-1.61133 6.26953 2.91016 11.709 2.91016ZM11.709 1.25C7.09961 1.25 3.41797-2.44141 3.41797-7.05078C3.41797-11.6602 7.08984-15.3516 11.6992-15.3516C16.3086-15.3516 20-11.6602 20.0098-7.05078C20.0195-2.44141 16.3184 1.25 11.709 1.25ZM7.98828-6.23047L10.8789-6.23047L10.8789-3.32031C10.8789-2.83203 11.2109-2.5 11.6895-2.5C12.1777-2.5 12.5195-2.83203 12.5195-3.32031L12.5195-6.23047L15.4297-6.23047C15.918-6.23047 16.25-6.5625 16.25-7.04102C16.25-7.5293 15.918-7.87109 15.4297-7.87109L12.5195-7.87109L12.5195-10.7617C12.5195-11.2695 12.1777-11.6016 11.6895-11.6016C11.2109-11.6016 10.8789-11.2598 10.8789-10.7617L10.8789-7.87109L7.98828-7.87109C7.48047-7.87109 7.14844-7.5293 7.14844-7.04102C7.14844-6.5625 7.49023-6.23047 7.98828-6.23047Z"/>
  </g>
  <g id="" transform="matrix(1 0 0 1 304.924 1933)">
   <path d="M14.9707 5.66406C21.9336 5.66406 27.6953-0.0976562 27.6953-7.05078C27.6953-14.0137 21.9238-19.7754 14.9609-19.7754C8.00781-19.7754 2.25586-14.0137 2.25586-7.05078C2.25586-0.0976562 8.01758 5.66406 14.9707 5.66406ZM14.9707 3.84766C8.93555 3.84766 4.08203-1.01562 4.08203-7.05078C4.08203-13.0957 8.92578-17.9492 14.9609-17.9492C21.0059-17.9492 25.8594-13.0957 25.8691-7.05078C25.8789-1.01562 21.0156 3.84766 14.9707 3.84766ZM10.0586-6.14258L14.0625-6.14258L14.0625-2.12891C14.0625-1.5918 14.4336-1.2207 14.9512-1.2207C15.4883-1.2207 15.8594-1.5918 15.8594-2.12891L15.8594-6.14258L19.8828-6.14258C20.4102-6.14258 20.791-6.51367 20.791-7.03125C20.791-7.56836 20.4199-7.94922 19.8828-7.94922L15.8594-7.94922L15.8594-11.9531C15.8594-12.5098 15.4883-12.8809 14.9512-12.8809C14.4336-12.8809 14.0625-12.5 14.0625-11.9531L14.0625-7.94922L10.0586-7.94922C9.50195-7.94922 9.13086-7.56836 9.13086-7.03125C9.13086-6.51367 9.51172-6.14258 10.0586-6.14258Z"/>
  </g>
  <text style="stroke:none;fill:black;font-family:-apple-system,&quot;SF Pro Display&quot;,&quot;SF Pro Text&quot;,Helvetica,sans-serif;font-weight:bold;" transform="matrix(1 0 0 1 263 1953)">Design Variations</text>
  <text style="stroke:none;fill:black;font-family:-apple-system,&quot;SF Pro Display&quot;,&quot;SF Pro Text&quot;,Helvetica,sans-serif;" transform="matrix(1 0 0 1 263 1971)">Symbols are supported in up to nine weights and three scales.</text>
  <text style="stroke:none;fill:black;font-family:-apple-system,&quot;SF Pro Display&quot;,&quot;SF Pro Text&quot;,Helvetica,sans-serif;" transform="matrix(1 0 0 1 263 1989)">For optimal layout with text and other symbols, vertically align</text>
  <text style="stroke:none;fill:black;font-family:-apple-system,&quot;SF Pro Display&quot;,&quot;SF Pro Text&quot;,Helvetica,sans-serif;" transform="matrix(1 0 0 1 263 2007)">symbols with the adjacent text.</text>
  <line id="" style="fill:none;stroke:#00AEEF;stroke-width:0.5;opacity:1.0;" x1="776" x2="776" y1="1919" y2="1933"/>
  <g id="" transform="matrix(1 0 0 1 776 1933)">
   <path d="M3.31055 0.126953C3.82812 0.126953 4.08203-0.0683594 4.26758-0.605469L5.52734-4.0625L11.2891-4.0625L12.5488-0.605469C12.7344-0.0683594 12.9883 0.126953 13.4961 0.126953C14.0137 0.126953 14.3457-0.185547 14.3457-0.673828C14.3457-0.839844 14.3164-0.986328 14.2383-1.20117L9.6582-13.3887C9.43359-13.9941 9.0332-14.2871 8.4082-14.2871C7.80273-14.2871 7.39258-13.9941 7.17773-13.3984L2.59766-1.19141C2.51953-0.976562 2.49023-0.830078 2.49023-0.664062C2.49023-0.175781 2.80273 0.126953 3.31055 0.126953ZM6.00586-5.53711L8.37891-12.1094L8.42773-12.1094L10.8008-5.53711Z"/>
  </g>
  <line id="" style="fill:none;stroke:#00AEEF;stroke-width:0.5;opacity:1.0;" x1="792.836" x2="792.836" y1="1919" y2="1933"/>
  <text style="stroke:none;fill:black;font-family:-apple-system,&quot;SF Pro Display&quot;,&quot;SF Pro Text&quot;,Helvetica,sans-serif;font-weight:bold;" transform="matrix(1 0 0 1 776 1953)">Margins</text>
  <text style="stroke:none;fill:black;font-family:-apple-system,&quot;SF Pro Display&quot;,&quot;SF Pro Text&quot;,Helvetica,sans-serif;" transform="matrix(1 0 0 1 776 1971)">Leading and trailing margins on the left and right side of each symbol</text>
  <text style="stroke:none;fill:black;font-family:-apple-system,&quot;SF Pro Display&quot;,&quot;SF Pro Text&quot;,Helvetica,sans-serif;" transform="matrix(1 0 0 1 776 1989)">can be adjusted by modifying the x-location of the margin guidelines.</text>
  <text style="stroke:none;fill:black;font-family:-apple-system,&quot;SF Pro Display&quot;,&quot;SF Pro Text&quot;,Helvetica,sans-serif;" transform="matrix(1 0 0 1 776 2007)">Modifications are automatically applied proportionally to all</text>
  <text style="stroke:none;fill:black;font-family:-apple-system,&quot;SF Pro Display&quot;,&quot;SF Pro Text&quot;,Helvetica,sans-serif;" transform="matrix(1 0 0 1 776 2025)">scales and weights.</text>
  <g id="" transform="matrix(1 0 0 1 1289 1933)">
   <path d="M2.8418 1.86523L4.54102 3.57422C5.40039 4.44336 6.38672 4.38477 7.31445 3.35938L17.4902-7.85156C17.7539-7.76367 18.0273-7.7832 18.3398-7.8418L19.4043-8.03711L20.0684-7.36328L20.0293-6.80664C19.9902-6.30859 20.1172-5.92773 20.6055-5.44922L21.3672-4.70703C21.8457-4.22852 22.4609-4.19922 22.9297-4.66797L25.8398-7.58789C26.3086-8.05664 26.2891-8.65234 25.8105-9.13086L25.0391-9.89258C24.5605-10.3711 24.1895-10.5273 23.7109-10.4883L23.1348-10.4395L22.4902-11.0742L22.7344-12.1973C22.8613-12.7637 22.7051-13.2031 22.1191-13.7891L19.9219-15.9766C16.582-19.2969 12.1484-19.2188 9.25781-16.3281C8.83789-15.918 8.80859-15.3418 9.04297-14.9512C9.27734-14.5898 9.73633-14.3555 10.3809-14.5215C11.8457-14.8633 13.3691-14.9219 14.7949-13.9844L14.209-12.5293C14.0137-12.0508 13.9844-11.6504 14.1113-11.2891L3.04688-0.898438C2.06055 0.0195312 1.98242 0.996094 2.8418 1.86523ZM10.752-15.957C13.1836-17.7344 16.4746-17.4316 18.7012-15.2051L21.1328-12.793C21.3672-12.5586 21.4062-12.373 21.3379-12.0312L21.0156-10.5469L22.5195-9.0625L23.5059-9.12109C23.7598-9.13086 23.8379-9.11133 24.0332-8.91602L24.6094-8.33984L22.168-5.89844L21.5918-6.47461C21.3965-6.66992 21.3672-6.74805 21.377-7.01172L21.4453-7.98828L19.9512-9.47266L18.4277-9.21875C18.1055-9.15039 17.959-9.17969 17.7148-9.41406L15.7129-11.416C15.459-11.6504 15.4297-11.8164 15.5859-12.1875L16.4648-14.2773C14.9023-15.7324 12.8711-16.3574 10.8398-15.7617C10.6836-15.7227 10.625-15.8496 10.752-15.957ZM5.27344 2.30469L4.10156 1.14258C3.63281 0.683594 3.74023 0.341797 4.14062-0.0195312L14.9512-10.1953L16.416-8.71094L6.42578 2.27539C6.07422 2.67578 5.74219 2.77344 5.27344 2.30469Z"/>
  </g>
  <text style="stroke:none;fill:black;font-family:-apple-system,&quot;SF Pro Display&quot;,&quot;SF Pro Text&quot;,Helvetica,sans-serif;font-weight:bold;" transform="matrix(1 0 0 1 1289 1953)">Exporting</text>
  <text style="stroke:none;fill:black;font-family:-apple-system,&quot;SF Pro Display&quot;,&quot;SF Pro Text&quot;,Helvetica,sans-serif;" transform="matrix(1 0 0 1 1289 1971)">Symbols should be outlined when exporting to ensure the</text>
  <text style="stroke:none;fill:black;font-family:-apple-system,&quot;SF Pro Display&quot;,&quot;SF Pro Text&quot;,Helvetica,sans-serif;" transform="matrix(1 0 0 1 1289 1989)">design is preserved when submitting to Xcode.</text>
  <text id="template-version" style="stroke:none;fill:black;font-family:-apple-system,&quot;SF Pro Display&quot;,&quot;SF Pro Text&quot;,Helvetica,sans-serif;text-anchor:end;" transform="matrix(1 0 0 1 3036 1933)">Template v.2.0</text>
  <text style="stroke:none;fill:black;font-family:-apple-system,&quot;SF Pro Display&quot;,&quot;SF Pro Text&quot;,Helvetica,sans-serif;text-anchor:end;" transform="matrix(1 0 0 1 3036 1951)">Requires Xcode 12 or greater</text>
  <text style="stroke:none;fill:black;font-family:-apple-system,&quot;SF Pro Display&quot;,&quot;SF Pro Text&quot;,Helvetica,sans-serif;" transform="matrix(1 0 0 1 263 726)">Small</text>
  <text style="stroke:none;fill:black;font-family:-apple-system,&quot;SF Pro Display&quot;,&quot;SF Pro Text&quot;,Helvetica,sans-serif;" transform="matrix(1 0 0 1 263 1156)">Medium</text>
  <text style="stroke:none;fill:black;font-family:-apple-system,&quot;SF Pro Display&quot;,&quot;SF Pro Text&quot;,Helvetica,sans-serif;" transform="matrix(1 0 0 1 263 1586)">Large</text>
 </g>
 <g id="Guides">
  <g id="H-reference" style="fill:#27AAE1;stroke:none;" transform="matrix(1 0 0 1 339 696)">
   <path d="M0.976562 0L3.66211 0L12.9883-24.4629L45.752-24.4629L55.127 0L57.7637 0L30.6152-70.459L28.125-70.459ZM29.3457-67.1387L29.4434-67.1387L44.873-26.709L13.8672-26.709Z"/>
  </g>
  <line id="Baseline-S" style="fill:none;stroke:#27AAE1;opacity:1;stroke-width:0.5;" x1="263" x2="3036" y1="696" y2="696"/>
  <line id="Capline-S" style="fill:none;stroke:#27AAE1;opacity:1;stroke-width:0.5;" x1="263" x2="3036" y1="625.541" y2="625.541"/>
  <g id="H-reference" style="fill:#27AAE1;stroke:none;" transform="matrix(1 0 0 1 339 1126)">
   <path d="M0.976562 0L3.66211 0L12.9883-24.4629L45.752-24.4629L55.127 0L57.7637 0L30.6152-70.459L28.125-70.459ZM29.3457-67.1387L29.4434-67.1387L44.873-26.709L13.8672-26.709Z"/>
  </g>
  <line id="Baseline-M" style="fill:none;stroke:#27AAE1;opacity:1;stroke-width:0.5;" x1="263" x2="3036" y1="1126" y2="1126"/>
  <line id="Capline-M" style="fill:none;stroke:#27AAE1;opacity:1;stroke-width:0.5;" x1="263" x2="3036" y1="1055.54" y2="1055.54"/>
  <g id="H-reference" style="fill:#27AAE1;stroke:none;" transform="matrix(1 0 0 1 339 1556)">
   <path d="M0.976562 0L3.66211 0L12.9883-24.4629L45.752-24.4629L55.127 0L57.7637 0L30.6152-70.459L28.125-70.459ZM29.3457-67.1387L29.4434-67.1387L44.873-26.709L13.8672-26.709Z"/>
  </g>
  <line id="Baseline-L" style="fill:none;stroke:#27AAE1;opacity:1;stroke-width:0.5;" x1="263" x2="3036" y1="1556" y2="1556"/>
  <line id="Capline-L" style="fill:none;stroke:#27AAE1;opacity:1;stroke-width:0.5;" x1="263" x2="3036" y1="1485.54" y2="1485.54"/>
  <line id="left-margin" x1="1415.9000195312499" x2="1415.9000195312499" y1="1030.79" y2="1150.12" style="fill:none;stroke:#00AEEF;stroke-width:0.5;opacity:1.0;"/>
  <line id="right-margin" x1="1486.3599804687499" x2="1486.3599804687499" y1="1030.79" y2="1150.12" style="fill:none;stroke:#00AEEF;stroke-width:0.5;opacity:1.0;"/>
 </g>
 <g id="Symbols">
  <g id="Black-L" transform="matrix(1.0,0.0,0.0,1.0,2889.2333251953123,1475.3233447265625)">  <path stroke-linecap="butt" stroke-opacity="1" stroke="none" clip-rule="evenodd" stroke-linejoin="round" stroke-dasharray="none" stroke-width="7.850259765231044px" fill-opacity="1" ry="19.767" fill-rule="evenodd" xmlns:xlink="http://www.w3.org/1999/xlink" cx="77.715" xmlns:serif="http://www.serif.com/" version="1.1" rx="8.817" fill="#000000" serif:id="3" cy="71.391" xml:space="preserve" stroke-miterlimit="2" d="M38.882,31.677C38.882,36.872,37.003,41.083,34.686,41.083C32.369,41.083,30.49,36.872,30.49,31.677C30.49,26.482,32.369,22.27,34.686,22.27C37.003,22.27,38.882,26.482,38.882,31.677ZM38.882,31.677"/>
  <path stroke="none" serif:id="3" stroke-linecap="butt" xml:space="preserve" stroke-opacity="1" rx="8.817" ry="19.767" stroke-width="11.853888450973045px" fill-rule="evenodd" fill-opacity="1" xmlns:xlink="http://www.w3.org/1999/xlink" xmlns:serif="http://www.serif.com/" clip-rule="evenodd" cx="77.715" version="1.1" fill="#000000" stroke-miterlimit="2" stroke-linejoin="round" cy="71.391" stroke-dasharray="none" d="M60.366,31.677C60.366,36.872,58.487,41.083,56.17,41.083C53.853,41.083,51.974,36.872,51.974,31.677C51.974,26.482,53.853,22.27,56.17,22.27C58.487,22.27,60.366,26.482,60.366,31.677ZM60.366,31.677"/>
  <path stroke-linejoin="round" stroke-width="5.198849240872107px" fill="#000000" fill-rule="evenodd" stroke-opacity="1" stroke-linecap="butt" xmlns:xlink="http://www.w3.org/1999/xlink" stroke-dasharray="none" xml:space="preserve" version="1.1" xmlns:serif="http://www.serif.com/" clip-rule="evenodd" fill-opacity="1" serif:id="3" stroke-miterlimit="2" stroke="none" d="M45.291,0C70.288,0,90.582,20.294,90.582,45.291C90.582,70.288,70.288,90.582,45.291,90.582C20.294,90.582,0,70.288,0,45.291C0,20.294,20.294,0,45.291,0ZM45.291,4.775C67.652,4.775,85.807,22.93,85.807,45.291C85.807,67.652,67.652,85.807,45.291,85.807C22.93,85.807,4.775,67.652,4.775,45.291C4.775,22.93,22.93,4.775,45.291,4.775ZM45.291,4.775"/>
  <path stroke-linejoin="round" stroke-width="5.198849240872107px" fill-rule="evenodd" clip-rule="evenodd" version="1.1" stroke-opacity="1" serif:id="3" xmlns:xlink="http://www.w3.org/1999/xlink" xml:space="preserve" stroke-dasharray="none" stroke="none" fill="#000000" stroke-miterlimit="2" fill-opacity="1" xmlns:serif="http://www.serif.com/" stroke-linecap="butt" d="M23.388,57.332C23.388,56.875,23.749,56.499,24.206,56.481C27.416,56.353,39.184,55.884,43.496,55.712C44.56,55.67,45.626,55.67,46.69,55.712C51.002,55.884,62.77,56.353,65.98,56.481C66.437,56.499,66.798,56.875,66.798,57.332C66.798,57.332,66.798,57.332,66.798,57.333C66.798,57.796,66.433,58.177,65.97,58.196C63.068,58.314,53.265,58.713,48.192,58.92C46.127,59.005,44.06,59.005,41.994,58.92C36.922,58.713,27.118,58.314,24.216,58.196C23.754,58.177,23.388,57.796,23.388,57.333C23.388,57.332,23.388,57.332,23.388,57.332ZM23.388,57.332"/>
</g>
  <g id="Heavy-L" transform="matrix(1.0,0.0,0.0,1.0,2592.5233251953123,1475.3233447265625)">  <path xmlns:serif="http://www.serif.com/" cx="77.715" stroke-linejoin="round" stroke-width="7.850259765231044px" fill-rule="evenodd" fill="#000000" xmlns:xlink="http://www.w3.org/1999/xlink" xml:space="preserve" clip-rule="evenodd" serif:id="3" fill-opacity="1" stroke-miterlimit="2" stroke-dasharray="none" rx="8.817" stroke-linecap="butt" stroke="none" ry="19.767" version="1.1" stroke-opacity="1" cy="71.391" d="M38.882,31.677C38.882,36.872,37.003,41.083,34.686,41.083C32.369,41.083,30.49,36.872,30.49,31.677C30.49,26.482,32.369,22.27,34.686,22.27C37.003,22.27,38.882,26.482,38.882,31.677ZM38.882,31.677"/>
  <path ry="19.767" stroke-linecap="butt" fill-opacity="1" fill="#000000" rx="8.817" version="1.1" clip-rule="evenodd" serif:id="3" xmlns:xlink="http://www.w3.org/1999/xlink" xmlns:serif="http://www.serif.com/" xml:space="preserve" cx="77.715" stroke-miterlimit="2" stroke-dasharray="none" fill-rule="evenodd" stroke-opacity="1" stroke="none" cy="71.391" stroke-linejoin="round" stroke-width="11.853888450973045px" d="M60.366,31.677C60.366,36.872,58.487,41.083,56.17,41.083C53.853,41.083,51.974,36.872,51.974,31.677C51.974,26.482,53.853,22.27,56.17,22.27C58.487,22.27,60.366,26.482,60.366,31.677ZM60.366,31.677"/>
  <path xmlns:serif="http://www.serif.com/" stroke-linejoin="round" stroke-miterlimit="2" serif:id="3" stroke="none" xmlns:xlink="http://www.w3.org/1999/xlink" xml:space="preserve" clip-rule="evenodd" stroke-opacity="1" fill-rule="evenodd" fill="#000000" stroke-width="5.198849240872107px" fill-opacity="1" stroke-dasharray="none" version="1.1" stroke-linecap="butt" d="M45.291,0C70.288,0,90.582,20.294,90.582,45.291C90.582,70.288,70.288,90.582,45.291,90.582C20.294,90.582,0,70.288,0,45.291C0,20.294,20.294,0,45.291,0ZM45.291,4.775C67.652,4.775,85.807,22.93,85.807,45.291C85.807,67.652,67.652,85.807,45.291,85.807C22.93,85.807,4.775,67.652,4.775,45.291C4.775,22.93,22.93,4.775,45.291,4.775ZM45.291,4.775"/>
  <path serif:id="3" stroke-linejoin="round" fill-rule="evenodd" version="1.1" stroke-width="5.198849240872107px" stroke-opacity="1" stroke-linecap="butt" stroke-miterlimit="2" stroke-dasharray="none" xmlns:xlink="http://www.w3.org/1999/xlink" stroke="none" fill-opacity="1" xml:space="preserve" fill="#000000" clip-rule="evenodd" xmlns:serif="http://www.serif.com/" d="M23.388,57.332C23.388,56.875,23.749,56.499,24.206,56.481C27.416,56.353,39.184,55.884,43.496,55.712C44.56,55.67,45.626,55.67,46.69,55.712C51.002,55.884,62.77,56.353,65.98,56.481C66.437,56.499,66.798,56.875,66.798,57.332C66.798,57.332,66.798,57.332,66.798,57.333C66.798,57.796,66.433,58.177,65.97,58.196C63.068,58.314,53.265,58.713,48.192,58.92C46.127,59.005,44.06,59.005,41.994,58.92C36.922,58.713,27.118,58.314,24.216,58.196C23.754,58.177,23.388,57.796,23.388,57.333C23.388,57.332,23.388,57.332,23.388,57.332ZM23.388,57.332"/>
</g>
  <g id="Bold-L" transform="matrix(1.0,0.0,0.0,1.0,2295.8133251953122,1475.3233447265625)">  <path stroke-width="7.850259765231044px" cy="71.391" clip-rule="evenodd" xmlns:serif="http://www.serif.com/" version="1.1" fill="#000000" stroke-linejoin="round" xmlns:xlink="http://www.w3.org/1999/xlink" serif:id="3" stroke-miterlimit="2" cx="77.715" stroke="none" fill-opacity="1" fill-rule="evenodd" xml:space="preserve" ry="19.767" stroke-dasharray="none" stroke-linecap="butt" rx="8.817" stroke-opacity="1" d="M38.882,31.677C38.882,36.872,37.003,41.083,34.686,41.083C32.369,41.083,30.49,36.872,30.49,31.677C30.49,26.482,32.369,22.27,34.686,22.27C37.003,22.27,38.882,26.482,38.882,31.677ZM38.882,31.677"/>
  <path xmlns:xlink="http://www.w3.org/1999/xlink" fill="#000000" cx="77.715" serif:id="3" xmlns:serif="http://www.serif.com/" stroke-width="11.853888450973045px" xml:space="preserve" stroke-miterlimit="2" stroke="none" stroke-linecap="butt" fill-rule="evenodd" cy="71.391" version="1.1" stroke-linejoin="round" rx="8.817" fill-opacity="1" stroke-dasharray="none" stroke-opacity="1" ry="19.767" clip-rule="evenodd" d="M60.366,31.677C60.366,36.872,58.487,41.083,56.17,41.083C53.853,41.083,51.974,36.872,51.974,31.677C51.974,26.482,53.853,22.27,56.17,22.27C58.487,22.27,60.366,26.482,60.366,31.677ZM60.366,31.677"/>
  <path stroke-linejoin="round" stroke-linecap="butt" xmlns:xlink="http://www.w3.org/1999/xlink" stroke-dasharray="none" version="1.1" fill-opacity="1" xmlns:serif="http://www.serif.com/" clip-rule="evenodd" stroke-width="5.198849240872107px" fill="#000000" xml:space="preserve" stroke-opacity="1" serif:id="3" stroke="none" stroke-miterlimit="2" fill-rule="evenodd" d="M45.291,0C70.288,0,90.582,20.294,90.582,45.291C90.582,70.288,70.288,90.582,45.291,90.582C20.294,90.582,0,70.288,0,45.291C0,20.294,20.294,0,45.291,0ZM45.291,4.775C67.652,4.775,85.807,22.93,85.807,45.291C85.807,67.652,67.652,85.807,45.291,85.807C22.93,85.807,4.775,67.652,4.775,45.291C4.775,22.93,22.93,4.775,45.291,4.775ZM45.291,4.775"/>
  <path version="1.1" fill-rule="evenodd" fill-opacity="1" stroke-dasharray="none" stroke-linejoin="round" xmlns:serif="http://www.serif.com/" stroke-linecap="butt" xml:space="preserve" fill="#000000" clip-rule="evenodd" stroke-miterlimit="2" serif:id="3" stroke-width="5.198849240872107px" stroke="none" stroke-opacity="1" xmlns:xlink="http://www.w3.org/1999/xlink" d="M23.388,57.332C23.388,56.875,23.749,56.499,24.206,56.481C27.416,56.353,39.184,55.884,43.496,55.712C44.56,55.67,45.626,55.67,46.69,55.712C51.002,55.884,62.77,56.353,65.98,56.481C66.437,56.499,66.798,56.875,66.798,57.332C66.798,57.332,66.798,57.332,66.798,57.333C66.798,57.796,66.433,58.177,65.97,58.196C63.068,58.314,53.265,58.713,48.192,58.92C46.127,59.005,44.06,59.005,41.994,58.92C36.922,58.713,27.118,58.314,24.216,58.196C23.754,58.177,23.388,57.796,23.388,57.333C23.388,57.332,23.388,57.332,23.388,57.332ZM23.388,57.332"/>
</g>
  <g id="Semibold-L" transform="matrix(1.0,0.0,0.0,1.0,1999.1033251953124,1475.3233447265625)">  <path rx="8.817" ry="19.767" stroke-linecap="butt" stroke-width="7.850259765231044px" stroke="none" version="1.1" cx="77.715" stroke-dasharray="none" cy="71.391" clip-rule="evenodd" xmlns:xlink="http://www.w3.org/1999/xlink" stroke-miterlimit="2" fill-opacity="1" fill-rule="evenodd" fill="#000000" xml:space="preserve" xmlns:serif="http://www.serif.com/" serif:id="3" stroke-linejoin="round" stroke-opacity="1" d="M38.882,31.677C38.882,36.872,37.003,41.083,34.686,41.083C32.369,41.083,30.49,36.872,30.49,31.677C30.49,26.482,32.369,22.27,34.686,22.27C37.003,22.27,38.882,26.482,38.882,31.677ZM38.882,31.677"/>
  <path stroke-opacity="1" stroke-width="11.853888450973045px" version="1.1" cx="77.715" stroke-miterlimit="2" xml:space="preserve" serif:id="3" xmlns:xlink="http://www.w3.org/1999/xlink" fill-opacity="1" stroke-linecap="butt" ry="19.767" fill-rule="evenodd" clip-rule="evenodd" stroke="none" stroke-linejoin="round" fill="#000000" stroke-dasharray="none" rx="8.817" cy="71.391" xmlns:serif="http://www.serif.com/" d="M60.366,31.677C60.366,36.872,58.487,41.083,56.17,41.083C53.853,41.083,51.974,36.872,51.974,31.677C51.974,26.482,53.853,22.27,56.17,22.27C58.487,22.27,60.366,26.482,60.366,31.677ZM60.366,31.677"/>
  <path stroke-linecap="butt" version="1.1" stroke-width="5.198849240872107px" xmlns:xlink="http://www.w3.org/1999/xlink" stroke-miterlimit="2" fill="#000000" stroke-opacity="1" fill-rule="evenodd" stroke="none" stroke-linejoin="round" xml:space="preserve" xmlns:serif="http://www.serif.com/" stroke-dasharray="none" fill-opacity="1" serif:id="3" clip-rule="evenodd" d="M45.291,0C70.288,0,90.582,20.294,90.582,45.291C90.582,70.288,70.288,90.582,45.291,90.582C20.294,90.582,0,70.288,0,45.291C0,20.294,20.294,0,45.291,0ZM45.291,4.775C67.652,4.775,85.807,22.93,85.807,45.291C85.807,67.652,67.652,85.807,45.291,85.807C22.93,85.807,4.775,67.652,4.775,45.291C4.775,22.93,22.93,4.775,45.291,4.775ZM45.291,4.775"/>
  <path stroke-dasharray="none" xmlns:xlink="http://www.w3.org/1999/xlink" fill="#000000" stroke-width="5.198849240872107px" stroke-miterlimit="2" stroke-linecap="butt" version="1.1" clip-rule="evenodd" xml:space="preserve" serif:id="3" stroke-opacity="1" xmlns:serif="http://www.serif.com/" fill-rule="evenodd" fill-opacity="1" stroke-linejoin="round" stroke="none" d="M23.388,57.332C23.388,56.875,23.749,56.499,24.206,56.481C27.416,56.353,39.184,55.884,43.496,55.712C44.56,55.67,45.626,55.67,46.69,55.712C51.002,55.884,62.77,56.353,65.98,56.481C66.437,56.499,66.798,56.875,66.798,57.332C66.798,57.332,66.798,57.332,66.798,57.333C66.798,57.796,66.433,58.177,65.97,58.196C63.068,58.314,53.265,58.713,48.192,58.92C46.127,59.005,44.06,59.005,41.994,58.92C36.922,58.713,27.118,58.314,24.216,58.196C23.754,58.177,23.388,57.796,23.388,57.333C23.388,57.332,23.388,57.332,23.388,57.332ZM23.388,57.332"/>
</g>
  <g id="Medium-L" transform="matrix(1.0,0.0,0.0,1.0,1702.3933251953124,1475.3233447265625)">  <path fill-rule="evenodd" version="1.1" rx="8.817" cy="71.391" ry="19.767" stroke-linecap="butt" xmlns:xlink="http://www.w3.org/1999/xlink" cx="77.715" fill-opacity="1" stroke-linejoin="round" stroke="none" xml:space="preserve" serif:id="3" stroke-miterlimit="2" stroke-opacity="1" xmlns:serif="http://www.serif.com/" stroke-width="7.850259765231044px" fill="#000000" clip-rule="evenodd" stroke-dasharray="none" d="M38.882,31.677C38.882,36.872,37.003,41.083,34.686,41.083C32.369,41.083,30.49,36.872,30.49,31.677C30.49,26.482,32.369,22.27,34.686,22.27C37.003,22.27,38.882,26.482,38.882,31.677ZM38.882,31.677"/>
  <path stroke-opacity="1" fill-opacity="1" serif:id="3" stroke-linejoin="round" stroke-dasharray="none" cy="71.391" ry="19.767" clip-rule="evenodd" stroke-linecap="butt" stroke-width="11.853888450973045px" stroke="none" rx="8.817" xml:space="preserve" cx="77.715" xmlns:xlink="http://www.w3.org/1999/xlink" fill-rule="evenodd" version="1.1" stroke-miterlimit="2" fill="#000000" xmlns:serif="http://www.serif.com/" d="M60.366,31.677C60.366,36.872,58.487,41.083,56.17,41.083C53.853,41.083,51.974,36.872,51.974,31.677C51.974,26.482,53.853,22.27,56.17,22.27C58.487,22.27,60.366,26.482,60.366,31.677ZM60.366,31.677"/>
  <path clip-rule="evenodd" fill="#000000" xmlns:xlink="http://www.w3.org/1999/xlink" stroke-opacity="1" stroke-width="5.198849240872107px" stroke-linecap="butt" fill-opacity="1" xml:space="preserve" stroke-dasharray="none" fill-rule="evenodd" xmlns:serif="http://www.serif.com/" version="1.1" stroke-miterlimit="2" stroke="none" serif:id="3" stroke-linejoin="round" d="M45.291,0C70.288,0,90.582,20.294,90.582,45.291C90.582,70.288,70.288,90.582,45.291,90.582C20.294,90.582,0,70.288,0,45.291C0,20.294,20.294,0,45.291,0ZM45.291,4.775C67.652,4.775,85.807,22.93,85.807,45.291C85.807,67.652,67.652,85.807,45.291,85.807C22.93,85.807,4.775,67.652,4.775,45.291C4.775,22.93,22.93,4.775,45.291,4.775ZM45.291,4.775"/>
  <path stroke="none" serif:id="3" xmlns:xlink="http://www.w3.org/1999/xlink" fill="#000000" version="1.1" stroke-dasharray="none" fill-rule="evenodd" stroke-linecap="butt" stroke-opacity="1" clip-rule="evenodd" stroke-miterlimit="2" xml:space="preserve" xmlns:serif="http://www.serif.com/" stroke-linejoin="round" fill-opacity="1" stroke-width="5.198849240872107px" d="M23.388,57.332C23.388,56.875,23.749,56.499,24.206,56.481C27.416,56.353,39.184,55.884,43.496,55.712C44.56,55.67,45.626,55.67,46.69,55.712C51.002,55.884,62.77,56.353,65.98,56.481C66.437,56.499,66.798,56.875,66.798,57.332C66.798,57.332,66.798,57.332,66.798,57.333C66.798,57.796,66.433,58.177,65.97,58.196C63.068,58.314,53.265,58.713,48.192,58.92C46.127,59.005,44.06,59.005,41.994,58.92C36.922,58.713,27.118,58.314,24.216,58.196C23.754,58.177,23.388,57.796,23.388,57.333C23.388,57.332,23.388,57.332,23.388,57.332ZM23.388,57.332"/>
</g>
  <g id="Regular-L" transform="matrix(1.0,0.0,0.0,1.0,1405.6833251953124,1475.3233447265625)">  <path stroke-dasharray="none" xml:space="preserve" version="1.1" fill-opacity="1" stroke-width="7.850259765231044px" stroke-miterlimit="2" stroke-opacity="1" stroke-linecap="butt" stroke="none" cx="77.715" ry="19.767" cy="71.391" clip-rule="evenodd" rx="8.817" xmlns:serif="http://www.serif.com/" fill-rule="evenodd" serif:id="3" stroke-linejoin="round" xmlns:xlink="http://www.w3.org/1999/xlink" fill="#000000" d="M38.882,31.677C38.882,36.872,37.003,41.083,34.686,41.083C32.369,41.083,30.49,36.872,30.49,31.677C30.49,26.482,32.369,22.27,34.686,22.27C37.003,22.27,38.882,26.482,38.882,31.677ZM38.882,31.677"/>
  <path xmlns:xlink="http://www.w3.org/1999/xlink" cy="71.391" stroke-linecap="butt" cx="77.715" stroke="none" rx="8.817" fill="#000000" version="1.1" stroke-miterlimit="2" clip-rule="evenodd" stroke-linejoin="round" fill-rule="evenodd" stroke-dasharray="none" xmlns:serif="http://www.serif.com/" xml:space="preserve" fill-opacity="1" stroke-opacity="1" stroke-width="11.853888450973045px" ry="19.767" serif:id="3" d="M60.366,31.677C60.366,36.872,58.487,41.083,56.17,41.083C53.853,41.083,51.974,36.872,51.974,31.677C51.974,26.482,53.853,22.27,56.17,22.27C58.487,22.27,60.366,26.482,60.366,31.677ZM60.366,31.677"/>
  <path stroke-miterlimit="2" fill-rule="evenodd" stroke-linejoin="round" xmlns:serif="http://www.serif.com/" xml:space="preserve" stroke-width="5.198849240872107px" stroke-dasharray="none" clip-rule="evenodd" xmlns:xlink="http://www.w3.org/1999/xlink" stroke-opacity="1" stroke="none" fill-opacity="1" version="1.1" stroke-linecap="butt" fill="#000000" serif:id="3" d="M45.291,0C70.288,0,90.582,20.294,90.582,45.291C90.582,70.288,70.288,90.582,45.291,90.582C20.294,90.582,0,70.288,0,45.291C0,20.294,20.294,0,45.291,0ZM45.291,4.775C67.652,4.775,85.807,22.93,85.807,45.291C85.807,67.652,67.652,85.807,45.291,85.807C22.93,85.807,4.775,67.652,4.775,45.291C4.775,22.93,22.93,4.775,45.291,4.775ZM45.291,4.775"/>
  <path xml:space="preserve" xmlns:xlink="http://www.w3.org/1999/xlink" clip-rule="evenodd" stroke-dasharray="none" stroke-width="5.198849240872107px" stroke="none" serif:id="3" fill="#000000" version="1.1" xmlns:serif="http://www.serif.com/" fill-opacity="1" stroke-linejoin="round" stroke-opacity="1" fill-rule="evenodd" stroke-linecap="butt" stroke-miterlimit="2" d="M23.388,57.332C23.388,56.875,23.749,56.499,24.206,56.481C27.416,56.353,39.184,55.884,43.496,55.712C44.56,55.67,45.626,55.67,46.69,55.712C51.002,55.884,62.77,56.353,65.98,56.481C66.437,56.499,66.798,56.875,66.798,57.332C66.798,57.332,66.798,57.332,66.798,57.333C66.798,57.796,66.433,58.177,65.97,58.196C63.068,58.314,53.265,58.713,48.192,58.92C46.127,59.005,44.06,59.005,41.994,58.92C36.922,58.713,27.118,58.314,24.216,58.196C23.754,58.177,23.388,57.796,23.388,57.333C23.388,57.332,23.388,57.332,23.388,57.332ZM23.388,57.332"/>
</g>
  <g id="Light-L" transform="matrix(1.0,0.0,0.0,1.0,1108.9733251953126,1475.3233447265625)">  <path fill="#000000" serif:id="3" xmlns:xlink="http://www.w3.org/1999/xlink" rx="8.817" stroke-linecap="butt" ry="19.767" stroke-opacity="1" clip-rule="evenodd" xml:space="preserve" xmlns:serif="http://www.serif.com/" version="1.1" stroke-linejoin="round" cy="71.391" stroke-width="7.850259765231044px" fill-opacity="1" stroke-dasharray="none" stroke-miterlimit="2" fill-rule="evenodd" cx="77.715" stroke="none" d="M38.882,31.677C38.882,36.872,37.003,41.083,34.686,41.083C32.369,41.083,30.49,36.872,30.49,31.677C30.49,26.482,32.369,22.27,34.686,22.27C37.003,22.27,38.882,26.482,38.882,31.677ZM38.882,31.677"/>
  <path clip-rule="evenodd" version="1.1" xmlns:xlink="http://www.w3.org/1999/xlink" xml:space="preserve" stroke-miterlimit="2" rx="8.817" fill-opacity="1" stroke-linecap="butt" stroke="none" ry="19.767" stroke-linejoin="round" fill-rule="evenodd" stroke-width="11.853888450973045px" cx="77.715" cy="71.391" fill="#000000" xmlns:serif="http://www.serif.com/" stroke-dasharray="none" serif:id="3" stroke-opacity="1" d="M60.366,31.677C60.366,36.872,58.487,41.083,56.17,41.083C53.853,41.083,51.974,36.872,51.974,31.677C51.974,26.482,53.853,22.27,56.17,22.27C58.487,22.27,60.366,26.482,60.366,31.677ZM60.366,31.677"/>
  <path stroke-dasharray="none" fill="#000000" fill-rule="evenodd" version="1.1" stroke-linejoin="round" stroke-miterlimit="2" stroke-width="5.198849240872107px" stroke="none" fill-opacity="1" xml:space="preserve" stroke-linecap="butt" xmlns:xlink="http://www.w3.org/1999/xlink" stroke-opacity="1" serif:id="3" clip-rule="evenodd" xmlns:serif="http://www.serif.com/" d="M45.291,0C70.288,0,90.582,20.294,90.582,45.291C90.582,70.288,70.288,90.582,45.291,90.582C20.294,90.582,0,70.288,0,45.291C0,20.294,20.294,0,45.291,0ZM45.291,4.775C67.652,4.775,85.807,22.93,85.807,45.291C85.807,67.652,67.652,85.807,45.291,85.807C22.93,85.807,4.775,67.652,4.775,45.291C4.775,22.93,22.93,4.775,45.291,4.775ZM45.291,4.775"/>
  <path stroke-miterlimit="2" stroke-dasharray="none" xmlns:xlink="http://www.w3.org/1999/xlink" fill-opacity="1" fill-rule="evenodd" stroke-linejoin="round" clip-rule="evenodd" xmlns:serif="http://www.serif.com/" stroke-linecap="butt" xml:space="preserve" version="1.1" fill="#000000" stroke="none" serif:id="3" stroke-opacity="1" stroke-width="5.198849240872107px" d="M23.388,57.332C23.388,56.875,23.749,56.499,24.206,56.481C27.416,56.353,39.184,55.884,43.496,55.712C44.56,55.67,45.626,55.67,46.69,55.712C51.002,55.884,62.77,56.353,65.98,56.481C66.437,56.499,66.798,56.875,66.798,57.332C66.798,57.332,66.798,57.332,66.798,57.333C66.798,57.796,66.433,58.177,65.97,58.196C63.068,58.314,53.265,58.713,48.192,58.92C46.127,59.005,44.06,59.005,41.994,58.92C36.922,58.713,27.118,58.314,24.216,58.196C23.754,58.177,23.388,57.796,23.388,57.333C23.388,57.332,23.388,57.332,23.388,57.332ZM23.388,57.332"/>
</g>
  <g id="Thin-L" transform="matrix(1.0,0.0,0.0,1.0,812.2633251953125,1475.3233447265625)">  <path stroke-dasharray="none" stroke-opacity="1" stroke-linecap="butt" version="1.1" ry="19.767" cx="77.715" fill-rule="evenodd" stroke-miterlimit="2" rx="8.817" fill="#000000" xmlns:serif="http://www.serif.com/" clip-rule="evenodd" stroke="none" xml:space="preserve" stroke-linejoin="round" xmlns:xlink="http://www.w3.org/1999/xlink" serif:id="3" fill-opacity="1" cy="71.391" stroke-width="7.850259765231044px" d="M38.882,31.677C38.882,36.872,37.003,41.083,34.686,41.083C32.369,41.083,30.49,36.872,30.49,31.677C30.49,26.482,32.369,22.27,34.686,22.27C37.003,22.27,38.882,26.482,38.882,31.677ZM38.882,31.677"/>
  <path clip-rule="evenodd" cx="77.715" cy="71.391" fill="#000000" stroke-dasharray="none" stroke="none" serif:id="3" stroke-linejoin="round" fill-rule="evenodd" fill-opacity="1" xml:space="preserve" ry="19.767" xmlns:serif="http://www.serif.com/" stroke-linecap="butt" xmlns:xlink="http://www.w3.org/1999/xlink" rx="8.817" stroke-width="11.853888450973045px" version="1.1" stroke-miterlimit="2" stroke-opacity="1" d="M60.366,31.677C60.366,36.872,58.487,41.083,56.17,41.083C53.853,41.083,51.974,36.872,51.974,31.677C51.974,26.482,53.853,22.27,56.17,22.27C58.487,22.27,60.366,26.482,60.366,31.677ZM60.366,31.677"/>
  <path version="1.1" fill-opacity="1" clip-rule="evenodd" xmlns:xlink="http://www.w3.org/1999/xlink" stroke-opacity="1" stroke-linejoin="round" stroke-miterlimit="2" stroke="none" stroke-dasharray="none" xmlns:serif="http://www.serif.com/" stroke-linecap="butt" serif:id="3" stroke-width="5.198849240872107px" xml:space="preserve" fill="#000000" fill-rule="evenodd" d="M45.291,0C70.288,0,90.582,20.294,90.582,45.291C90.582,70.288,70.288,90.582,45.291,90.582C20.294,90.582,0,70.288,0,45.291C0,20.294,20.294,0,45.291,0ZM45.291,4.775C67.652,4.775,85.807,22.93,85.807,45.291C85.807,67.652,67.652,85.807,45.291,85.807C22.93,85.807,4.775,67.652,4.775,45.291C4.775,22.93,22.93,4.775,45.291,4.775ZM45.291,4.775"/>
  <path stroke-miterlimit="2" stroke-dasharray="none" stroke-linecap="butt" stroke-width="5.198849240872107px" xml:space="preserve" fill="#000000" version="1.1" stroke-opacity="1" stroke="none" xmlns:xlink="http://www.w3.org/1999/xlink" serif:id="3" fill-opacity="1" fill-rule="evenodd" stroke-linejoin="round" xmlns:serif="http://www.serif.com/" clip-rule="evenodd" d="M23.388,57.332C23.388,56.875,23.749,56.499,24.206,56.481C27.416,56.353,39.184,55.884,43.496,55.712C44.56,55.67,45.626,55.67,46.69,55.712C51.002,55.884,62.77,56.353,65.98,56.481C66.437,56.499,66.798,56.875,66.798,57.332C66.798,57.332,66.798,57.332,66.798,57.333C66.798,57.796,66.433,58.177,65.97,58.196C63.068,58.314,53.265,58.713,48.192,58.92C46.127,59.005,44.06,59.005,41.994,58.92C36.922,58.713,27.118,58.314,24.216,58.196C23.754,58.177,23.388,57.796,23.388,57.333C23.388,57.332,23.388,57.332,23.388,57.332ZM23.388,57.332"/>
</g>
  <g id="Ultralight-L" transform="matrix(1.0,0.0,0.0,1.0,515.5533251953125,1475.3233447265625)">  <path fill-opacity="1" stroke-width="7.850259765231044px" clip-rule="evenodd" version="1.1" fill-rule="evenodd" fill="#000000" stroke-opacity="1" ry="19.767" stroke-linejoin="round" serif:id="3" stroke-dasharray="none" xmlns:serif="http://www.serif.com/" stroke="none" xml:space="preserve" xmlns:xlink="http://www.w3.org/1999/xlink" stroke-miterlimit="2" cx="77.715" rx="8.817" cy="71.391" stroke-linecap="butt" d="M38.882,31.677C38.882,36.872,37.003,41.083,34.686,41.083C32.369,41.083,30.49,36.872,30.49,31.677C30.49,26.482,32.369,22.27,34.686,22.27C37.003,22.27,38.882,26.482,38.882,31.677ZM38.882,31.677"/>
  <path clip-rule="evenodd" stroke-linejoin="round" stroke-opacity="1" stroke-miterlimit="2" fill-rule="evenodd" version="1.1" stroke-linecap="butt" stroke-width="11.853888450973045px" xmlns:serif="http://www.serif.com/" cx="77.715" rx="8.817" fill="#000000" ry="19.767" xmlns:xlink="http://www.w3.org/1999/xlink" stroke="none" xml:space="preserve" cy="71.391" serif:id="3" stroke-dasharray="none" fill-opacity="1" d="M60.366,31.677C60.366,36.872,58.487,41.083,56.17,41.083C53.853,41.083,51.974,36.872,51.974,31.677C51.974,26.482,53.853,22.27,56.17,22.27C58.487,22.27,60.366,26.482,60.366,31.677ZM60.366,31.677"/>
  <path xml:space="preserve" clip-rule="evenodd" xmlns:serif="http://www.serif.com/" stroke="none" serif:id="3" stroke-opacity="1" stroke-width="5.198849240872107px" fill="#000000" stroke-linecap="butt" xmlns:xlink="http://www.w3.org/1999/xlink" stroke-dasharray="none" version="1.1" fill-opacity="1" stroke-linejoin="round" stroke-miterlimit="2" fill-rule="evenodd" d="M45.291,0C70.288,0,90.582,20.294,90.582,45.291C90.582,70.288,70.288,90.582,45.291,90.582C20.294,90.582,0,70.288,0,45.291C0,20.294,20.294,0,45.291,0ZM45.291,4.775C67.652,4.775,85.807,22.93,85.807,45.291C85.807,67.652,67.652,85.807,45.291,85.807C22.93,85.807,4.775,67.652,4.775,45.291C4.775,22.93,22.93,4.775,45.291,4.775ZM45.291,4.775"/>
  <path serif:id="3" xmlns:xlink="http://www.w3.org/1999/xlink" fill-opacity="1" xmlns:serif="http://www.serif.com/" stroke-dasharray="none" xml:space="preserve" clip-rule="evenodd" stroke-miterlimit="2" stroke-linejoin="round" fill-rule="evenodd" stroke-linecap="butt" fill="#000000" stroke="none" stroke-opacity="1" version="1.1" stroke-width="5.198849240872107px" d="M23.388,57.332C23.388,56.875,23.749,56.499,24.206,56.481C27.416,56.353,39.184,55.884,43.496,55.712C44.56,55.67,45.626,55.67,46.69,55.712C51.002,55.884,62.77,56.353,65.98,56.481C66.437,56.499,66.798,56.875,66.798,57.332C66.798,57.332,66.798,57.332,66.798,57.333C66.798,57.796,66.433,58.177,65.97,58.196C63.068,58.314,53.265,58.713,48.192,58.92C46.127,59.005,44.06,59.005,41.994,58.92C36.922,58.713,27.118,58.314,24.216,58.196C23.754,58.177,23.388,57.796,23.388,57.333C23.388,57.332,23.388,57.332,23.388,57.332ZM23.388,57.332"/>
</g>
  <g id="Black-M" transform="matrix(1.0,0.0,0.0,1.0,2899.45001953125,1055.5400390625)">  <path stroke-linecap="butt" stroke-opacity="1" stroke="none" clip-rule="evenodd" stroke-linejoin="round" stroke-dasharray="none" stroke-width="7.850259765231044px" fill-opacity="1" ry="19.767" fill-rule="evenodd" xmlns:xlink="http://www.w3.org/1999/xlink" cx="77.715" xmlns:serif="http://www.serif.com/" version="1.1" rx="8.817" fill="#000000" serif:id="3" cy="71.391" xml:space="preserve" stroke-miterlimit="2" d="M30.141,24.556C30.141,28.583,28.685,31.848,26.889,31.848C25.092,31.848,23.636,28.583,23.636,24.556C23.636,20.528,25.092,17.264,26.889,17.264C28.685,17.264,30.141,20.528,30.141,24.556ZM30.141,24.556"/>
  <path stroke="none" serif:id="3" stroke-linecap="butt" xml:space="preserve" stroke-opacity="1" rx="8.817" ry="19.767" stroke-width="11.853888450973045px" fill-rule="evenodd" fill-opacity="1" xmlns:xlink="http://www.w3.org/1999/xlink" xmlns:serif="http://www.serif.com/" clip-rule="evenodd" cx="77.715" version="1.1" fill="#000000" stroke-miterlimit="2" stroke-linejoin="round" cy="71.391" stroke-dasharray="none" d="M46.795,24.556C46.795,28.583,45.339,31.848,43.542,31.848C41.746,31.848,40.29,28.583,40.29,24.556C40.29,20.528,41.746,17.264,43.542,17.264C45.339,17.264,46.795,20.528,46.795,24.556ZM46.795,24.556"/>
  <path stroke-linejoin="round" stroke-width="5.198849240872107px" fill="#000000" fill-rule="evenodd" stroke-opacity="1" stroke-linecap="butt" xmlns:xlink="http://www.w3.org/1999/xlink" stroke-dasharray="none" xml:space="preserve" version="1.1" xmlns:serif="http://www.serif.com/" clip-rule="evenodd" fill-opacity="1" serif:id="3" stroke-miterlimit="2" stroke="none" d="M35.109,0C54.487,0,70.219,15.732,70.219,35.109C70.219,54.487,54.487,70.219,35.109,70.219C15.732,70.219,0,54.487,0,35.109C0,15.732,15.732,0,35.109,0ZM35.109,3.702C52.444,3.702,66.517,17.775,66.517,35.109C66.517,52.444,52.444,66.517,35.109,66.517C17.775,66.517,3.702,52.444,3.702,35.109C3.702,17.775,17.775,3.702,35.109,3.702ZM35.109,3.702"/>
  <path stroke-linejoin="round" stroke-width="5.198849240872107px" fill-rule="evenodd" clip-rule="evenodd" version="1.1" stroke-opacity="1" serif:id="3" xmlns:xlink="http://www.w3.org/1999/xlink" xml:space="preserve" stroke-dasharray="none" stroke="none" fill="#000000" stroke-miterlimit="2" fill-opacity="1" xmlns:serif="http://www.serif.com/" stroke-linecap="butt" d="M18.13,44.443C18.13,44.089,18.41,43.797,18.765,43.783C21.253,43.684,30.375,43.321,33.718,43.188C34.543,43.155,35.369,43.155,36.194,43.188C39.536,43.321,48.659,43.684,51.147,43.783C51.502,43.797,51.781,44.089,51.781,44.443C51.781,44.444,51.781,44.444,51.781,44.444C51.781,44.803,51.498,45.098,51.139,45.113C48.89,45.204,41.29,45.514,37.358,45.675C35.757,45.74,34.155,45.74,32.554,45.675C28.622,45.514,21.022,45.204,18.772,45.113C18.414,45.098,18.13,44.803,18.13,44.444C18.13,44.444,18.13,44.444,18.13,44.443ZM18.13,44.443"/>
</g>
  <g id="Heavy-M" transform="matrix(1.0,0.0,0.0,1.0,2602.74001953125,1055.5400390625)">  <path xmlns:serif="http://www.serif.com/" cx="77.715" stroke-linejoin="round" stroke-width="7.850259765231044px" fill-rule="evenodd" fill="#000000" xmlns:xlink="http://www.w3.org/1999/xlink" xml:space="preserve" clip-rule="evenodd" serif:id="3" fill-opacity="1" stroke-miterlimit="2" stroke-dasharray="none" rx="8.817" stroke-linecap="butt" stroke="none" ry="19.767" version="1.1" stroke-opacity="1" cy="71.391" d="M30.141,24.556C30.141,28.583,28.685,31.848,26.889,31.848C25.092,31.848,23.636,28.583,23.636,24.556C23.636,20.528,25.092,17.264,26.889,17.264C28.685,17.264,30.141,20.528,30.141,24.556ZM30.141,24.556"/>
  <path ry="19.767" stroke-linecap="butt" fill-opacity="1" fill="#000000" rx="8.817" version="1.1" clip-rule="evenodd" serif:id="3" xmlns:xlink="http://www.w3.org/1999/xlink" xmlns:serif="http://www.serif.com/" xml:space="preserve" cx="77.715" stroke-miterlimit="2" stroke-dasharray="none" fill-rule="evenodd" stroke-opacity="1" stroke="none" cy="71.391" stroke-linejoin="round" stroke-width="11.853888450973045px" d="M46.795,24.556C46.795,28.583,45.339,31.848,43.542,31.848C41.746,31.848,40.29,28.583,40.29,24.556C40.29,20.528,41.746,17.264,43.542,17.264C45.339,17.264,46.795,20.528,46.795,24.556ZM46.795,24.556"/>
  <path xmlns:serif="http://www.serif.com/" stroke-linejoin="round" stroke-miterlimit="2" serif:id="3" stroke="none" xmlns:xlink="http://www.w3.org/1999/xlink" xml:space="preserve" clip-rule="evenodd" stroke-opacity="1" fill-rule="evenodd" fill="#000000" stroke-width="5.198849240872107px" fill-opacity="1" stroke-dasharray="none" version="1.1" stroke-linecap="butt" d="M35.109,0C54.487,0,70.219,15.732,70.219,35.109C70.219,54.487,54.487,70.219,35.109,70.219C15.732,70.219,0,54.487,0,35.109C0,15.732,15.732,0,35.109,0ZM35.109,3.702C52.444,3.702,66.517,17.775,66.517,35.109C66.517,52.444,52.444,66.517,35.109,66.517C17.775,66.517,3.702,52.444,3.702,35.109C3.702,17.775,17.775,3.702,35.109,3.702ZM35.109,3.702"/>
  <path serif:id="3" stroke-linejoin="round" fill-rule="evenodd" version="1.1" stroke-width="5.198849240872107px" stroke-opacity="1" stroke-linecap="butt" stroke-miterlimit="2" stroke-dasharray="none" xmlns:xlink="http://www.w3.org/1999/xlink" stroke="none" fill-opacity="1" xml:space="preserve" fill="#000000" clip-rule="evenodd" xmlns:serif="http://www.serif.com/" d="M18.13,44.443C18.13,44.089,18.41,43.797,18.765,43.783C21.253,43.684,30.375,43.321,33.718,43.188C34.543,43.155,35.369,43.155,36.194,43.188C39.536,43.321,48.659,43.684,51.147,43.783C51.502,43.797,51.781,44.089,51.781,44.443C51.781,44.444,51.781,44.444,51.781,44.444C51.781,44.803,51.498,45.098,51.139,45.113C48.89,45.204,41.29,45.514,37.358,45.675C35.757,45.74,34.155,45.74,32.554,45.675C28.622,45.514,21.022,45.204,18.772,45.113C18.414,45.098,18.13,44.803,18.13,44.444C18.13,44.444,18.13,44.444,18.13,44.443ZM18.13,44.443"/>
</g>
  <g id="Bold-M" transform="matrix(1.0,0.0,0.0,1.0,2306.0300195312498,1055.5400390625)">  <path stroke-width="7.850259765231044px" cy="71.391" clip-rule="evenodd" xmlns:serif="http://www.serif.com/" version="1.1" fill="#000000" stroke-linejoin="round" xmlns:xlink="http://www.w3.org/1999/xlink" serif:id="3" stroke-miterlimit="2" cx="77.715" stroke="none" fill-opacity="1" fill-rule="evenodd" xml:space="preserve" ry="19.767" stroke-dasharray="none" stroke-linecap="butt" rx="8.817" stroke-opacity="1" d="M30.141,24.556C30.141,28.583,28.685,31.848,26.889,31.848C25.092,31.848,23.636,28.583,23.636,24.556C23.636,20.528,25.092,17.264,26.889,17.264C28.685,17.264,30.141,20.528,30.141,24.556ZM30.141,24.556"/>
  <path xmlns:xlink="http://www.w3.org/1999/xlink" fill="#000000" cx="77.715" serif:id="3" xmlns:serif="http://www.serif.com/" stroke-width="11.853888450973045px" xml:space="preserve" stroke-miterlimit="2" stroke="none" stroke-linecap="butt" fill-rule="evenodd" cy="71.391" version="1.1" stroke-linejoin="round" rx="8.817" fill-opacity="1" stroke-dasharray="none" stroke-opacity="1" ry="19.767" clip-rule="evenodd" d="M46.795,24.556C46.795,28.583,45.339,31.848,43.542,31.848C41.746,31.848,40.29,28.583,40.29,24.556C40.29,20.528,41.746,17.264,43.542,17.264C45.339,17.264,46.795,20.528,46.795,24.556ZM46.795,24.556"/>
  <path stroke-linejoin="round" stroke-linecap="butt" xmlns:xlink="http://www.w3.org/1999/xlink" stroke-dasharray="none" version="1.1" fill-opacity="1" xmlns:serif="http://www.serif.com/" clip-rule="evenodd" stroke-width="5.198849240872107px" fill="#000000" xml:space="preserve" stroke-opacity="1" serif:id="3" stroke="none" stroke-miterlimit="2" fill-rule="evenodd" d="M35.109,0C54.487,0,70.219,15.732,70.219,35.109C70.219,54.487,54.487,70.219,35.109,70.219C15.732,70.219,0,54.487,0,35.109C0,15.732,15.732,0,35.109,0ZM35.109,3.702C52.444,3.702,66.517,17.775,66.517,35.109C66.517,52.444,52.444,66.517,35.109,66.517C17.775,66.517,3.702,52.444,3.702,35.109C3.702,17.775,17.775,3.702,35.109,3.702ZM35.109,3.702"/>
  <path version="1.1" fill-rule="evenodd" fill-opacity="1" stroke-dasharray="none" stroke-linejoin="round" xmlns:serif="http://www.serif.com/" stroke-linecap="butt" xml:space="preserve" fill="#000000" clip-rule="evenodd" stroke-miterlimit="2" serif:id="3" stroke-width="5.198849240872107px" stroke="none" stroke-opacity="1" xmlns:xlink="http://www.w3.org/1999/xlink" d="M18.13,44.443C18.13,44.089,18.41,43.797,18.765,43.783C21.253,43.684,30.375,43.321,33.718,43.188C34.543,43.155,35.369,43.155,36.194,43.188C39.536,43.321,48.659,43.684,51.147,43.783C51.502,43.797,51.781,44.089,51.781,44.443C51.781,44.444,51.781,44.444,51.781,44.444C51.781,44.803,51.498,45.098,51.139,45.113C48.89,45.204,41.29,45.514,37.358,45.675C35.757,45.74,34.155,45.74,32.554,45.675C28.622,45.514,21.022,45.204,18.772,45.113C18.414,45.098,18.13,44.803,18.13,44.444C18.13,44.444,18.13,44.444,18.13,44.443ZM18.13,44.443"/>
</g>
  <g id="Semibold-M" transform="matrix(1.0,0.0,0.0,1.0,2009.32001953125,1055.5400390625)">  <path rx="8.817" ry="19.767" stroke-linecap="butt" stroke-width="7.850259765231044px" stroke="none" version="1.1" cx="77.715" stroke-dasharray="none" cy="71.391" clip-rule="evenodd" xmlns:xlink="http://www.w3.org/1999/xlink" stroke-miterlimit="2" fill-opacity="1" fill-rule="evenodd" fill="#000000" xml:space="preserve" xmlns:serif="http://www.serif.com/" serif:id="3" stroke-linejoin="round" stroke-opacity="1" d="M30.141,24.556C30.141,28.583,28.685,31.848,26.889,31.848C25.092,31.848,23.636,28.583,23.636,24.556C23.636,20.528,25.092,17.264,26.889,17.264C28.685,17.264,30.141,20.528,30.141,24.556ZM30.141,24.556"/>
  <path stroke-opacity="1" stroke-width="11.853888450973045px" version="1.1" cx="77.715" stroke-miterlimit="2" xml:space="preserve" serif:id="3" xmlns:xlink="http://www.w3.org/1999/xlink" fill-opacity="1" stroke-linecap="butt" ry="19.767" fill-rule="evenodd" clip-rule="evenodd" stroke="none" stroke-linejoin="round" fill="#000000" stroke-dasharray="none" rx="8.817" cy="71.391" xmlns:serif="http://www.serif.com/" d="M46.795,24.556C46.795,28.583,45.339,31.848,43.542,31.848C41.746,31.848,40.29,28.583,40.29,24.556C40.29,20.528,41.746,17.264,43.542,17.264C45.339,17.264,46.795,20.528,46.795,24.556ZM46.795,24.556"/>
  <path stroke-linecap="butt" version="1.1" stroke-width="5.198849240872107px" xmlns:xlink="http://www.w3.org/1999/xlink" stroke-miterlimit="2" fill="#000000" stroke-opacity="1" fill-rule="evenodd" stroke="none" stroke-linejoin="round" xml:space="preserve" xmlns:serif="http://www.serif.com/" stroke-dasharray="none" fill-opacity="1" serif:id="3" clip-rule="evenodd" d="M35.109,0C54.487,0,70.219,15.732,70.219,35.109C70.219,54.487,54.487,70.219,35.109,70.219C15.732,70.219,0,54.487,0,35.109C0,15.732,15.732,0,35.109,0ZM35.109,3.702C52.444,3.702,66.517,17.775,66.517,35.109C66.517,52.444,52.444,66.517,35.109,66.517C17.775,66.517,3.702,52.444,3.702,35.109C3.702,17.775,17.775,3.702,35.109,3.702ZM35.109,3.702"/>
  <path stroke-dasharray="none" xmlns:xlink="http://www.w3.org/1999/xlink" fill="#000000" stroke-width="5.198849240872107px" stroke-miterlimit="2" stroke-linecap="butt" version="1.1" clip-rule="evenodd" xml:space="preserve" serif:id="3" stroke-opacity="1" xmlns:serif="http://www.serif.com/" fill-rule="evenodd" fill-opacity="1" stroke-linejoin="round" stroke="none" d="M18.13,44.443C18.13,44.089,18.41,43.797,18.765,43.783C21.253,43.684,30.375,43.321,33.718,43.188C34.543,43.155,35.369,43.155,36.194,43.188C39.536,43.321,48.659,43.684,51.147,43.783C51.502,43.797,51.781,44.089,51.781,44.443C51.781,44.444,51.781,44.444,51.781,44.444C51.781,44.803,51.498,45.098,51.139,45.113C48.89,45.204,41.29,45.514,37.358,45.675C35.757,45.74,34.155,45.74,32.554,45.675C28.622,45.514,21.022,45.204,18.772,45.113C18.414,45.098,18.13,44.803,18.13,44.444C18.13,44.444,18.13,44.444,18.13,44.443ZM18.13,44.443"/>
</g>
  <g id="Medium-M" transform="matrix(1.0,0.0,0.0,1.0,1712.61001953125,1055.5400390625)">  <path fill-rule="evenodd" version="1.1" rx="8.817" cy="71.391" ry="19.767" stroke-linecap="butt" xmlns:xlink="http://www.w3.org/1999/xlink" cx="77.715" fill-opacity="1" stroke-linejoin="round" stroke="none" xml:space="preserve" serif:id="3" stroke-miterlimit="2" stroke-opacity="1" xmlns:serif="http://www.serif.com/" stroke-width="7.850259765231044px" fill="#000000" clip-rule="evenodd" stroke-dasharray="none" d="M30.141,24.556C30.141,28.583,28.685,31.848,26.889,31.848C25.092,31.848,23.636,28.583,23.636,24.556C23.636,20.528,25.092,17.264,26.889,17.264C28.685,17.264,30.141,20.528,30.141,24.556ZM30.141,24.556"/>
  <path stroke-opacity="1" fill-opacity="1" serif:id="3" stroke-linejoin="round" stroke-dasharray="none" cy="71.391" ry="19.767" clip-rule="evenodd" stroke-linecap="butt" stroke-width="11.853888450973045px" stroke="none" rx="8.817" xml:space="preserve" cx="77.715" xmlns:xlink="http://www.w3.org/1999/xlink" fill-rule="evenodd" version="1.1" stroke-miterlimit="2" fill="#000000" xmlns:serif="http://www.serif.com/" d="M46.795,24.556C46.795,28.583,45.339,31.848,43.542,31.848C41.746,31.848,40.29,28.583,40.29,24.556C40.29,20.528,41.746,17.264,43.542,17.264C45.339,17.264,46.795,20.528,46.795,24.556ZM46.795,24.556"/>
  <path clip-rule="evenodd" fill="#000000" xmlns:xlink="http://www.w3.org/1999/xlink" stroke-opacity="1" stroke-width="5.198849240872107px" stroke-linecap="butt" fill-opacity="1" xml:space="preserve" stroke-dasharray="none" fill-rule="evenodd" xmlns:serif="http://www.serif.com/" version="1.1" stroke-miterlimit="2" stroke="none" serif:id="3" stroke-linejoin="round" d="M35.109,0C54.487,0,70.219,15.732,70.219,35.109C70.219,54.487,54.487,70.219,35.109,70.219C15.732,70.219,0,54.487,0,35.109C0,15.732,15.732,0,35.109,0ZM35.109,3.702C52.444,3.702,66.517,17.775,66.517,35.109C66.517,52.444,52.444,66.517,35.109,66.517C17.775,66.517,3.702,52.444,3.702,35.109C3.702,17.775,17.775,3.702,35.109,3.702ZM35.109,3.702"/>
  <path stroke="none" serif:id="3" xmlns:xlink="http://www.w3.org/1999/xlink" fill="#000000" version="1.1" stroke-dasharray="none" fill-rule="evenodd" stroke-linecap="butt" stroke-opacity="1" clip-rule="evenodd" stroke-miterlimit="2" xml:space="preserve" xmlns:serif="http://www.serif.com/" stroke-linejoin="round" fill-opacity="1" stroke-width="5.198849240872107px" d="M18.13,44.443C18.13,44.089,18.41,43.797,18.765,43.783C21.253,43.684,30.375,43.321,33.718,43.188C34.543,43.155,35.369,43.155,36.194,43.188C39.536,43.321,48.659,43.684,51.147,43.783C51.502,43.797,51.781,44.089,51.781,44.443C51.781,44.444,51.781,44.444,51.781,44.444C51.781,44.803,51.498,45.098,51.139,45.113C48.89,45.204,41.29,45.514,37.358,45.675C35.757,45.74,34.155,45.74,32.554,45.675C28.622,45.514,21.022,45.204,18.772,45.113C18.414,45.098,18.13,44.803,18.13,44.444C18.13,44.444,18.13,44.444,18.13,44.443ZM18.13,44.443"/>
</g>
  <g id="Regular-M" transform="matrix(1.0,0.0,0.0,1.0,1415.9000195312499,1055.5400390625)">  <path stroke-dasharray="none" xml:space="preserve" version="1.1" fill-opacity="1" stroke-width="7.850259765231044px" stroke-miterlimit="2" stroke-opacity="1" stroke-linecap="butt" stroke="none" cx="77.715" ry="19.767" cy="71.391" clip-rule="evenodd" rx="8.817" xmlns:serif="http://www.serif.com/" fill-rule="evenodd" serif:id="3" stroke-linejoin="round" xmlns:xlink="http://www.w3.org/1999/xlink" fill="#000000" d="M30.141,24.556C30.141,28.583,28.685,31.848,26.889,31.848C25.092,31.848,23.636,28.583,23.636,24.556C23.636,20.528,25.092,17.264,26.889,17.264C28.685,17.264,30.141,20.528,30.141,24.556ZM30.141,24.556"/>
  <path xmlns:xlink="http://www.w3.org/1999/xlink" cy="71.391" stroke-linecap="butt" cx="77.715" stroke="none" rx="8.817" fill="#000000" version="1.1" stroke-miterlimit="2" clip-rule="evenodd" stroke-linejoin="round" fill-rule="evenodd" stroke-dasharray="none" xmlns:serif="http://www.serif.com/" xml:space="preserve" fill-opacity="1" stroke-opacity="1" stroke-width="11.853888450973045px" ry="19.767" serif:id="3" d="M46.795,24.556C46.795,28.583,45.339,31.848,43.542,31.848C41.746,31.848,40.29,28.583,40.29,24.556C40.29,20.528,41.746,17.264,43.542,17.264C45.339,17.264,46.795,20.528,46.795,24.556ZM46.795,24.556"/>
  <path stroke-miterlimit="2" fill-rule="evenodd" stroke-linejoin="round" xmlns:serif="http://www.serif.com/" xml:space="preserve" stroke-width="5.198849240872107px" stroke-dasharray="none" clip-rule="evenodd" xmlns:xlink="http://www.w3.org/1999/xlink" stroke-opacity="1" stroke="none" fill-opacity="1" version="1.1" stroke-linecap="butt" fill="#000000" serif:id="3" d="M35.109,0C54.487,0,70.219,15.732,70.219,35.109C70.219,54.487,54.487,70.219,35.109,70.219C15.732,70.219,0,54.487,0,35.109C0,15.732,15.732,0,35.109,0ZM35.109,3.702C52.444,3.702,66.517,17.775,66.517,35.109C66.517,52.444,52.444,66.517,35.109,66.517C17.775,66.517,3.702,52.444,3.702,35.109C3.702,17.775,17.775,3.702,35.109,3.702ZM35.109,3.702"/>
  <path xml:space="preserve" xmlns:xlink="http://www.w3.org/1999/xlink" clip-rule="evenodd" stroke-dasharray="none" stroke-width="5.198849240872107px" stroke="none" serif:id="3" fill="#000000" version="1.1" xmlns:serif="http://www.serif.com/" fill-opacity="1" stroke-linejoin="round" stroke-opacity="1" fill-rule="evenodd" stroke-linecap="butt" stroke-miterlimit="2" d="M18.13,44.443C18.13,44.089,18.41,43.797,18.765,43.783C21.253,43.684,30.375,43.321,33.718,43.188C34.543,43.155,35.369,43.155,36.194,43.188C39.536,43.321,48.659,43.684,51.147,43.783C51.502,43.797,51.781,44.089,51.781,44.443C51.781,44.444,51.781,44.444,51.781,44.444C51.781,44.803,51.498,45.098,51.139,45.113C48.89,45.204,41.29,45.514,37.358,45.675C35.757,45.74,34.155,45.74,32.554,45.675C28.622,45.514,21.022,45.204,18.772,45.113C18.414,45.098,18.13,44.803,18.13,44.444C18.13,44.444,18.13,44.444,18.13,44.443ZM18.13,44.443"/>
</g>
  <g id="Light-M" transform="matrix(1.0,0.0,0.0,1.0,1119.19001953125,1055.5400390625)">  <path fill="#000000" serif:id="3" xmlns:xlink="http://www.w3.org/1999/xlink" rx="8.817" stroke-linecap="butt" ry="19.767" stroke-opacity="1" clip-rule="evenodd" xml:space="preserve" xmlns:serif="http://www.serif.com/" version="1.1" stroke-linejoin="round" cy="71.391" stroke-width="7.850259765231044px" fill-opacity="1" stroke-dasharray="none" stroke-miterlimit="2" fill-rule="evenodd" cx="77.715" stroke="none" d="M30.141,24.556C30.141,28.583,28.685,31.848,26.889,31.848C25.092,31.848,23.636,28.583,23.636,24.556C23.636,20.528,25.092,17.264,26.889,17.264C28.685,17.264,30.141,20.528,30.141,24.556ZM30.141,24.556"/>
  <path clip-rule="evenodd" version="1.1" xmlns:xlink="http://www.w3.org/1999/xlink" xml:space="preserve" stroke-miterlimit="2" rx="8.817" fill-opacity="1" stroke-linecap="butt" stroke="none" ry="19.767" stroke-linejoin="round" fill-rule="evenodd" stroke-width="11.853888450973045px" cx="77.715" cy="71.391" fill="#000000" xmlns:serif="http://www.serif.com/" stroke-dasharray="none" serif:id="3" stroke-opacity="1" d="M46.795,24.556C46.795,28.583,45.339,31.848,43.542,31.848C41.746,31.848,40.29,28.583,40.29,24.556C40.29,20.528,41.746,17.264,43.542,17.264C45.339,17.264,46.795,20.528,46.795,24.556ZM46.795,24.556"/>
  <path stroke-dasharray="none" fill="#000000" fill-rule="evenodd" version="1.1" stroke-linejoin="round" stroke-miterlimit="2" stroke-width="5.198849240872107px" stroke="none" fill-opacity="1" xml:space="preserve" stroke-linecap="butt" xmlns:xlink="http://www.w3.org/1999/xlink" stroke-opacity="1" serif:id="3" clip-rule="evenodd" xmlns:serif="http://www.serif.com/" d="M35.109,0C54.487,0,70.219,15.732,70.219,35.109C70.219,54.487,54.487,70.219,35.109,70.219C15.732,70.219,0,54.487,0,35.109C0,15.732,15.732,0,35.109,0ZM35.109,3.702C52.444,3.702,66.517,17.775,66.517,35.109C66.517,52.444,52.444,66.517,35.109,66.517C17.775,66.517,3.702,52.444,3.702,35.109C3.702,17.775,17.775,3.702,35.109,3.702ZM35.109,3.702"/>
  <path stroke-miterlimit="2" stroke-dasharray="none" xmlns:xlink="http://www.w3.org/1999/xlink" fill-opacity="1" fill-rule="evenodd" stroke-linejoin="round" clip-rule="evenodd" xmlns:serif="http://www.serif.com/" stroke-linecap="butt" xml:space="preserve" version="1.1" fill="#000000" stroke="none" serif:id="3" stroke-opacity="1" stroke-width="5.198849240872107px" d="M18.13,44.443C18.13,44.089,18.41,43.797,18.765,43.783C21.253,43.684,30.375,43.321,33.718,43.188C34.543,43.155,35.369,43.155,36.194,43.188C39.536,43.321,48.659,43.684,51.147,43.783C51.502,43.797,51.781,44.089,51.781,44.443C51.781,44.444,51.781,44.444,51.781,44.444C51.781,44.803,51.498,45.098,51.139,45.113C48.89,45.204,41.29,45.514,37.358,45.675C35.757,45.74,34.155,45.74,32.554,45.675C28.622,45.514,21.022,45.204,18.772,45.113C18.414,45.098,18.13,44.803,18.13,44.444C18.13,44.444,18.13,44.444,18.13,44.443ZM18.13,44.443"/>
</g>
  <g id="Thin-M" transform="matrix(1.0,0.0,0.0,1.0,822.48001953125,1055.5400390625)">  <path stroke-dasharray="none" stroke-opacity="1" stroke-linecap="butt" version="1.1" ry="19.767" cx="77.715" fill-rule="evenodd" stroke-miterlimit="2" rx="8.817" fill="#000000" xmlns:serif="http://www.serif.com/" clip-rule="evenodd" stroke="none" xml:space="preserve" stroke-linejoin="round" xmlns:xlink="http://www.w3.org/1999/xlink" serif:id="3" fill-opacity="1" cy="71.391" stroke-width="7.850259765231044px" d="M30.141,24.556C30.141,28.583,28.685,31.848,26.889,31.848C25.092,31.848,23.636,28.583,23.636,24.556C23.636,20.528,25.092,17.264,26.889,17.264C28.685,17.264,30.141,20.528,30.141,24.556ZM30.141,24.556"/>
  <path clip-rule="evenodd" cx="77.715" cy="71.391" fill="#000000" stroke-dasharray="none" stroke="none" serif:id="3" stroke-linejoin="round" fill-rule="evenodd" fill-opacity="1" xml:space="preserve" ry="19.767" xmlns:serif="http://www.serif.com/" stroke-linecap="butt" xmlns:xlink="http://www.w3.org/1999/xlink" rx="8.817" stroke-width="11.853888450973045px" version="1.1" stroke-miterlimit="2" stroke-opacity="1" d="M46.795,24.556C46.795,28.583,45.339,31.848,43.542,31.848C41.746,31.848,40.29,28.583,40.29,24.556C40.29,20.528,41.746,17.264,43.542,17.264C45.339,17.264,46.795,20.528,46.795,24.556ZM46.795,24.556"/>
  <path version="1.1" fill-opacity="1" clip-rule="evenodd" xmlns:xlink="http://www.w3.org/1999/xlink" stroke-opacity="1" stroke-linejoin="round" stroke-miterlimit="2" stroke="none" stroke-dasharray="none" xmlns:serif="http://www.serif.com/" stroke-linecap="butt" serif:id="3" stroke-width="5.198849240872107px" xml:space="preserve" fill="#000000" fill-rule="evenodd" d="M35.109,0C54.487,0,70.219,15.732,70.219,35.109C70.219,54.487,54.487,70.219,35.109,70.219C15.732,70.219,0,54.487,0,35.109C0,15.732,15.732,0,35.109,0ZM35.109,3.702C52.444,3.702,66.517,17.775,66.517,35.109C66.517,52.444,52.444,66.517,35.109,66.517C17.775,66.517,3.702,52.444,3.702,35.109C3.702,17.775,17.775,3.702,35.109,3.702ZM35.109,3.702"/>
  <path stroke-miterlimit="2" stroke-dasharray="none" stroke-linecap="butt" stroke-width="5.198849240872107px" xml:space="preserve" fill="#000000" version="1.1" stroke-opacity="1" stroke="none" xmlns:xlink="http://www.w3.org/1999/xlink" serif:id="3" fill-opacity="1" fill-rule="evenodd" stroke-linejoin="round" xmlns:serif="http://www.serif.com/" clip-rule="evenodd" d="M18.13,44.443C18.13,44.089,18.41,43.797,18.765,43.783C21.253,43.684,30.375,43.321,33.718,43.188C34.543,43.155,35.369,43.155,36.194,43.188C39.536,43.321,48.659,43.684,51.147,43.783C51.502,43.797,51.781,44.089,51.781,44.443C51.781,44.444,51.781,44.444,51.781,44.444C51.781,44.803,51.498,45.098,51.139,45.113C48.89,45.204,41.29,45.514,37.358,45.675C35.757,45.74,34.155,45.74,32.554,45.675C28.622,45.514,21.022,45.204,18.772,45.113C18.414,45.098,18.13,44.803,18.13,44.444C18.13,44.444,18.13,44.444,18.13,44.443ZM18.13,44.443"/>
</g>
  <g id="Ultralight-M" transform="matrix(1.0,0.0,0.0,1.0,525.77001953125,1055.5400390625)">  <path fill-opacity="1" stroke-width="7.850259765231044px" clip-rule="evenodd" version="1.1" fill-rule="evenodd" fill="#000000" stroke-opacity="1" ry="19.767" stroke-linejoin="round" serif:id="3" stroke-dasharray="none" xmlns:serif="http://www.serif.com/" stroke="none" xml:space="preserve" xmlns:xlink="http://www.w3.org/1999/xlink" stroke-miterlimit="2" cx="77.715" rx="8.817" cy="71.391" stroke-linecap="butt" d="M30.141,24.556C30.141,28.583,28.685,31.848,26.889,31.848C25.092,31.848,23.636,28.583,23.636,24.556C23.636,20.528,25.092,17.264,26.889,17.264C28.685,17.264,30.141,20.528,30.141,24.556ZM30.141,24.556"/>
  <path clip-rule="evenodd" stroke-linejoin="round" stroke-opacity="1" stroke-miterlimit="2" fill-rule="evenodd" version="1.1" stroke-linecap="butt" stroke-width="11.853888450973045px" xmlns:serif="http://www.serif.com/" cx="77.715" rx="8.817" fill="#000000" ry="19.767" xmlns:xlink="http://www.w3.org/1999/xlink" stroke="none" xml:space="preserve" cy="71.391" serif:id="3" stroke-dasharray="none" fill-opacity="1" d="M46.795,24.556C46.795,28.583,45.339,31.848,43.542,31.848C41.746,31.848,40.29,28.583,40.29,24.556C40.29,20.528,41.746,17.264,43.542,17.264C45.339,17.264,46.795,20.528,46.795,24.556ZM46.795,24.556"/>
  <path xml:space="preserve" clip-rule="evenodd" xmlns:serif="http://www.serif.com/" stroke="none" serif:id="3" stroke-opacity="1" stroke-width="5.198849240872107px" fill="#000000" stroke-linecap="butt" xmlns:xlink="http://www.w3.org/1999/xlink" stroke-dasharray="none" version="1.1" fill-opacity="1" stroke-linejoin="round" stroke-miterlimit="2" fill-rule="evenodd" d="M35.109,0C54.487,0,70.219,15.732,70.219,35.109C70.219,54.487,54.487,70.219,35.109,70.219C15.732,70.219,0,54.487,0,35.109C0,15.732,15.732,0,35.109,0ZM35.109,3.702C52.444,3.702,66.517,17.775,66.517,35.109C66.517,52.444,52.444,66.517,35.109,66.517C17.775,66.517,3.702,52.444,3.702,35.109C3.702,17.775,17.775,3.702,35.109,3.702ZM35.109,3.702"/>
  <path serif:id="3" xmlns:xlink="http://www.w3.org/1999/xlink" fill-opacity="1" xmlns:serif="http://www.serif.com/" stroke-dasharray="none" xml:space="preserve" clip-rule="evenodd" stroke-miterlimit="2" stroke-linejoin="round" fill-rule="evenodd" stroke-linecap="butt" fill="#000000" stroke="none" stroke-opacity="1" version="1.1" stroke-width="5.198849240872107px" d="M18.13,44.443C18.13,44.089,18.41,43.797,18.765,43.783C21.253,43.684,30.375,43.321,33.718,43.188C34.543,43.155,35.369,43.155,36.194,43.188C39.536,43.321,48.659,43.684,51.147,43.783C51.502,43.797,51.781,44.089,51.781,44.443C51.781,44.444,51.781,44.444,51.781,44.444C51.781,44.803,51.498,45.098,51.139,45.113C48.89,45.204,41.29,45.514,37.358,45.675C35.757,45.74,34.155,45.74,32.554,45.675C28.622,45.514,21.022,45.204,18.772,45.113C18.414,45.098,18.13,44.803,18.13,44.444C18.13,44.444,18.13,44.444,18.13,44.443ZM18.13,44.443"/>
</g>
  <g id="Black-S" transform="matrix(1.0,0.0,0.0,1.0,2907.0949252929686,633.1849448242187)">  <path stroke-linecap="butt" stroke-opacity="1" stroke="none" clip-rule="evenodd" stroke-linejoin="round" stroke-dasharray="none" stroke-width="7.850259765231044px" fill-opacity="1" ry="19.767" fill-rule="evenodd" xmlns:xlink="http://www.w3.org/1999/xlink" cx="77.715" xmlns:serif="http://www.serif.com/" version="1.1" rx="8.817" fill="#000000" serif:id="3" cy="71.391" xml:space="preserve" stroke-miterlimit="2" d="M23.6,19.227C23.6,22.38,22.46,24.937,21.054,24.937C19.647,24.937,18.507,22.38,18.507,19.227C18.507,16.074,19.647,13.517,21.054,13.517C22.46,13.517,23.6,16.074,23.6,19.227ZM23.6,19.227"/>
  <path stroke="none" serif:id="3" stroke-linecap="butt" xml:space="preserve" stroke-opacity="1" rx="8.817" ry="19.767" stroke-width="11.853888450973045px" fill-rule="evenodd" fill-opacity="1" xmlns:xlink="http://www.w3.org/1999/xlink" xmlns:serif="http://www.serif.com/" clip-rule="evenodd" cx="77.715" version="1.1" fill="#000000" stroke-miterlimit="2" stroke-linejoin="round" cy="71.391" stroke-dasharray="none" d="M36.641,19.227C36.641,22.38,35.5,24.937,34.094,24.937C32.687,24.937,31.547,22.38,31.547,19.227C31.547,16.074,32.687,13.517,34.094,13.517C35.5,13.517,36.641,16.074,36.641,19.227ZM36.641,19.227"/>
  <path stroke-linejoin="round" stroke-width="5.198849240872107px" fill="#000000" fill-rule="evenodd" stroke-opacity="1" stroke-linecap="butt" xmlns:xlink="http://www.w3.org/1999/xlink" stroke-dasharray="none" xml:space="preserve" version="1.1" xmlns:serif="http://www.serif.com/" clip-rule="evenodd" fill-opacity="1" serif:id="3" stroke-miterlimit="2" stroke="none" d="M27.491,0C42.663,0,54.981,12.318,54.981,27.491C54.981,42.663,42.663,54.981,27.491,54.981C12.318,54.981,0,42.663,0,27.491C0,12.318,12.318,0,27.491,0ZM27.491,2.898C41.063,2.898,52.083,13.918,52.083,27.491C52.083,41.063,41.063,52.083,27.491,52.083C13.918,52.083,2.898,41.063,2.898,27.491C2.898,13.918,13.918,2.898,27.491,2.898ZM27.491,2.898"/>
  <path stroke-linejoin="round" stroke-width="5.198849240872107px" fill-rule="evenodd" clip-rule="evenodd" version="1.1" stroke-opacity="1" serif:id="3" xmlns:xlink="http://www.w3.org/1999/xlink" xml:space="preserve" stroke-dasharray="none" stroke="none" fill="#000000" stroke-miterlimit="2" fill-opacity="1" xmlns:serif="http://www.serif.com/" stroke-linecap="butt" d="M14.196,34.799C14.196,34.522,14.415,34.293,14.693,34.282C16.641,34.205,23.784,33.92,26.401,33.816C27.047,33.79,27.694,33.79,28.34,33.816C30.957,33.92,38.1,34.205,40.048,34.282C40.326,34.293,40.545,34.522,40.545,34.799C40.545,34.799,40.545,34.799,40.545,34.8C40.545,35.081,40.323,35.312,40.042,35.323C38.281,35.395,32.33,35.638,29.251,35.763C27.998,35.814,26.743,35.814,25.49,35.763C22.411,35.638,16.46,35.395,14.699,35.323C14.418,35.312,14.196,35.081,14.196,34.8C14.196,34.799,14.196,34.799,14.196,34.799ZM14.196,34.799"/>
</g>
  <g id="Heavy-S" transform="matrix(1.0,0.0,0.0,1.0,2610.3849252929685,633.1849448242187)">  <path xmlns:serif="http://www.serif.com/" cx="77.715" stroke-linejoin="round" stroke-width="7.850259765231044px" fill-rule="evenodd" fill="#000000" xmlns:xlink="http://www.w3.org/1999/xlink" xml:space="preserve" clip-rule="evenodd" serif:id="3" fill-opacity="1" stroke-miterlimit="2" stroke-dasharray="none" rx="8.817" stroke-linecap="butt" stroke="none" ry="19.767" version="1.1" stroke-opacity="1" cy="71.391" d="M23.6,19.227C23.6,22.38,22.46,24.937,21.054,24.937C19.647,24.937,18.507,22.38,18.507,19.227C18.507,16.074,19.647,13.517,21.054,13.517C22.46,13.517,23.6,16.074,23.6,19.227ZM23.6,19.227"/>
  <path ry="19.767" stroke-linecap="butt" fill-opacity="1" fill="#000000" rx="8.817" version="1.1" clip-rule="evenodd" serif:id="3" xmlns:xlink="http://www.w3.org/1999/xlink" xmlns:serif="http://www.serif.com/" xml:space="preserve" cx="77.715" stroke-miterlimit="2" stroke-dasharray="none" fill-rule="evenodd" stroke-opacity="1" stroke="none" cy="71.391" stroke-linejoin="round" stroke-width="11.853888450973045px" d="M36.641,19.227C36.641,22.38,35.5,24.937,34.094,24.937C32.687,24.937,31.547,22.38,31.547,19.227C31.547,16.074,32.687,13.517,34.094,13.517C35.5,13.517,36.641,16.074,36.641,19.227ZM36.641,19.227"/>
  <path xmlns:serif="http://www.serif.com/" stroke-linejoin="round" stroke-miterlimit="2" serif:id="3" stroke="none" xmlns:xlink="http://www.w3.org/1999/xlink" xml:space="preserve" clip-rule="evenodd" stroke-opacity="1" fill-rule="evenodd" fill="#000000" stroke-width="5.198849240872107px" fill-opacity="1" stroke-dasharray="none" version="1.1" stroke-linecap="butt" d="M27.491,0C42.663,0,54.981,12.318,54.981,27.491C54.981,42.663,42.663,54.981,27.491,54.981C12.318,54.981,0,42.663,0,27.491C0,12.318,12.318,0,27.491,0ZM27.491,2.898C41.063,2.898,52.083,13.918,52.083,27.491C52.083,41.063,41.063,52.083,27.491,52.083C13.918,52.083,2.898,41.063,2.898,27.491C2.898,13.918,13.918,2.898,27.491,2.898ZM27.491,2.898"/>
  <path serif:id="3" stroke-linejoin="round" fill-rule="evenodd" version="1.1" stroke-width="5.198849240872107px" stroke-opacity="1" stroke-linecap="butt" stroke-miterlimit="2" stroke-dasharray="none" xmlns:xlink="http://www.w3.org/1999/xlink" stroke="none" fill-opacity="1" xml:space="preserve" fill="#000000" clip-rule="evenodd" xmlns:serif="http://www.serif.com/" d="M14.196,34.799C14.196,34.522,14.415,34.293,14.693,34.282C16.641,34.205,23.784,33.92,26.401,33.816C27.047,33.79,27.694,33.79,28.34,33.816C30.957,33.92,38.1,34.205,40.048,34.282C40.326,34.293,40.545,34.522,40.545,34.799C40.545,34.799,40.545,34.799,40.545,34.8C40.545,35.081,40.323,35.312,40.042,35.323C38.281,35.395,32.33,35.638,29.251,35.763C27.998,35.814,26.743,35.814,25.49,35.763C22.411,35.638,16.46,35.395,14.699,35.323C14.418,35.312,14.196,35.081,14.196,34.8C14.196,34.799,14.196,34.799,14.196,34.799ZM14.196,34.799"/>
</g>
  <g id="Bold-S" transform="matrix(1.0,0.0,0.0,1.0,2313.6749252929685,633.1849448242187)">  <path stroke-width="7.850259765231044px" cy="71.391" clip-rule="evenodd" xmlns:serif="http://www.serif.com/" version="1.1" fill="#000000" stroke-linejoin="round" xmlns:xlink="http://www.w3.org/1999/xlink" serif:id="3" stroke-miterlimit="2" cx="77.715" stroke="none" fill-opacity="1" fill-rule="evenodd" xml:space="preserve" ry="19.767" stroke-dasharray="none" stroke-linecap="butt" rx="8.817" stroke-opacity="1" d="M23.6,19.227C23.6,22.38,22.46,24.937,21.054,24.937C19.647,24.937,18.507,22.38,18.507,19.227C18.507,16.074,19.647,13.517,21.054,13.517C22.46,13.517,23.6,16.074,23.6,19.227ZM23.6,19.227"/>
  <path xmlns:xlink="http://www.w3.org/1999/xlink" fill="#000000" cx="77.715" serif:id="3" xmlns:serif="http://www.serif.com/" stroke-width="11.853888450973045px" xml:space="preserve" stroke-miterlimit="2" stroke="none" stroke-linecap="butt" fill-rule="evenodd" cy="71.391" version="1.1" stroke-linejoin="round" rx="8.817" fill-opacity="1" stroke-dasharray="none" stroke-opacity="1" ry="19.767" clip-rule="evenodd" d="M36.641,19.227C36.641,22.38,35.5,24.937,34.094,24.937C32.687,24.937,31.547,22.38,31.547,19.227C31.547,16.074,32.687,13.517,34.094,13.517C35.5,13.517,36.641,16.074,36.641,19.227ZM36.641,19.227"/>
  <path stroke-linejoin="round" stroke-linecap="butt" xmlns:xlink="http://www.w3.org/1999/xlink" stroke-dasharray="none" version="1.1" fill-opacity="1" xmlns:serif="http://www.serif.com/" clip-rule="evenodd" stroke-width="5.198849240872107px" fill="#000000" xml:space="preserve" stroke-opacity="1" serif:id="3" stroke="none" stroke-miterlimit="2" fill-rule="evenodd" d="M27.491,0C42.663,0,54.981,12.318,54.981,27.491C54.981,42.663,42.663,54.981,27.491,54.981C12.318,54.981,0,42.663,0,27.491C0,12.318,12.318,0,27.491,0ZM27.491,2.898C41.063,2.898,52.083,13.918,52.083,27.491C52.083,41.063,41.063,52.083,27.491,52.083C13.918,52.083,2.898,41.063,2.898,27.491C2.898,13.918,13.918,2.898,27.491,2.898ZM27.491,2.898"/>
  <path version="1.1" fill-rule="evenodd" fill-opacity="1" stroke-dasharray="none" stroke-linejoin="round" xmlns:serif="http://www.serif.com/" stroke-linecap="butt" xml:space="preserve" fill="#000000" clip-rule="evenodd" stroke-miterlimit="2" serif:id="3" stroke-width="5.198849240872107px" stroke="none" stroke-opacity="1" xmlns:xlink="http://www.w3.org/1999/xlink" d="M14.196,34.799C14.196,34.522,14.415,34.293,14.693,34.282C16.641,34.205,23.784,33.92,26.401,33.816C27.047,33.79,27.694,33.79,28.34,33.816C30.957,33.92,38.1,34.205,40.048,34.282C40.326,34.293,40.545,34.522,40.545,34.799C40.545,34.799,40.545,34.799,40.545,34.8C40.545,35.081,40.323,35.312,40.042,35.323C38.281,35.395,32.33,35.638,29.251,35.763C27.998,35.814,26.743,35.814,25.49,35.763C22.411,35.638,16.46,35.395,14.699,35.323C14.418,35.312,14.196,35.081,14.196,34.8C14.196,34.799,14.196,34.799,14.196,34.799ZM14.196,34.799"/>
</g>
  <g id="Semibold-S" transform="matrix(1.0,0.0,0.0,1.0,2016.9649252929687,633.1849448242187)">  <path rx="8.817" ry="19.767" stroke-linecap="butt" stroke-width="7.850259765231044px" stroke="none" version="1.1" cx="77.715" stroke-dasharray="none" cy="71.391" clip-rule="evenodd" xmlns:xlink="http://www.w3.org/1999/xlink" stroke-miterlimit="2" fill-opacity="1" fill-rule="evenodd" fill="#000000" xml:space="preserve" xmlns:serif="http://www.serif.com/" serif:id="3" stroke-linejoin="round" stroke-opacity="1" d="M23.6,19.227C23.6,22.38,22.46,24.937,21.054,24.937C19.647,24.937,18.507,22.38,18.507,19.227C18.507,16.074,19.647,13.517,21.054,13.517C22.46,13.517,23.6,16.074,23.6,19.227ZM23.6,19.227"/>
  <path stroke-opacity="1" stroke-width="11.853888450973045px" version="1.1" cx="77.715" stroke-miterlimit="2" xml:space="preserve" serif:id="3" xmlns:xlink="http://www.w3.org/1999/xlink" fill-opacity="1" stroke-linecap="butt" ry="19.767" fill-rule="evenodd" clip-rule="evenodd" stroke="none" stroke-linejoin="round" fill="#000000" stroke-dasharray="none" rx="8.817" cy="71.391" xmlns:serif="http://www.serif.com/" d="M36.641,19.227C36.641,22.38,35.5,24.937,34.094,24.937C32.687,24.937,31.547,22.38,31.547,19.227C31.547,16.074,32.687,13.517,34.094,13.517C35.5,13.517,36.641,16.074,36.641,19.227ZM36.641,19.227"/>
  <path stroke-linecap="butt" version="1.1" stroke-width="5.198849240872107px" xmlns:xlink="http://www.w3.org/1999/xlink" stroke-miterlimit="2" fill="#000000" stroke-opacity="1" fill-rule="evenodd" stroke="none" stroke-linejoin="round" xml:space="preserve" xmlns:serif="http://www.serif.com/" stroke-dasharray="none" fill-opacity="1" serif:id="3" clip-rule="evenodd" d="M27.491,0C42.663,0,54.981,12.318,54.981,27.491C54.981,42.663,42.663,54.981,27.491,54.981C12.318,54.981,0,42.663,0,27.491C0,12.318,12.318,0,27.491,0ZM27.491,2.898C41.063,2.898,52.083,13.918,52.083,27.491C52.083,41.063,41.063,52.083,27.491,52.083C13.918,52.083,2.898,41.063,2.898,27.491C2.898,13.918,13.918,2.898,27.491,2.898ZM27.491,2.898"/>
  <path stroke-dasharray="none" xmlns:xlink="http://www.w3.org/1999/xlink" fill="#000000" stroke-width="5.198849240872107px" stroke-miterlimit="2" stroke-linecap="butt" version="1.1" clip-rule="evenodd" xml:space="preserve" serif:id="3" stroke-opacity="1" xmlns:serif="http://www.serif.com/" fill-rule="evenodd" fill-opacity="1" stroke-linejoin="round" stroke="none" d="M14.196,34.799C14.196,34.522,14.415,34.293,14.693,34.282C16.641,34.205,23.784,33.92,26.401,33.816C27.047,33.79,27.694,33.79,28.34,33.816C30.957,33.92,38.1,34.205,40.048,34.282C40.326,34.293,40.545,34.522,40.545,34.799C40.545,34.799,40.545,34.799,40.545,34.8C40.545,35.081,40.323,35.312,40.042,35.323C38.281,35.395,32.33,35.638,29.251,35.763C27.998,35.814,26.743,35.814,25.49,35.763C22.411,35.638,16.46,35.395,14.699,35.323C14.418,35.312,14.196,35.081,14.196,34.8C14.196,34.799,14.196,34.799,14.196,34.799ZM14.196,34.799"/>
</g>
  <g id="Medium-S" transform="matrix(1.0,0.0,0.0,1.0,1720.2549252929687,633.1849448242187)">  <path fill-rule="evenodd" version="1.1" rx="8.817" cy="71.391" ry="19.767" stroke-linecap="butt" xmlns:xlink="http://www.w3.org/1999/xlink" cx="77.715" fill-opacity="1" stroke-linejoin="round" stroke="none" xml:space="preserve" serif:id="3" stroke-miterlimit="2" stroke-opacity="1" xmlns:serif="http://www.serif.com/" stroke-width="7.850259765231044px" fill="#000000" clip-rule="evenodd" stroke-dasharray="none" d="M23.6,19.227C23.6,22.38,22.46,24.937,21.054,24.937C19.647,24.937,18.507,22.38,18.507,19.227C18.507,16.074,19.647,13.517,21.054,13.517C22.46,13.517,23.6,16.074,23.6,19.227ZM23.6,19.227"/>
  <path stroke-opacity="1" fill-opacity="1" serif:id="3" stroke-linejoin="round" stroke-dasharray="none" cy="71.391" ry="19.767" clip-rule="evenodd" stroke-linecap="butt" stroke-width="11.853888450973045px" stroke="none" rx="8.817" xml:space="preserve" cx="77.715" xmlns:xlink="http://www.w3.org/1999/xlink" fill-rule="evenodd" version="1.1" stroke-miterlimit="2" fill="#000000" xmlns:serif="http://www.serif.com/" d="M36.641,19.227C36.641,22.38,35.5,24.937,34.094,24.937C32.687,24.937,31.547,22.38,31.547,19.227C31.547,16.074,32.687,13.517,34.094,13.517C35.5,13.517,36.641,16.074,36.641,19.227ZM36.641,19.227"/>
  <path clip-rule="evenodd" fill="#000000" xmlns:xlink="http://www.w3.org/1999/xlink" stroke-opacity="1" stroke-width="5.198849240872107px" stroke-linecap="butt" fill-opacity="1" xml:space="preserve" stroke-dasharray="none" fill-rule="evenodd" xmlns:serif="http://www.serif.com/" version="1.1" stroke-miterlimit="2" stroke="none" serif:id="3" stroke-linejoin="round" d="M27.491,0C42.663,0,54.981,12.318,54.981,27.491C54.981,42.663,42.663,54.981,27.491,54.981C12.318,54.981,0,42.663,0,27.491C0,12.318,12.318,0,27.491,0ZM27.491,2.898C41.063,2.898,52.083,13.918,52.083,27.491C52.083,41.063,41.063,52.083,27.491,52.083C13.918,52.083,2.898,41.063,2.898,27.491C2.898,13.918,13.918,2.898,27.491,2.898ZM27.491,2.898"/>
  <path stroke="none" serif:id="3" xmlns:xlink="http://www.w3.org/1999/xlink" fill="#000000" version="1.1" stroke-dasharray="none" fill-rule="evenodd" stroke-linecap="butt" stroke-opacity="1" clip-rule="evenodd" stroke-miterlimit="2" xml:space="preserve" xmlns:serif="http://www.serif.com/" stroke-linejoin="round" fill-opacity="1" stroke-width="5.198849240872107px" d="M14.196,34.799C14.196,34.522,14.415,34.293,14.693,34.282C16.641,34.205,23.784,33.92,26.401,33.816C27.047,33.79,27.694,33.79,28.34,33.816C30.957,33.92,38.1,34.205,40.048,34.282C40.326,34.293,40.545,34.522,40.545,34.799C40.545,34.799,40.545,34.799,40.545,34.8C40.545,35.081,40.323,35.312,40.042,35.323C38.281,35.395,32.33,35.638,29.251,35.763C27.998,35.814,26.743,35.814,25.49,35.763C22.411,35.638,16.46,35.395,14.699,35.323C14.418,35.312,14.196,35.081,14.196,34.8C14.196,34.799,14.196,34.799,14.196,34.799ZM14.196,34.799"/>
</g>
  <g id="Regular-S" transform="matrix(1.0,0.0,0.0,1.0,1423.5449252929686,633.1849448242187)">  <path stroke-dasharray="none" xml:space="preserve" version="1.1" fill-opacity="1" stroke-width="7.850259765231044px" stroke-miterlimit="2" stroke-opacity="1" stroke-linecap="butt" stroke="none" cx="77.715" ry="19.767" cy="71.391" clip-rule="evenodd" rx="8.817" xmlns:serif="http://www.serif.com/" fill-rule="evenodd" serif:id="3" stroke-linejoin="round" xmlns:xlink="http://www.w3.org/1999/xlink" fill="#000000" d="M23.6,19.227C23.6,22.38,22.46,24.937,21.054,24.937C19.647,24.937,18.507,22.38,18.507,19.227C18.507,16.074,19.647,13.517,21.054,13.517C22.46,13.517,23.6,16.074,23.6,19.227ZM23.6,19.227"/>
  <path xmlns:xlink="http://www.w3.org/1999/xlink" cy="71.391" stroke-linecap="butt" cx="77.715" stroke="none" rx="8.817" fill="#000000" version="1.1" stroke-miterlimit="2" clip-rule="evenodd" stroke-linejoin="round" fill-rule="evenodd" stroke-dasharray="none" xmlns:serif="http://www.serif.com/" xml:space="preserve" fill-opacity="1" stroke-opacity="1" stroke-width="11.853888450973045px" ry="19.767" serif:id="3" d="M36.641,19.227C36.641,22.38,35.5,24.937,34.094,24.937C32.687,24.937,31.547,22.38,31.547,19.227C31.547,16.074,32.687,13.517,34.094,13.517C35.5,13.517,36.641,16.074,36.641,19.227ZM36.641,19.227"/>
  <path stroke-miterlimit="2" fill-rule="evenodd" stroke-linejoin="round" xmlns:serif="http://www.serif.com/" xml:space="preserve" stroke-width="5.198849240872107px" stroke-dasharray="none" clip-rule="evenodd" xmlns:xlink="http://www.w3.org/1999/xlink" stroke-opacity="1" stroke="none" fill-opacity="1" version="1.1" stroke-linecap="butt" fill="#000000" serif:id="3" d="M27.491,0C42.663,0,54.981,12.318,54.981,27.491C54.981,42.663,42.663,54.981,27.491,54.981C12.318,54.981,0,42.663,0,27.491C0,12.318,12.318,0,27.491,0ZM27.491,2.898C41.063,2.898,52.083,13.918,52.083,27.491C52.083,41.063,41.063,52.083,27.491,52.083C13.918,52.083,2.898,41.063,2.898,27.491C2.898,13.918,13.918,2.898,27.491,2.898ZM27.491,2.898"/>
  <path xml:space="preserve" xmlns:xlink="http://www.w3.org/1999/xlink" clip-rule="evenodd" stroke-dasharray="none" stroke-width="5.198849240872107px" stroke="none" serif:id="3" fill="#000000" version="1.1" xmlns:serif="http://www.serif.com/" fill-opacity="1" stroke-linejoin="round" stroke-opacity="1" fill-rule="evenodd" stroke-linecap="butt" stroke-miterlimit="2" d="M14.196,34.799C14.196,34.522,14.415,34.293,14.693,34.282C16.641,34.205,23.784,33.92,26.401,33.816C27.047,33.79,27.694,33.79,28.34,33.816C30.957,33.92,38.1,34.205,40.048,34.282C40.326,34.293,40.545,34.522,40.545,34.799C40.545,34.799,40.545,34.799,40.545,34.8C40.545,35.081,40.323,35.312,40.042,35.323C38.281,35.395,32.33,35.638,29.251,35.763C27.998,35.814,26.743,35.814,25.49,35.763C22.411,35.638,16.46,35.395,14.699,35.323C14.418,35.312,14.196,35.081,14.196,34.8C14.196,34.799,14.196,34.799,14.196,34.799ZM14.196,34.799"/>
</g>
  <g id="Light-S" transform="matrix(1.0,0.0,0.0,1.0,1126.8349252929688,633.1849448242187)">  <path fill="#000000" serif:id="3" xmlns:xlink="http://www.w3.org/1999/xlink" rx="8.817" stroke-linecap="butt" ry="19.767" stroke-opacity="1" clip-rule="evenodd" xml:space="preserve" xmlns:serif="http://www.serif.com/" version="1.1" stroke-linejoin="round" cy="71.391" stroke-width="7.850259765231044px" fill-opacity="1" stroke-dasharray="none" stroke-miterlimit="2" fill-rule="evenodd" cx="77.715" stroke="none" d="M23.6,19.227C23.6,22.38,22.46,24.937,21.054,24.937C19.647,24.937,18.507,22.38,18.507,19.227C18.507,16.074,19.647,13.517,21.054,13.517C22.46,13.517,23.6,16.074,23.6,19.227ZM23.6,19.227"/>
  <path clip-rule="evenodd" version="1.1" xmlns:xlink="http://www.w3.org/1999/xlink" xml:space="preserve" stroke-miterlimit="2" rx="8.817" fill-opacity="1" stroke-linecap="butt" stroke="none" ry="19.767" stroke-linejoin="round" fill-rule="evenodd" stroke-width="11.853888450973045px" cx="77.715" cy="71.391" fill="#000000" xmlns:serif="http://www.serif.com/" stroke-dasharray="none" serif:id="3" stroke-opacity="1" d="M36.641,19.227C36.641,22.38,35.5,24.937,34.094,24.937C32.687,24.937,31.547,22.38,31.547,19.227C31.547,16.074,32.687,13.517,34.094,13.517C35.5,13.517,36.641,16.074,36.641,19.227ZM36.641,19.227"/>
  <path stroke-dasharray="none" fill="#000000" fill-rule="evenodd" version="1.1" stroke-linejoin="round" stroke-miterlimit="2" stroke-width="5.198849240872107px" stroke="none" fill-opacity="1" xml:space="preserve" stroke-linecap="butt" xmlns:xlink="http://www.w3.org/1999/xlink" stroke-opacity="1" serif:id="3" clip-rule="evenodd" xmlns:serif="http://www.serif.com/" d="M27.491,0C42.663,0,54.981,12.318,54.981,27.491C54.981,42.663,42.663,54.981,27.491,54.981C12.318,54.981,0,42.663,0,27.491C0,12.318,12.318,0,27.491,0ZM27.491,2.898C41.063,2.898,52.083,13.918,52.083,27.491C52.083,41.063,41.063,52.083,27.491,52.083C13.918,52.083,2.898,41.063,2.898,27.491C2.898,13.918,13.918,2.898,27.491,2.898ZM27.491,2.898"/>
  <path stroke-miterlimit="2" stroke-dasharray="none" xmlns:xlink="http://www.w3.org/1999/xlink" fill-opacity="1" fill-rule="evenodd" stroke-linejoin="round" clip-rule="evenodd" xmlns:serif="http://www.serif.com/" stroke-linecap="butt" xml:space="preserve" version="1.1" fill="#000000" stroke="none" serif:id="3" stroke-opacity="1" stroke-width="5.198849240872107px" d="M14.196,34.799C14.196,34.522,14.415,34.293,14.693,34.282C16.641,34.205,23.784,33.92,26.401,33.816C27.047,33.79,27.694,33.79,28.34,33.816C30.957,33.92,38.1,34.205,40.048,34.282C40.326,34.293,40.545,34.522,40.545,34.799C40.545,34.799,40.545,34.799,40.545,34.8C40.545,35.081,40.323,35.312,40.042,35.323C38.281,35.395,32.33,35.638,29.251,35.763C27.998,35.814,26.743,35.814,25.49,35.763C22.411,35.638,16.46,35.395,14.699,35.323C14.418,35.312,14.196,35.081,14.196,34.8C14.196,34.799,14.196,34.799,14.196,34.799ZM14.196,34.799"/>
</g>
  <g id="Thin-S" transform="matrix(1.0,0.0,0.0,1.0,830.1249252929688,633.1849448242187)">  <path stroke-dasharray="none" stroke-opacity="1" stroke-linecap="butt" version="1.1" ry="19.767" cx="77.715" fill-rule="evenodd" stroke-miterlimit="2" rx="8.817" fill="#000000" xmlns:serif="http://www.serif.com/" clip-rule="evenodd" stroke="none" xml:space="preserve" stroke-linejoin="round" xmlns:xlink="http://www.w3.org/1999/xlink" serif:id="3" fill-opacity="1" cy="71.391" stroke-width="7.850259765231044px" d="M23.6,19.227C23.6,22.38,22.46,24.937,21.054,24.937C19.647,24.937,18.507,22.38,18.507,19.227C18.507,16.074,19.647,13.517,21.054,13.517C22.46,13.517,23.6,16.074,23.6,19.227ZM23.6,19.227"/>
  <path clip-rule="evenodd" cx="77.715" cy="71.391" fill="#000000" stroke-dasharray="none" stroke="none" serif:id="3" stroke-linejoin="round" fill-rule="evenodd" fill-opacity="1" xml:space="preserve" ry="19.767" xmlns:serif="http://www.serif.com/" stroke-linecap="butt" xmlns:xlink="http://www.w3.org/1999/xlink" rx="8.817" stroke-width="11.853888450973045px" version="1.1" stroke-miterlimit="2" stroke-opacity="1" d="M36.641,19.227C36.641,22.38,35.5,24.937,34.094,24.937C32.687,24.937,31.547,22.38,31.547,19.227C31.547,16.074,32.687,13.517,34.094,13.517C35.5,13.517,36.641,16.074,36.641,19.227ZM36.641,19.227"/>
  <path version="1.1" fill-opacity="1" clip-rule="evenodd" xmlns:xlink="http://www.w3.org/1999/xlink" stroke-opacity="1" stroke-linejoin="round" stroke-miterlimit="2" stroke="none" stroke-dasharray="none" xmlns:serif="http://www.serif.com/" stroke-linecap="butt" serif:id="3" stroke-width="5.198849240872107px" xml:space="preserve" fill="#000000" fill-rule="evenodd" d="M27.491,0C42.663,0,54.981,12.318,54.981,27.491C54.981,42.663,42.663,54.981,27.491,54.981C12.318,54.981,0,42.663,0,27.491C0,12.318,12.318,0,27.491,0ZM27.491,2.898C41.063,2.898,52.083,13.918,52.083,27.491C52.083,41.063,41.063,52.083,27.491,52.083C13.918,52.083,2.898,41.063,2.898,27.491C2.898,13.918,13.918,2.898,27.491,2.898ZM27.491,2.898"/>
  <path stroke-miterlimit="2" stroke-dasharray="none" stroke-linecap="butt" stroke-width="5.198849240872107px" xml:space="preserve" fill="#000000" version="1.1" stroke-opacity="1" stroke="none" xmlns:xlink="http://www.w3.org/1999/xlink" serif:id="3" fill-opacity="1" fill-rule="evenodd" stroke-linejoin="round" xmlns:serif="http://www.serif.com/" clip-rule="evenodd" d="M14.196,34.799C14.196,34.522,14.415,34.293,14.693,34.282C16.641,34.205,23.784,33.92,26.401,33.816C27.047,33.79,27.694,33.79,28.34,33.816C30.957,33.92,38.1,34.205,40.048,34.282C40.326,34.293,40.545,34.522,40.545,34.799C40.545,34.799,40.545,34.799,40.545,34.8C40.545,35.081,40.323,35.312,40.042,35.323C38.281,35.395,32.33,35.638,29.251,35.763C27.998,35.814,26.743,35.814,25.49,35.763C22.411,35.638,16.46,35.395,14.699,35.323C14.418,35.312,14.196,35.081,14.196,34.8C14.196,34.799,14.196,34.799,14.196,34.799ZM14.196,34.799"/>
</g>
  <g id="Ultralight-S" transform="matrix(1.0,0.0,0.0,1.0,533.4149252929687,633.1849448242187)">  <path fill-opacity="1" stroke-width="7.850259765231044px" clip-rule="evenodd" version="1.1" fill-rule="evenodd" fill="#000000" stroke-opacity="1" ry="19.767" stroke-linejoin="round" serif:id="3" stroke-dasharray="none" xmlns:serif="http://www.serif.com/" stroke="none" xml:space="preserve" xmlns:xlink="http://www.w3.org/1999/xlink" stroke-miterlimit="2" cx="77.715" rx="8.817" cy="71.391" stroke-linecap="butt" d="M23.6,19.227C23.6,22.38,22.46,24.937,21.054,24.937C19.647,24.937,18.507,22.38,18.507,19.227C18.507,16.074,19.647,13.517,21.054,13.517C22.46,13.517,23.6,16.074,23.6,19.227ZM23.6,19.227"/>
  <path clip-rule="evenodd" stroke-linejoin="round" stroke-opacity="1" stroke-miterlimit="2" fill-rule="evenodd" version="1.1" stroke-linecap="butt" stroke-width="11.853888450973045px" xmlns:serif="http://www.serif.com/" cx="77.715" rx="8.817" fill="#000000" ry="19.767" xmlns:xlink="http://www.w3.org/1999/xlink" stroke="none" xml:space="preserve" cy="71.391" serif:id="3" stroke-dasharray="none" fill-opacity="1" d="M36.641,19.227C36.641,22.38,35.5,24.937,34.094,24.937C32.687,24.937,31.547,22.38,31.547,19.227C31.547,16.074,32.687,13.517,34.094,13.517C35.5,13.517,36.641,16.074,36.641,19.227ZM36.641,19.227"/>
  <path xml:space="preserve" clip-rule="evenodd" xmlns:serif="http://www.serif.com/" stroke="none" serif:id="3" stroke-opacity="1" stroke-width="5.198849240872107px" fill="#000000" stroke-linecap="butt" xmlns:xlink="http://www.w3.org/1999/xlink" stroke-dasharray="none" version="1.1" fill-opacity="1" stroke-linejoin="round" stroke-miterlimit="2" fill-rule="evenodd" d="M27.491,0C42.663,0,54.981,12.318,54.981,27.491C54.981,42.663,42.663,54.981,27.491,54.981C12.318,54.981,0,42.663,0,27.491C0,12.318,12.318,0,27.491,0ZM27.491,2.898C41.063,2.898,52.083,13.918,52.083,27.491C52.083,41.063,41.063,52.083,27.491,52.083C13.918,52.083,2.898,41.063,2.898,27.491C2.898,13.918,13.918,2.898,27.491,2.898ZM27.491,2.898"/>
  <path serif:id="3" xmlns:xlink="http://www.w3.org/1999/xlink" fill-opacity="1" xmlns:serif="http://www.serif.com/" stroke-dasharray="none" xml:space="preserve" clip-rule="evenodd" stroke-miterlimit="2" stroke-linejoin="round" fill-rule="evenodd" stroke-linecap="butt" fill="#000000" stroke="none" stroke-opacity="1" version="1.1" stroke-width="5.198849240872107px" d="M14.196,34.799C14.196,34.522,14.415,34.293,14.693,34.282C16.641,34.205,23.784,33.92,26.401,33.816C27.047,33.79,27.694,33.79,28.34,33.816C30.957,33.92,38.1,34.205,40.048,34.282C40.326,34.293,40.545,34.522,40.545,34.799C40.545,34.799,40.545,34.799,40.545,34.8C40.545,35.081,40.323,35.312,40.042,35.323C38.281,35.395,32.33,35.638,29.251,35.763C27.998,35.814,26.743,35.814,25.49,35.763C22.411,35.638,16.46,35.395,14.699,35.323C14.418,35.312,14.196,35.081,14.196,34.8C14.196,34.799,14.196,34.799,14.196,34.799ZM14.196,34.799"/>
</g>
 </g>
</svg>
