<?xml version="1.0" encoding="UTF-8"?>
<!--Generator: Apple Native CoreSVG 232.5-->
<!DOCTYPE svg
PUBLIC "-//W3C//DTD SVG 1.1//EN"
       "http://www.w3.org/Graphics/SVG/1.1/DTD/svg11.dtd">
<svg version="1.1" xmlns="http://www.w3.org/2000/svg" xmlns:xlink="http://www.w3.org/1999/xlink" width="3300" height="2200">
 <!--glyph: "", point size: 100.0, font version: "19.0d6e1", template writer version: "123"-->
 <style>.monochrome-0 {}

.multicolor-0:tintColor {}

.hierarchical-0:primary {}

.SFSymbolsPreview007AFF {fill:#007AFF;opacity:1.0}
</style>
 <g id="Notes">
  <rect height="2200" id="artboard" style="fill:white;opacity:1" width="3300" x="0" y="0"/>
  <line style="fill:none;stroke:black;opacity:1;stroke-width:0.5;" x1="263" x2="3036" y1="292" y2="292"/>
  <text style="stroke:none;fill:black;font-family:sans-serif;font-size:13;font-weight:bold;" transform="matrix(1 0 0 1 263 322)">Weight/Scale Variations</text>
  <text style="stroke:none;fill:black;font-family:sans-serif;font-size:13;text-anchor:middle;" transform="matrix(1 0 0 1 559.711 322)">Ultralight</text>
  <text style="stroke:none;fill:black;font-family:sans-serif;font-size:13;text-anchor:middle;" transform="matrix(1 0 0 1 856.422 322)">Thin</text>
  <text style="stroke:none;fill:black;font-family:sans-serif;font-size:13;text-anchor:middle;" transform="matrix(1 0 0 1 1153.13 322)">Light</text>
  <text style="stroke:none;fill:black;font-family:sans-serif;font-size:13;text-anchor:middle;" transform="matrix(1 0 0 1 1449.84 322)">Regular</text>
  <text style="stroke:none;fill:black;font-family:sans-serif;font-size:13;text-anchor:middle;" transform="matrix(1 0 0 1 1746.56 322)">Medium</text>
  <text style="stroke:none;fill:black;font-family:sans-serif;font-size:13;text-anchor:middle;" transform="matrix(1 0 0 1 2043.27 322)">Semibold</text>
  <text style="stroke:none;fill:black;font-family:sans-serif;font-size:13;text-anchor:middle;" transform="matrix(1 0 0 1 2339.98 322)">Bold</text>
  <text style="stroke:none;fill:black;font-family:sans-serif;font-size:13;text-anchor:middle;" transform="matrix(1 0 0 1 2636.69 322)">Heavy</text>
  <text style="stroke:none;fill:black;font-family:sans-serif;font-size:13;text-anchor:middle;" transform="matrix(1 0 0 1 2933.4 322)">Black</text>
  <line style="fill:none;stroke:black;opacity:1;stroke-width:0.5;" x1="263" x2="3036" y1="1903" y2="1903"/>
  <g transform="matrix(0.2 0 0 0.2 263 1933)">
   <path d="m46.2402 4.15039c21.5332 0 39.4531-17.8711 39.4531-39.4043s-17.9688-39.4043-39.502-39.4043c-21.4844 0-39.3555 17.8711-39.3555 39.4043s17.9199 39.4043 39.4043 39.4043Zm0-7.42188c-17.7246 0-31.8848-14.209-31.8848-31.9824s14.1113-31.9824 31.8359-31.9824c17.7734 0 32.0312 14.209 32.0312 31.9824s-14.209 31.9824-31.9824 31.9824Zm-17.9688-31.9824c0 2.14844 1.51367 3.61328 3.75977 3.61328h10.498v10.5957c0 2.19727 1.46484 3.71094 3.61328 3.71094 2.24609 0 3.71094-1.51367 3.71094-3.71094v-10.5957h10.5957c2.19727 0 3.71094-1.46484 3.71094-3.61328 0-2.19727-1.51367-3.71094-3.71094-3.71094h-10.5957v-10.5469c0-2.24609-1.46484-3.75977-3.71094-3.75977-2.14844 0-3.61328 1.51367-3.61328 3.75977v10.5469h-10.498c-2.24609 0-3.75977 1.51367-3.75977 3.71094Z"/>
  </g>
  <g transform="matrix(0.2 0 0 0.2 281.506 1933)">
   <path d="m58.5449 14.5508c27.2461 0 49.8047-22.6074 49.8047-49.8047 0-27.2461-22.6074-49.8047-49.8535-49.8047-27.1973 0-49.7559 22.5586-49.7559 49.8047 0 27.1973 22.6074 49.8047 49.8047 49.8047Zm0-8.30078c-23.0469 0-41.4551-18.457-41.4551-41.5039s18.3594-41.5039 41.4062-41.5039 41.5527 18.457 41.5527 41.5039-18.457 41.5039-41.5039 41.5039Zm-22.6562-41.5039c0 2.39258 1.66016 4.00391 4.15039 4.00391h14.3555v14.4043c0 2.44141 1.66016 4.15039 4.05273 4.15039 2.44141 0 4.15039-1.66016 4.15039-4.15039v-14.4043h14.4043c2.44141 0 4.15039-1.61133 4.15039-4.00391 0-2.44141-1.70898-4.15039-4.15039-4.15039h-14.4043v-14.3555c0-2.49023-1.70898-4.19922-4.15039-4.19922-2.39258 0-4.05273 1.70898-4.05273 4.19922v14.3555h-14.3555c-2.49023 0-4.15039 1.70898-4.15039 4.15039Z"/>
  </g>
  <g transform="matrix(0.2 0 0 0.2 304.924 1933)">
   <path d="m74.8535 28.3203c34.8145 0 63.623-28.8086 63.623-63.5742 0-34.8145-28.8574-63.623-63.6719-63.623-34.7656 0-63.5254 28.8086-63.5254 63.623 0 34.7656 28.8086 63.5742 63.5742 63.5742Zm0-9.08203c-30.1758 0-54.4434-24.3164-54.4434-54.4922 0-30.2246 24.2188-54.4922 54.3945-54.4922 30.2246 0 54.541 24.2676 54.541 54.4922 0 30.1758-24.2676 54.4922-54.4922 54.4922Zm-28.8574-54.4922c0 2.58789 1.85547 4.39453 4.58984 4.39453h19.7266v19.7754c0 2.68555 1.85547 4.58984 4.44336 4.58984 2.68555 0 4.54102-1.85547 4.54102-4.58984v-19.7754h19.7754c2.68555 0 4.58984-1.80664 4.58984-4.39453 0-2.73438-1.85547-4.58984-4.58984-4.58984h-19.7754v-19.7266c0-2.73438-1.85547-4.63867-4.54102-4.63867-2.58789 0-4.44336 1.9043-4.44336 4.63867v19.7266h-19.7266c-2.73438 0-4.58984 1.85547-4.58984 4.58984Z"/>
  </g>
  <text style="stroke:none;fill:black;font-family:sans-serif;font-size:13;font-weight:bold;" transform="matrix(1 0 0 1 263 1953)">Design Variations</text>
  <text style="stroke:none;fill:black;font-family:sans-serif;font-size:13;" transform="matrix(1 0 0 1 263 1971)">Symbols are supported in up to nine weights and three scales.</text>
  <text style="stroke:none;fill:black;font-family:sans-serif;font-size:13;" transform="matrix(1 0 0 1 263 1989)">For optimal layout with text and other symbols, vertically align</text>
  <text style="stroke:none;fill:black;font-family:sans-serif;font-size:13;" transform="matrix(1 0 0 1 263 2007)">symbols with the adjacent text.</text>
  <line style="fill:none;stroke:#00AEEF;stroke-width:0.5;opacity:1.0;" x1="776" x2="776" y1="1919" y2="1933"/>
  <g transform="matrix(0.2 0 0 0.2 776 1933)">
   <path d="m16.5527 0.78125c2.58789 0 3.85742-0.976562 4.78516-3.71094l6.29883-17.2363h28.8086l6.29883 17.2363c0.927734 2.73438 2.19727 3.71094 4.73633 3.71094 2.58789 0 4.24805-1.5625 4.24805-4.00391 0-0.830078-0.146484-1.61133-0.537109-2.63672l-22.9004-60.9863c-1.12305-2.97852-3.125-4.49219-6.25-4.49219-3.02734 0-5.07812 1.46484-6.15234 4.44336l-22.9004 61.084c-0.390625 1.02539-0.537109 1.80664-0.537109 2.63672 0 2.44141 1.5625 3.95508 4.10156 3.95508Zm13.4766-28.3691 11.8652-32.8613h0.244141l11.8652 32.8613Z"/>
  </g>
  <line style="fill:none;stroke:#00AEEF;stroke-width:0.5;opacity:1.0;" x1="792.836" x2="792.836" y1="1919" y2="1933"/>
  <text style="stroke:none;fill:black;font-family:sans-serif;font-size:13;font-weight:bold;" transform="matrix(1 0 0 1 776 1953)">Margins</text>
  <text style="stroke:none;fill:black;font-family:sans-serif;font-size:13;" transform="matrix(1 0 0 1 776 1971)">Leading and trailing margins on the left and right side of each symbol</text>
  <text style="stroke:none;fill:black;font-family:sans-serif;font-size:13;" transform="matrix(1 0 0 1 776 1989)">can be adjusted by modifying the x-location of the margin guidelines.</text>
  <text style="stroke:none;fill:black;font-family:sans-serif;font-size:13;" transform="matrix(1 0 0 1 776 2007)">Modifications are automatically applied proportionally to all</text>
  <text style="stroke:none;fill:black;font-family:sans-serif;font-size:13;" transform="matrix(1 0 0 1 776 2025)">scales and weights.</text>
  <g transform="matrix(0.2 0 0 0.2 1289 1933)">
   <path d="m14.209 9.32617 8.49609 8.54492c4.29688 4.3457 9.22852 4.05273 13.8672-1.07422l53.4668-58.9355-4.83398-4.88281-53.0762 58.3984c-1.75781 2.00195-3.41797 2.49023-5.76172 0.146484l-5.85938-5.81055c-2.34375-2.29492-1.80664-4.00391 0.195312-5.81055l57.373-54.0039-4.88281-4.83398-57.959 54.4434c-4.93164 4.58984-5.32227 9.47266-1.02539 13.8184Zm32.0801-90.9668c-2.09961 2.05078-2.24609 4.93164-1.07422 6.88477 1.17188 1.80664 3.4668 2.97852 6.68945 2.14844 7.32422-1.70898 14.9414-2.00195 22.0703 2.68555l-2.92969 7.27539c-1.70898 4.15039-0.830078 7.08008 1.85547 9.81445l11.4746 11.5723c2.44141 2.44141 4.49219 2.53906 7.32422 2.05078l5.32227-0.976562 3.32031 3.36914-0.195312 2.7832c-0.195312 2.49023 0.439453 4.39453 2.88086 6.78711l3.80859 3.71094c2.39258 2.39258 5.46875 2.53906 7.8125 0.195312l14.5508-14.5996c2.34375-2.34375 2.24609-5.32227-0.146484-7.71484l-3.85742-3.80859c-2.39258-2.39258-4.24805-3.17383-6.64062-2.97852l-2.88086 0.244141-3.22266-3.17383 1.2207-5.61523c0.634766-2.83203-0.146484-5.0293-3.07617-7.95898l-10.9863-10.9375c-16.6992-16.6016-38.8672-16.2109-53.3203-1.75781Zm7.4707 1.85547c12.1582-8.88672 28.6133-7.37305 39.7461 3.75977l12.1582 12.0605c1.17188 1.17188 1.36719 2.09961 1.02539 3.80859l-1.61133 7.42188 7.51953 7.42188 4.93164-0.292969c1.26953-0.0488281 1.66016 0.0488281 2.63672 1.02539l2.88086 2.88086-12.207 12.207-2.88086-2.88086c-0.976562-0.976562-1.12305-1.36719-1.07422-2.68555l0.341797-4.88281-7.4707-7.42188-7.61719 1.26953c-1.61133 0.341797-2.34375 0.195312-3.56445-0.976562l-10.0098-10.0098c-1.26953-1.17188-1.41602-2.00195-0.634766-3.85742l4.39453-10.4492c-7.8125-7.27539-17.9688-10.4004-28.125-7.42188-0.78125 0.195312-1.07422-0.439453-0.439453-0.976562Z"/>
  </g>
  <text style="stroke:none;fill:black;font-family:sans-serif;font-size:13;font-weight:bold;" transform="matrix(1 0 0 1 1289 1953)">Exporting</text>
  <text style="stroke:none;fill:black;font-family:sans-serif;font-size:13;" transform="matrix(1 0 0 1 1289 1971)">Symbols should be outlined when exporting to ensure the</text>
  <text style="stroke:none;fill:black;font-family:sans-serif;font-size:13;" transform="matrix(1 0 0 1 1289 1989)">design is preserved when submitting to Xcode.</text>
  <text id="template-version" style="stroke:none;fill:black;font-family:sans-serif;font-size:13;text-anchor:end;" transform="matrix(1 0 0 1 3036 1933)">Template v.4.0</text>
  <text style="stroke:none;fill:black;font-family:sans-serif;font-size:13;text-anchor:end;" transform="matrix(1 0 0 1 3036 1951)">Requires Xcode 14 or greater</text>
  <text id="descriptive-name" style="stroke:none;fill:black;font-family:sans-serif;font-size:13;text-anchor:end;" transform="matrix(1 0 0 1 3036 1969)">Generated from custom.figure.walk.stairs</text>
  <text style="stroke:none;fill:black;font-family:sans-serif;font-size:13;text-anchor:end;" transform="matrix(1 0 0 1 3036 1987)">Typeset at 100.0 points</text>
  <text style="stroke:none;fill:black;font-family:sans-serif;font-size:13;" transform="matrix(1 0 0 1 263 726)">Small</text>
  <text style="stroke:none;fill:black;font-family:sans-serif;font-size:13;" transform="matrix(1 0 0 1 263 1156)">Medium</text>
  <text style="stroke:none;fill:black;font-family:sans-serif;font-size:13;" transform="matrix(1 0 0 1 263 1586)">Large</text>
 </g>
 <g id="Guides">
  <g id="H-reference" style="fill:#27AAE1;stroke:none;" transform="matrix(1 0 0 1 339 696)">
   <path d="M0.993654 0L3.63775 0L29.3281-67.1323L30.0303-67.1323L30.0303-70.459L28.1226-70.459ZM11.6885-24.4799L46.9815-24.4799L46.2315-26.7285L12.4385-26.7285ZM55.1196 0L57.7637 0L30.6382-70.459L29.4326-70.459L29.4326-67.1323Z"/>
  </g>
  <line id="Baseline-S" style="fill:none;stroke:#27AAE1;opacity:1;stroke-width:0.5;" x1="263" x2="3036" y1="696" y2="696"/>
  <line id="Capline-S" style="fill:none;stroke:#27AAE1;opacity:1;stroke-width:0.5;" x1="263" x2="3036" y1="625.541" y2="625.541"/>
  <g id="H-reference" style="fill:#27AAE1;stroke:none;" transform="matrix(1 0 0 1 339 1126)">
   <path d="M0.993654 0L3.63775 0L29.3281-67.1323L30.0303-67.1323L30.0303-70.459L28.1226-70.459ZM11.6885-24.4799L46.9815-24.4799L46.2315-26.7285L12.4385-26.7285ZM55.1196 0L57.7637 0L30.6382-70.459L29.4326-70.459L29.4326-67.1323Z"/>
  </g>
  <line id="Baseline-M" style="fill:none;stroke:#27AAE1;opacity:1;stroke-width:0.5;" x1="263" x2="3036" y1="1126" y2="1126"/>
  <line id="Capline-M" style="fill:none;stroke:#27AAE1;opacity:1;stroke-width:0.5;" x1="263" x2="3036" y1="1055.54" y2="1055.54"/>
  <g id="H-reference" style="fill:#27AAE1;stroke:none;" transform="matrix(1 0 0 1 339 1556)">
   <path d="M0.993654 0L3.63775 0L29.3281-67.1323L30.0303-67.1323L30.0303-70.459L28.1226-70.459ZM11.6885-24.4799L46.9815-24.4799L46.2315-26.7285L12.4385-26.7285ZM55.1196 0L57.7637 0L30.6382-70.459L29.4326-70.459L29.4326-67.1323Z"/>
  </g>
  <line id="Baseline-L" style="fill:none;stroke:#27AAE1;opacity:1;stroke-width:0.5;" x1="263" x2="3036" y1="1556" y2="1556"/>
  <line id="Capline-L" style="fill:none;stroke:#27AAE1;opacity:1;stroke-width:0.5;" x1="263" x2="3036" y1="1485.54" y2="1485.54"/>
  <line id="left-margin-Ultralight-S" style="fill:none;stroke:#00AEEF;stroke-width:0.5;opacity:1.0;" x1="515.649" x2="515.649" y1="600.785" y2="720.121"/>
  <line id="right-margin-Ultralight-S" style="fill:none;stroke:#00AEEF;stroke-width:0.5;opacity:1.0;" x1="603.773" x2="603.773" y1="600.785" y2="720.121"/>
  <line id="left-margin-Regular-S" style="fill:none;stroke:#00AEEF;stroke-width:0.5;opacity:1.0;" x1="1403.58" x2="1403.58" y1="600.785" y2="720.121"/>
  <line id="right-margin-Regular-S" style="fill:none;stroke:#00AEEF;stroke-width:0.5;opacity:1.0;" x1="1496.11" x2="1496.11" y1="600.785" y2="720.121"/>
  <line id="left-margin-Black-S" style="fill:none;stroke:#00AEEF;stroke-width:0.5;opacity:1.0;" x1="2884.57" x2="2884.57" y1="600.785" y2="720.121"/>
  <line id="right-margin-Black-S" style="fill:none;stroke:#00AEEF;stroke-width:0.5;opacity:1.0;" x1="2982.23" x2="2982.23" y1="600.785" y2="720.121"/>
 </g>
 <g id="Symbols">
  <g id="Black-S" transform="matrix(1 0 0 1 2884.57 696)">
   <path class="monochrome-0 multicolor-0:tintColor hierarchical-0:primary SFSymbolsPreview007AFF" d="M34.2139-23.8029L26.5314-31.988C25.1706-33.4356 24.592-35.4564 24.9991-37.4022L27.4743-49.2754L26.1028-48.5757C25.3849-48.2104 24.8491-47.5707 24.6134-46.8024C23.5633-43.3522 20.5953-33.6606 20.5953-33.6606C19.9738-31.6248 17.8094-30.4772 15.7736-31.1008C13.7378-31.7233 12.5913-33.8824 13.2234-35.9182L18.1952-52.1845C18.4309-52.9528 18.9666-53.5925 19.6845-53.9578C19.6845-53.9578 28.8886-58.6692 31.8888-60.2014C32.7353-60.6343 33.6675-60.8604 34.6211-60.8604C36.3891-60.8604 37.9749-60.0835 39.0571-58.8492L39.0785-58.8245C40-57.7852 40.5572-56.419 40.5572-54.9243L40.1393-52.7503C39.1428-47.8932 38.4892-43.2686 38.2642-38.8809L38.2535-38.7791C38.1999-37.7162 38.1677-36.6683 38.1677-35.6354C38.1677-35.3364 38.1892-35.0407 38.2427-34.7503L38.4892-33.7367C38.4892-33.7367 38.5642-33.6081 38.6713-33.4313C39.0678-32.7541 39.5392-32.1209 40.075-31.5433C42.1537-29.3039 47.5111-23.5136 47.5111-23.5136C49.3005-21.5774 49.1827-18.5526 47.2433-16.7611C45.3039-14.9695 42.2823-15.0874 40.4929-17.0236L34.2139-23.8029ZM57.4224-8.9006L57.4224 2.56005L13.052 2.56005L13.052 6.74529L57.4224 6.74529L57.4224 6.78922L61.6119 6.78922L61.6119-4.71644L73.1197-4.71644L73.1197-16.2232L84.6168-16.2232L84.6168-20.4073L68.9302-20.4073L68.9302-8.9006L57.4224-8.9006ZM18.0237-5.85222L26.0063-28.6182L33.346-20.8391L26.9921-2.70954C26.1242-0.236536 23.4133 1.0664 20.9382 0.19956C18.463-0.667275 17.1558-3.37922 18.0237-5.85222ZM49.7398-69.8255C49.7398-65.5031 46.2361-61.9983 41.918-61.9983C37.5998-61.9983 34.0961-65.5031 34.0961-69.8255C34.0961-74.149 37.5998-77.6528 41.918-77.6528C46.2361-77.6528 49.7398-74.149 49.7398-69.8255ZM42.7216-50.3276L55.8688-40.5471C57.5724-39.2763 57.9367-36.8569 56.6617-35.1489C55.3866-33.4409 52.9757-33.0852 51.2613-34.356L41.3179-41.7525C41.4786-44.8898 41.9501-47.7432 42.7216-50.3276ZM36.9141-32.2516L35.0176-25.9705L41.8322-18.6062C42.593-17.5765 44.8431-16.8543 46.2682-18.1679C47.6933-19.4816 47.1575-21.1777 46.2468-22.1624L36.9141-32.2516ZM44.4252-8.16771C44.4252-7.51088 44.1467-6.8862 43.6538-6.45225C43.6538-6.45225 43.6431-6.45118 43.6431-6.45011C43.5359-6.35474 43.4502-6.22724 43.4073-6.08259C43.0859-4.87395 42.9573-4.04675 42.9466-3.43601L42.9359-2.6656C42.9252-2.3763 42.9894-2.09021 43.1073-1.8277C43.7181-0.437977 44.7253-0.981222 45.7217-1.42375C45.9146-1.50732 46.1075-1.57054 46.3111-1.61447C47.1254-1.7827 47.9397-1.74519 48.7755-1.48054C49.6863-1.19873 50.4577-1.08087 51.1971-0.993008C51.4649-0.960864 51.7328-0.969436 52.0007-1.01872C53.0186-1.20731 53.2222-1.75698 53.1579-2.42559C53.1472-2.65167 52.9757-2.84026 52.7507-2.88526C50.6292-3.32457 48.9255-4.52893 46.5361-7.25694C46.4396-7.37159 46.3753-7.51945 46.3753-7.67161C46.3753-8.66273 46.3646-11.7958 46.3646-11.7958L46.9861-11.7968L46.9754-14.8292C46.0218-14.1638 44.9717-13.8402 43.8145-13.9216L43.8145-11.7883L44.4252-11.7904L44.4252-8.16771Z"/>
  </g>
  <g id="Regular-S" transform="matrix(1 0 0 1 1403.58 696)">
   <path class="monochrome-0 multicolor-0:tintColor hierarchical-0:primary SFSymbolsPreview007AFF" d="M32.62-24.401L25.45-32.04C24.18-33.391 23.64-35.277 24.02-37.093L26.33-48.174L25.05-47.521C24.38-47.18 23.88-46.583 23.66-45.866C22.68-42.646 19.91-33.601 19.91-33.601C19.33-31.701 17.31-30.63 15.41-31.212C13.51-31.793 12.44-33.808 13.03-35.708L17.67-50.889C17.89-51.606 18.39-52.203 19.06-52.544C19.06-52.544 27.65-56.941 30.45-58.371C31.24-58.775 32.11-58.986 33-58.986C34.65-58.986 36.13-58.261 37.14-57.109L37.16-57.086C38.02-56.116 38.54-54.841 38.54-53.446L38.15-51.417C37.22-46.884 36.61-42.568 36.4-38.473L36.39-38.378C36.34-37.386 36.31-36.408 36.31-35.444C36.31-35.165 36.33-34.889 36.38-34.618L36.61-33.672C36.61-33.672 36.68-33.552 36.78-33.387C37.15-32.755 37.59-32.164 38.09-31.625C40.03-29.535 45.03-24.131 45.03-24.131C46.7-22.324 46.59-19.501 44.78-17.829C42.97-16.157 40.15-16.267 38.48-18.074L32.62-24.401ZM54.28-10.493L54.28 0.203L12.87 0.203L12.87 4.109L54.28 4.109L54.28 4.15L58.19 4.15L58.19-6.588L68.93-6.588L68.93-17.327L79.66-17.327L79.66-21.232L65.02-21.232L65.02-10.493L54.28-10.493ZM17.51-7.648L24.96-28.895L31.81-21.635L25.88-4.715C25.07-2.407 22.54-1.191 20.23-2C17.92-2.809 16.7-5.34 17.51-7.648ZM47.11-67.353C47.11-63.319 43.84-60.048 39.81-60.048C35.78-60.048 32.51-63.319 32.51-67.353C32.51-71.388 35.78-74.658 39.81-74.658C43.84-74.658 47.11-71.388 47.11-67.353ZM40.56-49.156L52.83-40.028C54.42-38.842 54.76-36.584 53.57-34.99C52.38-33.396 50.13-33.064 48.53-34.25L39.25-41.153C39.4-44.081 39.84-46.744 40.56-49.156ZM35.14-32.286L33.37-26.424L39.73-19.551C40.44-18.59 42.54-17.916 43.87-19.142C45.2-20.368 44.7-21.951 43.85-22.87L35.14-32.286ZM42.15-9.809C42.15-9.196 41.89-8.613 41.43-8.208C41.43-8.208 41.42-8.207 41.42-8.206C41.32-8.117 41.24-7.998 41.2-7.863C40.9-6.735 40.78-5.963 40.77-5.393L40.76-4.674C40.75-4.404 40.81-4.137 40.92-3.892C41.49-2.595 42.43-3.102 43.36-3.515C43.54-3.593 43.72-3.652 43.91-3.693C44.67-3.85 45.43-3.815 46.21-3.568C47.06-3.305 47.78-3.195 48.47-3.113C48.72-3.083 48.97-3.091 49.22-3.137C50.17-3.313 50.36-3.826 50.3-4.45C50.29-4.661 50.13-4.837 49.92-4.879C47.94-5.289 46.35-6.413 44.12-8.959C44.03-9.066 43.97-9.204 43.97-9.346C43.97-10.271 43.96-13.195 43.96-13.195L44.54-13.196L44.53-16.026C43.64-15.405 42.66-15.103 41.58-15.179L41.58-13.188L42.15-13.19L42.15-9.809Z"/>
  </g>
  <g id="Ultralight-S" transform="matrix(1 0 0 1 515.649 696)">
   <path class="monochrome-0 multicolor-0:tintColor hierarchical-0:primary SFSymbolsPreview007AFF" d="M33.518-24.406L26.52-31.852C25.283-33.169 24.764-35.008 25.133-36.778L27.38-47.579L26.136-46.942C25.485-46.61 24.997-46.028 24.783-45.329C23.823-42.19 21.125-33.374 21.125-33.374C20.558-31.522 18.594-30.478 16.742-31.045C14.89-31.611 13.846-33.576 14.413-35.428L18.941-50.226C19.155-50.924 19.643-51.507 20.293-51.839C20.293-51.839 28.672-56.125 31.397-57.519C32.166-57.913 33.017-58.118 33.88-58.118C35.491-58.118 36.937-57.411 37.922-56.289L37.942-56.266C38.777-55.32 39.28-54.077 39.28-52.718L38.901-50.74C37.998-46.322 37.4-42.115 37.197-38.123L37.192-38.03C37.136-37.063 37.109-36.11 37.107-35.17C37.108-34.898 37.13-34.629 37.178-34.365L37.399-33.443C37.399-33.443 37.469-33.326 37.566-33.165C37.931-32.549 38.361-31.974 38.848-31.448C40.732-29.411 45.606-24.143 45.606-24.143C47.236-22.382 47.128-19.629 45.368-18C43.607-16.37 40.853-16.477 39.224-18.238L33.518-24.406ZM54.628-10.85L54.628-0.423L14.259-0.423L14.259 3.384L54.628 3.384L54.628 3.424L58.435 3.424L58.435-7.043L68.902-7.043L68.902-17.51L79.369-17.51L79.369-21.317L65.095-21.317L65.095-10.85L54.628-10.85ZM18.788-8.076L26.051-28.787L32.724-21.71L26.94-5.217C26.151-2.968 23.684-1.782 21.435-2.57C19.185-3.359 17.999-5.827 18.788-8.076ZM47.642-66.274C47.642-62.341 44.454-59.154 40.522-59.154C36.589-59.154 33.401-62.341 33.401-66.274C33.401-70.207 36.589-73.395 40.522-73.395C44.454-73.395 47.642-70.207 47.642-66.274ZM41.252-48.536L53.214-39.639C54.767-38.482 55.091-36.282 53.935-34.728C52.778-33.174 50.578-32.851 49.024-34.007L39.978-40.735C40.125-43.59 40.554-46.186 41.252-48.536ZM35.972-32.092L34.241-26.378L40.44-19.678C41.137-18.742 43.187-18.085 44.479-19.28C45.771-20.475 45.287-22.018 44.464-22.914L35.972-32.092ZM42.802-10.182C42.803-9.585 42.546-9.017 42.097-8.622C42.096-8.622 42.095-8.621 42.095-8.62C41.991-8.534 41.916-8.417 41.881-8.285C41.586-7.186 41.47-6.434 41.454-5.878L41.444-5.177C41.441-4.914 41.495-4.654 41.602-4.415C42.158-3.151 43.079-3.645 43.981-4.047C44.154-4.123 44.334-4.181 44.519-4.221C45.255-4.374 46.002-4.34 46.762-4.1C47.588-3.843 48.287-3.736 48.964-3.655C49.207-3.626 49.453-3.634 49.694-3.679C50.616-3.85 50.803-4.351 50.748-4.959C50.732-5.165 50.582-5.336 50.379-5.377C48.446-5.777 46.898-6.873 44.723-9.354C44.631-9.459 44.58-9.593 44.58-9.731C44.577-10.633 44.569-13.483 44.569-13.483L45.131-13.485L45.12-16.242C44.253-15.637 43.3-15.343 42.244-15.417L42.247-13.476L42.802-13.478L42.802-10.182Z"/>
  </g>
 </g>
</svg>
