<?xml version="1.0" encoding="UTF-8"?>
<!--Generator: Apple Native CoreSVG 232.5-->
<!DOCTYPE svg
PUBLIC "-//W3C//DTD SVG 1.1//EN"
       "http://www.w3.org/Graphics/SVG/1.1/DTD/svg11.dtd">
<svg version="1.1" xmlns="http://www.w3.org/2000/svg" xmlns:xlink="http://www.w3.org/1999/xlink" width="3300" height="2200">
 <!--glyph: "", point size: 100.0, font version: "19.0d6e1", template writer version: "123"-->
 <style>.monochrome-0 {}

.multicolor-0:tintColor {}

.hierarchical-0:primary {}

.SFSymbolsPreview007AFF {fill:#007AFF;opacity:1.0}
</style>
 <g id="Notes">
  <rect height="2200" id="artboard" style="fill:white;opacity:1" width="3300" x="0" y="0"/>
  <line style="fill:none;stroke:black;opacity:1;stroke-width:0.5;" x1="263" x2="3036" y1="292" y2="292"/>
  <text style="stroke:none;fill:black;font-family:sans-serif;font-size:13;font-weight:bold;" transform="matrix(1 0 0 1 263 322)">Weight/Scale Variations</text>
  <text style="stroke:none;fill:black;font-family:sans-serif;font-size:13;text-anchor:middle;" transform="matrix(1 0 0 1 559.711 322)">Ultralight</text>
  <text style="stroke:none;fill:black;font-family:sans-serif;font-size:13;text-anchor:middle;" transform="matrix(1 0 0 1 856.422 322)">Thin</text>
  <text style="stroke:none;fill:black;font-family:sans-serif;font-size:13;text-anchor:middle;" transform="matrix(1 0 0 1 1153.13 322)">Light</text>
  <text style="stroke:none;fill:black;font-family:sans-serif;font-size:13;text-anchor:middle;" transform="matrix(1 0 0 1 1449.84 322)">Regular</text>
  <text style="stroke:none;fill:black;font-family:sans-serif;font-size:13;text-anchor:middle;" transform="matrix(1 0 0 1 1746.56 322)">Medium</text>
  <text style="stroke:none;fill:black;font-family:sans-serif;font-size:13;text-anchor:middle;" transform="matrix(1 0 0 1 2043.27 322)">Semibold</text>
  <text style="stroke:none;fill:black;font-family:sans-serif;font-size:13;text-anchor:middle;" transform="matrix(1 0 0 1 2339.98 322)">Bold</text>
  <text style="stroke:none;fill:black;font-family:sans-serif;font-size:13;text-anchor:middle;" transform="matrix(1 0 0 1 2636.69 322)">Heavy</text>
  <text style="stroke:none;fill:black;font-family:sans-serif;font-size:13;text-anchor:middle;" transform="matrix(1 0 0 1 2933.4 322)">Black</text>
  <line style="fill:none;stroke:black;opacity:1;stroke-width:0.5;" x1="263" x2="3036" y1="1903" y2="1903"/>
  <g transform="matrix(0.2 0 0 0.2 263 1933)">
   <path d="m46.2402 4.15039c21.5332 0 39.4531-17.8711 39.4531-39.4043s-17.9688-39.4043-39.502-39.4043c-21.4844 0-39.3555 17.8711-39.3555 39.4043s17.9199 39.4043 39.4043 39.4043Zm0-7.42188c-17.7246 0-31.8848-14.209-31.8848-31.9824s14.1113-31.9824 31.8359-31.9824c17.7734 0 32.0312 14.209 32.0312 31.9824s-14.209 31.9824-31.9824 31.9824Zm-17.9688-31.9824c0 2.14844 1.51367 3.61328 3.75977 3.61328h10.498v10.5957c0 2.19727 1.46484 3.71094 3.61328 3.71094 2.24609 0 3.71094-1.51367 3.71094-3.71094v-10.5957h10.5957c2.19727 0 3.71094-1.46484 3.71094-3.61328 0-2.19727-1.51367-3.71094-3.71094-3.71094h-10.5957v-10.5469c0-2.24609-1.46484-3.75977-3.71094-3.75977-2.14844 0-3.61328 1.51367-3.61328 3.75977v10.5469h-10.498c-2.24609 0-3.75977 1.51367-3.75977 3.71094Z"/>
  </g>
  <g transform="matrix(0.2 0 0 0.2 281.506 1933)">
   <path d="m58.5449 14.5508c27.2461 0 49.8047-22.6074 49.8047-49.8047 0-27.2461-22.6074-49.8047-49.8535-49.8047-27.1973 0-49.7559 22.5586-49.7559 49.8047 0 27.1973 22.6074 49.8047 49.8047 49.8047Zm0-8.30078c-23.0469 0-41.4551-18.457-41.4551-41.5039s18.3594-41.5039 41.4062-41.5039 41.5527 18.457 41.5527 41.5039-18.457 41.5039-41.5039 41.5039Zm-22.6562-41.5039c0 2.39258 1.66016 4.00391 4.15039 4.00391h14.3555v14.4043c0 2.44141 1.66016 4.15039 4.05273 4.15039 2.44141 0 4.15039-1.66016 4.15039-4.15039v-14.4043h14.4043c2.44141 0 4.15039-1.61133 4.15039-4.00391 0-2.44141-1.70898-4.15039-4.15039-4.15039h-14.4043v-14.3555c0-2.49023-1.70898-4.19922-4.15039-4.19922-2.39258 0-4.05273 1.70898-4.05273 4.19922v14.3555h-14.3555c-2.49023 0-4.15039 1.70898-4.15039 4.15039Z"/>
  </g>
  <g transform="matrix(0.2 0 0 0.2 304.924 1933)">
   <path d="m74.8535 28.3203c34.8145 0 63.623-28.8086 63.623-63.5742 0-34.8145-28.8574-63.623-63.6719-63.623-34.7656 0-63.5254 28.8086-63.5254 63.623 0 34.7656 28.8086 63.5742 63.5742 63.5742Zm0-9.08203c-30.1758 0-54.4434-24.3164-54.4434-54.4922 0-30.2246 24.2188-54.4922 54.3945-54.4922 30.2246 0 54.541 24.2676 54.541 54.4922 0 30.1758-24.2676 54.4922-54.4922 54.4922Zm-28.8574-54.4922c0 2.58789 1.85547 4.39453 4.58984 4.39453h19.7266v19.7754c0 2.68555 1.85547 4.58984 4.44336 4.58984 2.68555 0 4.54102-1.85547 4.54102-4.58984v-19.7754h19.7754c2.68555 0 4.58984-1.80664 4.58984-4.39453 0-2.73438-1.85547-4.58984-4.58984-4.58984h-19.7754v-19.7266c0-2.73438-1.85547-4.63867-4.54102-4.63867-2.58789 0-4.44336 1.9043-4.44336 4.63867v19.7266h-19.7266c-2.73438 0-4.58984 1.85547-4.58984 4.58984Z"/>
  </g>
  <text style="stroke:none;fill:black;font-family:sans-serif;font-size:13;font-weight:bold;" transform="matrix(1 0 0 1 263 1953)">Design Variations</text>
  <text style="stroke:none;fill:black;font-family:sans-serif;font-size:13;" transform="matrix(1 0 0 1 263 1971)">Symbols are supported in up to nine weights and three scales.</text>
  <text style="stroke:none;fill:black;font-family:sans-serif;font-size:13;" transform="matrix(1 0 0 1 263 1989)">For optimal layout with text and other symbols, vertically align</text>
  <text style="stroke:none;fill:black;font-family:sans-serif;font-size:13;" transform="matrix(1 0 0 1 263 2007)">symbols with the adjacent text.</text>
  <line style="fill:none;stroke:#00AEEF;stroke-width:0.5;opacity:1.0;" x1="776" x2="776" y1="1919" y2="1933"/>
  <g transform="matrix(0.2 0 0 0.2 776 1933)">
   <path d="m16.5527 0.78125c2.58789 0 3.85742-0.976562 4.78516-3.71094l6.29883-17.2363h28.8086l6.29883 17.2363c0.927734 2.73438 2.19727 3.71094 4.73633 3.71094 2.58789 0 4.24805-1.5625 4.24805-4.00391 0-0.830078-0.146484-1.61133-0.537109-2.63672l-22.9004-60.9863c-1.12305-2.97852-3.125-4.49219-6.25-4.49219-3.02734 0-5.07812 1.46484-6.15234 4.44336l-22.9004 61.084c-0.390625 1.02539-0.537109 1.80664-0.537109 2.63672 0 2.44141 1.5625 3.95508 4.10156 3.95508Zm13.4766-28.3691 11.8652-32.8613h0.244141l11.8652 32.8613Z"/>
  </g>
  <line style="fill:none;stroke:#00AEEF;stroke-width:0.5;opacity:1.0;" x1="792.836" x2="792.836" y1="1919" y2="1933"/>
  <text style="stroke:none;fill:black;font-family:sans-serif;font-size:13;font-weight:bold;" transform="matrix(1 0 0 1 776 1953)">Margins</text>
  <text style="stroke:none;fill:black;font-family:sans-serif;font-size:13;" transform="matrix(1 0 0 1 776 1971)">Leading and trailing margins on the left and right side of each symbol</text>
  <text style="stroke:none;fill:black;font-family:sans-serif;font-size:13;" transform="matrix(1 0 0 1 776 1989)">can be adjusted by modifying the x-location of the margin guidelines.</text>
  <text style="stroke:none;fill:black;font-family:sans-serif;font-size:13;" transform="matrix(1 0 0 1 776 2007)">Modifications are automatically applied proportionally to all</text>
  <text style="stroke:none;fill:black;font-family:sans-serif;font-size:13;" transform="matrix(1 0 0 1 776 2025)">scales and weights.</text>
  <g transform="matrix(0.2 0 0 0.2 1289 1933)">
   <path d="m14.209 9.32617 8.49609 8.54492c4.29688 4.3457 9.22852 4.05273 13.8672-1.07422l53.4668-58.9355-4.83398-4.88281-53.0762 58.3984c-1.75781 2.00195-3.41797 2.49023-5.76172 0.146484l-5.85938-5.81055c-2.34375-2.29492-1.80664-4.00391 0.195312-5.81055l57.373-54.0039-4.88281-4.83398-57.959 54.4434c-4.93164 4.58984-5.32227 9.47266-1.02539 13.8184Zm32.0801-90.9668c-2.09961 2.05078-2.24609 4.93164-1.07422 6.88477 1.17188 1.80664 3.4668 2.97852 6.68945 2.14844 7.32422-1.70898 14.9414-2.00195 22.0703 2.68555l-2.92969 7.27539c-1.70898 4.15039-0.830078 7.08008 1.85547 9.81445l11.4746 11.5723c2.44141 2.44141 4.49219 2.53906 7.32422 2.05078l5.32227-0.976562 3.32031 3.36914-0.195312 2.7832c-0.195312 2.49023 0.439453 4.39453 2.88086 6.78711l3.80859 3.71094c2.39258 2.39258 5.46875 2.53906 7.8125 0.195312l14.5508-14.5996c2.34375-2.34375 2.24609-5.32227-0.146484-7.71484l-3.85742-3.80859c-2.39258-2.39258-4.24805-3.17383-6.64062-2.97852l-2.88086 0.244141-3.22266-3.17383 1.2207-5.61523c0.634766-2.83203-0.146484-5.0293-3.07617-7.95898l-10.9863-10.9375c-16.6992-16.6016-38.8672-16.2109-53.3203-1.75781Zm7.4707 1.85547c12.1582-8.88672 28.6133-7.37305 39.7461 3.75977l12.1582 12.0605c1.17188 1.17188 1.36719 2.09961 1.02539 3.80859l-1.61133 7.42188 7.51953 7.42188 4.93164-0.292969c1.26953-0.0488281 1.66016 0.0488281 2.63672 1.02539l2.88086 2.88086-12.207 12.207-2.88086-2.88086c-0.976562-0.976562-1.12305-1.36719-1.07422-2.68555l0.341797-4.88281-7.4707-7.42188-7.61719 1.26953c-1.61133 0.341797-2.34375 0.195312-3.56445-0.976562l-10.0098-10.0098c-1.26953-1.17188-1.41602-2.00195-0.634766-3.85742l4.39453-10.4492c-7.8125-7.27539-17.9688-10.4004-28.125-7.42188-0.78125 0.195312-1.07422-0.439453-0.439453-0.976562Z"/>
  </g>
  <text style="stroke:none;fill:black;font-family:sans-serif;font-size:13;font-weight:bold;" transform="matrix(1 0 0 1 1289 1953)">Exporting</text>
  <text style="stroke:none;fill:black;font-family:sans-serif;font-size:13;" transform="matrix(1 0 0 1 1289 1971)">Symbols should be outlined when exporting to ensure the</text>
  <text style="stroke:none;fill:black;font-family:sans-serif;font-size:13;" transform="matrix(1 0 0 1 1289 1989)">design is preserved when submitting to Xcode.</text>
  <text id="template-version" style="stroke:none;fill:black;font-family:sans-serif;font-size:13;text-anchor:end;" transform="matrix(1 0 0 1 3036 1933)">Template v.4.0</text>
  <text style="stroke:none;fill:black;font-family:sans-serif;font-size:13;text-anchor:end;" transform="matrix(1 0 0 1 3036 1951)">Requires Xcode 14 or greater</text>
  <text id="descriptive-name" style="stroke:none;fill:black;font-family:sans-serif;font-size:13;text-anchor:end;" transform="matrix(1 0 0 1 3036 1969)">Generated from custom.pain</text>
  <text style="stroke:none;fill:black;font-family:sans-serif;font-size:13;text-anchor:end;" transform="matrix(1 0 0 1 3036 1987)">Typeset at 100.0 points</text>
  <text style="stroke:none;fill:black;font-family:sans-serif;font-size:13;" transform="matrix(1 0 0 1 263 726)">Small</text>
  <text style="stroke:none;fill:black;font-family:sans-serif;font-size:13;" transform="matrix(1 0 0 1 263 1156)">Medium</text>
  <text style="stroke:none;fill:black;font-family:sans-serif;font-size:13;" transform="matrix(1 0 0 1 263 1586)">Large</text>
 </g>
 <g id="Guides">
  <g id="H-reference" style="fill:#27AAE1;stroke:none;" transform="matrix(1 0 0 1 339 696)">
   <path d="M0.993654 0L3.63775 0L29.3281-67.1323L30.0303-67.1323L30.0303-70.459L28.1226-70.459ZM11.6885-24.4799L46.9815-24.4799L46.2315-26.7285L12.4385-26.7285ZM55.1196 0L57.7637 0L30.6382-70.459L29.4326-70.459L29.4326-67.1323Z"/>
  </g>
  <line id="Baseline-S" style="fill:none;stroke:#27AAE1;opacity:1;stroke-width:0.5;" x1="263" x2="3036" y1="696" y2="696"/>
  <line id="Capline-S" style="fill:none;stroke:#27AAE1;opacity:1;stroke-width:0.5;" x1="263" x2="3036" y1="625.541" y2="625.541"/>
  <g id="H-reference" style="fill:#27AAE1;stroke:none;" transform="matrix(1 0 0 1 339 1126)">
   <path d="M0.993654 0L3.63775 0L29.3281-67.1323L30.0303-67.1323L30.0303-70.459L28.1226-70.459ZM11.6885-24.4799L46.9815-24.4799L46.2315-26.7285L12.4385-26.7285ZM55.1196 0L57.7637 0L30.6382-70.459L29.4326-70.459L29.4326-67.1323Z"/>
  </g>
  <line id="Baseline-M" style="fill:none;stroke:#27AAE1;opacity:1;stroke-width:0.5;" x1="263" x2="3036" y1="1126" y2="1126"/>
  <line id="Capline-M" style="fill:none;stroke:#27AAE1;opacity:1;stroke-width:0.5;" x1="263" x2="3036" y1="1055.54" y2="1055.54"/>
  <g id="H-reference" style="fill:#27AAE1;stroke:none;" transform="matrix(1 0 0 1 339 1556)">
   <path d="M0.993654 0L3.63775 0L29.3281-67.1323L30.0303-67.1323L30.0303-70.459L28.1226-70.459ZM11.6885-24.4799L46.9815-24.4799L46.2315-26.7285L12.4385-26.7285ZM55.1196 0L57.7637 0L30.6382-70.459L29.4326-70.459L29.4326-67.1323Z"/>
  </g>
  <line id="Baseline-L" style="fill:none;stroke:#27AAE1;opacity:1;stroke-width:0.5;" x1="263" x2="3036" y1="1556" y2="1556"/>
  <line id="Capline-L" style="fill:none;stroke:#27AAE1;opacity:1;stroke-width:0.5;" x1="263" x2="3036" y1="1485.54" y2="1485.54"/>
  <line id="left-margin-Ultralight-S" style="fill:none;stroke:#00AEEF;stroke-width:0.5;opacity:1.0;" x1="515.649" x2="515.649" y1="600.785" y2="720.121"/>
  <line id="right-margin-Ultralight-S" style="fill:none;stroke:#00AEEF;stroke-width:0.5;opacity:1.0;" x1="603.773" x2="603.773" y1="600.785" y2="720.121"/>
  <line id="left-margin-Regular-S" style="fill:none;stroke:#00AEEF;stroke-width:0.5;opacity:1.0;" x1="1403.58" x2="1403.58" y1="600.785" y2="720.121"/>
  <line id="right-margin-Regular-S" style="fill:none;stroke:#00AEEF;stroke-width:0.5;opacity:1.0;" x1="1496.11" x2="1496.11" y1="600.785" y2="720.121"/>
  <line id="left-margin-Black-S" style="fill:none;stroke:#00AEEF;stroke-width:0.5;opacity:1.0;" x1="2884.57" x2="2884.57" y1="600.785" y2="720.121"/>
  <line id="right-margin-Black-S" style="fill:none;stroke:#00AEEF;stroke-width:0.5;opacity:1.0;" x1="2982.23" x2="2982.23" y1="600.785" y2="720.121"/>
 </g>
 <g id="Symbols">
  <g id="Black-S" transform="matrix(1 0 0 1 2884.57 696)">
   <path class="monochrome-0 multicolor-0:tintColor hierarchical-0:primary SFSymbolsPreview007AFF" d="M48.8298-43.9628C54.2745-43.9628 58.6954-39.5419 58.6954-34.0972C58.6954-28.6525 54.2745-24.2316 48.8298-24.2316C43.3851-24.2316 38.9642-28.6525 38.9642-34.0972C38.9642-39.5419 43.3851-43.9628 48.8298-43.9628ZM66.4564-3.62064C79.2598-13.2508 83.9228-24.9313 83.022-35.993C82.1212-47.0552 75.6572-57.4992 66.2054-64.6568C90.4583-51.5564 91.7647-17.336 66.4564-3.62064ZM31.2033-3.62064C18.3998-13.2508 13.7368-24.9313 14.6376-35.993C15.5384-47.0552 22.0025-57.4992 31.4542-64.6568C7.20131-51.5564 5.89498-17.336 31.2033-3.62064ZM28.3967 1.34374C12.9895-9.42321 7.19079-23.2283 8.18023-36.5763C9.16967-49.9243 16.9467-62.8153 28.6909-71.7541C0.0408881-54.625-0.830551-13.52 28.3967 1.34374ZM69.2629 1.34374C84.6702-9.42321 90.4689-23.2283 89.4794-36.5763C88.49-49.9243 80.713-62.8153 68.9688-71.7541C97.6188-54.625 98.4902-13.52 69.2629 1.34374ZM34.4098-9.51351C24.2656-17.2939 20.5709-26.7301 21.2845-35.6667C21.998-44.6037 27.1203-53.0411 34.6093-58.8238C15.1783-50.1016 13.7751-17.854 34.4098-9.51351ZM63.2498-9.51351C73.3941-17.2939 77.0887-26.7301 76.3752-35.6667C75.6616-44.6037 70.5393-53.0411 63.0504-58.8238C82.4813-50.1016 83.8846-17.854 63.2498-9.51351ZM60.1635-15.3039C67.6563-21.6461 70.2657-28.694 69.6779-35.3431C69.0901-41.9928 65.3046-48.2441 60.0073-52.9924C75.26-46.3256 76.3613-21.6788 60.1635-15.3039ZM37.4961-15.3039C30.0033-21.6461 27.394-28.694 27.9818-35.3431C28.5696-41.9928 32.355-48.2441 37.6524-52.9924C22.3997-46.3256 21.2983-21.6788 37.4961-15.3039ZM40.7996-21.2195C36.3915-25.3473 34.4431-29.9245 34.5849-34.4517C34.7267-38.9796 36.9588-43.4575 40.9121-47.387C29.9114-42.7584 29.1169-25.6454 40.7996-21.2195ZM56.86-21.2195C61.2682-25.3473 63.2166-29.9245 63.0748-34.4517C62.933-38.9796 60.7009-43.4575 56.7476-47.387C67.7483-42.7584 68.5427-25.6454 56.86-21.2195Z"/>
  </g>
  <g id="Regular-S" transform="matrix(1 0 0 1 1403.58 696)">
   <path class="monochrome-0 multicolor-0:tintColor hierarchical-0:primary SFSymbolsPreview007AFF" d="M46.4732-43.472C51.6131-43.472 55.7864-39.2987 55.7864-34.1588C55.7864-29.019 51.6131-24.8456 46.4732-24.8456C41.3334-24.8456 37.16-29.019 37.16-34.1588C37.16-39.2987 41.3334-43.472 46.4732-43.472ZM63.1128-5.38871C75.1994-14.4797 79.6013-25.5061 78.751-35.9485C77.9006-46.3913 71.7985-56.2505 62.8759-63.0074C85.7709-50.6405 87.0041-18.3361 63.1128-5.38871ZM29.8336-5.38871C17.747-14.4797 13.3451-25.5061 14.1955-35.9485C15.0458-46.3913 21.148-56.2505 30.0705-63.0074C7.17553-50.6405 5.94234-18.3361 29.8336-5.38871ZM27.1842-0.702291C12.6396-10.8664 7.16559-23.8985 8.09963-36.4992C9.03367-49.0998 16.3753-61.269 27.4619-69.7073C0.416023-53.5373-0.406623-14.7338 27.1842-0.702291ZM65.7622-0.702291C80.3068-10.8664 85.7808-23.8985 84.8468-36.4992C83.9128-49.0998 76.5712-61.269 65.4845-69.7073C92.5304-53.5373 93.3531-14.7338 65.7622-0.702291ZM32.8606-10.9516C23.2843-18.2964 19.7966-27.2043 20.4702-35.6404C21.1438-44.0771 25.9792-52.0421 33.0489-57.5009C14.7059-49.2672 13.3812-18.8251 32.8606-10.9516ZM60.0858-10.9516C69.6621-18.2964 73.1499-27.2043 72.4763-35.6404C71.8027-44.0771 66.9672-52.0421 59.8976-57.5009C78.2405-49.2672 79.5652-18.8251 60.0858-10.9516ZM57.1723-16.4178C64.2456-22.4049 66.7088-29.0582 66.154-35.335C65.5991-41.6123 62.0256-47.5136 57.0248-51.9961C71.4235-45.7025 72.4632-22.4357 57.1723-16.4178ZM35.7741-16.4178C28.7008-22.4049 26.2376-29.0582 26.7925-35.335C27.3473-41.6123 30.9209-47.5136 35.9216-51.9961C21.5229-45.7025 20.4833-22.4357 35.7741-16.4178ZM38.8926-22.0022C34.7313-25.8989 32.892-30.2197 33.0259-34.4935C33.1597-38.7678 35.2668-42.9951 38.9988-46.7046C28.614-42.3351 27.8641-26.1803 38.8926-22.0022ZM54.0538-22.0022C58.2151-25.8989 60.0545-30.2197 59.9206-34.4935C59.7867-38.7678 57.6796-42.9951 53.9476-46.7046C64.3324-42.3351 65.0824-26.1803 54.0538-22.0022Z"/>
  </g>
  <g id="Ultralight-S" transform="matrix(1 0 0 1 515.649 696)">
   <path class="monochrome-0 multicolor-0:tintColor hierarchical-0:primary SFSymbolsPreview007AFF" d="M44.0622-43.292C49.0902-43.292 53.1726-39.2095 53.1726-34.1816C53.1726-29.1537 49.0902-25.0712 44.0622-25.0712C39.0343-25.0712 34.9518-29.1537 34.9518-34.1816C34.9518-39.2095 39.0343-43.292 44.0622-43.292ZM60.3395-6.03794C72.1629-14.9309 76.469-25.7173 75.6371-35.9322C74.8053-46.1477 68.836-55.7922 60.1078-62.402C82.5042-50.3044 83.7105-18.7034 60.3395-6.03794ZM27.7849-6.03794C15.9616-14.9309 11.6555-25.7173 12.4874-35.9322C13.3192-46.1477 19.2884-55.7922 28.0167-62.402C5.62026-50.3044 4.41393-18.7034 27.7849-6.03794ZM25.1932-1.45357C10.9654-11.3963 5.61054-24.1447 6.52425-36.471C7.43795-48.7972 14.6197-60.7014 25.4649-68.956C-0.99205-53.1381-1.79678-15.1796 25.1932-1.45357ZM62.9312-1.45357C77.1591-11.3963 82.5139-24.1447 81.6002-36.471C80.6865-48.7972 73.5048-60.7014 62.6596-68.956C89.1165-53.1381 89.9213-15.1796 62.9312-1.45357ZM30.746-11.4797C21.3783-18.6645 17.9665-27.3784 18.6254-35.6309C19.2843-43.8839 24.0145-51.6754 30.9302-57.0154C12.9867-48.9609 11.6908-19.1817 30.746-11.4797ZM57.3784-11.4797C66.7462-18.6645 70.158-27.3784 69.4991-35.6309C68.8401-43.8839 64.11-51.6754 57.1943-57.0154C75.1378-48.9609 76.4337-19.1817 57.3784-11.4797ZM54.5284-16.8269C61.4476-22.6836 63.8572-29.192 63.3144-35.3322C62.7716-41.4728 59.2759-47.2456 54.3841-51.6304C68.4692-45.4739 69.4863-22.7138 54.5284-16.8269ZM33.5961-16.8269C26.6768-22.6836 24.2672-29.192 24.81-35.3322C25.3528-41.4728 28.8485-47.2456 33.7404-51.6304C19.6553-45.4739 18.6382-22.7138 33.5961-16.8269ZM36.6467-22.2897C32.576-26.1015 30.7767-30.3283 30.9077-34.509C31.0387-38.6902 33.0999-42.8254 36.7506-46.4541C26.5919-42.1798 25.8583-26.3768 36.6467-22.2897ZM51.4777-22.2897C55.5485-26.1015 57.3477-30.3283 57.2168-34.509C57.0858-38.6902 55.0246-42.8254 51.3739-46.4541C61.5326-42.1798 62.2662-26.3768 51.4777-22.2897Z"/>
  </g>
 </g>
</svg>
