<?xml version="1.0" encoding="UTF-8"?>
<!--Generator: Apple Native CoreSVG 232.5-->
<!DOCTYPE svg
PUBLIC "-//W3C//DTD SVG 1.1//EN"
       "http://www.w3.org/Graphics/SVG/1.1/DTD/svg11.dtd">
<svg version="1.1" xmlns="http://www.w3.org/2000/svg" xmlns:xlink="http://www.w3.org/1999/xlink" width="3300" height="2200">
 <!--glyph: "", point size: 100.0, font version: "19.0d6e1", template writer version: "123"-->
 <style>.monochrome-0 {}
.monochrome-1 {}

.multicolor-0:white {}
.multicolor-1:tintColor {}

.hierarchical-0:primary {}
.hierarchical-1:primary {}

.SFSymbolsPreview007AFF {fill:#007AFF;opacity:1.0}
.SFSymbolsPreviewFFFFFF {fill:#FFFFFF;opacity:1.0}
.SFSymbolsPreviewNone {fill:none;opacity:1.0}
</style>
 <g id="Notes">
  <rect height="2200" id="artboard" style="fill:white;opacity:1" width="3300" x="0" y="0"/>
  <line style="fill:none;stroke:black;opacity:1;stroke-width:0.5;" x1="263" x2="3036" y1="292" y2="292"/>
  <text style="stroke:none;fill:black;font-family:sans-serif;font-size:13;font-weight:bold;" transform="matrix(1 0 0 1 263 322)">Weight/Scale Variations</text>
  <text style="stroke:none;fill:black;font-family:sans-serif;font-size:13;text-anchor:middle;" transform="matrix(1 0 0 1 559.711 322)">Ultralight</text>
  <text style="stroke:none;fill:black;font-family:sans-serif;font-size:13;text-anchor:middle;" transform="matrix(1 0 0 1 856.422 322)">Thin</text>
  <text style="stroke:none;fill:black;font-family:sans-serif;font-size:13;text-anchor:middle;" transform="matrix(1 0 0 1 1153.13 322)">Light</text>
  <text style="stroke:none;fill:black;font-family:sans-serif;font-size:13;text-anchor:middle;" transform="matrix(1 0 0 1 1449.84 322)">Regular</text>
  <text style="stroke:none;fill:black;font-family:sans-serif;font-size:13;text-anchor:middle;" transform="matrix(1 0 0 1 1746.56 322)">Medium</text>
  <text style="stroke:none;fill:black;font-family:sans-serif;font-size:13;text-anchor:middle;" transform="matrix(1 0 0 1 2043.27 322)">Semibold</text>
  <text style="stroke:none;fill:black;font-family:sans-serif;font-size:13;text-anchor:middle;" transform="matrix(1 0 0 1 2339.98 322)">Bold</text>
  <text style="stroke:none;fill:black;font-family:sans-serif;font-size:13;text-anchor:middle;" transform="matrix(1 0 0 1 2636.69 322)">Heavy</text>
  <text style="stroke:none;fill:black;font-family:sans-serif;font-size:13;text-anchor:middle;" transform="matrix(1 0 0 1 2933.4 322)">Black</text>
  <line style="fill:none;stroke:black;opacity:1;stroke-width:0.5;" x1="263" x2="3036" y1="1903" y2="1903"/>
  <g transform="matrix(0.2 0 0 0.2 263 1933)">
   <path d="m46.2402 4.15039c21.5332 0 39.4531-17.8711 39.4531-39.4043s-17.9688-39.4043-39.502-39.4043c-21.4844 0-39.3555 17.8711-39.3555 39.4043s17.9199 39.4043 39.4043 39.4043Zm0-7.42188c-17.7246 0-31.8848-14.209-31.8848-31.9824s14.1113-31.9824 31.8359-31.9824c17.7734 0 32.0312 14.209 32.0312 31.9824s-14.209 31.9824-31.9824 31.9824Zm-17.9688-31.9824c0 2.14844 1.51367 3.61328 3.75977 3.61328h10.498v10.5957c0 2.19727 1.46484 3.71094 3.61328 3.71094 2.24609 0 3.71094-1.51367 3.71094-3.71094v-10.5957h10.5957c2.19727 0 3.71094-1.46484 3.71094-3.61328 0-2.19727-1.51367-3.71094-3.71094-3.71094h-10.5957v-10.5469c0-2.24609-1.46484-3.75977-3.71094-3.75977-2.14844 0-3.61328 1.51367-3.61328 3.75977v10.5469h-10.498c-2.24609 0-3.75977 1.51367-3.75977 3.71094Z"/>
  </g>
  <g transform="matrix(0.2 0 0 0.2 281.506 1933)">
   <path d="m58.5449 14.5508c27.2461 0 49.8047-22.6074 49.8047-49.8047 0-27.2461-22.6074-49.8047-49.8535-49.8047-27.1973 0-49.7559 22.5586-49.7559 49.8047 0 27.1973 22.6074 49.8047 49.8047 49.8047Zm0-8.30078c-23.0469 0-41.4551-18.457-41.4551-41.5039s18.3594-41.5039 41.4062-41.5039 41.5527 18.457 41.5527 41.5039-18.457 41.5039-41.5039 41.5039Zm-22.6562-41.5039c0 2.39258 1.66016 4.00391 4.15039 4.00391h14.3555v14.4043c0 2.44141 1.66016 4.15039 4.05273 4.15039 2.44141 0 4.15039-1.66016 4.15039-4.15039v-14.4043h14.4043c2.44141 0 4.15039-1.61133 4.15039-4.00391 0-2.44141-1.70898-4.15039-4.15039-4.15039h-14.4043v-14.3555c0-2.49023-1.70898-4.19922-4.15039-4.19922-2.39258 0-4.05273 1.70898-4.05273 4.19922v14.3555h-14.3555c-2.49023 0-4.15039 1.70898-4.15039 4.15039Z"/>
  </g>
  <g transform="matrix(0.2 0 0 0.2 304.924 1933)">
   <path d="m74.8535 28.3203c34.8145 0 63.623-28.8086 63.623-63.5742 0-34.8145-28.8574-63.623-63.6719-63.623-34.7656 0-63.5254 28.8086-63.5254 63.623 0 34.7656 28.8086 63.5742 63.5742 63.5742Zm0-9.08203c-30.1758 0-54.4434-24.3164-54.4434-54.4922 0-30.2246 24.2188-54.4922 54.3945-54.4922 30.2246 0 54.541 24.2676 54.541 54.4922 0 30.1758-24.2676 54.4922-54.4922 54.4922Zm-28.8574-54.4922c0 2.58789 1.85547 4.39453 4.58984 4.39453h19.7266v19.7754c0 2.68555 1.85547 4.58984 4.44336 4.58984 2.68555 0 4.54102-1.85547 4.54102-4.58984v-19.7754h19.7754c2.68555 0 4.58984-1.80664 4.58984-4.39453 0-2.73438-1.85547-4.58984-4.58984-4.58984h-19.7754v-19.7266c0-2.73438-1.85547-4.63867-4.54102-4.63867-2.58789 0-4.44336 1.9043-4.44336 4.63867v19.7266h-19.7266c-2.73438 0-4.58984 1.85547-4.58984 4.58984Z"/>
  </g>
  <text style="stroke:none;fill:black;font-family:sans-serif;font-size:13;font-weight:bold;" transform="matrix(1 0 0 1 263 1953)">Design Variations</text>
  <text style="stroke:none;fill:black;font-family:sans-serif;font-size:13;" transform="matrix(1 0 0 1 263 1971)">Symbols are supported in up to nine weights and three scales.</text>
  <text style="stroke:none;fill:black;font-family:sans-serif;font-size:13;" transform="matrix(1 0 0 1 263 1989)">For optimal layout with text and other symbols, vertically align</text>
  <text style="stroke:none;fill:black;font-family:sans-serif;font-size:13;" transform="matrix(1 0 0 1 263 2007)">symbols with the adjacent text.</text>
  <line style="fill:none;stroke:#00AEEF;stroke-width:0.5;opacity:1.0;" x1="776" x2="776" y1="1919" y2="1933"/>
  <g transform="matrix(0.2 0 0 0.2 776 1933)">
   <path d="m16.5527 0.78125c2.58789 0 3.85742-0.976562 4.78516-3.71094l6.29883-17.2363h28.8086l6.29883 17.2363c0.927734 2.73438 2.19727 3.71094 4.73633 3.71094 2.58789 0 4.24805-1.5625 4.24805-4.00391 0-0.830078-0.146484-1.61133-0.537109-2.63672l-22.9004-60.9863c-1.12305-2.97852-3.125-4.49219-6.25-4.49219-3.02734 0-5.07812 1.46484-6.15234 4.44336l-22.9004 61.084c-0.390625 1.02539-0.537109 1.80664-0.537109 2.63672 0 2.44141 1.5625 3.95508 4.10156 3.95508Zm13.4766-28.3691 11.8652-32.8613h0.244141l11.8652 32.8613Z"/>
  </g>
  <line style="fill:none;stroke:#00AEEF;stroke-width:0.5;opacity:1.0;" x1="792.836" x2="792.836" y1="1919" y2="1933"/>
  <text style="stroke:none;fill:black;font-family:sans-serif;font-size:13;font-weight:bold;" transform="matrix(1 0 0 1 776 1953)">Margins</text>
  <text style="stroke:none;fill:black;font-family:sans-serif;font-size:13;" transform="matrix(1 0 0 1 776 1971)">Leading and trailing margins on the left and right side of each symbol</text>
  <text style="stroke:none;fill:black;font-family:sans-serif;font-size:13;" transform="matrix(1 0 0 1 776 1989)">can be adjusted by modifying the x-location of the margin guidelines.</text>
  <text style="stroke:none;fill:black;font-family:sans-serif;font-size:13;" transform="matrix(1 0 0 1 776 2007)">Modifications are automatically applied proportionally to all</text>
  <text style="stroke:none;fill:black;font-family:sans-serif;font-size:13;" transform="matrix(1 0 0 1 776 2025)">scales and weights.</text>
  <g transform="matrix(0.2 0 0 0.2 1289 1933)">
   <path d="m14.209 9.32617 8.49609 8.54492c4.29688 4.3457 9.22852 4.05273 13.8672-1.07422l53.4668-58.9355-4.83398-4.88281-53.0762 58.3984c-1.75781 2.00195-3.41797 2.49023-5.76172 0.146484l-5.85938-5.81055c-2.34375-2.29492-1.80664-4.00391 0.195312-5.81055l57.373-54.0039-4.88281-4.83398-57.959 54.4434c-4.93164 4.58984-5.32227 9.47266-1.02539 13.8184Zm32.0801-90.9668c-2.09961 2.05078-2.24609 4.93164-1.07422 6.88477 1.17188 1.80664 3.4668 2.97852 6.68945 2.14844 7.32422-1.70898 14.9414-2.00195 22.0703 2.68555l-2.92969 7.27539c-1.70898 4.15039-0.830078 7.08008 1.85547 9.81445l11.4746 11.5723c2.44141 2.44141 4.49219 2.53906 7.32422 2.05078l5.32227-0.976562 3.32031 3.36914-0.195312 2.7832c-0.195312 2.49023 0.439453 4.39453 2.88086 6.78711l3.80859 3.71094c2.39258 2.39258 5.46875 2.53906 7.8125 0.195312l14.5508-14.5996c2.34375-2.34375 2.24609-5.32227-0.146484-7.71484l-3.85742-3.80859c-2.39258-2.39258-4.24805-3.17383-6.64062-2.97852l-2.88086 0.244141-3.22266-3.17383 1.2207-5.61523c0.634766-2.83203-0.146484-5.0293-3.07617-7.95898l-10.9863-10.9375c-16.6992-16.6016-38.8672-16.2109-53.3203-1.75781Zm7.4707 1.85547c12.1582-8.88672 28.6133-7.37305 39.7461 3.75977l12.1582 12.0605c1.17188 1.17188 1.36719 2.09961 1.02539 3.80859l-1.61133 7.42188 7.51953 7.42188 4.93164-0.292969c1.26953-0.0488281 1.66016 0.0488281 2.63672 1.02539l2.88086 2.88086-12.207 12.207-2.88086-2.88086c-0.976562-0.976562-1.12305-1.36719-1.07422-2.68555l0.341797-4.88281-7.4707-7.42188-7.61719 1.26953c-1.61133 0.341797-2.34375 0.195312-3.56445-0.976562l-10.0098-10.0098c-1.26953-1.17188-1.41602-2.00195-0.634766-3.85742l4.39453-10.4492c-7.8125-7.27539-17.9688-10.4004-28.125-7.42188-0.78125 0.195312-1.07422-0.439453-0.439453-0.976562Z"/>
  </g>
  <text style="stroke:none;fill:black;font-family:sans-serif;font-size:13;font-weight:bold;" transform="matrix(1 0 0 1 1289 1953)">Exporting</text>
  <text style="stroke:none;fill:black;font-family:sans-serif;font-size:13;" transform="matrix(1 0 0 1 1289 1971)">Symbols should be outlined when exporting to ensure the</text>
  <text style="stroke:none;fill:black;font-family:sans-serif;font-size:13;" transform="matrix(1 0 0 1 1289 1989)">design is preserved when submitting to Xcode.</text>
  <text id="template-version" style="stroke:none;fill:black;font-family:sans-serif;font-size:13;text-anchor:end;" transform="matrix(1 0 0 1 3036 1933)">Template v.4.0</text>
  <text style="stroke:none;fill:black;font-family:sans-serif;font-size:13;text-anchor:end;" transform="matrix(1 0 0 1 3036 1951)">Requires Xcode 14 or greater</text>
  <text id="descriptive-name" style="stroke:none;fill:black;font-family:sans-serif;font-size:13;text-anchor:end;" transform="matrix(1 0 0 1 3036 1969)">Generated from custom.figure.walk</text>
  <text style="stroke:none;fill:black;font-family:sans-serif;font-size:13;text-anchor:end;" transform="matrix(1 0 0 1 3036 1987)">Typeset at 100.0 points</text>
  <text style="stroke:none;fill:black;font-family:sans-serif;font-size:13;" transform="matrix(1 0 0 1 263 726)">Small</text>
  <text style="stroke:none;fill:black;font-family:sans-serif;font-size:13;" transform="matrix(1 0 0 1 263 1156)">Medium</text>
  <text style="stroke:none;fill:black;font-family:sans-serif;font-size:13;" transform="matrix(1 0 0 1 263 1586)">Large</text>
 </g>
 <g id="Guides">
  <g id="H-reference" style="fill:#27AAE1;stroke:none;" transform="matrix(1 0 0 1 339 696)">
   <path d="M0.993654 0L3.63775 0L29.3281-67.1323L30.0303-67.1323L30.0303-70.459L28.1226-70.459ZM11.6885-24.4799L46.9815-24.4799L46.2315-26.7285L12.4385-26.7285ZM55.1196 0L57.7637 0L30.6382-70.459L29.4326-70.459L29.4326-67.1323Z"/>
  </g>
  <line id="Baseline-S" style="fill:none;stroke:#27AAE1;opacity:1;stroke-width:0.5;" x1="263" x2="3036" y1="696" y2="696"/>
  <line id="Capline-S" style="fill:none;stroke:#27AAE1;opacity:1;stroke-width:0.5;" x1="263" x2="3036" y1="625.541" y2="625.541"/>
  <g id="H-reference" style="fill:#27AAE1;stroke:none;" transform="matrix(1 0 0 1 339 1126)">
   <path d="M0.993654 0L3.63775 0L29.3281-67.1323L30.0303-67.1323L30.0303-70.459L28.1226-70.459ZM11.6885-24.4799L46.9815-24.4799L46.2315-26.7285L12.4385-26.7285ZM55.1196 0L57.7637 0L30.6382-70.459L29.4326-70.459L29.4326-67.1323Z"/>
  </g>
  <line id="Baseline-M" style="fill:none;stroke:#27AAE1;opacity:1;stroke-width:0.5;" x1="263" x2="3036" y1="1126" y2="1126"/>
  <line id="Capline-M" style="fill:none;stroke:#27AAE1;opacity:1;stroke-width:0.5;" x1="263" x2="3036" y1="1055.54" y2="1055.54"/>
  <g id="H-reference" style="fill:#27AAE1;stroke:none;" transform="matrix(1 0 0 1 339 1556)">
   <path d="M0.993654 0L3.63775 0L29.3281-67.1323L30.0303-67.1323L30.0303-70.459L28.1226-70.459ZM11.6885-24.4799L46.9815-24.4799L46.2315-26.7285L12.4385-26.7285ZM55.1196 0L57.7637 0L30.6382-70.459L29.4326-70.459L29.4326-67.1323Z"/>
  </g>
  <line id="Baseline-L" style="fill:none;stroke:#27AAE1;opacity:1;stroke-width:0.5;" x1="263" x2="3036" y1="1556" y2="1556"/>
  <line id="Capline-L" style="fill:none;stroke:#27AAE1;opacity:1;stroke-width:0.5;" x1="263" x2="3036" y1="1485.54" y2="1485.54"/>
  <line id="left-margin-Ultralight-S" style="fill:none;stroke:#00AEEF;stroke-width:0.5;opacity:1.0;" x1="506.814" x2="506.814" y1="600.785" y2="720.121"/>
  <line id="right-margin-Ultralight-S" style="fill:none;stroke:#00AEEF;stroke-width:0.5;opacity:1.0;" x1="612.609" x2="612.609" y1="600.785" y2="720.121"/>
  <line id="left-margin-Regular-S" style="fill:none;stroke:#00AEEF;stroke-width:0.5;opacity:1.0;" x1="1394.13" x2="1394.13" y1="600.785" y2="720.121"/>
  <line id="right-margin-Regular-S" style="fill:none;stroke:#00AEEF;stroke-width:0.5;opacity:1.0;" x1="1505.56" x2="1505.56" y1="600.785" y2="720.121"/>
  <line id="left-margin-Black-S" style="fill:none;stroke:#00AEEF;stroke-width:0.5;opacity:1.0;" x1="2871.17" x2="2871.17" y1="600.785" y2="720.121"/>
  <line id="right-margin-Black-S" style="fill:none;stroke:#00AEEF;stroke-width:0.5;opacity:1.0;" x1="2995.63" x2="2995.63" y1="600.785" y2="720.121"/>
 </g>
 <g id="Symbols">
  <g id="Black-S" transform="matrix(1 0 0 1 2871.17 696)">
   <path class="SFSymbolsPreviewNone" d="M61.9325-27.9226L59.644-20.3706L67.8371-11.5161C68.7587-10.2781 71.4687-9.4102 73.1758-10.9896C74.883-12.569 74.2431-14.608 73.1555-15.7923L61.9325-27.9226Z"/>
   <path class="monochrome-0 multicolor-0:white hierarchical-0:primary SFSymbolsPreviewFFFFFF" d="M70.9589 1.03445C70.9601 1.82356 70.6211 2.57446 70.0277 3.09616C70.0265 3.09616 70.0253 3.09735 70.0242 3.09855C69.8869 3.21315 69.7878 3.36715 69.7424 3.54145C69.352 4.99432 69.1992 5.98876 69.1777 6.72295L69.1646 7.64935C69.161 7.99675 69.2315 8.34056 69.3735 8.65692C70.1077 10.3271 71.3254 9.67405 72.5168 9.14281C72.746 9.04253 72.9836 8.96612 73.2283 8.91359C74.2013 8.71065 75.1886 8.75601 76.1926 9.07356C76.1926 9.07356 76.1926 9.07356 76.1926 9.07356C77.2849 9.41261 78.2089 9.55467 79.1031 9.66092C79.4242 9.69912 79.7489 9.68838 80.0677 9.62988C81.2866 9.40306 81.5337 8.74169 81.4609 7.93825C81.4406 7.66606 81.2412 7.43924 80.9738 7.38552C78.419 6.85666 76.3728 5.40857 73.4981 2.12917C73.4981 2.12917 73.4981 2.12917 73.4981 2.12917C73.3764 1.99069 73.3095 1.81281 73.3095 1.63016C73.3047 0.438736 73.294-3.32773 73.294-3.32773L74.0377-3.33012L74.0222-6.97482C72.8774-6.17497 71.6179-5.78579 70.2223-5.88368L70.2259-3.31938L70.9589-3.32177C70.9589-3.32177 70.9589-0.525862 70.9589 1.03445Z"/>
   <path class="monochrome-1 multicolor-1:tintColor hierarchical-1:primary SFSymbolsPreview007AFF" d="M58.6889-17.7645L49.4405-27.6062C47.805-29.3468 47.1197-31.7762 47.6068-34.1161L50.577-48.3917L48.9319-47.55C48.0724-47.1107 47.4277-46.3419 47.1448-45.4179C45.8758-41.2694 42.3099-29.6166 42.3099-29.6166C41.5601-27.1693 38.9648-25.7893 36.5163-26.539C34.069-27.2875 32.6889-29.884 33.4387-32.3313L39.4232-51.8895C39.7062-52.8124 40.3508-53.5824 41.2104-54.0217C41.2104-54.0217 52.2841-59.6863 55.8859-61.5284C56.9018-62.0489 58.0264-62.3199 59.1676-62.3199L59.1676-62.3199C61.2962-62.3199 63.2075-61.3863 64.5099-59.9024L64.5362-59.8725C65.6393-58.6226 66.3042-56.9799 66.3042-55.1833L65.8028-52.5688C64.6102-46.7299 63.8199-41.1691 63.5513-35.8937L63.5442-35.7707C63.4701-34.4933 63.4355-33.2339 63.4319-31.9911C63.4331-31.6318 63.463-31.276 63.5262-30.9274L63.8187-29.7085C63.8187-29.7085 63.9107-29.5534 64.0384-29.3409C64.5219-28.5267 65.0901-27.7662 65.7336-27.0714C68.2239-24.3794 74.6657-17.4171 74.6657-17.4171C76.8193-15.0892 76.6773-11.4516 74.3505-9.29798C72.0226-7.14434 68.3839-7.28521 66.2302-9.61314L58.6889-17.7645ZM39.2203 3.81841L48.8197-23.5545L57.6396-14.201L49.9956 7.59682C48.9522 10.5694 45.6919 12.1369 42.7193 11.0947C39.7456 10.0525 38.1781 6.791 39.2203 3.81841ZM77.3565-73.1C77.3565-67.9021 73.1424-63.6892 67.9457-63.6892C62.7479-63.6892 58.5349-67.9021 58.5349-73.1C58.5349-78.2978 62.7479-82.5108 67.9457-82.5108C73.1424-82.5108 77.3565-78.2978 77.3565-73.1ZM68.9103-49.6559L84.72-37.8969C86.7733-36.3688 87.2007-33.4607 85.6726-31.4061C84.1445-29.3528 81.2364-28.9254 79.1831-30.4535L67.2271-39.3462C67.4216-43.1186 67.9887-46.5496 68.9103-49.6559Z"/>
  </g>
  <g id="Regular-S" transform="matrix(1 0 0 1 1394.13 696)">
   <path class="SFSymbolsPreviewNone" d="M56.1022-28.5065L53.9923-21.5441L61.5458-13.3808C62.3955-12.2395 64.8938-11.4394 66.4677-12.8955C68.0416-14.3516 67.4517-16.2314 66.449-17.3232L56.1022-28.5065Z"/>
   <path class="monochrome-0 multicolor-0:white hierarchical-0:primary SFSymbolsPreviewFFFFFF" d="M64.4239-1.81012C64.425-1.08262 64.1124-0.390338 63.5654 0.0906287C63.5643 0.0906287 63.5632 0.0917294 63.5621 0.09283C63.4355 0.198489 63.3442 0.340467 63.3024 0.501156C62.9425 1.8406 62.8016 2.75741 62.7818 3.43428L62.7697 4.28836C62.7664 4.60863 62.8313 4.92561 62.9623 5.21727C63.6392 6.75702 64.7618 6.15499 65.8602 5.66522C66.0715 5.57277 66.2905 5.50233 66.5161 5.4539C67.4131 5.2668 68.3233 5.30862 69.249 5.60138C69.249 5.60138 69.249 5.60138 69.249 5.60138C70.256 5.91396 71.1079 6.04493 71.9322 6.14288C72.2283 6.1781 72.5277 6.1682 72.8215 6.11427C73.9453 5.90515 74.1731 5.29541 74.106 4.5547C74.0872 4.30376 73.9034 4.09465 73.6569 4.04512C71.3016 3.55755 69.4152 2.22251 66.7649-0.800865C66.7649-0.800865 66.7649-0.800865 66.7649-0.800865C66.6526-0.928536 66.591-1.09253 66.591-1.26092C66.5866-2.35933 66.5767-5.83175 66.5767-5.83175L67.2624-5.83395L67.2481-9.19412C66.1926-8.45671 65.0314-8.09791 63.7448-8.18816L63.7481-5.82405L64.4239-5.82625C64.4239-5.82625 64.4239-3.24862 64.4239-1.81012Z"/>
   <path class="monochrome-1 multicolor-1:tintColor hierarchical-1:primary SFSymbolsPreview007AFF" d="M53.1118-19.1414L44.5854-28.2149C43.0776-29.8195 42.4458-32.0593 42.8949-34.2165L45.6332-47.3776L44.1165-46.6016C43.3241-46.1966 42.7298-45.4878 42.4689-44.636C41.299-40.8113 38.0114-30.0683 38.0114-30.0683C37.3203-27.812 34.9275-26.5397 32.6702-27.2309C30.4139-27.921 29.1416-30.3148 29.8328-32.5711L35.3502-50.6024C35.611-51.4531 36.2053-52.163 36.9978-52.5681C36.9978-52.5681 47.207-57.7905 50.5276-59.4887C51.4642-59.9686 52.501-60.2184 53.5532-60.2184L53.5532-60.2184C55.5155-60.2184 57.2776-59.3577 58.4784-57.9897L58.5026-57.9621C59.5196-56.8098 60.1326-55.2954 60.1326-53.639L59.6704-51.2286C58.5708-45.8455 57.8422-40.7189 57.5946-35.8553L57.588-35.7419C57.5198-34.5643 57.4878-33.4031 57.4845-32.2574C57.4856-31.9261 57.5132-31.5981 57.5715-31.2768L57.8411-30.153C57.8411-30.153 57.9259-30.01 58.0437-29.814C58.4894-29.0634 59.0133-28.3623 59.6065-27.7218C61.9024-25.2399 67.8413-18.8212 67.8413-18.8212C69.8268-16.675 69.6958-13.3214 67.5507-11.3359C65.4045-9.3504 62.0499-9.48028 60.0644-11.6265L53.1118-19.1414ZM35.1631 0.756498L44.0131-24.4794L52.1444-15.8561L45.0972 4.23993C44.1352 6.98045 41.1295 8.42555 38.389 7.46472C35.6473 6.50388 34.2022 3.49702 35.1631 0.756498ZM70.3221-70.1569C70.3221-65.3648 66.4369-61.4808 61.6459-61.4808C56.8539-61.4808 52.9698-65.3648 52.9698-70.1569C52.9698-74.949 56.8539-78.833 61.6459-78.833C66.4369-78.833 70.3221-74.949 70.3221-70.1569ZM62.5352-48.5431L77.1106-37.7021C79.0037-36.2933 79.3977-33.6123 77.9889-31.7181C76.5801-29.8251 73.899-29.431 72.006-30.8398L60.9834-39.0383C61.1628-42.5162 61.6856-45.6793 62.5352-48.5431Z"/>
  </g>
  <g id="Ultralight-S" transform="matrix(1 0 0 1 506.814 696)">
   <path class="SFSymbolsPreviewNone" d="M52.1256-29.149L50.2086-22.823L57.0716-15.406C57.8436-14.369 60.1136-13.642 61.5436-14.965C62.9736-16.288 62.4376-17.996 61.5266-18.988L52.1256-29.149Z"/>
   <path class="monochrome-0 multicolor-0:white hierarchical-0:primary SFSymbolsPreviewFFFFFF" d="M59.6866-4.893C59.6876-4.232 59.4036-3.603 58.9066-3.166C58.9056-3.166 58.9046-3.165 58.9036-3.164C58.7886-3.068 58.7056-2.939 58.6676-2.793C58.3406-1.576 58.2126-0.743 58.1946-0.128L58.1836 0.648C58.1806 0.939 58.2396 1.227 58.3586 1.492C58.9736 2.891 59.9936 2.344 60.9916 1.899C61.1836 1.815 61.3826 1.751 61.5876 1.707C62.4026 1.537 63.2296 1.575 64.0706 1.841C64.0706 1.841 64.0706 1.841 64.0706 1.841C64.9856 2.125 65.7596 2.244 66.5086 2.333C66.7776 2.365 67.0496 2.356 67.3166 2.307C68.3376 2.117 68.5446 1.563 68.4836 0.89C68.4666 0.662 68.2996 0.472 68.0756 0.427C65.9356-0.016 64.2216-1.229 61.8136-3.976C61.8136-3.976 61.8136-3.976 61.8136-3.976C61.7116-4.092 61.6556-4.241 61.6556-4.394C61.6516-5.392 61.6426-8.547 61.6426-8.547L62.2656-8.549L62.2526-11.602C61.2936-10.932 60.2386-10.606 59.0696-10.688L59.0726-8.54L59.6866-8.542C59.6866-8.542 59.6866-6.2 59.6866-4.893Z"/>
   <path class="monochrome-1 multicolor-1:tintColor hierarchical-1:primary SFSymbolsPreview007AFF" d="M49.4086-20.64L41.6616-28.884C40.2916-30.342 39.7176-32.377 40.1256-34.337L42.6136-46.295L41.2356-45.59C40.5156-45.222 39.9756-44.578 39.7386-43.804C38.6756-40.329 35.6886-30.568 35.6886-30.568C35.0606-28.518 32.8866-27.362 30.8356-27.99C28.7856-28.617 27.6296-30.792 28.2576-32.842L33.2706-49.225C33.5076-49.998 34.0476-50.643 34.7676-51.011C34.7676-51.011 44.0436-55.756 47.0606-57.299C47.9116-57.735 48.8536-57.962 49.8096-57.962L49.8096-57.962C51.5926-57.962 53.1936-57.18 54.2846-55.937L54.3066-55.912C55.2306-54.865 55.7876-53.489 55.7876-51.984L55.3676-49.794C54.3686-44.903 53.7066-40.245 53.4816-35.826L53.4756-35.723C53.4136-34.653 53.3846-33.598 53.3816-32.557C53.3826-32.256 53.4076-31.958 53.4606-31.666L53.7056-30.645C53.7056-30.645 53.7826-30.515 53.8896-30.337C54.2946-29.655 54.7706-29.018 55.3096-28.436C57.3956-26.181 62.7916-20.349 62.7916-20.349C64.5956-18.399 64.4766-15.352 62.5276-13.548C60.5776-11.744 57.5296-11.862 55.7256-13.812L49.4086-20.64ZM33.1006-2.561L41.1416-25.49L48.5296-17.655L42.1266 0.604C41.2526 3.094 38.5216 4.407 36.0316 3.534C33.5406 2.661 32.2276-0.071 33.1006-2.561ZM65.0456-66.992C65.0456-62.638 61.5156-59.109 57.1626-59.109C52.8086-59.109 49.2796-62.638 49.2796-66.992C49.2796-71.346 52.8086-74.875 57.1626-74.875C61.5156-74.875 65.0456-71.346 65.0456-66.992ZM57.9706-47.354L71.2136-37.504C72.9336-36.224 73.2916-33.788 72.0116-32.067C70.7316-30.347 68.2956-29.989 66.5756-31.269L56.5606-38.718C56.7236-41.878 57.1986-44.752 57.9706-47.354Z"/>
  </g>
 </g>
</svg>
